<?xml version="1.0" encoding="UTF-8" standalone="no"?>
<svg
   width="256.005"
   height="256.005"
   viewBox="0 0 256.005 256.005"
   fill="none"
   version="1.1"
   id="svg882"
   xml:space="preserve"
   xmlns="http://www.w3.org/2000/svg"
   xmlns:svg="http://www.w3.org/2000/svg"><defs
     id="defs886" /><path
     id="connector"
     d="m 38.2325,225.2625 c 14.54,11.05 35.37,12.85 54.95,9.87 21.8,-3.31 43.49,-12.74 55.96,-24.08 4.5,-4.1 3.86,-10.7 0.06,-14.5 l -17.9,-17.89 c 0.47,-0.25 0.91,-0.56 1.31,-0.96 l 28.38,-28.38 c 2.06,-2.06 2.06,-5.42 0,-7.48 -2.07,-2.07 -5.42,-2.07 -7.49,0 l -28.38,28.37 c -0.39,0.4 -0.71,0.84 -0.96,1.31 l -28.2,-28.2 -0.03,0.03 -10.81,-10.8 29.55,-29.55 c 2.06,-2.06 2.06,-5.42 0,-7.48 -2.07,-2.07 -5.42,-2.07 -7.49,0 l -29.54,29.54 -18.39,-18.38 c -3.8,-3.81 -10.4,-4.45 -14.49,0.05 -11.34,12.47 -20.78,34.16 -24.09,55.96 -2.99,19.66 -1.16,40.59 10.02,55.14 l -29.14,29.13 c -2.07,2.07 -2.07,5.42 0,7.49 2.07,2.07 5.42,2.07 7.49,0 z m 105.43,-20.23 c -10.99,9.99 -31.05,18.92 -51.7,22.06 -20.76,3.16 -40.69,0.28 -52.44,-11.48 l -0.03,0.02 c -11.17,-11.84 -13.87,-31.37 -10.78,-51.72 3.14,-20.65 12.07,-40.71 22.06,-51.7 0.31,-0.34 0.7,-0.5 1.17,-0.49 0.5,0.02 1.08,0.23 1.56,0.71 l 53.23,53.23 0.03,-0.03 36.68,36.68 c 0.48,0.47 0.7,1.06 0.71,1.56 0.01,0.47 -0.15,0.85 -0.49,1.16 z m 110.79,-203.48 c -2.07,-2.07 -5.42,-2.07 -7.49,0 l -29.95,29.96 c -14.55,-11.18 -35.48,-13.01 -55.14,-10.02 -21.8,3.32 -43.49,12.75 -55.96,24.09 -4.5,4.09 -3.86,10.69 -0.06,14.49 l 53.24,53.24 0.03,-0.04 36.68,36.68 c 3.8,3.8 10.4,4.45 14.49,-0.06 11.34,-12.47 20.77,-34.15 24.09,-55.95 2.98,-19.58 1.18,-40.42 -9.87,-54.96 l 29.94,-29.94 c 2.07,-2.07 2.07,-5.42 0,-7.49 z m -143.06,50.05 c 10.99,-10 31.05,-18.92 51.7,-22.07 20.76,-3.15 40.69,-0.27 52.44,11.48 l 0.03,-0.02 c 11.17,11.84 13.87,31.38 10.78,51.72 -3.15,20.66 -12.07,40.72 -22.07,51.7 -0.3,0.34 -0.69,0.5 -1.16,0.49 -0.5,-0.01 -1.08,-0.23 -1.56,-0.71 l -53.23,-53.23 -0.04,0.03 -36.67,-36.67 c -0.48,-0.48 -0.7,-1.06 -0.71,-1.56 -0.01,-0.47 0.15,-0.86 0.49,-1.16 z"
     style="fill:#f88600;fill-opacity:1;fill-rule:evenodd" /></svg>
