<?xml version="1.0" encoding="UTF-8" standalone="no"?>
<svg
   width="273.13135"
   height="176.31073"
   viewBox="0 0 273.13135 176.31073"
   fill="none"
   version="1.1"
   id="svg882"
   xml:space="preserve"
   xmlns="http://www.w3.org/2000/svg"
   xmlns:svg="http://www.w3.org/2000/svg"><defs
     id="defs886" /><path
     style="fill:#f88600;fill-opacity:1;stroke-width:1.03546"
     d="m 17.515603,174.46833 c -1.4641,-1.5189 -1.7686,-4.1953 -1.7686,-15.5429 v -13.708 l -3.9082,-4.7744 c -17.7991003,-21.7447 -15.2818003,-51.965198 5.8907,-70.717698 8.2198,-7.2803 15.3898,-10.987 25.9731,-13.4273 l 7.1175,-1.6412 2.2047,-5.6472 c 6.7491,-17.2865 21.9105,-32.9169 40.3701,-41.6187996 13.646297,-6.43279995 33.523797,-9.0096 49.059197,-6.3597 17.2076,2.9351 30.0051,9.3785996 43.2244,21.7631996 12.0758,11.3133 18.6969,22.91 21.7652,38.1211 l 1.3143,6.5163 11.1588,-0.3156 c 8.8084,-0.2491 12.565,0.099 17.8356,1.6553 23.4805,6.9311 38.7829,29.8965 34.7286,52.119398 -1.6207,8.8832 -7.5373,19.8107 -14.132,26.101 -6.1732,5.888 -17.937,11.7481 -26.6179,13.2594 -3.3456,0.5824 -28.294,1.0021 -59.5759,1.0021 h -53.8199 v 5.8644 c 0,9.7987 3.4372,9.1854 -51.479897,9.1854 -44.7291,0 -47.6769,-0.1096 -49.3398,-1.8348 z m 92.270597,-31.7766 v -25.5848 h -42.745097 -42.7451 v 25.5848 25.5848 h 42.7451 42.745097 z m -45.340297,13.975 c -1.0952,-1.0284 -1.6782,-3.3838 -1.6763,-6.7725 0,-3.3938 -0.7962,-6.6124 -2.3011,-9.2803 -2.6996,-4.7858 -2.1783,-8.3587 1.7587,-12.0552 5.167,-4.8513 13.883,-1.6144 15.0917,5.6048 0.4554,2.7203 -0.034,4.3695 -2.1734,7.3187 -2.1046,2.9017 -2.7612,5.0609 -2.7612,9.08 0,2.9002 -0.5771,5.8149 -1.2824,6.4771 -1.7748,1.6664 -4.656,1.5051 -6.656,-0.3726 z m 175.970197,-7.2496 c 9.1162,-4.2147 16.311,-10.9779 20.4936,-19.264 3.0007,-5.9447 3.292,-7.4161 3.2791,-16.5578 -0.013,-8.7499 -0.3787,-10.7671 -2.864,-15.770398 -8.0043,-16.1139 -28.0114,-26.1919 -45.8227,-23.0819 -10.9458,1.9112 -13.1018,0.2265 -16.035,-12.5296 -3.222,-14.0123 -9.1823,-24.2062 -20.1357,-34.4382 -6.9222,-6.4663 -11.146,-9.4748 -17.2444,-12.2825 -22.0376,-10.1461996 -44.941,-10.3302996 -66.124197,-0.5317 -16.1587,7.4745 -31.6254,24.3033 -36.4619,39.6728 -1.7919,5.6942 -3.8196,7.1789 -11.9991,8.7857 -9.2535,1.8178 -16.9984,5.6501 -24.0217,11.8865 -9.985,8.8663 -15.2135003,20.1234 -15.2135003,32.754698 0,7.0942 2.9442003,18.0439 5.8086003,21.6021 1.4633,1.8178 1.6068,1.1641 1.6378,-7.4602 0.046,-12.7165 0.4608,-13.1222 13.4202,-13.1222 h 9.8491 l 0.5066,-10.785798 c 0.5815,-12.3817 2.2057,-16.9241 8.102,-22.6598 11.705,-11.3865 28.4008,-11.4956 40.2905,-0.2634 6.6915,6.3214 8.0127,10.2031 8.0127,23.5413 v 10.167698 h 9.266297 c 13.7534,0 13.1749,-1.0436 13.1749,23.7668 v 20.446 l 57.463,-0.2841 57.4632,-0.2841 z M 88.407703,100.80293 c -0.01,-9.906898 -1.2719,-14.689498 -4.9783,-18.825198 -8.9018,-9.9326 -24.5579,-9.0462 -32.503,1.8404 -2.235,3.0624 -2.615,4.9092 -2.9606,14.3878 l -0.3964,10.874498 h 20.4221 20.4222 l -0.01,-8.2775 z"
     id="private-cloud" /></svg>
