<?xml version="1.0" encoding="UTF-8" standalone="no"?>
<svg
   width="256"
   height="250"
   viewBox="0 0 256 250"
   fill="none"
   version="1.1"
   id="svg882"
   xml:space="preserve"
   xmlns="http://www.w3.org/2000/svg"
   xmlns:svg="http://www.w3.org/2000/svg"><defs
     id="defs886" /><path
     id="object-storage"
     d="M 0,5 C 0,2.24 2.24,0 5,0 h 69.6 c 2.76,0 5,2.24 5,5 v 2.83 h 113.18 c 6.35,-4.6 14.1,-7.37 22.49,-7.54 0.12,-0.01 0.24,-0.01 0.36,-0.01 0.05,0 0.1,0 0.15,0 0.11,0 0.23,0 0.34,0 22.03,0 39.88,17.88 39.88,39.93 0,20.71 -15.75,37.74 -35.91,39.74 l -46.24,46.3 v 13.58 c 34.52,5.25 58.41,16.1 59.03,28.69 H 233 v 54.97 C 224.87,238.52 180.61,250 127.22,250 72.76,250 27.8,238.05 21,222.58 v -54.06 c 0,-0.29 0.03,-0.57 0.09,-0.84 1.6,-12.13 24.8,-22.55 58.11,-27.72 V 122.69 L 36.43,79.86 36.59,79.71 H 5 c -2.76,0 -5,-2.24 -5,-5 z M 8,71.71 V 8 h 63.6 v 63.71 z m 21,134.13 v 14.64 c 0.69,0.95 1.92,2.2 4.09,3.7 4.43,3.08 11.36,6.18 20.65,8.91 18.46,5.43 44.45,8.9 73.48,8.9 29.04,0 55.02,-3.47 73.49,-8.9 9.28,-2.73 16.22,-5.83 20.65,-8.91 1.76,-1.22 2.9,-2.28 3.64,-3.14 v -15.05 c -16.69,11.01 -54.24,18.69 -97.89,18.69 -43.84,0 -81.54,-7.75 -98.11,-18.84 z m 196,-10.25 c -0.73,0.8801 -1.9,1.98 -3.76,3.27 -4.42,3.08 -11.36,6.17 -20.64,8.9 -18.47,5.43 -44.45,8.9001 -73.49,8.9001 -29.03,0 -55.02,-3.47 -73.48,-8.9001 -9.29,-2.73 -16.22,-5.82 -20.65,-8.9 -2.06,-1.4299 -3.27,-2.63 -3.98,-3.55 v -13.86 c 15.9,11.81 53.76,20.11 97.94,20.11 44.29,0 82.23,-8.34 98.06,-20.19 z M 29,169.02 v 0 0 c 0,0.71 0.49,2.9 5.03,6.2 4.36,3.16 11.19,6.35 20.35,9.17 18.22,5.59 43.88,9.17 72.56,9.17 28.69,0 54.35,-3.58 72.57,-9.17 9.16,-2.82 15.99,-6.01 20.35,-9.17 4.54,-3.3 5.03,-5.5 5.03,-6.2 0,-0.7 -0.49,-2.9 -5.03,-6.19 -4.36,-3.17 -11.19,-6.36 -20.35,-9.17 -7.42,-2.28 -16.07,-4.23 -25.66,-5.73 v 11.23 c 0,4.97 -4.03,9 -9,9 H 88.2 c -4.97,0 -9,-4.03 -9,-9 v -11.1 c -9.25,1.49 -17.62,3.38 -24.82,5.6 -9.16,2.81 -15.99,6 -20.35,9.17 -4.54,3.29 -5.03,5.48 -5.03,6.19 z m 50.07,-57.78 c 0,-0.22 0,-0.45 0,-0.67 0.03,-1.79 0.26,-4.05 1.35,-6.24 1.88,-3.77 5.56,-6.05 11.15,-6.9 V 61.2 c 0,-2.76 2.24,-5 5,-5 h 62.86 c 2.76,0 5,2.24 5,5 v 46.21 h 0.42 c 4.5,0 8.23,3.31 8.89,7.62 l 35.45,-35.49 c -18.72,-3.29 -32.94,-19.65 -32.94,-39.33 0,-9.18 3.09,-17.63 8.29,-24.38 H 79.6 v 58.88 c 0,2.7601 -2.24,5 -5,5 H 47.58 Z M 111.65,97.06 H 99.57 V 64.2 h 56.86 v 43.21 h -30.3 c -0.26,0 -0.52,-0.1 -0.7,-0.29 l -7.41,-7.42 c -1.69,-1.69 -3.98,-2.64 -6.37,-2.64 z m 84.29,-81.23 h -0.41 c -2.38,2.02 -4.46,4.38 -6.16,7.01 h 11.18 c 0.96,-4.6999 2.29,-8.9 3.9,-12.35 -3.1,1.22 -5.97,2.9201 -8.51,5 z m 51.62,29.69 c 0.29,-1.73 0.44,-3.5 0.44,-5.31 0,-3.26 -0.49,-6.41 -1.39,-9.37 h -14.7 c 0.3,3.0101 0.46,6.14 0.46,9.37 0,1.8 -0.05,3.57 -0.15,5.31 z m -2.45,8 h -13.69 c -0.98,6.58 -2.66,12.37 -4.82,16.86 8.22,-2.87 14.91,-9 18.51,-16.86 z m -20.9,-8 c 0.1,-1.72 0.16,-3.49 0.16,-5.31 0,-3.28 -0.18,-6.42 -0.51,-9.37 H 207.4 c -0.33,2.95 -0.51,6.0901 -0.51,9.37 0,1.82 0.06,3.59 0.16,5.31 z m -0.89,8 c -0.76,4.6 -1.89,8.62 -3.23,11.83 -1.27,3.03 -2.58,4.97 -3.63,6.02 -0.38,0.39 -0.66,0.59 -0.83,0.7 -0.17,-0.11 -0.45,-0.31 -0.83,-0.7 -1.05,-1.05 -2.36,-2.99 -3.63,-6.02 -1.34,-3.21 -2.47,-7.23 -3.23,-11.83 z m -24.28,-8 c -0.1,-1.74 -0.15,-3.51 -0.15,-5.31 0,-3.23 0.16,-6.36 0.47,-9.37 h -13.72 c -0.91,2.96 -1.39,6.1101 -1.39,9.37 0,1.81 0.15,3.58 0.43,5.31 z m -11.9,8 h 12.7 c 0.95,6.37 2.55,11.99 4.61,16.41 -7.67,-3.02 -13.89,-8.94 -17.31,-16.41 z M 226.6,10.04 c 6.74,2.35 12.45,6.9 16.28,12.8 h -12.17 c -1,-4.9099 -2.4,-9.26 -4.11,-12.8 z m -6.51,5.03 c 0.93,2.22 1.76,4.8401 2.43,7.77 h -13.78 c 0.67,-2.9299 1.5,-5.55 2.43,-7.77 1.27,-3.03 2.58,-4.9699 3.63,-6.02 0.38,-0.3899 0.66,-0.59 0.83,-0.6999 0.17,0.11 0.45,0.31 0.83,0.6999 1.05,1.0501 2.36,2.99 3.63,6.02 z M 87.2,114.86 c 0,-0.65 -0.04,-1.35 -0.07,-1.96 l -0.01,-0.2399 c -0.03,-0.71 -0.06,-1.35 -0.05,-1.97 0.02,-1.27 0.19,-2.15 0.51,-2.79 0.4,-0.8 1.84,-2.84 9.4,-2.84 h 14.67 c 0.27,0 0.52,0.11 0.71,0.29 l 7.41,7.42 c 1.68,1.69 3.98,2.64 6.36,2.64 h 38.72 c 0.55,0 1,0.4499 1,1 V 122.15 H 87.2 Z m 0,15.29 h 78.65 v 29.0101 c 0,0.55 -0.45,1 -1,1 H 88.2 c -0.55,0 -1,-0.45 -1,-1 z m 39.88,-41.53 c -2.21,0 -4,1.8 -4,4 0,2.21 1.79,4 4,4 h 16.61 c 2.21,0 4,-1.79 4,-4 0,-2.2 -1.79,-4 -4,-4 z M 111.32,71.86 c -2.21,0 -4,1.79 -4,4 0,2.21 1.79,4 4,4 h 31.39 c 2.21,0 4,-1.79 4,-4 0,-2.21 -1.79,-4 -4,-4 z M 63.67,34.92 c 3.33,1.93 3.33,6.73 0,8.66 L 30.72,62.63 c -3.33,1.93 -7.5,-0.48 -7.5,-4.33 V 20.2 c 0,-3.85 4.17,-6.26 7.5,-4.33 z M 31.22,25.4 55.17,39.25 31.22,53.1 Z"
     style="fill:#f88600;fill-opacity:1;fill-rule:evenodd" /></svg>
