<?xml version="1.0" encoding="UTF-8" standalone="no"?>
<svg
   width="200"
   height="256"
   viewBox="0 0 200 256"
   fill="none"
   version="1.1"
   id="svg882"
   sodipodi:docname="trino-icons-000033.svg"
   inkscape:version="1.2.2 (b0a8486, 2022-12-01)"
   xml:space="preserve"
   xmlns:inkscape="http://www.inkscape.org/namespaces/inkscape"
   xmlns:sodipodi="http://sodipodi.sourceforge.net/DTD/sodipodi-0.dtd"
   xmlns="http://www.w3.org/2000/svg"
   xmlns:svg="http://www.w3.org/2000/svg"><defs
     id="defs886" /><sodipodi:namedview
     id="namedview884"
     pagecolor="#ffffff"
     bordercolor="#666666"
     borderopacity="1.0"
     inkscape:showpageshadow="2"
     inkscape:pageopacity="0.0"
     inkscape:pagecheckerboard="0"
     inkscape:deskcolor="#d1d1d1"
     showgrid="false"
     inkscape:zoom="0.18522237"
     inkscape:cx="1916.6151"
     inkscape:cy="2386.3208"
     inkscape:window-width="1920"
     inkscape:window-height="1052"
     inkscape:window-x="1080"
     inkscape:window-y="281"
     inkscape:window-maximized="0"
     inkscape:current-layer="svg882"
     showguides="true" /><path
     fill-rule="evenodd"
     clip-rule="evenodd"
     d="M 115.57,0 H 5 C 2.24,0 0,2.24 0,5 v 246 c 0,2.76 2.24,5 5,5 h 170.98 c 2.76,0 5,-2.24 5,-5 V 221.15 H 195 c 2.76,0 5,-2.24 5,-5 v -117 c 0,-2.76 -2.24,-5 -5,-5 h -14.02 v -32 z m 57.41,94.15 v -28 h -52.41 c -4.97,0 -9,-4.03 -9,-9 V 8 H 8 V 248 H 172.98 V 221.15 H 41.14 c -2.76,0 -5,-2.24 -5,-5 v -117 c 0,-2.76 2.24,-5 5,-5 z m -7.82,-36 -45.59,-43.31 v 42.31 c 0,0.55 0.45,1 1,1 z m -121.02,114 v -30 H 87.1 v 30 z m 0,8 v 33 H 87.1 v -33 z m 50.96,0 v 33 h 44.95 v -33 z m 52.95,0 v 33 H 192 v -33 z m 43.95,-8 h -43.95 v -30 H 192 Z m -51.95,0 H 95.1 v -30 h 44.95 z m -52.95,-38 H 44.14 v -32 H 87.1 Z m 8,0 h 44.95 v -32 H 95.1 Z m 52.95,0 H 192 v -32 h -43.95 z"
     fill="#212121"
     id="data-entity"
     inkscape:label="data-entity"
     style="fill:#000033;fill-opacity:1" /></svg>
