<?xml version="1.0" encoding="UTF-8" standalone="no"?>
<svg
   width="256.14001"
   height="256.00009"
   viewBox="0 0 256.14001 256.00009"
   fill="none"
   version="1.1"
   id="svg882"
   sodipodi:docname="trino-icons-000033.svg"
   inkscape:version="1.2.2 (b0a8486, 2022-12-01)"
   xml:space="preserve"
   xmlns:inkscape="http://www.inkscape.org/namespaces/inkscape"
   xmlns:sodipodi="http://sodipodi.sourceforge.net/DTD/sodipodi-0.dtd"
   xmlns="http://www.w3.org/2000/svg"
   xmlns:svg="http://www.w3.org/2000/svg"><defs
     id="defs886" /><sodipodi:namedview
     id="namedview884"
     pagecolor="#ffffff"
     bordercolor="#666666"
     borderopacity="1.0"
     inkscape:showpageshadow="2"
     inkscape:pageopacity="0.0"
     inkscape:pagecheckerboard="0"
     inkscape:deskcolor="#d1d1d1"
     showgrid="false"
     inkscape:zoom="0.18522237"
     inkscape:cx="1916.6151"
     inkscape:cy="2386.3208"
     inkscape:window-width="1920"
     inkscape:window-height="1052"
     inkscape:window-x="1080"
     inkscape:window-y="281"
     inkscape:window-maximized="0"
     inkscape:current-layer="svg882"
     showguides="true" /><path
     id="data-lake"
     d="m 104.51,145.2802 c 0,8.09 -6.57,14.6399 -14.68,14.6399 -8.11,0 -14.68,-6.5501 -14.68,-14.6399 0,-8.0901 6.57,-14.6501 14.68,-14.6501 8.11,0 14.68,6.56 14.68,14.6501 z m -8,0 c 0,3.65 -2.97,6.6399 -6.68,6.6399 -3.71,0 -6.68,-2.9899 -6.68,-6.6399 0,-3.66 2.97,-6.6501 6.68,-6.6501 3.71,0 6.68,2.9899 6.68,6.6501 z m -39.56,14.6399 c 8.11,0 14.68,-6.5501 14.68,-14.6399 0,-8.0901 -6.57,-14.6501 -14.68,-14.6501 -8.11,0 -14.68,6.56 -14.68,14.6501 0,8.09 6.57,14.6399 14.68,14.6399 z m 0,-8 c 3.71,0 6.68,-2.9899 6.68,-6.6399 0,-3.66 -2.97,-6.6501 -6.68,-6.6501 -3.71,0 -6.68,2.9899 -6.68,6.6501 0,3.65 2.97,6.6399 6.68,6.6399 z m -18.2,-6.6399 c 0,8.09 -6.57,14.6399 -14.68,14.6399 -8.11,0 -14.68,-6.5501 -14.68,-14.6399 0,-8.0901 6.57,-14.6501 14.68,-14.6501 8.11,0 14.68,6.56 14.68,14.6501 z m -8,0 c 0,3.65 -2.98,6.6399 -6.68,6.6399 -3.71,0 -6.68,-2.9899 -6.68,-6.6399 0,-3.66 2.97,-6.6501 6.68,-6.6501 3.7,0 6.68,2.9899 6.68,6.6501 z m 122.6,65.03 c 0,-2.21 1.79,-4 4,-4 3.61,0 6.35,0.6 8.95,1.9201 2.04,1.03 3.94,2.4899 5.89,3.9899 0.31,0.2399 0.63,0.48 0.94,0.7199 4.14,3.16 8.93,3.91 10.45,3.91 1.52,0 6.31,-0.75 10.45,-3.91 0.31,-0.2399 0.63,-0.48 0.94,-0.7199 1.95,-1.5 3.85,-2.96 5.89,-3.9899 2.6,-1.3201 5.34,-1.9201 8.95,-1.9201 3.6,0 6.34,0.6 8.94,1.9201 2.04,1.03 3.94,2.4899 5.89,3.9899 0.32,0.2399 0.63,0.48 0.94,0.7199 4.14,3.16 8.93,3.91 10.45,3.91 2.21,0 4,1.7899 4,4 0,2.21 -1.79,4 -4,4 -2.93,0 -9.52,-1.14 -15.3,-5.5501 -0.36,-0.27 -0.7,-0.53 -1.01,-0.77 -2.04,-1.56 -3.26,-2.5 -4.58,-3.16 -1.28,-0.65 -2.74,-1.0599 -5.33,-1.0599 -2.6,0 -4.05,0.4099 -5.34,1.0599 -1.32,0.66 -2.54,1.6 -4.57,3.16 -0.21,0.16 -0.43,0.3201 -0.65,0.49 -0.12,0.09 -0.24,0.19 -0.37,0.28 -5.78,4.41 -12.37,5.5501 -15.3,5.5501 -2.93,0 -9.52,-1.14 -15.3,-5.5501 -0.36,-0.27 -0.7,-0.53 -1.02,-0.77 v 0 0 0 c -2.03,-1.56 -3.25,-2.5 -4.57,-3.16 -1.29,-0.65 -2.74,-1.0599 -5.34,-1.0599 -2.21,0 -4,-1.8001 -4,-3.9999 z m -111.08,-4 c -2.21,0 -4,1.79 -4,4 0,2.2 1.79,4 4,4 2.59,0 4.05,0.41 5.34,1.06 1.31,0.66 2.54,1.6 4.57,3.16 0.32,0.2399 0.66,0.5 1.02,0.77 5.78,4.4099 12.37,5.55 15.3,5.55 2.93,0 9.52,-1.1399 15.3,-5.55 0.36,-0.27 0.7,-0.5301 1.01,-0.77 2.04,-1.56 3.26,-2.5 4.58,-3.16 1.28,-0.65 2.74,-1.06 5.33,-1.06 2.6,0 4.05,0.41 5.34,1.06 1.32,0.66 2.54,1.6 4.57,3.16 0.32,0.2399 0.66,0.5 1.02,0.77 5.78,4.4099 12.37,5.55 15.3,5.55 2.21,0 4,-1.79 4,-4 0,-2.21 -1.79,-4 -4,-4 -1.52,0 -6.31,-0.75 -10.45,-3.9099 -0.15,-0.1101 -0.3,-0.22 -0.44,-0.3401 l -0.5,-0.38 c -1.95,-1.5 -3.85,-2.96 -5.89,-3.9899 -2.6,-1.3201 -5.34,-1.9201 -8.95,-1.9201 -3.6,0 -6.34,0.6 -8.94,1.9201 -2.04,1.03 -3.94,2.4899 -5.89,3.9899 -0.32,0.2399 -0.63,0.48 -0.94,0.7199 -4.14,3.16 -8.93,3.91 -10.45,3.91 -1.52,0 -6.31,-0.75 -10.45,-3.91 -0.31,-0.2399 -0.62,-0.4699 -0.93,-0.71 l -0.01,-0.01 c -1.96,-1.5 -3.86,-2.96 -5.89,-3.9899 -2.6,-1.3201 -5.34,-1.9201 -8.95,-1.92 z m -37.78,22.74 c -2.48,0 -4.49,2.15 -4.49,4.79 0,2.65 2.01,4.7899 4.49,4.7899 2.87,0 4.45,0.62 5.92,1.66 1.56,1.11 3.03,2.6799 5.43,5.25 0.37,0.4 0.77,0.82 1.19,1.27 6.73,7.1799 14.6,9.19 18.33,9.19 3.74,0 11.6,-2.0101 18.34,-9.19 0.42,-0.45 0.81,-0.87 1.18,-1.2601 l 0.01,-0.01 v 0 c 2.4,-2.5701 3.86,-4.14 5.43,-5.25 1.47,-1.04 3.05,-1.66 5.92,-1.66 2.87,0 4.46,0.62 5.93,1.66 1.56,1.11 3.03,2.6799 5.42,5.25 0.38,0.4 0.77,0.82 1.19,1.27 6.74,7.1799 14.6,9.19 18.34,9.19 3.73,0 11.6,-2.0101 18.33,-9.19 0.42,-0.4401 0.8,-0.85 1.17,-1.25 h 0.01 l 0.01,-0.02 c 2.4,-2.5701 3.87,-4.14 5.43,-5.25 1.47,-1.04 3.06,-1.66 5.93,-1.66 2.87,0 4.45,0.62 5.92,1.66 1.56,1.11 3.03,2.6799 5.43,5.25 v 0 l 0.01,0.01 0.01,0.01 c 0.37,0.4 0.76,0.8099 1.17,1.25 6.73,7.1799 14.6,9.19 18.33,9.19 3.74,0 11.6,-2.0101 18.34,-9.19 0.42,-0.45 0.81,-0.87 1.19,-1.27 v 0 c 2.39,-2.5701 3.86,-4.1501 5.42,-5.25 1.47,-1.04 3.06,-1.66 5.93,-1.66 2.87,0 4.46,0.62 5.93,1.66 1.56,1.0999 3.03,2.6799 5.42,5.25 0.38,0.4 0.77,0.82 1.19,1.27 6.74,7.1799 14.6,9.19 18.34,9.19 3.73,0 11.6,-2.0101 18.33,-9.19 0.42,-0.4401 0.81,-0.8601 1.18,-1.2601 l 0.01,-0.01 v 0 c 2.4,-2.57 3.87,-4.14 5.43,-5.25 1.47,-1.04 3.06,-1.6599 5.92,-1.6599 2.48,0 4.5,-2.14 4.5,-4.79 0,-2.64 -2.02,-4.79 -4.5,-4.79 -4.42,0 -7.78,1.06 -10.88,3.25 -2.39,1.69 -4.6,4.07 -6.9,6.54 -0.37,0.4 -0.74,0.8 -1.11,1.1999 -4.94,5.27 -10.48,6.38 -11.98,6.38 -1.51,0 -7.04,-1.11 -11.98,-6.38 -0.38,-0.4 -0.75,-0.8 -1.11,-1.19 l -0.01,-0.01 c -2.29,-2.47 -4.5,-4.85 -6.89,-6.54 -3.11,-2.19 -6.46,-3.25 -10.89,-3.25 -4.43,0 -7.78,1.06 -10.89,3.25 -2.39,1.69 -4.6,4.07 -6.89,6.54 -0.37,0.4 -0.74,0.8 -1.11,1.1999 -4.95,5.27 -10.48,6.38 -11.99,6.38 -1.5,0 -7.04,-1.11 -11.98,-6.38 -0.37,-0.4 -0.74,-0.8 -1.11,-1.1999 -2.3,-2.47 -4.51,-4.85 -6.9,-6.54 -3.1,-2.19 -6.46,-3.25 -10.88,-3.25 -4.43,0 -7.79,1.06 -10.89,3.25 -2.39,1.69 -4.6,4.07 -6.9,6.54 -0.37,0.4 -0.74,0.8 -1.11,1.1999 -4.94,5.27 -10.48,6.38 -11.98,6.38 -1.51,0 -7.04,-1.11 -11.98,-6.38 -0.38,-0.4 -0.75,-0.8 -1.11,-1.1999 -2.3,-2.47 -4.51,-4.85 -6.9,-6.54 -3.11,-2.19 -6.46,-3.25 -10.89,-3.25 -4.43,0 -7.78,1.06 -10.89,3.25 -2.39,1.69 -4.6,4.07 -6.89,6.54 -0.37,0.4 -0.74,0.8 -1.11,1.1999 -4.95,5.27 -10.48,6.38 -11.99,6.38 -1.5,0 -7.03,-1.11 -11.98,-6.38 -0.37,-0.4 -0.74,-0.8 -1.11,-1.1999 -2.3,-2.47 -4.51,-4.85 -6.9,-6.54 -3.1,-2.19 -6.45,-3.25 -10.88,-3.2499 z M 39.59,46.7501 c 0.15,0 0.29,0 0.44,0.01 C 43.46,20.38 66.32,0 94.03,0 c 17.96,0 33.9,8.57 43.81,21.8001 1.6,2.13 3.04,4.38 4.31,6.7399 2.22,-1.47 4.56,-2.7601 7.02,-3.85 5.89,-2.61 12.41,-4.06 19.28,-4.06 19.19,0 35.72,11.3401 43.23,27.6701 1.06,2.3 1.95,4.71 2.63,7.1999 1.56,-0.5701 3.18,-1.02 4.85,-1.33 1.87,-0.36 3.81,-0.54 5.79,-0.54 17.13,0 31.01,13.85 31.01,30.94 0,12.0901 -6.95,22.56 -17.09,27.6501 l 2.06,2.06 c 2.71,2.6999 3.41,6.82 1.75,10.27 l -1.97,4.09 c -0.13,0.27 -0.15,0.64 0.02,1 1.03,2.1 2.26,4.79 3.12,7.08 0.38,1.03 1.01,1.55 1.42,1.6799 l 7.57,2.52 c 0.27,0.1 0.54,0.2199 0.78,0.3601 1.48,0.59 2.52,2.03 2.52,3.7199 v 19.9499 c 0,3.83 -2.41,7.23 -6.02,8.5 l -2.38,0.83 c 1.17,-0.1999 2.42,-0.3001 3.76,-0.3001 2.48,0 4.5,2.15 4.5,4.79 0,2.65 -2.02,4.8001 -4.5,4.8001 -2.86,0 -4.45,0.61 -5.92,1.65 -1.56,1.1101 -3.03,2.6799 -5.43,5.25 v 0 l -0.54,0.58 c -0.21,0.23 -0.43,0.46 -0.65,0.69 -6.73,7.19 -14.6,9.19 -18.33,9.19 -3.74,0 -11.6,-2 -18.34,-9.19 -0.42,-0.4499 -0.81,-0.87 -1.19,-1.27 -2.39,-2.5701 -3.86,-4.1399 -5.42,-5.25 -1.47,-1.04 -3.06,-1.65 -5.93,-1.65 -2.87,0 -4.46,0.61 -5.93,1.65 -1.56,1.1101 -3.03,2.6799 -5.42,5.25 v 0 l -1.19,1.27 c -6.74,7.19 -14.6,9.19 -18.34,9.19 -3.73,0 -11.6,-2 -18.33,-9.19 -0.41,-0.44 -0.8,-0.85 -1.17,-1.25 l -0.01,-0.01 -0.01,-0.01 v 0 c -2.4,-2.5701 -3.87,-4.14 -5.43,-5.25 -1.47,-1.04 -3.05,-1.65 -5.92,-1.65 -2.87,0 -4.46,0.61 -5.93,1.65 -1.56,1.11 -3.03,2.6799 -5.43,5.25 l -0.01,0.02 -0.01,0.01 c -0.37,0.39 -0.75,0.8001 -1.17,1.24 -6.73,7.19 -14.6,9.19 -18.33,9.19 -3.74,0 -11.6,-2 -18.34,-9.19 -0.42,-0.45 -0.81,-0.87 -1.19,-1.27 -2.39,-2.5701 -3.86,-4.14 -5.42,-5.25 -1.47,-1.04 -3.06,-1.65 -5.93,-1.65 -2.87,0 -4.45,0.61 -5.92,1.65 -1.57,1.11 -3.03,2.6799 -5.43,5.25 v 0 l -0.01,0.01 c -0.37,0.39 -0.76,0.8201 -1.18,1.2601 -6.74,7.19 -14.6,9.19 -18.34,9.19 -3.73,0 -11.6,-2 -18.33,-9.19 -0.42,-0.4499 -0.82,-0.87 -1.19,-1.27 -2.4,-2.5701 -3.87,-4.1399 -5.43,-5.25 -1.47,-1.04 -3.05,-1.65 -5.92,-1.65 -2.48,0 -4.49,-2.1501 -4.49,-4.8001 0,-2.64 2.01,-4.79 4.49,-4.79 4.43,0 7.78,1.06 10.88,3.2601 2.39,1.6799 4.6,4.06 6.9,6.54 0.37,0.3899 0.74,0.79 1.11,1.19 4.95,5.27 10.48,6.38 11.98,6.38 1.51,0 7.04,-1.11 11.99,-6.38 0.37,-0.4 0.74,-0.8001 1.11,-1.19 2.29,-2.48 4.5,-4.8601 6.89,-6.54 3.11,-2.1999 6.46,-3.2601 10.89,-3.2601 4.43,0 7.78,1.06 10.89,3.2601 2.39,1.6799 4.6,4.06 6.9,6.54 0.36,0.3899 0.73,0.79 1.11,1.19 4.94,5.27 10.47,6.38 11.98,6.38 1.5,0 7.04,-1.11 11.98,-6.38 0.37,-0.4 0.74,-0.8001 1.11,-1.19 2.3,-2.48 4.51,-4.8601 6.9,-6.54 1.77,-1.25 3.62,-2.14 5.7,-2.6599 l -1.51,-0.5 c -0.28,-0.1 -0.54,-0.22 -0.78,-0.3601 -1.48,-0.5901 -2.52,-2.0301 -2.52,-3.7199 v -19.9499 c 0,-3.83 2.41,-7.2302 6.02,-8.5 l 4.29,-1.5 c 0.29,-0.1 0.56,-0.35 0.69,-0.7302 0.76,-2.1999 1.78,-4.98 2.8,-7.1999 0.46,-1 0.38,-1.81 0.19,-2.19 l -3.57,-7.14 c -0.32,-0.6399 -0.45,-1.3099 -0.42,-1.9699 -0.05,-1.08 0.34,-2.18 1.17,-3 l 2.31,-2.31 H 36.83 v -0.11 c -17.74,-1.4 -31.7,-16.21 -31.7,-34.27 0,-18.99 15.43,-34.38 34.46,-34.3801 z m 208.37,37.8201 c 0,9.9099 -6.31,18.3699 -15.17,21.57 l -5.97,-5.9699 c -0.45,-0.45 -0.98,-0.77 -1.55,-0.96 -1.16,-0.8001 -2.71,-0.96 -4.06,-0.29 l -7.14,3.57 c -0.38,0.19 -1.2,0.27 -2.19,-0.18 -2.23,-1.02 -5.01,-2.05 -7.21,-2.81 -0.38,-0.13 -0.63,-0.4 -0.73,-0.68 l -1.5,-4.29 c -1.26,-3.61 -4.67,-6.03 -8.49,-6.03 h -2.54 v -38.4 c 0,-2.76 -2.24,-5 -5,-5 h -14.66 c -2.76,0 -5,2.24 -5,5 v 50.12 c -0.26,0.21 -0.6,0.42 -1.03,0.58 -1.93,0.71 -4.12,1.7 -6.02,2.6 v -35.72 c 0,-1.1 -0.35,-2.12 -0.95,-2.94 -0.91,-1.25 -2.38,-2.06 -4.05,-2.06 h -14.66 c -1.66,0 -3.14,0.81 -4.04,2.06 -0.6,0.82 -0.96,1.84 -0.96,2.94 v 39.83 H 128 v -48.04 c 0,-2.76 -2.24,-5 -5,-5 h -14.66 c -1.67,0 -3.14,0.82 -4.05,2.07 -0.6,0.82 -0.95,1.84 -0.95,2.93 v 48.04 h -7.05 v -74.98 c 0,-2.77 -2.24,-5 -5,-5 H 76.63 c -2.76,0 -5,2.23 -5,5 v 74.98 h -7.05 v -25.77 c 0,-1.1 -0.35,-2.12 -0.95,-2.94 -0.91,-1.25 -2.38,-2.06 -4.05,-2.06 H 44.92 c -2.76,0 -5,2.23 -5,5 v 25.77 h -1.4 l -1.06,-0.09 c -13.63,-1.0701 -24.33,-12.45 -24.33,-26.29 0,-14.5501 11.83,-26.38 26.46,-26.38 0.11,0 0.23,0 0.34,0 l 7.12,0.09 0.91,-7.0501 C 50.87,25.4403 70.3,8.0003 94.03,8.0003 c 17.84,0 33.3,9.88 41.08,24.3299 l 4.16,7.72 7.3,-4.85 c 6.26,-4.15 13.78,-6.5701 21.88,-6.5701 18.21,0 33.56,12.2801 38.15,28.9899 l 2.29,8.37 8.16,-2.98 c 2.45,-0.89 5.11,-1.38 7.9,-1.38 12.73,0 23.01,10.29 23.01,22.9402 z m -104.92,19.38 v -33.27 h 8.66 v 30.63 c -2.99,-0.6999 -6.19,0.1701 -8.42,2.4001 z M 183.41,88.5003 V 53.1002 h -8.66 v 35.4001 z m 51.65,91.05 c -0.52,1.15 -0.91,2.48 -1.02,3.89 l -0.32,0.34 c -0.37,0.39 -0.74,0.79 -1.11,1.19 -4.94,5.27 -10.48,6.38 -11.98,6.38 -0.7,0 -2.24,-0.23 -4.19,-1 10.12,-8.44 16.56,-21.14 16.56,-35.35 0,-25.41 -20.6,-46 -46,-46 -25.41,0 -46,20.59 -46,46 0,14.78 6.97,27.93 17.8,36.35 -1.6,-0.03 -7.04,-1.19 -11.91,-6.38 -0.37,-0.4 -0.74,-0.8 -1.11,-1.19 -2.3,-2.48 -4.51,-4.86 -6.9,-6.54 -0.18,-0.13 -0.37,-0.26 -0.55,-0.38 -0.2,-0.47 -0.38,-0.93 -0.54,-1.37 -0.97,-2.63 -3.09,-5.38 -6.39,-6.48 l -5.4,-1.8 v -17.16 c 0,-0.43 0.26,-0.81 0.67,-0.95 l 4.28,-1.5 c 2.69,-0.94 4.72,-3.07 5.61,-5.67 0.73,-2.12 1.66,-4.61 2.52,-6.48 1.17,-2.55 1.62,-5.99 0.06,-9.1 l -2.39,-4.79 12.18,-12.19 c 0.3,-0.3 0.76,-0.38 1.14,-0.2 l 4.1,1.98 c 2.57,1.23 5.51,1.15 7.98,-0.05 2.01,-0.98 4.42,-2.09 6.35,-2.8 2.63,-0.98 5.39,-3.09 6.49,-6.39 l 1.8,-5.41 h 17.16 c 0.42,0 0.8,0.27 0.94,0.67 l 1.5,4.29 c 0.94,2.69 3.08,4.71 5.68,5.61 2.11,0.73 4.6,1.65 6.47,2.51 2.55,1.17 6,1.62 9.11,0.07 l 4.89,-2.45 12.74,12.74 c 0.3,0.3 0.37,0.76 0.19,1.14 l -1.97,4.09 c -1.24,2.57 -1.16,5.51 0.05,7.98 0.98,2.01 2.08,4.43 2.8,6.36 0.97,2.63 3.09,5.38 6.39,6.48 l 5.4,1.8 v 17.16 c 0,0.43 -0.26,0.81 -0.67,0.95 l -4.28,1.5 c -2.69,0.94 -4.72,3.07 -5.61,5.67 -0.73,2.12 -1.66,4.61 -2.52,6.48 z M 225,155.0003 c 0,12.6199 -6.16,23.8 -15.62,30.71 -0.25,-0.23 -0.49,-0.48 -0.73,-0.74 l -0.17,-0.17 -0.17,-0.19 c -0.11,-0.12 -0.23,-0.25 -0.35,-0.38 l -0.42,-0.45 h -0.01 c -0.87,-0.94 -1.73,-1.87 -2.59,-2.74 7.91,-5.73 13.06,-15.03 13.06,-25.54 0,-17.4 -14.11,-31.5 -31.5,-31.5 -17.4,0 -31.5,14.1 -31.5,31.5 0,12.24 6.97,22.84 17.17,28.06 l -0.2,0.22 c -0.37,0.39 -0.74,0.79 -1.11,1.19 -1.04,1.1 -2.1,2.02 -3.14,2.79 -11.21,-6.61 -18.72,-18.81 -18.72,-32.76 0,-20.99 17.01,-38 38,-38 20.98,0 38,17.01 38,38 z m -46.6,22.57 c 0.16,-0.11 0.31,-0.23 0.46,-0.33 3.11,-2.2 6.46,-3.26 10.89,-3.26 3.34,0 6.07,0.61 8.55,1.8499 6.99,-4.07 11.7,-11.65 11.7,-20.3299 0,-12.98 -10.53,-23.5 -23.5,-23.5 -12.98,0 -23.5,10.52 -23.5,23.5 0,10.1399 6.41,18.77 15.4,22.07 z m -121.82,-70.17 v -22.66 h -8.66 v 22.66 z m 31.71,0 v -71.87 h -8.66 v 71.87 z m 31.71,0 v -44.93 h -8.66 v 44.93 z"
     style="fill:#000033;fill-opacity:1;fill-rule:evenodd"
     inkscape:label="data-lake" /></svg>
