<?xml version="1.0" encoding="UTF-8" standalone="no"?>
<svg
   width="255.16943"
   height="245"
   viewBox="0 0 255.16943 245"
   fill="none"
   version="1.1"
   id="svg882"
   sodipodi:docname="trino-icons-000033.svg"
   inkscape:version="1.2.2 (b0a8486, 2022-12-01)"
   xml:space="preserve"
   xmlns:inkscape="http://www.inkscape.org/namespaces/inkscape"
   xmlns:sodipodi="http://sodipodi.sourceforge.net/DTD/sodipodi-0.dtd"
   xmlns="http://www.w3.org/2000/svg"
   xmlns:svg="http://www.w3.org/2000/svg"><defs
     id="defs886" /><sodipodi:namedview
     id="namedview884"
     pagecolor="#ffffff"
     bordercolor="#666666"
     borderopacity="1.0"
     inkscape:showpageshadow="2"
     inkscape:pageopacity="0.0"
     inkscape:pagecheckerboard="0"
     inkscape:deskcolor="#d1d1d1"
     showgrid="false"
     inkscape:zoom="0.18522237"
     inkscape:cx="1916.6151"
     inkscape:cy="2386.3208"
     inkscape:window-width="1920"
     inkscape:window-height="1052"
     inkscape:window-x="1080"
     inkscape:window-y="281"
     inkscape:window-maximized="0"
     inkscape:current-layer="svg882"
     showguides="true" /><path
     fill-rule="evenodd"
     clip-rule="evenodd"
     d="m 172,33.86 c 0,0.03 0,0.06 0,0.09 v 0.03 0.02 86.61 c 8.13,-4.2 16.21,-8.59 21.84,-11.73 0.52,-0.29 1.08,-0.45 1.64,-0.49 1.1,-0.48 2.41,-0.46 3.55,0.17 7.15,3.99 18.29,10 28.42,15.07 5.07,2.54 9.84,4.82 13.72,6.49 1.95,0.84 3.62,1.5 4.97,1.96 1.43,0.49 2.21,0.66 2.49,0.68 2.09,0.17 3.49,1.44 4.3,2.59 0.78,1.11 1.25,2.43 1.55,3.67 0.61,2.51 0.8,5.77 0.63,9.42 -0.34,7.36 -2.16,17.15 -5.91,27.59 -7.48,20.86 -22.9,45.01 -50.49,57.3 -0.43,0.19 -0.88,0.3 -1.32,0.34 -1,0.43 -2.16,0.46 -3.23,-0.01 C 184.89,229.53 177,224.07 170.32,217.84 162.43,233.33 127.68,245 86,245 38.5,245 0,229.84 0,211.14 c 0,-0.03 0,-0.06 0,-0.09 0,-0.02 0,-0.03 0,-0.05 V 34 C 0,33.98 0,33.97 0,33.95 0,33.92 0,33.89 0,33.86 0,15.1599 38.5,0 86,0 c 47.5,0 86,15.16 86,33.8599 z m -8,0 c 0,1.71 -0.85,4.19 -4.21,7.32 -3.37,3.13 -8.68,6.33 -15.91,9.17 C 129.47,56.03 109,59.71 86,59.71 63,59.71 42.53,56.03 28.12,50.35 20.89,47.51 15.58,44.31 12.21,41.18 8.85,38.05 8,35.57 8,33.86 8,32.14 8.85,29.66 12.21,26.53 15.58,23.4 20.89,20.21 28.12,17.36 42.53,11.69 63,8 86,8 c 23,0 43.47,3.69 57.88,9.36 7.23,2.85 12.54,6.04 15.91,9.17 3.36,3.13 4.21,5.61 4.21,7.33 z m 0,177.47 c -6.02,-6.82 -10.82,-14.24 -14.58,-21.64 -15.73,6.75 -38.32,10.99 -63.42,10.99 -34.54,0 -64.32,-8.02 -78,-19.58 v 29.43 H 8.04 C 8.01,210.74 8,210.95 8,211.14 c 0,1.72 0.85,4.2 4.21,7.33 3.37,3.13 8.68,6.32 15.91,9.17 C 42.53,233.31 63,237 86,237 c 23,0 43.47,-3.69 57.88,-9.36 7.23,-2.85 12.54,-6.04 15.91,-9.17 3.24,-3.02 4.15,-5.43 4.21,-7.14 z m -17.96,-28.9 c -0.87,-2.04 -1.66,-4.07 -2.37,-6.07 -3.62,-10.08 -5.44,-19.57 -5.87,-26.83 -14.41,4.28 -32.35,6.83 -51.8,6.83 -34.54,0 -64.32,-8.02 -78,-19.58 v 29.43 H 8.04 C 8.01,166.42 8,166.63 8,166.82 c 0,1.72 0.85,4.2 4.21,7.32 3.37,3.14 8.68,6.33 15.91,9.18 14.41,5.67 34.88,9.36 57.88,9.36 23,0 43.47,-3.69 57.88,-9.36 0.74,-0.29 1.46,-0.59 2.16,-0.89 z m -7.99,-41.35 c 0.09,-0.61 0.21,-1.19 0.34,-1.74 0.3,-1.24 0.77,-2.55 1.55,-3.67 0.81,-1.15 2.21,-2.42 4.3,-2.58 0.27,-0.03 1.06,-0.19 2.49,-0.68 1.35,-0.46 3.02,-1.13 4.96,-1.96 3.39,-1.46 7.45,-3.38 11.79,-5.53 0.38,-0.92 0.52,-1.73 0.52,-2.42 0,-0.2 -0.01,-0.4 -0.04,-0.62 H 164 V 92.46 c -13.68,11.56 -43.46,19.58 -78,19.58 -34.54,0 -64.32,-8.02 -78,-19.58 v 29.42 H 8.04 C 8.01,122.1 8,122.3 8,122.5 c 0,1.72 0.85,4.2 4.21,7.32 3.37,3.14 8.68,6.33 15.91,9.18 14.41,5.67 34.88,9.36 57.88,9.36 20.06,0 38.18,-2.8 52.05,-7.28 z M 86,67.71 c 34.54,0 64.32,-8.01 78,-19.57 v 29.42 h -0.04 c 0.03,0.22 0.04,0.42 0.04,0.62 0,1.72 -0.85,4.2 -4.21,7.32 -3.37,3.14 -8.68,6.33 -15.91,9.17 -14.41,5.68 -34.88,9.37 -57.88,9.37 -23,0 -43.47,-3.69 -57.88,-9.37 C 20.89,91.83 15.58,88.64 12.21,85.5 8.85,82.38 8,79.9 8,78.18 8,77.98 8.01,77.78 8.04,77.56 H 8 V 48.14 C 21.68,59.7 51.46,67.71 86,67.71 Z m 83,63.4 c 9.81,-4.91 20.49,-10.66 27.73,-14.68 7.21,4 17.59,9.58 27.14,14.36 5.12,2.57 10.06,4.92 14.14,6.68 2.04,0.88 3.92,1.63 5.53,2.18 1.02,0.35 2.08,0.67 3.06,0.88 0.04,0.11 0.07,0.24 0.11,0.39 0.36,1.47 0.56,3.8801 0.41,7.1501 -0.3,6.47 -1.94,15.48 -5.45,25.26 -6.97,19.44 -21.04,41.22 -45.59,52.41 -24.11,-11.28 -37.98,-32.83 -44.88,-52.08 -3.51,-9.79 -5.15,-18.8 -5.45,-25.27 -0.15,-3.27 0.05,-5.68 0.41,-7.15 0.04,-0.15 0.07,-0.28 0.11,-0.39 0.98,-0.2001 2.03,-0.52 3.06,-0.8801 1.61,-0.55 3.48,-1.3 5.52,-2.17 4.09,-1.76 9.02,-4.12 14.15,-6.69 z"
     fill="#212121"
     id="authenticated-non-object"
     inkscape:label="authenticated-non-object"
     style="fill:#000033;fill-opacity:1" /></svg>
