<?xml version="1.0" encoding="UTF-8" standalone="no"?>
<svg
   width="256"
   height="255.99989"
   viewBox="0 0 256 255.99989"
   fill="none"
   version="1.1"
   id="svg882"
   sodipodi:docname="trino-icons-000033.svg"
   inkscape:version="1.2.2 (b0a8486, 2022-12-01)"
   xml:space="preserve"
   xmlns:inkscape="http://www.inkscape.org/namespaces/inkscape"
   xmlns:sodipodi="http://sodipodi.sourceforge.net/DTD/sodipodi-0.dtd"
   xmlns="http://www.w3.org/2000/svg"
   xmlns:svg="http://www.w3.org/2000/svg"><defs
     id="defs886" /><sodipodi:namedview
     id="namedview884"
     pagecolor="#ffffff"
     bordercolor="#666666"
     borderopacity="1.0"
     inkscape:showpageshadow="2"
     inkscape:pageopacity="0.0"
     inkscape:pagecheckerboard="0"
     inkscape:deskcolor="#d1d1d1"
     showgrid="false"
     inkscape:zoom="0.18522237"
     inkscape:cx="1916.6151"
     inkscape:cy="2386.3208"
     inkscape:window-width="1920"
     inkscape:window-height="1052"
     inkscape:window-x="1080"
     inkscape:window-y="281"
     inkscape:window-maximized="0"
     inkscape:current-layer="svg882"
     showguides="true" /><path
     id="worker"
     d="m 8,67.3799 c 0,-0.04 0,-0.08 0,-0.1199 V 5 C 8,2.24 10.24,0 13,0 h 226.61 c 2.76,0 5,2.24 5,5 v 62.26 0.04 c 0,0.03 0,0.05 0,0.08 0,0.04 0,0.08 0,0.11 v 62.26 c 0,0.01 0,0.03 0,0.04 0,0.01 0,0.02 0,0.03 v 0.05 c 0,0.02 0,0.04 0,0.07 0,0.01 0,0.03 0,0.05 v 62.26 c 0,2.76 -2.24,5 -5,5 H 130 v 21.47 c 7.29,1.57 13.09,7.33 14.61,14.62 0.36,-0.1 0.74,-0.1601 1.13,-0.1601 h 106.29 c 2.19,0 3.97,1.78 3.97,3.97 0,2.1901 -1.78,3.9701 -3.97,3.9701 H 145.74 c -0.39,0 -0.77,-0.06 -1.13,-0.1701 -1.79,8.59 -9.5,15.05 -18.61,15.05 -9.05,0 -16.72,-6.38 -18.57,-14.88 H 3.97 c -2.19,0 -3.97,-1.78 -3.97,-3.97 0,-2.19 1.78,-3.97 3.97,-3.97 h 103.46 c 1.57,-7.22 7.33,-12.91 14.57,-14.46 v -21.47 H 13 c -2.76,0 -5,-2.24 -5,-5 v -62.26 c 0,-0.04 0,-0.08 0,-0.12 0,-0.04 0,-0.08 0,-0.12 v -62.26 c 0,-0.03 0,-0.07 0,-0.11 z m 8,-4.8901 v -54.49 h 220.61 v 54.49 z m 220.61,62.5 H 16 v -52.73 H 236.61 Z M 16,134.7498 v 54.5 h 220.61 v -54.5 z m 99,102.4001 c 0,5.9101 4.93,10.8499 11,10.8499 6.07,0 11,-4.94 11,-10.8499 0,-5.9201 -4.93,-10.8599 -11,-10.8599 -6.07,0 -11,4.94 -11,10.8599 z m 77.6,-68.9601 c 3.94,0 7.14,-3.1098 7.14,-6.95 0,-3.8399 -3.2,-6.96 -7.14,-6.96 -3.95,0 -7.14,3.12 -7.14,6.96 0,3.84 3.19,6.95 7.14,6.95 z m 32.63,-6.95 c 0,3.84 -3.19,6.95 -7.14,6.95 -3.94,0 -7.13,-3.1098 -7.13,-6.95 0,-3.8399 3.19,-6.96 7.13,-6.96 3.95,0 7.14,3.12 7.14,6.96 z m -199.18,0.37 c 0,-6.21 5.02,-11.23 11.23,-11.23 h 69.77 c 6.21,0 11.23,5.02 11.23,11.23 0,6.2 -5.02,11.23 -11.23,11.23 H 37.28 c -6.21,0 -11.23,-5.03 -11.23,-11.23 z m 166.55,-55.91 c 3.94,0 7.14,-3.12 7.14,-6.96 0,-3.84 -3.2,-6.95 -7.14,-6.95 -3.95,0 -7.14,3.11 -7.14,6.95 0,3.84 3.19,6.96 7.14,6.96 z m 32.63,-6.96 c 0,3.84 -3.19,6.96 -7.14,6.96 -3.94,0 -7.13,-3.12 -7.13,-6.96 0,-3.84 3.19,-6.95 7.13,-6.95 3.95,0 7.14,3.11 7.14,6.95 z m -199.18,0.37 c 0,-6.2 5.02,-11.23 11.23,-11.23 h 69.77 c 6.21,0 11.23,5.03 11.23,11.23 0,6.2 -5.02,11.23 -11.23,11.23 H 37.28 c -6.21,0 -11.23,-5.03 -11.23,-11.23 z M 192.6,43.1997 c 3.94,0 7.14,-3.1099 7.14,-6.95 0,-3.8399 -3.2,-6.96 -7.14,-6.96 -3.95,0 -7.14,3.12 -7.14,6.96 0,3.84 3.19,6.95 7.14,6.95 z m 32.63,-6.95 c 0,3.84 -3.19,6.95 -7.14,6.95 -3.94,0 -7.13,-3.1099 -7.13,-6.95 0,-3.8399 3.19,-6.96 7.13,-6.96 3.95,0 7.14,3.12 7.14,6.96 z M 37.28,25.3898 c -6.21,0 -11.23,5.03 -11.23,11.23 0,6.2 5.02,11.23 11.23,11.23 h 69.77 c 6.21,0 11.23,-5.03 11.23,-11.23 0,-6.2 -5.02,-11.23 -11.23,-11.23 z"
     style="fill:#000033;fill-opacity:1;fill-rule:evenodd"
     inkscape:label="worker" /></svg>
