<?xml version="1.0" encoding="UTF-8" standalone="no"?>
<svg
   width="256"
   height="218"
   viewBox="0 0 256 218"
   fill="none"
   version="1.1"
   id="svg882"
   sodipodi:docname="trino-icons-000033.svg"
   inkscape:version="1.2.2 (b0a8486, 2022-12-01)"
   xml:space="preserve"
   xmlns:inkscape="http://www.inkscape.org/namespaces/inkscape"
   xmlns:sodipodi="http://sodipodi.sourceforge.net/DTD/sodipodi-0.dtd"
   xmlns="http://www.w3.org/2000/svg"
   xmlns:svg="http://www.w3.org/2000/svg"><defs
     id="defs886" /><sodipodi:namedview
     id="namedview884"
     pagecolor="#ffffff"
     bordercolor="#666666"
     borderopacity="1.0"
     inkscape:showpageshadow="2"
     inkscape:pageopacity="0.0"
     inkscape:pagecheckerboard="0"
     inkscape:deskcolor="#d1d1d1"
     showgrid="false"
     inkscape:zoom="0.18522237"
     inkscape:cx="1916.6151"
     inkscape:cy="2386.3208"
     inkscape:window-width="1920"
     inkscape:window-height="1052"
     inkscape:window-x="1080"
     inkscape:window-y="281"
     inkscape:window-maximized="0"
     inkscape:current-layer="svg882"
     showguides="true" /><path
     id="catalog"
     d="M 26.79,31 V 5 c 0,-2.761 2.24,-5 5,-5 H 251 c 2.76,0 5,2.239 5,5 v 208 c 0,2.761 -2.24,5 -5,5 H 31.79 c -2.76,0 -5,-2.239 -5,-5 V 187 H 15 C 6.72,187 0,180.284 0,172 0,163.716 6.72,157 15,157 H 26.79 V 61 H 15 C 6.72,61 0,54.284 0,46 0,37.716 6.72,31 15,31 Z m 8,0 V 8 H 87.26 V 210 H 34.79 v -23 h 17.68 c 8.29,0 15,-6.716 15,-15 0,-8.284 -6.71,-15 -15,-15 H 34.79 V 61 h 17.68 c 8.29,0 15,-6.716 15,-15 0,-8.284 -6.71,-15 -15,-15 z M 95.26,210 H 248 V 8 H 95.26 Z M 15,39 h 37.47 c 3.87,0 7,3.134 7,7 0,3.866 -3.13,7 -7,7 H 15 c -3.87,0 -7,-3.134 -7,-7 0,-3.866 3.13,-7 7,-7 z M 52.47,165 H 15 c -3.87,0 -7,3.134 -7,7 0,3.866 3.13,7 7,7 h 37.47 c 3.87,0 7,-3.134 7,-7 0,-3.866 -3.13,-7 -7,-7 z m 86.48,-12 c -2.21,0 -4,1.791 -4,4 0,2.209 1.79,4 4,4 h 82.29 c 2.21,0 4,-1.791 4,-4 0,-2.209 -1.79,-4 -4,-4 z m -4,-20 c 0,-2.209 1.79,-4 4,-4 h 82.29 c 2.21,0 4,1.791 4,4 0,2.209 -1.79,4 -4,4 h -82.29 c -2.21,0 -4,-1.791 -4,-4 z m 4,-28 c -2.21,0 -4,1.791 -4,4 0,2.209 1.79,4 4,4 h 82.29 c 2.21,0 4,-1.791 4,-4 0,-2.209 -1.79,-4 -4,-4 z m -4,-57 c 0,-2.761 2.23,-5 5,-5 h 80.29 c 2.76,0 5,2.239 5,5 v 25 c 0,2.761 -2.24,5 -5,5 h -80.29 c -2.77,0 -5,-2.239 -5,-5 z m 8,22 V 51 h 74.29 v 19 z"
     style="fill:#000033;fill-opacity:1;fill-rule:evenodd"
     inkscape:label="catalog" /></svg>
