<?xml version="1.0" encoding="UTF-8" standalone="no"?>
<svg
   width="256"
   height="188"
   viewBox="0 0 256 188"
   fill="none"
   version="1.1"
   id="svg882"
   sodipodi:docname="trino-icons-000033.svg"
   inkscape:version="1.2.2 (b0a8486, 2022-12-01)"
   xml:space="preserve"
   xmlns:inkscape="http://www.inkscape.org/namespaces/inkscape"
   xmlns:sodipodi="http://sodipodi.sourceforge.net/DTD/sodipodi-0.dtd"
   xmlns="http://www.w3.org/2000/svg"
   xmlns:svg="http://www.w3.org/2000/svg"><defs
     id="defs886" /><sodipodi:namedview
     id="namedview884"
     pagecolor="#ffffff"
     bordercolor="#666666"
     borderopacity="1.0"
     inkscape:showpageshadow="2"
     inkscape:pageopacity="0.0"
     inkscape:pagecheckerboard="0"
     inkscape:deskcolor="#d1d1d1"
     showgrid="false"
     inkscape:zoom="0.18522237"
     inkscape:cx="1916.6151"
     inkscape:cy="2386.3208"
     inkscape:window-width="1920"
     inkscape:window-height="1052"
     inkscape:window-x="1080"
     inkscape:window-y="281"
     inkscape:window-maximized="0"
     inkscape:current-layer="svg882"
     showguides="true" /><path
     id="desktop-chart"
     d="M 0,5 C 0,2.24 2.239,0 5,0 h 246 c 2.761,0 5,2.24 5,5 v 155 c 0,5.52 -4.477,10 -10,10 h -70 v 10 h 11 c 2.209,0 4,1.79 4,4 0,2.21 -1.791,4 -4,4 H 69 c -2.209,0 -4,-1.79 -4,-4 0,-2.21 1.791,-4 4,-4 H 82 V 170 H 10 C 4.477,170 0,165.52 0,160 Z M 8,138 V 8 h 240 v 130 z m 0,8 v 14 c 0,1.1 0.895,2 2,2 h 236 c 1.105,0 2,-0.9 2,-2 v -14 z m 160,24 v 10 H 90 V 170 Z M 47,123 V 61 c 0,-2.76 2.239,-5 5,-5 h 27 c 2.761,0 5,2.24 5,5 v 62 h 5 V 36 c 0,-2.76 2.239,-5 5,-5 h 27 c 2.761,0 5,2.24 5,5 v 87 h 5 V 86 c 0,-2.76 2.239,-5 5,-5 h 27 c 2.761,0 5,2.24 5,5 v 37 h 5 V 20 c 0,-2.76 2.239,-5 5,-5 h 26 c 2.761,0 5,2.24 5,5 v 103 h 19 c 2.209,0 4,1.79 4,4 0,2.21 -1.791,4 -4,4 H 28 c -2.209,0 -4,-1.79 -4,-4 0,-2.21 1.791,-4 4,-4 z m 8,0 V 64 h 21 v 59 z m 146,0 V 23 h -20 v 100 z m -41,0 V 89 h -21 v 34 z m -42,0 V 39 H 97 v 84 z"
     style="fill:#000033;fill-opacity:1;fill-rule:evenodd"
     inkscape:label="desktop-chart" /></svg>
