<svg xmlns="http://www.w3.org/2000/svg" viewBox="0 0 135.37 62.44"><defs><style>.cls-1{fill:#fff;}</style></defs><g id="Layer_2" data-name="Layer 2"><g id="Layer_1-2" data-name="Layer 1"><path class="cls-1" d="M14.24,55.36c.92-.61-1.49-.38-1.69-.79a15.24,15.24,0,0,1-2.86-.51C8,53.62,3.9,50.87,3.47,48.25s0-7.65,1.83-10.61a17.52,17.52,0,0,1,3.9-4.32.81.81,0,0,0,.25-1c-.8-2-3.38-8.91-3.64-14.32C5.51,11.63,6,.21,10.2,0s3.57,10.48,2.86,17.43a89.56,89.56,0,0,0-.27,12.84.83.83,0,0,0,1,.76,19.46,19.46,0,0,1,4.53-.63,23.49,23.49,0,0,1,4.08.3.83.83,0,0,0,.95-.69c.43-2.51,2-10.08,5.58-15.11,4.38-6.12,9-12.46,12-10.67s-.81,8.19-3.46,11.52-7.25,8.33-8.78,11a47.94,47.94,0,0,0-2.36,4.81.83.83,0,0,0,.35,1,14.74,14.74,0,0,1,5.76,6c2.07,4.28,2.27,9.59,1.15,11.83a8.07,8.07,0,0,1-5.61,4c-1.21.05-6,1.22-6.79,1.42a.71.71,0,0,1-.25,0Z"/><path d="M10.64,32.44l.63-.49a.84.84,0,0,0,.32-.66c0-1.78-.11-9,0-13.61.14-5.3.41-11.9-1.36-11.83S7.24,11,7.92,18.23A87.47,87.47,0,0,0,10.64,32.44Z"/><path d="M24.63,31.31a.83.83,0,0,1-.34-1,100.52,100.52,0,0,1,6.07-13c3-4.89,6-8.84,7.21-8.09s-1.52,5.58-4.87,10.07a111.72,111.72,0,0,0-7.44,12.37Z"/><path d="M22.33,49a.18.18,0,0,0-.26.07s-.57,1-1.41,1.06a2.09,2.09,0,0,1-1.5-.7v-1a.82.82,0,0,1,.33-.66c.51-.39,1.08-1,1.08-1.28a1.4,1.4,0,0,0-1.5-1.09c-1,0-1.7.65-1.7,1.19,0,.35.64.88,1.08,1.2a.84.84,0,0,1,.33.67v1a1.79,1.79,0,0,1-1.3.7c-.8,0-1.4-1.08-1.4-1.09a.19.19,0,0,0-.26-.08.18.18,0,0,0-.07.25c0,.06.71,1.29,1.73,1.29a1.86,1.86,0,0,0,1-.33.85.85,0,0,1,.94,0,2.18,2.18,0,0,0,1.11.35h.12a2.49,2.49,0,0,0,1.71-1.25A.18.18,0,0,0,22.33,49Z"/><path d="M11.6,42.86a1.52,1.52,0,1,0,1.52,1.51A1.52,1.52,0,0,0,11.6,42.86ZM12,44.27a.42.42,0,1,1,.42-.42A.42.42,0,0,1,12,44.27Z"/><path d="M26.55,42.86a1.52,1.52,0,1,0,1.51,1.51A1.52,1.52,0,0,0,26.55,42.86ZM27,44.27a.42.42,0,1,1,.41-.42A.41.41,0,0,1,27,44.27Z"/><path class="cls-1" d="M36.43,38.75v-5.6a.8.8,0,0,1,.47-.74,2.39,2.39,0,0,0,1.44-2.12,2.65,2.65,0,0,0-5.27,0,2.38,2.38,0,0,0,1.45,2.12.8.8,0,0,1,.47.74v6H34.8c-2-6.94-7.91-11.25-15.63-11.25S5.51,32.15,3.55,39.13H2.88A2.75,2.75,0,0,0,0,41.71v5.17a2.75,2.75,0,0,0,2.88,2.59h.91a12.86,12.86,0,0,0,2.93,4.46.84.84,0,0,1,0,1.23h0a1.64,1.64,0,0,0-.12,2.34,17.11,17.11,0,0,0,12.54,4.94c5.42,0,10.21-2,13.14-5.6a.79.79,0,0,0-.1-1.12l-.62-.57a.83.83,0,0,1,0-1.21,13.17,13.17,0,0,0,2.94-4.47h1a2.74,2.74,0,0,0,2.87-2.59V41.71a2.53,2.53,0,0,0-1.47-2.23A.81.81,0,0,1,36.43,38.75Zm-17.26-3.5c7.14,0,12.94,4.7,12.94,10.47,0,6.25-6.51,9.05-12.94,9.05S6.23,52,6.23,45.72C6.23,40,12,35.25,19.17,35.25Z"/><path d="M36.91,44.33a.84.84,0,0,1-.84.83H35c0-.3,0-.6,0-.95a19.32,19.32,0,0,0-.39-3.79h.82a1.35,1.35,0,0,1,1.44,1.29Z"/><path d="M35.47,48.18h-1c.13-.47.24-1,.33-1.45a.84.84,0,0,1,.82-.71h1.3v.86A1.35,1.35,0,0,1,35.47,48.18Z"/><path d="M19.17,61.1A15.69,15.69,0,0,1,8,56.94a.82.82,0,0,1,0-1.19l.23-.21a.84.84,0,0,1,1-.07,18.2,18.2,0,0,0,9.87,2.62A18.17,18.17,0,0,0,29,55.47a.84.84,0,0,1,1,.07l.23.21a.82.82,0,0,1,0,1.19A15.73,15.73,0,0,1,19.17,61.1Z"/><path d="M2.88,40.42h.86a19.64,19.64,0,0,0-.38,3.79,7.87,7.87,0,0,0,0,.95H2.32a.83.83,0,0,1-.83-.83V41.71A1.27,1.27,0,0,1,2.88,40.42Z"/><path d="M19.17,34.39a16.74,16.74,0,0,0-3.79.43.83.83,0,0,1-1-.82V30.51A.83.83,0,0,1,15,29.7a17.46,17.46,0,0,1,4.17-.48,17.34,17.34,0,0,1,4.17.48.83.83,0,0,1,.63.81V34a.84.84,0,0,1-1,.82A15.59,15.59,0,0,0,19.17,34.39Z"/><path d="M13.42,31.42v3.44a.83.83,0,0,1-.53.77c-4.51,1.85-7.62,5.69-7.62,10.09,0,5.9,5.61,9.91,13.9,9.91s13.9-4,13.9-9.91c0-4.4-3.11-8.24-7.62-10.09a.85.85,0,0,1-.53-.77V31.42a.85.85,0,0,1,1.21-.76C31,33,34,37.87,34,44.26c0,7.75-5.94,13-14.86,13S4.31,52,4.31,44.21c0-6.35,3-11.25,7.91-13.55A.84.84,0,0,1,13.42,31.42Z"/><path d="M1.44,46H2.73a.84.84,0,0,1,.83.71,13.84,13.84,0,0,0,.32,1.45h-1a1.35,1.35,0,0,1-1.44-1.3Z"/><ellipse cx="35.71" cy="30.29" rx="1.2" ry="1.08"/><path class="cls-1" d="M64.9,37.31H59.08V32a1.4,1.4,0,0,0-1.4-1.4h0a1.39,1.39,0,0,0-1.4,1.4v5.3h-1.7a1.36,1.36,0,0,0-1.36,1.36h0A1.36,1.36,0,0,0,54.53,40h1.7V52.71a6.55,6.55,0,0,0,1.54,4.61A5.79,5.79,0,0,0,62.22,59a8.08,8.08,0,0,0,3.4-.73,1,1,0,0,0,.55-.89v-.85a1,1,0,0,0-1.45-.9,5.47,5.47,0,0,1-2.5.59,2.91,2.91,0,0,1-2.36-.85,4.16,4.16,0,0,1-.78-2.75V40H64.9a1.34,1.34,0,0,0,1.34-1.34v-.05A1.34,1.34,0,0,0,64.9,37.31Z"/><path class="cls-1" d="M79.44,36.84a8.22,8.22,0,0,0-3.33.67,9.43,9.43,0,0,0-2.61,1.71,9.91,9.91,0,0,0-1,1.13V38.72a1.41,1.41,0,0,0-1.41-1.41h0a1.41,1.41,0,0,0-1.41,1.41V57.26A1.41,1.41,0,0,0,71,58.67h0a1.41,1.41,0,0,0,1.41-1.41V47.64A8.14,8.14,0,0,1,73,45a9.18,9.18,0,0,1,1.4-2.64,7.75,7.75,0,0,1,2.17-2,5,5,0,0,1,2.72-.74h.2a1,1,0,0,0,1-1v-.78A1,1,0,0,0,79.44,36.84Z"/><path class="cls-1" d="M85.26,37.31h0a1.42,1.42,0,0,0-1.42,1.42V57.28a1.39,1.39,0,0,0,1.39,1.39h.07a1.39,1.39,0,0,0,1.39-1.39V38.73A1.41,1.41,0,0,0,85.26,37.31Z"/><path class="cls-1" d="M107.46,39.62a8,8,0,0,0-2.89-2.06,9.85,9.85,0,0,0-3.87-.72,9,9,0,0,0-3.46.64,9.18,9.18,0,0,0-2.58,1.61c-.26.24-.5.48-.73.73V38.71a1.4,1.4,0,0,0-1.4-1.4h0a1.4,1.4,0,0,0-1.4,1.4V57.28a1.39,1.39,0,0,0,1.39,1.39h.07a1.39,1.39,0,0,0,1.39-1.39V46.94a7.76,7.76,0,0,1,.53-2.88,7.61,7.61,0,0,1,1.45-2.35A6.62,6.62,0,0,1,98,40.16a6.19,6.19,0,0,1,2.59-.54,7.14,7.14,0,0,1,2.8.51,5.41,5.41,0,0,1,1.95,1.41,5.94,5.94,0,0,1,1.19,2.21,10.34,10.34,0,0,1,.42,3v10.5a1.38,1.38,0,0,0,1.38,1.38h.09a1.38,1.38,0,0,0,1.38-1.38V46.71a12.71,12.71,0,0,0-.59-4A9.12,9.12,0,0,0,107.46,39.62Z"/><path class="cls-1" d="M134.59,43.69a10.59,10.59,0,0,0-2.27-3.54,11,11,0,0,0-3.51-2.41,11.73,11.73,0,0,0-9.06,0,10.74,10.74,0,0,0-5.73,6,11.73,11.73,0,0,0-.79,4.3A11.52,11.52,0,0,0,114,52.3a10.46,10.46,0,0,0,2.26,3.53,10.93,10.93,0,0,0,8,3.31,11.37,11.37,0,0,0,4.55-.9,10.75,10.75,0,0,0,3.5-2.44,11.14,11.14,0,0,0,2.24-3.56,11.78,11.78,0,0,0,.78-4.33A11.61,11.61,0,0,0,134.59,43.69ZM124.34,56.36a8.36,8.36,0,0,1-3.34-.65,8.19,8.19,0,0,1-2.6-1.8,8,8,0,0,1-1.71-2.65,8.86,8.86,0,0,1-.61-3.31,8.76,8.76,0,0,1,.6-3.24,7.77,7.77,0,0,1,4.25-4.44,8.4,8.4,0,0,1,9.28,1.79,8.13,8.13,0,0,1,1.7,2.66,8.86,8.86,0,0,1,.61,3.31,9,9,0,0,1-.59,3.24,7.91,7.91,0,0,1-1.67,2.65,8.12,8.12,0,0,1-2.58,1.79A8.36,8.36,0,0,1,124.34,56.36Z"/><circle class="cls-1" cx="85.29" cy="32.76" r="1.62"/></g></g></svg>