<svg xmlns="http://www.w3.org/2000/svg" viewBox="0 0 82.2 112.48"><defs><style>.cls-1{fill:#fff;}</style></defs><g id="Layer_2" data-name="Layer 2"><g id="Layer_1-2" data-name="Layer 1"><path d="M11.73,90.65H5.91v-5.3A1.4,1.4,0,0,0,4.51,84h0a1.4,1.4,0,0,0-1.4,1.4v5.3H1.36A1.36,1.36,0,0,0,0,92H0a1.36,1.36,0,0,0,1.36,1.36h1.7v12.67a6.51,6.51,0,0,0,1.55,4.61,5.77,5.77,0,0,0,4.45,1.7,8,8,0,0,0,3.39-.73,1,1,0,0,0,.55-.89v-.86a1,1,0,0,0-1.45-.89,5.53,5.53,0,0,1-2.49.59,2.93,2.93,0,0,1-2.36-.85A4.19,4.19,0,0,1,5.91,106V93.39h5.82a1.35,1.35,0,0,0,1.35-1.34v0A1.36,1.36,0,0,0,11.73,90.65Z"/><path d="M26.27,90.19a8.22,8.22,0,0,0-3.33.67,9,9,0,0,0-2.6,1.71,10.85,10.85,0,0,0-1,1.12V92.07a1.42,1.42,0,0,0-1.41-1.42h0a1.42,1.42,0,0,0-1.41,1.42v18.54A1.41,1.41,0,0,0,17.87,112h0a1.41,1.41,0,0,0,1.41-1.41V101a8.41,8.41,0,0,1,.49-2.66,9.61,9.61,0,0,1,1.4-2.65,8.06,8.06,0,0,1,2.17-2A5.07,5.07,0,0,1,26.1,93h.19a1,1,0,0,0,1-1v-.77A1,1,0,0,0,26.27,90.19Z"/><path d="M32.1,90.65h0a1.43,1.43,0,0,0-1.42,1.43v18.55A1.39,1.39,0,0,0,32.05,112h.08a1.39,1.39,0,0,0,1.39-1.39V92.08A1.43,1.43,0,0,0,32.1,90.65Z"/><path d="M54.29,93a7.84,7.84,0,0,0-2.89-2.06,9.85,9.85,0,0,0-3.87-.72,8.79,8.79,0,0,0-3.46.64,9.18,9.18,0,0,0-2.58,1.61,9.78,9.78,0,0,0-.72.72v-1.1a1.41,1.41,0,0,0-1.41-1.41h0a1.41,1.41,0,0,0-1.41,1.41v18.57a1.4,1.4,0,0,0,1.4,1.39h.06a1.4,1.4,0,0,0,1.4-1.39V100.29a7.76,7.76,0,0,1,.52-2.88,7.61,7.61,0,0,1,1.45-2.35,6.62,6.62,0,0,1,2.1-1.55A6.2,6.2,0,0,1,47.43,93a7.07,7.07,0,0,1,2.8.52,5.52,5.52,0,0,1,2,1.4,6.05,6.05,0,0,1,1.18,2.22,10.34,10.34,0,0,1,.42,3v10.5A1.38,1.38,0,0,0,55.17,112h.1a1.37,1.37,0,0,0,1.37-1.38V100.06a12.66,12.66,0,0,0-.59-4A8.87,8.87,0,0,0,54.29,93Z"/><path d="M81.42,97a10.63,10.63,0,0,0-2.27-3.55,11.5,11.5,0,0,0-12.57-2.38,10.93,10.93,0,0,0-3.49,2.45,10.8,10.8,0,0,0-2.24,3.56,11.72,11.72,0,0,0-.79,4.29,11.53,11.53,0,0,0,.79,4.24,10.75,10.75,0,0,0,2.27,3.53,11,11,0,0,0,8,3.3,11.36,11.36,0,0,0,4.55-.89,10.65,10.65,0,0,0,5.74-6,11.81,11.81,0,0,0,.78-4.33A11.61,11.61,0,0,0,81.42,97ZM71.17,109.71a8.31,8.31,0,0,1-3.33-.65,8.08,8.08,0,0,1-4.32-4.45,8.86,8.86,0,0,1-.6-3.31,9,9,0,0,1,.59-3.24,8,8,0,0,1,1.67-2.66,7.73,7.73,0,0,1,2.58-1.78A8.16,8.16,0,0,1,71.1,93a8.27,8.27,0,0,1,3.32.66,7.93,7.93,0,0,1,4.32,4.44,8.74,8.74,0,0,1,.61,3.31,9.05,9.05,0,0,1-.59,3.25,8,8,0,0,1-1.67,2.65,8.12,8.12,0,0,1-2.58,1.79A8.33,8.33,0,0,1,71.17,109.71Z"/><circle cx="32.12" cy="86.11" r="1.62"/><path class="cls-1" d="M31.86,69.21c1.14-.76-1.85-.47-2.1-1a19.67,19.67,0,0,1-3.54-.63c-2.11-.55-5.5-4.34-6-7.59s-1.67-9.09.61-12.75a21.27,21.27,0,0,1,5.43-5.82S21.8,30.93,21.42,23,21.67.88,26.85.63s4.43,13,3.54,21.59a112.4,112.4,0,0,0-.25,17.2A24.47,24.47,0,0,1,37,38.28a25.94,25.94,0,0,1,6.07.57s1.64-12.19,7.08-19.77S61.23,3.65,65,5.87,64,16,60.72,20.13s-9,10.32-10.87,13.61a58.36,58.36,0,0,0-3.28,6.82,18.55,18.55,0,0,1,7.92,7.83c2.57,5.31,1.15,11.52-.24,14.3S50.91,67.9,49,68c-1.64.07-8.57,1.8-8.57,1.8Z"/><path d="M40.46,70.4,30,69.71l.79-.53a2.91,2.91,0,0,1-1.3-.35,20.77,20.77,0,0,1-3.43-.63c-2.35-.62-5.92-4.65-6.49-8.09l-.08-.47c-.57-3.37-1.52-9,.77-12.71a22.17,22.17,0,0,1,5.2-5.7C24.6,39.1,21.14,30.13,20.8,23c-.11-2.32-.88-22.67,6-23a3.12,3.12,0,0,1,2.54,1C31.69,3.5,32.22,10.44,31,22.28a111,111,0,0,0-.3,16.32A24.61,24.61,0,0,1,37,37.67a29,29,0,0,1,5.55.44c.43-2.68,2.29-12.7,7.09-19.39C55.21,10.89,61,2.81,65.33,5.33A3.34,3.34,0,0,1,67,7.68c.83,4.43-5.07,12-5.74,12.84-1.09,1.36-2.41,2.92-3.81,4.57a80.71,80.71,0,0,0-7,9,56.65,56.65,0,0,0-3,6.23,19,19,0,0,1,7.69,7.85c2.79,5.77,1.06,12.23-.25,14.84-.83,1.66-3,5.52-5.8,5.64-1.3.06-6.54,1.3-8.45,1.78Zm-7.77-1.75,7.66.5c.87-.21,7-1.72,8.59-1.79,1.44-.06,3.26-2,4.75-5,1.41-2.81,2.64-8.8.25-13.75a18.11,18.11,0,0,0-7.64-7.54l-.52-.25.21-.54a59.14,59.14,0,0,1,3.33-6.91,81.46,81.46,0,0,1,7.13-9.13c1.4-1.64,2.71-3.2,3.79-4.54,3.1-3.91,6-9.08,5.49-11.84a2.09,2.09,0,0,0-1-1.51c-3.37-2-9.31,6.36-14.1,13-5.28,7.36-7,19.38-7,19.5l-.09.68-.67-.17A26.73,26.73,0,0,0,37,38.9,23.71,23.71,0,0,0,30.34,40l-.76.26-.06-.8a115,115,0,0,1,.26-17.31C30.94,10.86,30.5,4,28.46,1.9a2,2,0,0,0-1.58-.66C23,1.43,21.53,12.31,22,23c.37,7.74,4.71,18.15,4.75,18.25l.2.47-.42.29a20.91,20.91,0,0,0-5.26,5.62c-2,3.3-1.14,8.66-.6,11.86l.08.47c.52,3.13,3.85,6.64,5.59,7.09a19.17,19.17,0,0,0,3.42.62l.35,0,.1.2a8.1,8.1,0,0,0,.85.13C31.87,68.07,32.49,68.15,32.69,68.65Z"/><path d="M27.4,40.81l1.18-.92s-.17-10.79,0-17.36S29.09,7.79,26.9,7.87,23.19,14.27,24,23.2A108.26,108.26,0,0,0,27.4,40.81Z"/><path d="M44,39s4.13-10.79,7.83-16.85S60.21,12,61.72,13s-2.84,6-7,11.58-9.22,15.34-9.22,15.34Z"/><path d="M41.88,61.33a.24.24,0,0,0-.32.09,2.65,2.65,0,0,1-1.75,1.32A2.61,2.61,0,0,1,38,61.87V60c.67-.36,1.75-1.48,1.75-1.86a1.73,1.73,0,0,0-1.85-1.35c-1.22,0-2.11.8-2.11,1.47s1.36,1.53,1.75,1.79v1.8a2.24,2.24,0,0,1-1.62.86c-1,0-1.73-1.34-1.74-1.36a.23.23,0,0,0-.31-.09.24.24,0,0,0-.09.32c0,.06.88,1.59,2.14,1.59a2.56,2.56,0,0,0,1.86-.9,3,3,0,0,0,2,.91h.14A3.13,3.13,0,0,0,42,61.65.24.24,0,0,0,41.88,61.33Z"/><path d="M28.59,53.72a1.88,1.88,0,1,0,1.88,1.88A1.88,1.88,0,0,0,28.59,53.72Zm.54,1.74a.51.51,0,1,1,.51-.51A.51.51,0,0,1,29.13,55.46Z"/><path d="M47.11,53.72A1.88,1.88,0,1,0,49,55.6,1.88,1.88,0,0,0,47.11,53.72Zm.53,1.74a.51.51,0,1,1,.51-.51A.51.51,0,0,1,47.64,55.46Z"/><path d="M59.35,49.31V41a3,3,0,0,0,2.37-2.83,3.28,3.28,0,0,0-6.53,0A3,3,0,0,0,57.57,41V49.1h-.24C54.89,40.5,47.53,35.16,38,35.16S21.05,40.45,18.61,49.1h-.83a3.4,3.4,0,0,0-3.56,3.2v6.41a3.4,3.4,0,0,0,3.56,3.2h1.13a16.18,16.18,0,0,0,4.45,6.3l-1.6,1.44A1,1,0,0,0,21.64,71C25.26,75.41,31.2,78,37.91,78S50.56,75.47,54.18,71a1,1,0,0,0-.12-1.39l-1.6-1.44a16.44,16.44,0,0,0,4.45-6.3h1.25a3.4,3.4,0,0,0,3.56-3.2V52.3A3.23,3.23,0,0,0,59.35,49.31ZM38,44.29c8.85,0,16,5.82,16,13C54,65,45.93,68.48,38,68.48s-16-3.47-16-11.22C21.94,50.11,29.12,44.29,38,44.29Z"/><path class="cls-1" d="M59.94,56.57H57.57c0-.37.06-.75.06-1.17a23.61,23.61,0,0,0-.48-4.7h1a1.66,1.66,0,0,1,1.78,1.6Z"/><path class="cls-1" d="M58.16,60.31H56.91a19.42,19.42,0,0,0,.54-2.67h2.49v1.07A1.67,1.67,0,0,1,58.16,60.31Z"/><path class="cls-1" d="M38,76.32c-5.94,0-11.22-2.13-14.55-5.92l1.66-1.5A22.1,22.1,0,0,0,38,72.59,22.1,22.1,0,0,0,50.86,68.9l1.66,1.5C49.19,74.19,43.91,76.32,38,76.32Z"/><path class="cls-1" d="M17.78,50.7h1.07a24,24,0,0,0-.48,4.7,8,8,0,0,0,.06,1.17H16.06V52.3A1.58,1.58,0,0,1,17.78,50.7Z"/><path class="cls-1" d="M38,43.22a21.21,21.21,0,0,0-5.94.86V37.62a22.45,22.45,0,0,1,11.88,0v6.51A19.54,19.54,0,0,0,38,43.22Z"/><path class="cls-1" d="M30.84,38v6.52c-5.93,2.18-10.09,7.1-10.09,12.75,0,7.32,7,12.28,17.22,12.28s17.22-4.91,17.22-12.28c0-5.65-4.16-10.57-10.09-12.75V38C52,40.5,56.38,46.91,56.38,55.45,56.38,65.06,49,71.52,38,71.52S19.56,65.06,19.56,55.4C19.56,46.91,23.9,40.5,30.84,38Z"/><path class="cls-1" d="M16,57.64h2.49A19.42,19.42,0,0,0,19,60.31H17.78A1.67,1.67,0,0,1,16,58.71Z"/><ellipse class="cls-1" cx="58.46" cy="38.15" rx="1.48" ry="1.33"/></g></g></svg>