<svg xmlns="http://www.w3.org/2000/svg" viewBox="0 0 82.2 112.84"><defs><style>.cls-1{fill:#fff;}</style></defs><g id="Layer_2" data-name="Layer 2"><g id="Layer_1-2" data-name="Layer 1"><path class="cls-1" d="M48.4,56.24a.52.52,0,1,0-.52-.52A.52.52,0,0,0,48.4,56.24Z"/><path class="cls-1" d="M29.41,55.2a.52.52,0,1,0,.52.52A.52.52,0,0,0,29.41,55.2Z"/><path class="cls-1" d="M61,41.18a3,3,0,0,0,1.84-2.69,3.37,3.37,0,0,0-6.7,0A3,3,0,0,0,58,41.18a1,1,0,0,1,.6.94v7.6h-.25a18.91,18.91,0,0,0-9.64-11.94c.55-1.16,1.22-2.51,2-3.82,1.94-3.37,7.77-9.72,11.14-13.95s8.3-12.36,4.41-14.63S56.5,11.15,50.93,18.93c-3.85,5.37-5.84,13-6.71,17.19a23.63,23.63,0,0,0-5.74-.69,23.14,23.14,0,0,0-8.18,1.43,110.64,110.64,0,0,1,.41-14.71C31.61,13.32,32.39-.26,27.08,0s-6,14.78-5.57,22.93c.27,5.8,2.65,12.93,4,16.56a19,19,0,0,0-6.87,10.23h-.86A3.48,3.48,0,0,0,14.12,53v6.57a3.49,3.49,0,0,0,3.65,3.29h1.16a16.81,16.81,0,0,0,3.72,5.67,1.07,1.07,0,0,1,0,1.56,2.08,2.08,0,0,0-.16,3c3.76,4,9.5,6.28,15.94,6.28,6.88,0,13-2.58,16.69-7.12A1,1,0,0,0,55,70.8l-.79-.72a1.06,1.06,0,0,1,0-1.54,16.91,16.91,0,0,0,3.74-5.68h1.28a3.49,3.49,0,0,0,3.65-3.29V53A3.24,3.24,0,0,0,61,50.16a1,1,0,0,1-.57-.93V42.12A1,1,0,0,1,61,41.18ZM52.7,22c3.8-6.22,7.6-11.24,9.16-10.29s-1.93,7.09-6.2,12.79a121.73,121.73,0,0,0-7.87,12.79l-2-.78A114.55,114.55,0,0,1,52.7,22ZM32.39,38.77a1.06,1.06,0,0,1,.79-1,23.33,23.33,0,0,1,10.6,0,1.06,1.06,0,0,1,.79,1v4.46a1,1,0,0,1-1.28,1,20.5,20.5,0,0,0-4.81-.57,21.71,21.71,0,0,0-4.82.55,1,1,0,0,1-1.27-1Zm5.17,21.91c-.56-.41-1.37-1.08-1.37-1.53,0-.69.91-1.51,2.16-1.51A1.78,1.78,0,0,1,40.26,59c0,.32-.74,1.13-1.38,1.63a1.07,1.07,0,0,0-.42.84v1.32a2.69,2.69,0,0,0,1.91.9c1.06-.08,1.79-1.34,1.79-1.35a.24.24,0,0,1,.33-.09.24.24,0,0,1,.09.32,3.17,3.17,0,0,1-2.18,1.59h-.15a2.62,2.62,0,0,1-1.4-.45,1.11,1.11,0,0,0-1.2,0,2.36,2.36,0,0,1-1.33.42c-1.29,0-2.16-1.57-2.19-1.64a.23.23,0,0,1,.09-.32.25.25,0,0,1,.33.1s.76,1.39,1.77,1.39A2.3,2.3,0,0,0,38,62.82V61.53A1.05,1.05,0,0,0,37.56,60.68ZM24.18,23.16c-.86-9.16.69-15.64,2.94-15.73s1.9,8.3,1.73,15c-.12,4.63-.07,11.29,0,15l-1.89,1A108.34,108.34,0,0,1,24.18,23.16ZM16,53a1.62,1.62,0,0,1,1.76-1.64h1.1a24.46,24.46,0,0,0-.49,4.82,8.45,8.45,0,0,0,.06,1.2H17.07A1.05,1.05,0,0,1,16,56.32Zm1.76,8.21A1.71,1.71,0,0,1,16,59.57V58.48h1.64a1.06,1.06,0,0,1,1.05.9c.11.62.25,1.24.41,1.83ZM52.66,72.35c-3.43,3.39-8.52,5.29-14.18,5.29s-10.75-1.9-14.18-5.29a1,1,0,0,1,.07-1.51l.29-.27a1.05,1.05,0,0,1,1.28-.09,23,23,0,0,0,12.54,3.33A23,23,0,0,0,51,70.48a1.05,1.05,0,0,1,1.28.09l.29.27A1,1,0,0,1,52.66,72.35Zm-14.18.36c-11.33,0-18.88-6.62-18.88-16.53,0-8.07,3.82-14.3,10-17.22a1.07,1.07,0,0,1,1.53,1v4.37a1.07,1.07,0,0,1-.67,1c-5.73,2.36-9.68,7.23-9.68,12.82,0,7.5,7.12,12.6,17.66,12.6s17.66-5,17.66-12.6c0-5.59-4-10.46-9.68-12.82a1.07,1.07,0,0,1-.67-1V39.92a1.07,1.07,0,0,1,1.53-1c6.22,2.92,10,9.16,10,17.27C57.36,66.09,49.81,72.71,38.48,72.71ZM30.79,56.38a1.93,1.93,0,1,1-1.93-1.93A1.93,1.93,0,0,1,30.79,56.38Zm15.13,0a1.93,1.93,0,1,1,1.93,1.93A1.93,1.93,0,0,1,45.92,56.38ZM61,59.57a1.71,1.71,0,0,1-1.82,1.64H57.91c.16-.59.3-1.21.41-1.83a1.06,1.06,0,0,1,1-.9H61ZM61,53v3.32A1.05,1.05,0,0,1,60,57.38H58.58c0-.38.06-.77.06-1.2a24.08,24.08,0,0,0-.49-4.82h1A1.71,1.71,0,0,1,61,53ZM59.49,39.86A1.38,1.38,0,1,1,61,38.49,1.44,1.44,0,0,1,59.49,39.86Z"/><path class="cls-1" d="M11.73,91H5.91v-5.3a1.4,1.4,0,0,0-1.4-1.4h0a1.4,1.4,0,0,0-1.4,1.4V91H1.36A1.36,1.36,0,0,0,0,92.37H0a1.36,1.36,0,0,0,1.36,1.36h1.7v12.67A6.55,6.55,0,0,0,4.61,111a5.8,5.8,0,0,0,4.45,1.69,8,8,0,0,0,3.39-.73,1,1,0,0,0,.55-.89v-.85a1,1,0,0,0-.48-.85,1,1,0,0,0-1-.05,5.41,5.41,0,0,1-2.49.6,2.9,2.9,0,0,1-2.36-.86,4.16,4.16,0,0,1-.79-2.75V93.74h5.82a1.35,1.35,0,0,0,1.35-1.34v-.05A1.35,1.35,0,0,0,11.73,91Z"/><path class="cls-1" d="M26.27,90.54a8.22,8.22,0,0,0-3.33.67,9.24,9.24,0,0,0-2.6,1.71,10,10,0,0,0-1,1.13V92.42A1.41,1.41,0,0,0,17.9,91h0a1.41,1.41,0,0,0-1.41,1.41V111a1.41,1.41,0,0,0,1.41,1.41h0A1.41,1.41,0,0,0,19.31,111v-9.62a8.41,8.41,0,0,1,.49-2.66A9.7,9.7,0,0,1,21.2,96a7.75,7.75,0,0,1,2.17-2,5,5,0,0,1,2.73-.74h.19a1,1,0,0,0,1-1v-.78A1,1,0,0,0,26.27,90.54Z"/><path class="cls-1" d="M32.1,91h0a1.42,1.42,0,0,0-1.42,1.42V111a1.39,1.39,0,0,0,1.39,1.39h.08A1.39,1.39,0,0,0,33.52,111V92.43A1.42,1.42,0,0,0,32.1,91Z"/><path class="cls-1" d="M54.29,93.32a8,8,0,0,0-2.89-2.06,9.85,9.85,0,0,0-3.87-.72,9,9,0,0,0-3.46.64,9.18,9.18,0,0,0-2.58,1.61,9.88,9.88,0,0,0-.72.73V92.41A1.41,1.41,0,0,0,39.36,91h0a1.41,1.41,0,0,0-1.41,1.4V111a1.4,1.4,0,0,0,1.4,1.39h.06a1.4,1.4,0,0,0,1.4-1.39V100.64a7.76,7.76,0,0,1,.52-2.88,7.61,7.61,0,0,1,1.45-2.35,6.62,6.62,0,0,1,2.1-1.55,6.19,6.19,0,0,1,2.59-.54,7.07,7.07,0,0,1,2.8.51,5.54,5.54,0,0,1,2,1.41,5.93,5.93,0,0,1,1.18,2.21,10.34,10.34,0,0,1,.42,3V111a1.38,1.38,0,0,0,1.38,1.38h.1A1.37,1.37,0,0,0,56.64,111V100.41a12.6,12.6,0,0,0-.59-4A8.92,8.92,0,0,0,54.29,93.32Z"/><path class="cls-1" d="M81.42,97.39a10.59,10.59,0,0,0-2.27-3.54,11,11,0,0,0-3.51-2.41,11.17,11.17,0,0,0-12.55,2.47,10.8,10.8,0,0,0-2.24,3.56,11.73,11.73,0,0,0-.79,4.3,11.61,11.61,0,0,0,.79,4.24,10.7,10.7,0,0,0,2.27,3.52,10.89,10.89,0,0,0,3.49,2.41,11.19,11.19,0,0,0,4.52.9,11.37,11.37,0,0,0,4.55-.9,10.6,10.6,0,0,0,3.5-2.44,10.86,10.86,0,0,0,2.24-3.56,11.78,11.78,0,0,0,.78-4.33A11.61,11.61,0,0,0,81.42,97.39ZM71.17,110.06a8.31,8.31,0,0,1-3.33-.65,8.12,8.12,0,0,1-2.61-1.8A8,8,0,0,1,63.52,105a8.86,8.86,0,0,1-.6-3.31,9,9,0,0,1,.59-3.24,7.91,7.91,0,0,1,1.67-2.65A7.75,7.75,0,0,1,67.76,94a8.33,8.33,0,0,1,3.34-.65,8.44,8.44,0,0,1,3.32.65A8.3,8.3,0,0,1,77,95.76a8.13,8.13,0,0,1,1.7,2.66,8.67,8.67,0,0,1,.61,3.31,9,9,0,0,1-.59,3.24,7.91,7.91,0,0,1-1.67,2.65,8.12,8.12,0,0,1-2.58,1.79A8.33,8.33,0,0,1,71.17,110.06Z"/><circle class="cls-1" cx="32.12" cy="86.46" r="1.62"/></g></g></svg>