<svg xmlns="http://www.w3.org/2000/svg" viewBox="0 0 82.2 113.56"><defs><style>.cls-1{fill:#fff;}.cls-2{fill:#dd00a1;}.cls-3{fill:#f9d8d2;}.cls-4{fill:#10110e;}.cls-5{fill:#e5e5e5;}.cls-6{fill:#8accce;opacity:0.2;}.cls-7{fill:#515151;}</style></defs><g id="Layer_2" data-name="Layer 2"><g id="Layer_1-2" data-name="Layer 1"><path class="cls-1" d="M32.75,69.9c1.16-.77-1.89-.48-2.15-1a20.49,20.49,0,0,1-3.6-.65c-2.15-.56-7.31-4-7.86-7.34s0-9.66,2.32-13.39A21.74,21.74,0,0,1,27,41.6s-4.51-10.72-4.9-18.82S22.36.26,27.64,0s4.51,13.23,3.61,22A114.49,114.49,0,0,0,31,39.54a25,25,0,0,1,7-1.16,26.53,26.53,0,0,1,6.18.58s1.67-12.43,7.21-20.15S62.67,3.09,66.54,5.34s-1,10.34-4.38,14.54S53,30.4,51.08,33.75a60.12,60.12,0,0,0-3.35,7,18.91,18.91,0,0,1,8.08,8c2.61,5.41,2.87,12.1,1.45,14.94s-5.1,4.93-7.08,5c-1.67.07-8.73,1.83-8.73,1.83Z"/><path class="cls-2" d="M45.12,39.07s4.2-11,8-17.17S62,11.05,63.53,12s-3.25,6.72-7.48,12.39S46.66,40,46.66,40Z"/><path class="cls-2" d="M28.2,41l1.2-1s-.17-11,0-17.68.52-15-1.71-14.94S23.91,13.91,24.77,23A109.67,109.67,0,0,0,28.2,41Z"/><circle class="cls-3" cx="24.42" cy="62.08" r="2.45"/><circle class="cls-3" cx="53.36" cy="62.08" r="2.45"/><path class="cls-4" d="M43,61.87a.25.25,0,0,0-.33.09,2.66,2.66,0,0,1-1.78,1.34A2.61,2.61,0,0,1,39,62.42V60.55c.67-.37,1.78-1.52,1.78-1.9a1.78,1.78,0,0,0-1.89-1.38c-1.25,0-2.15.82-2.15,1.5s1.39,1.56,1.78,1.82v1.84a2.28,2.28,0,0,1-1.65.87c-1,0-1.76-1.36-1.77-1.38a.24.24,0,0,0-.32-.09.23.23,0,0,0-.09.32c0,.07.89,1.63,2.18,1.63a2.65,2.65,0,0,0,1.9-.92,3,3,0,0,0,2,.92h.15a3.2,3.2,0,0,0,2.17-1.58A.25.25,0,0,0,43,61.87Z"/><path class="cls-5" d="M27,41.6s-3.51-8.82-4.18-13.46-1.31-12.34-.38-17.48a63.72,63.72,0,0,1,1.55-7s-1.63,12-1,17.23S27,41.6,27,41.6Z"/><path class="cls-5" d="M44.13,39s2.49-13.37,6.2-18.63S58.56,8.71,60.87,7.09l2.31-1.61S53.92,15.2,50.33,23.19,44.13,39,44.13,39Z"/><path class="cls-4" d="M29.41,54.11A1.92,1.92,0,1,0,31.33,56,1.91,1.91,0,0,0,29.41,54.11ZM30,55.89a.52.52,0,1,1,.52-.52A.52.52,0,0,1,30,55.89Z"/><path class="cls-4" d="M48.28,54.11A1.92,1.92,0,1,0,50.2,56,1.91,1.91,0,0,0,48.28,54.11Zm.55,1.78a.52.52,0,1,1,.52-.52A.52.52,0,0,1,48.83,55.89Z"/><ellipse class="cls-6" cx="39.21" cy="56.75" rx="17.8" ry="12.83"/><path class="cls-1" d="M60.76,49.62V41.13a3.1,3.1,0,0,0,2.42-2.88,3.35,3.35,0,0,0-6.66,0,3.1,3.1,0,0,0,2.42,2.88V49.4H58.7c-2.48-8.76-10-14.2-19.73-14.2S21.72,40.59,19.24,49.4H18.4a3.48,3.48,0,0,0-3.64,3.27V59.2a3.48,3.48,0,0,0,3.64,3.26h1.15a16.5,16.5,0,0,0,4.53,6.42l-1.63,1.47a1,1,0,0,0-.12,1.41c3.69,4.46,9.74,7.08,16.58,7.08s12.89-2.56,16.58-7.08a1,1,0,0,0-.12-1.41l-1.63-1.47a16.71,16.71,0,0,0,4.54-6.42h1.27a3.48,3.48,0,0,0,3.63-3.26V52.67A3.29,3.29,0,0,0,60.76,49.62ZM39,44.51c9,0,16.34,5.93,16.34,13.22,0,7.89-8.23,11.42-16.34,11.42S22.63,65.62,22.63,57.73C22.63,50.44,30,44.51,39,44.51Z"/><path class="cls-7" d="M61.36,57H58.94c0-.38.06-.76.06-1.2A24.69,24.69,0,0,0,58.52,51h1a1.7,1.7,0,0,1,1.81,1.64Z"/><path class="cls-7" d="M59.55,60.83H58.28a20.14,20.14,0,0,0,.54-2.72h2.54V59.2A1.7,1.7,0,0,1,59.55,60.83Z"/><path class="cls-7" d="M39,77.15c-6,0-11.44-2.18-14.82-6l1.69-1.52A22.55,22.55,0,0,0,39,73.34,22.51,22.51,0,0,0,52.1,69.59l1.7,1.52C50.41,75,45,77.15,39,77.15Z"/><path class="cls-7" d="M18.4,51h1.09A24.32,24.32,0,0,0,19,55.82a8.45,8.45,0,0,0,.06,1.2H16.64V52.67A1.62,1.62,0,0,1,18.4,51Z"/><path d="M39,43.42a21.62,21.62,0,0,0-6,.87V37.71a22.73,22.73,0,0,1,12.1,0v6.63A19.9,19.9,0,0,0,39,43.42Z"/><path class="cls-7" d="M31.71,38.09v6.63C25.66,47,21.42,52,21.42,57.73c0,7.45,7.08,12.51,17.55,12.51s17.55-5,17.55-12.51c0-5.77-4.23-10.78-10.29-13V38.09c7.08,2.55,11.5,9.08,11.5,17.79,0,9.79-7.5,16.37-18.76,16.37S20.21,65.67,20.21,55.82C20.21,47.17,24.63,40.64,31.71,38.09Z"/><path class="cls-7" d="M16.58,58.11h2.54a18.72,18.72,0,0,0,.55,2.72H18.4a1.7,1.7,0,0,1-1.82-1.63Z"/><ellipse class="cls-7" cx="59.85" cy="38.25" rx="1.51" ry="1.36"/><path class="cls-1" d="M11.73,91.73H5.91v-5.3A1.4,1.4,0,0,0,4.51,85h0a1.4,1.4,0,0,0-1.4,1.4v5.3H1.36A1.36,1.36,0,0,0,0,93.09H0a1.36,1.36,0,0,0,1.36,1.37h1.7v12.67a6.51,6.51,0,0,0,1.55,4.61,5.8,5.8,0,0,0,4.45,1.69,7.88,7.88,0,0,0,3.39-.73,1,1,0,0,0,.55-.89V111a1,1,0,0,0-.48-.85,1,1,0,0,0-1,0,5.53,5.53,0,0,1-2.49.59,2.93,2.93,0,0,1-2.36-.85,4.19,4.19,0,0,1-.79-2.76V94.47h5.82a1.36,1.36,0,0,0,1.35-1.35v0A1.35,1.35,0,0,0,11.73,91.73Z"/><path class="cls-1" d="M26.27,91.27a8.21,8.21,0,0,0-3.33.66,9.05,9.05,0,0,0-2.6,1.72,9.91,9.91,0,0,0-1,1.12V93.14a1.41,1.41,0,0,0-1.41-1.41h0a1.41,1.41,0,0,0-1.41,1.41v18.55a1.41,1.41,0,0,0,1.41,1.4h0a1.41,1.41,0,0,0,1.41-1.4v-9.63a8.35,8.35,0,0,1,.49-2.65,9.61,9.61,0,0,1,1.4-2.65,7.9,7.9,0,0,1,2.17-2A5,5,0,0,1,26.1,94h.19a1,1,0,0,0,1-1v-.77A1,1,0,0,0,26.27,91.27Z"/><path class="cls-1" d="M32.1,91.73h0a1.43,1.43,0,0,0-1.42,1.42v18.56a1.39,1.39,0,0,0,1.39,1.38h.08a1.39,1.39,0,0,0,1.39-1.38V93.15A1.43,1.43,0,0,0,32.1,91.73Z"/><path class="cls-1" d="M54.29,94.05A7.84,7.84,0,0,0,51.4,92a9.85,9.85,0,0,0-3.87-.72,8.79,8.79,0,0,0-3.46.64,9,9,0,0,0-2.58,1.61,8.15,8.15,0,0,0-.72.72V93.13a1.41,1.41,0,0,0-1.41-1.4h0a1.41,1.41,0,0,0-1.41,1.4V111.7a1.4,1.4,0,0,0,1.4,1.39h.06a1.4,1.4,0,0,0,1.4-1.39V101.37a7.85,7.85,0,0,1,.52-2.89,7.61,7.61,0,0,1,1.45-2.35,6.75,6.75,0,0,1,2.1-1.54A6,6,0,0,1,47.43,94a7.07,7.07,0,0,1,2.8.52,5.52,5.52,0,0,1,2,1.4,6,6,0,0,1,1.18,2.21,10.34,10.34,0,0,1,.42,3v10.51a1.37,1.37,0,0,0,1.38,1.37h.1a1.37,1.37,0,0,0,1.37-1.37V101.13a12.6,12.6,0,0,0-.59-3.95A8.87,8.87,0,0,0,54.29,94.05Z"/><path class="cls-1" d="M81.42,98.12a10.63,10.63,0,0,0-2.27-3.55,11.14,11.14,0,0,0-3.51-2.41,11.27,11.27,0,0,0-4.51-.89,11.11,11.11,0,0,0-4.55.92,10.74,10.74,0,0,0-5.73,6,11.91,11.91,0,0,0,0,8.53,10.59,10.59,0,0,0,2.27,3.53,11,11,0,0,0,8,3.3,11.2,11.2,0,0,0,4.55-.9,10.72,10.72,0,0,0,3.5-2.43,11,11,0,0,0,2.24-3.56,11.81,11.81,0,0,0,.78-4.33A11.61,11.61,0,0,0,81.42,98.12ZM71.17,110.78a8,8,0,0,1-7.65-5.1,8.86,8.86,0,0,1-.6-3.31,9,9,0,0,1,.59-3.24,8.11,8.11,0,0,1,1.67-2.65,7.9,7.9,0,0,1,2.58-1.79A8.33,8.33,0,0,1,71.1,94a8.44,8.44,0,0,1,3.32.65A8.16,8.16,0,0,1,77,96.49a8,8,0,0,1,1.7,2.65,8.7,8.7,0,0,1,.61,3.31,9,9,0,0,1-.59,3.24,7.91,7.91,0,0,1-1.67,2.65,7.81,7.81,0,0,1-2.58,1.79A8.16,8.16,0,0,1,71.17,110.78Z"/><circle class="cls-1" cx="32.12" cy="87.19" r="1.62"/></g></g></svg>