<svg xmlns="http://www.w3.org/2000/svg" viewBox="0 0 82.2 113.53"><defs><style>.cls-1{fill:#cdcccc;}.cls-2{fill:#fff;}.cls-3{fill:#dd00a1;}.cls-4{fill:#f9d8d2;}.cls-5{fill:#10110e;}.cls-6{fill:#e5e5e5;}.cls-7{fill:#8accce;opacity:0.2;}.cls-8{fill:#515151;}</style></defs><g id="Layer_2" data-name="Layer 2"><g id="Layer_1-2" data-name="Layer 1"><path class="cls-1" d="M63.17,38.18a3.77,3.77,0,0,0-7.5,0,3.43,3.43,0,0,0,2.38,3.18v5.69a19,19,0,0,0-8.6-9.78C50,36.07,50.61,35,51.18,34c1.25-2.18,4.2-5.65,7-9,1.41-1.66,2.74-3.23,3.83-4.6,3-3.81,6.36-9.44,5.74-12.77a3.17,3.17,0,0,0-1.55-2.26c-4.23-2.46-10,5.6-15.6,13.41C47,23.89,45,31.13,44.1,35.29a24.26,24.26,0,0,0-12.84.63,108.85,108.85,0,0,1,.42-13.71C32.9,10.37,32.37,3.43,30.07,1a3,3,0,0,0-2.43-1c-6.79.33-6,20.64-5.91,23,.27,5.56,2.46,12.31,3.83,16A19.18,19.18,0,0,0,19,48.71h-.49a3.88,3.88,0,0,0-4,3.69v6.43a3.88,3.88,0,0,0,4,3.69h.82a16.78,16.78,0,0,0,4.09,5.86l-1.22,1.1a1.46,1.46,0,0,0-.17,2c3.76,4.54,9.85,7.15,16.71,7.15s13-2.61,16.71-7.15a1.46,1.46,0,0,0-.17-2l-1.22-1.1a17,17,0,0,0,4.09-5.86h.94a3.89,3.89,0,0,0,4.05-3.69V52.4a3.68,3.68,0,0,0-2.39-3.34v-7.7A3.44,3.44,0,0,0,63.17,38.18Z"/><path class="cls-2" d="M32.7,69.39c1.14-.76-1.87-.47-2.12-1A20.57,20.57,0,0,1,27,67.77c-2.12-.55-7.2-4-7.74-7.24s0-9.52,2.28-13.2A21.53,21.53,0,0,1,27,41.49S22.58,30.92,22.2,22.93,22.45.72,27.66.47s4.44,13,3.56,21.7A112.71,112.71,0,0,0,31,39.45a24.34,24.34,0,0,1,6.86-1.14,26.13,26.13,0,0,1,6.09.57S45.57,26.63,51,19,62.2,3.51,66,5.74s-1,10.18-4.32,14.33-9,10.37-10.92,13.67a59.05,59.05,0,0,0-3.3,6.86,18.61,18.61,0,0,1,8,7.87C58,53.8,58.26,60.41,56.87,63.2s-5,4.87-7,5c-1.65.08-8.6,1.81-8.6,1.81Z"/><path class="cls-3" d="M44.89,39S49,28.15,52.76,22.06s8.76-10.7,10.29-9.77-3.21,6.63-7.38,12.22-9.26,15.41-9.26,15.41Z"/><path class="cls-3" d="M28.21,40.85l1.19-.93s-.17-10.84,0-17.44.5-14.81-1.7-14.73S24,14.18,24.82,23.16A109.25,109.25,0,0,0,28.21,40.85Z"/><circle class="cls-4" cx="24.49" cy="61.68" r="2.41"/><circle class="cls-4" cx="53.02" cy="61.68" r="2.41"/><path class="cls-5" d="M42.76,61.47a.24.24,0,0,0-.32.09s-.72,1.25-1.76,1.32A2.62,2.62,0,0,1,38.81,62V60.16c.67-.36,1.76-1.49,1.76-1.87a1.74,1.74,0,0,0-1.86-1.35c-1.23,0-2.12.8-2.12,1.48S38,60,38.35,60.21V62a2.25,2.25,0,0,1-1.63.86c-1,0-1.74-1.34-1.74-1.36a.24.24,0,0,0-.32-.09.23.23,0,0,0-.09.32c0,.06.88,1.6,2.15,1.6a2.61,2.61,0,0,0,1.87-.9,3,3,0,0,0,2,.9h.14a3.13,3.13,0,0,0,2.14-1.56A.24.24,0,0,0,42.76,61.47Z"/><path class="cls-6" d="M27,41.49s-3.45-8.71-4.11-13.28S21.61,16.05,22.53,11a63.17,63.17,0,0,1,1.53-6.92s-1.61,11.82-1,17S27,41.49,27,41.49Z"/><path class="cls-6" d="M43.91,38.88S46.37,25.7,50,20.51s8.12-11.46,10.39-13l2.28-1.6S53.57,15.45,50,23.33,43.91,38.88,43.91,38.88Z"/><path class="cls-5" d="M29.4,53.82a1.89,1.89,0,1,0,1.89,1.89A1.88,1.88,0,0,0,29.4,53.82Zm.54,1.75a.51.51,0,1,1,.52-.51A.51.51,0,0,1,29.94,55.57Z"/><path class="cls-5" d="M48,53.82a1.89,1.89,0,1,0,1.89,1.89A1.89,1.89,0,0,0,48,53.82Zm.54,1.75a.51.51,0,1,1,.51-.51A.51.51,0,0,1,48.55,55.57Z"/><ellipse class="cls-7" cx="39.06" cy="56.42" rx="17.55" ry="12.65"/><path class="cls-2" d="M60.31,49.39V41a3.06,3.06,0,0,0,2.39-2.84,3.3,3.3,0,0,0-6.56,0A3,3,0,0,0,58.52,41v8.16h-.24c-2.44-8.64-9.84-14-19.45-14s-17,5.31-19.45,14h-.84A3.42,3.42,0,0,0,15,52.4v6.43a3.42,3.42,0,0,0,3.58,3.22h1.14a16.16,16.16,0,0,0,4.47,6.33l-1.61,1.45a1,1,0,0,0-.12,1.39c3.64,4.4,9.61,7,16.35,7s12.71-2.52,16.35-7A1,1,0,0,0,55,69.83l-1.61-1.45a16.47,16.47,0,0,0,4.48-6.33h1.25a3.42,3.42,0,0,0,3.58-3.22V52.4A3.25,3.25,0,0,0,60.31,49.39Zm-21.48-5c8.89,0,16.11,5.85,16.11,13,0,7.78-8.11,11.27-16.11,11.27S22.72,65.16,22.72,57.38C22.72,50.2,29.94,44.35,38.83,44.35Z"/><path class="cls-8" d="M60.91,56.69H58.52c0-.38.06-.75.06-1.18a23.82,23.82,0,0,0-.48-4.72h1a1.67,1.67,0,0,1,1.79,1.61Z"/><path class="cls-8" d="M59.12,60.44H57.87a21.17,21.17,0,0,0,.53-2.68h2.51v1.07A1.68,1.68,0,0,1,59.12,60.44Z"/><path class="cls-8" d="M38.83,76.54c-6,0-11.28-2.15-14.62-6l1.67-1.5a22.21,22.21,0,0,0,13,3.7,22.21,22.21,0,0,0,13-3.7l1.67,1.5C50.11,74.39,44.8,76.54,38.83,76.54Z"/><path class="cls-8" d="M18.54,50.79h1.08a24.29,24.29,0,0,0-.48,4.72,8.18,8.18,0,0,0,.06,1.18H16.81V52.4A1.59,1.59,0,0,1,18.54,50.79Z"/><path d="M38.83,43.28a21.8,21.8,0,0,0-6,.85V37.64a22.68,22.68,0,0,1,11.94,0v6.55A19.73,19.73,0,0,0,38.83,43.28Z"/><path class="cls-8" d="M31.67,38v6.54c-6,2.2-10.14,7.14-10.14,12.82,0,7.35,7,12.34,17.3,12.34s17.31-4.93,17.31-12.34C56.14,51.7,52,46.76,46,44.56V38c7,2.52,11.34,9,11.34,17.54,0,9.66-7.4,16.15-18.5,16.15s-18.5-6.49-18.5-16.2C20.33,47,24.69,40.54,31.67,38Z"/><path class="cls-8" d="M16.75,57.76h2.51a19.56,19.56,0,0,0,.54,2.68H18.54a1.68,1.68,0,0,1-1.79-1.61Z"/><ellipse class="cls-8" cx="59.42" cy="38.18" rx="1.49" ry="1.34"/><path d="M11.73,91.7H5.91V86.4A1.4,1.4,0,0,0,4.51,85h0a1.4,1.4,0,0,0-1.4,1.4v5.3H1.36A1.36,1.36,0,0,0,0,93.06H0a1.36,1.36,0,0,0,1.36,1.36h1.7V107.1a6.55,6.55,0,0,0,1.55,4.62,5.8,5.8,0,0,0,4.45,1.69,7.88,7.88,0,0,0,3.39-.73,1,1,0,0,0,.55-.89v-.85a1,1,0,0,0-.48-.85,1,1,0,0,0-1,0,5.41,5.41,0,0,1-2.49.6,2.93,2.93,0,0,1-2.36-.85A4.19,4.19,0,0,1,5.91,107V94.43h5.82a1.35,1.35,0,0,0,1.35-1.34v0A1.35,1.35,0,0,0,11.73,91.7Z"/><path d="M26.27,91.23a8.39,8.39,0,0,0-3.33.67,9.05,9.05,0,0,0-2.6,1.72,9.91,9.91,0,0,0-1,1.12V93.11A1.41,1.41,0,0,0,17.9,91.7h0a1.41,1.41,0,0,0-1.41,1.41v18.54a1.41,1.41,0,0,0,1.41,1.41h0a1.41,1.41,0,0,0,1.41-1.41V102a8.41,8.41,0,0,1,.49-2.66,9.7,9.7,0,0,1,1.4-2.64,7.75,7.75,0,0,1,2.17-2A5,5,0,0,1,26.1,94h.19a1,1,0,0,0,1-1v-.78A1,1,0,0,0,26.27,91.23Z"/><path d="M32.1,91.7h0a1.42,1.42,0,0,0-1.42,1.42v18.55a1.39,1.39,0,0,0,1.39,1.39h.08a1.39,1.39,0,0,0,1.39-1.39V93.12A1.42,1.42,0,0,0,32.1,91.7Z"/><path d="M54.29,94A8,8,0,0,0,51.4,92a9.85,9.85,0,0,0-3.87-.72,8.74,8.74,0,0,0-6,2.26,8.15,8.15,0,0,0-.72.72V93.1a1.41,1.41,0,0,0-1.41-1.4h0a1.41,1.41,0,0,0-1.41,1.4v18.57a1.4,1.4,0,0,0,1.4,1.39h.06a1.4,1.4,0,0,0,1.4-1.39V101.33a7.76,7.76,0,0,1,.52-2.88,7.61,7.61,0,0,1,1.45-2.35,6.45,6.45,0,0,1,2.1-1.54A6,6,0,0,1,47.43,94a6.89,6.89,0,0,1,2.8.52,5.4,5.4,0,0,1,2,1.4,5.93,5.93,0,0,1,1.18,2.21,10.34,10.34,0,0,1,.42,3v10.5a1.38,1.38,0,0,0,1.38,1.38h.1a1.37,1.37,0,0,0,1.37-1.38V101.1a12.6,12.6,0,0,0-.59-3.95A8.92,8.92,0,0,0,54.29,94Z"/><path d="M81.42,98.09a10.53,10.53,0,0,0-2.27-3.55,11,11,0,0,0-3.51-2.41,11.73,11.73,0,0,0-9.06,0,11,11,0,0,0-3.49,2.46,10.65,10.65,0,0,0-2.24,3.55,11.73,11.73,0,0,0-.79,4.3,11.61,11.61,0,0,0,.79,4.24,10.55,10.55,0,0,0,2.27,3.52,10.89,10.89,0,0,0,3.49,2.41,11.19,11.19,0,0,0,4.52.9,11.37,11.37,0,0,0,4.55-.9,10.6,10.6,0,0,0,3.5-2.44,10.86,10.86,0,0,0,2.24-3.56,11.74,11.74,0,0,0,.78-4.33A11.56,11.56,0,0,0,81.42,98.09ZM71.17,110.75a8.09,8.09,0,0,1-5.94-2.44,8.15,8.15,0,0,1-1.71-2.66,8.86,8.86,0,0,1-.6-3.31,9,9,0,0,1,.59-3.24,7.86,7.86,0,0,1,4.25-4.44A8.33,8.33,0,0,1,71.1,94a8.44,8.44,0,0,1,3.32.65A8.3,8.3,0,0,1,77,96.45a8.13,8.13,0,0,1,1.7,2.66,8.67,8.67,0,0,1,.61,3.31,9,9,0,0,1-.59,3.24,7.86,7.86,0,0,1-4.25,4.44A8.33,8.33,0,0,1,71.17,110.75Z"/><circle cx="32.12" cy="87.15" r="1.62"/></g></g></svg>