<svg xmlns="http://www.w3.org/2000/svg" viewBox="0 0 82.2 112.84"><defs><style>.cls-1{fill:#fff;}</style></defs><g id="Layer_2" data-name="Layer 2"><g id="Layer_1-2" data-name="Layer 1"><path class="cls-1" d="M32.22,70.35c1.16-.78-1.9-.49-2.16-1a20.16,20.16,0,0,1-3.63-.64c-2.16-.57-7.35-4.06-7.91-7.39s0-9.72,2.34-13.48a21.79,21.79,0,0,1,5.57-6s-4.54-10.79-4.92-18.94S21.76.26,27.08,0s4.53,13.32,3.63,22.15a114.44,114.44,0,0,0-.26,17.64,24.82,24.82,0,0,1,7-1.16,26.15,26.15,0,0,1,6.22.58s1.68-12.51,7.26-20.28S62.33,3.11,66.22,5.38s-1,10.4-4.41,14.63-9.2,10.58-11.14,14a58.66,58.66,0,0,0-3.37,7,19,19,0,0,1,8.13,8c2.62,5.44,2.88,12.18,1.46,15s-5.14,5-7.13,5c-1.69.08-8.79,1.85-8.79,1.85Z"/><path d="M27.64,41.22l1.21-.95s-.17-11.06,0-17.8.52-15.12-1.73-15S23.32,14,24.18,23.16A111.8,111.8,0,0,0,27.64,41.22Z"/><path d="M44.66,39.32S48.9,28.26,52.7,22s7.6-11.24,9.16-10.29-1.93,7.09-6.2,12.79-9.44,15.73-9.44,15.73Z"/><path d="M42.49,62.27a.24.24,0,0,0-.33.09s-.73,1.27-1.79,1.35a2.69,2.69,0,0,1-1.91-.9V60.93c.69-.37,1.8-1.52,1.8-1.91a1.78,1.78,0,0,0-1.91-1.38c-1.25,0-2.16.82-2.16,1.51S37.59,60.71,38,61v1.84a2.3,2.3,0,0,1-1.67.89c-1,0-1.77-1.38-1.77-1.39a.25.25,0,0,0-.33-.1.23.23,0,0,0-.09.32c0,.07.9,1.64,2.19,1.64a2.7,2.7,0,0,0,1.92-.92,3.06,3.06,0,0,0,2,.93h.15a3.17,3.17,0,0,0,2.18-1.59A.24.24,0,0,0,42.49,62.27Z"/><path d="M28.86,54.45a1.93,1.93,0,1,0,1.93,1.93A1.93,1.93,0,0,0,28.86,54.45Zm.55,1.79a.52.52,0,1,1,.52-.52A.52.52,0,0,1,29.41,56.24Z"/><path d="M47.85,54.45a1.93,1.93,0,1,0,1.93,1.93A1.93,1.93,0,0,0,47.85,54.45Zm.55,1.79a.52.52,0,1,1,.52-.52A.52.52,0,0,1,48.4,56.24Z"/><path class="cls-1" d="M60.4,49.94V41.39a3.12,3.12,0,0,0,2.44-2.9,3.37,3.37,0,0,0-6.7,0,3.12,3.12,0,0,0,2.44,2.9v8.33h-.25c-2.49-8.82-10-14.29-19.85-14.29S21.12,40.85,18.63,49.72h-.86A3.48,3.48,0,0,0,14.12,53v6.57a3.49,3.49,0,0,0,3.65,3.29h1.16a16.63,16.63,0,0,0,4.57,6.46L21.85,70.8a1,1,0,0,0-.12,1.42c3.72,4.49,9.81,7.12,16.69,7.12s13-2.58,16.69-7.12A1,1,0,0,0,55,70.8l-1.64-1.48a17,17,0,0,0,4.57-6.46h1.28a3.49,3.49,0,0,0,3.65-3.29V53A3.3,3.3,0,0,0,60.4,49.94ZM38.48,44.79c9.07,0,16.44,6,16.44,13.3,0,7.94-8.28,11.5-16.44,11.5S22,66,22,58.09C22,50.76,29.41,44.79,38.48,44.79Z"/><path d="M61,57.38H58.58c0-.38.06-.77.06-1.2a24.08,24.08,0,0,0-.49-4.82h1A1.71,1.71,0,0,1,61,53Z"/><path d="M59.19,61.21H57.91a20,20,0,0,0,.54-2.73H61v1.09A1.71,1.71,0,0,1,59.19,61.21Z"/><path d="M38.48,77.64c-6.09,0-11.51-2.19-14.92-6.08L25.26,70a22.66,22.66,0,0,0,13.22,3.78A22.69,22.69,0,0,0,51.7,70l1.7,1.53C50,75.45,44.57,77.64,38.48,77.64Z"/><path d="M17.77,51.36h1.1a24.46,24.46,0,0,0-.49,4.82,8.45,8.45,0,0,0,.06,1.2H16V53A1.62,1.62,0,0,1,17.77,51.36Z"/><path d="M38.48,43.69a21.91,21.91,0,0,0-6.09.88V37.94a23,23,0,0,1,12.18,0v6.68A20.21,20.21,0,0,0,38.48,43.69Z"/><path d="M31.17,38.33V45c-6.09,2.24-10.35,7.28-10.35,13.08,0,7.5,7.12,12.6,17.66,12.6s17.66-5,17.66-12.6c0-5.8-4.26-10.84-10.35-13.08V38.33c7.12,2.57,11.57,9.14,11.57,17.9,0,9.86-7.55,16.48-18.88,16.48S19.6,66.09,19.6,56.18C19.6,47.47,24.05,40.9,31.17,38.33Z"/><path d="M16,58.48H18.5a21.62,21.62,0,0,0,.55,2.73H17.77A1.71,1.71,0,0,1,16,59.57Z"/><ellipse cx="59.49" cy="38.49" rx="1.52" ry="1.37"/><path class="cls-1" d="M11.73,91H5.91v-5.3a1.4,1.4,0,0,0-1.4-1.4h0a1.4,1.4,0,0,0-1.4,1.4V91H1.36A1.36,1.36,0,0,0,0,92.37H0a1.36,1.36,0,0,0,1.36,1.36h1.7v12.67A6.55,6.55,0,0,0,4.61,111a5.8,5.8,0,0,0,4.45,1.69,8,8,0,0,0,3.39-.73,1,1,0,0,0,.55-.89v-.85a1,1,0,0,0-.48-.85,1,1,0,0,0-1-.05,5.41,5.41,0,0,1-2.49.6,2.9,2.9,0,0,1-2.36-.86,4.16,4.16,0,0,1-.79-2.75V93.74h5.82a1.35,1.35,0,0,0,1.35-1.34v-.05A1.35,1.35,0,0,0,11.73,91Z"/><path class="cls-1" d="M26.27,90.54a8.22,8.22,0,0,0-3.33.67,9.24,9.24,0,0,0-2.6,1.71,10,10,0,0,0-1,1.13V92.42A1.41,1.41,0,0,0,17.9,91h0a1.41,1.41,0,0,0-1.41,1.41V111a1.41,1.41,0,0,0,1.41,1.41h0A1.41,1.41,0,0,0,19.31,111v-9.62a8.41,8.41,0,0,1,.49-2.66A9.7,9.7,0,0,1,21.2,96a7.75,7.75,0,0,1,2.17-2,5,5,0,0,1,2.73-.74h.19a1,1,0,0,0,1-1v-.78A1,1,0,0,0,26.27,90.54Z"/><path class="cls-1" d="M32.1,91h0a1.42,1.42,0,0,0-1.42,1.42V111a1.39,1.39,0,0,0,1.39,1.39h.08A1.39,1.39,0,0,0,33.52,111V92.43A1.42,1.42,0,0,0,32.1,91Z"/><path class="cls-1" d="M54.29,93.32a8,8,0,0,0-2.89-2.06,9.85,9.85,0,0,0-3.87-.72,9,9,0,0,0-3.46.64,9.18,9.18,0,0,0-2.58,1.61,9.88,9.88,0,0,0-.72.73V92.41A1.41,1.41,0,0,0,39.36,91h0a1.41,1.41,0,0,0-1.41,1.4V111a1.4,1.4,0,0,0,1.4,1.39h.06a1.4,1.4,0,0,0,1.4-1.39V100.64a7.76,7.76,0,0,1,.52-2.88,7.61,7.61,0,0,1,1.45-2.35,6.62,6.62,0,0,1,2.1-1.55,6.19,6.19,0,0,1,2.59-.54,7.07,7.07,0,0,1,2.8.51,5.54,5.54,0,0,1,2,1.41,5.93,5.93,0,0,1,1.18,2.21,10.34,10.34,0,0,1,.42,3V111a1.38,1.38,0,0,0,1.38,1.38h.1A1.37,1.37,0,0,0,56.64,111V100.41a12.6,12.6,0,0,0-.59-4A8.92,8.92,0,0,0,54.29,93.32Z"/><path class="cls-1" d="M81.42,97.39a10.59,10.59,0,0,0-2.27-3.54,11,11,0,0,0-3.51-2.41,11.17,11.17,0,0,0-12.55,2.47,10.8,10.8,0,0,0-2.24,3.56,11.73,11.73,0,0,0-.79,4.3,11.61,11.61,0,0,0,.79,4.24,10.7,10.7,0,0,0,2.27,3.52,10.89,10.89,0,0,0,3.49,2.41,11.19,11.19,0,0,0,4.52.9,11.37,11.37,0,0,0,4.55-.9,10.6,10.6,0,0,0,3.5-2.44,10.86,10.86,0,0,0,2.24-3.56,11.78,11.78,0,0,0,.78-4.33A11.61,11.61,0,0,0,81.42,97.39ZM71.17,110.06a8.31,8.31,0,0,1-3.33-.65,8.12,8.12,0,0,1-2.61-1.8A8,8,0,0,1,63.52,105a8.86,8.86,0,0,1-.6-3.31,9,9,0,0,1,.59-3.24,7.91,7.91,0,0,1,1.67-2.65A7.75,7.75,0,0,1,67.76,94a8.33,8.33,0,0,1,3.34-.65,8.44,8.44,0,0,1,3.32.65A8.3,8.3,0,0,1,77,95.76a8.13,8.13,0,0,1,1.7,2.66,8.67,8.67,0,0,1,.61,3.31,9,9,0,0,1-.59,3.24,7.91,7.91,0,0,1-1.67,2.65,8.12,8.12,0,0,1-2.58,1.79A8.33,8.33,0,0,1,71.17,110.06Z"/><circle class="cls-1" cx="32.12" cy="86.46" r="1.62"/></g></g></svg>