<?xml version="1.0" encoding="UTF-8" standalone="no"?>
<svg
   width="256.00381"
   height="244"
   viewBox="0 0 256.00381 244"
   fill="none"
   version="1.1"
   id="svg882"
   sodipodi:docname="trino-icons-001c93.svg"
   inkscape:version="1.2.2 (b0a8486, 2022-12-01)"
   xml:space="preserve"
   xmlns:inkscape="http://www.inkscape.org/namespaces/inkscape"
   xmlns:sodipodi="http://sodipodi.sourceforge.net/DTD/sodipodi-0.dtd"
   xmlns="http://www.w3.org/2000/svg"
   xmlns:svg="http://www.w3.org/2000/svg"><defs
     id="defs886" /><sodipodi:namedview
     id="namedview884"
     pagecolor="#ffffff"
     bordercolor="#666666"
     borderopacity="1.0"
     inkscape:showpageshadow="2"
     inkscape:pageopacity="0.0"
     inkscape:pagecheckerboard="0"
     inkscape:deskcolor="#d1d1d1"
     showgrid="false"
     inkscape:zoom="0.18522237"
     inkscape:cx="1916.6151"
     inkscape:cy="2386.3208"
     inkscape:window-width="1920"
     inkscape:window-height="1052"
     inkscape:window-x="1080"
     inkscape:window-y="281"
     inkscape:window-maximized="0"
     inkscape:current-layer="svg882"
     showguides="true" /><path
     id="rbac-provider"
     d="M 175,31.98 V 5 c 0,-2.76 -2.24,-5 -5,-5 H 5 C 2.24,0 0,2.24 0,5 v 234 c 0,2.76 2.24,5 5,5 h 165 c 2.76,0 5,-2.24 5,-5 v -27.88 c 39.41,-17.84 61.56,-52.53 72.36,-82.65 5.44,-15.16 8.07,-29.34 8.56,-39.93 0.24,-5.25 -0.03,-9.84 -0.88,-13.28 -0.41,-1.71 -1.03,-3.39 -1.99,-4.76 -0.98,-1.4 -2.59,-2.82 -4.92,-3 -0.65,-0.05 -1.99,-0.36 -4.11,-1.09 -2.04,-0.7 -4.54,-1.69 -7.41,-2.93 -5.74,-2.47 -12.78,-5.83 -20.23,-9.56 C 201.66,46.55 185.52,37.84 175,31.98 Z M 8,8 V 236 H 167 V 210.93 C 128.5,192.9 106.76,158.7 96.09,128.95 90.66,113.79 88.02,99.6001 87.53,89.02 c -0.24,-5.26 0.04,-9.84 0.88,-13.29 0.42,-1.7 1.03,-3.38 1.99,-4.75 0.98,-1.41 2.6,-2.82 4.92,-3.01 0.66,-0.05 1.99,-0.3599 4.12,-1.09 2.03,-0.69 4.53,-1.69 7.41,-2.92 5.74,-2.47 12.78,-5.83 20.23,-9.56 C 141.13,47.3601 156.49,39.1001 167,33.26 V 8 Z m 122.66,53.55 c 14.76,-7.39 30.9,-16.1 41.49,-22 10.6,5.88 26.28,14.33 40.64,21.52 7.51,3.76 14.71,7.2 20.66,9.76 2.97,1.28 5.67,2.36 7.97,3.15 1.87,0.6401 3.69,1.16 5.24,1.4 0.17,0.33 0.4,0.9001 0.61,1.78 0.59,2.4001 0.88,6.1301 0.66,11.01 -0.45,9.7001 -2.9,23.1 -8.1,37.6 -10.4,29 -31.53,61.7 -68.63,78.29 -36.45,-16.73 -57.27,-49.09 -67.58,-77.81 -5.2,-14.5 -7.65,-27.9 -8.09,-37.6 -0.23,-4.88 0.06,-8.6199 0.65,-11.02 0.21,-0.88 0.44,-1.44 0.61,-1.7799 1.55,-0.23 3.37,-0.76 5.24,-1.4001 2.3,-0.79 5.01,-1.8599 7.98,-3.14 5.94,-2.56 13.14,-6 20.65,-9.76 z m 40.81,98.57 c 2.63,0 4.76,-2.13 4.76,-4.76 0,-2.63 -2.13,-4.77 -4.76,-4.77 -2.63,0 -4.77,2.14 -4.77,4.77 0,2.63 2.14,4.76 4.77,4.76 z M 161,93.6 c -1.98,2.75 -2.68,6.16 -2.68,8.38 0,2.21 -1.79,4 -4,4 -2.21,0 -4,-1.79 -4,-4 0,-3.49 1.02,-8.65 4.18,-13.05 3.32,-4.6099 8.8,-8.0999 16.97,-8.0999 8.16,0 13.65,3.49 16.96,8.0999 3.07,4.26 4.12,9.25 4.18,12.74 0.63,4.6 -0.84,13.52 -12.76,21.3 l -0.07,0.04 -0.06,0.04 c 0,0 0,-0.01 0,0 -0.01,0 -0.08,0.05 -0.21,0.15 -0.14,0.12 -0.32,0.3 -0.54,0.53 -0.43,0.47 -0.96,1.17 -1.47,2.1301 -1.02,1.91 -2.03,4.95 -2.03,9.48 0,2.21 -1.79,4 -4,4 -2.21,0 -4,-1.79 -4,-4 0,-11.4401 5.12,-17.3 8.05,-19.11 9.64,-6.3 9.35,-12.37 9.15,-13.59 l -0.06,-0.32 v -0.34 c 0,-2.22 -0.69,-5.63 -2.67,-8.38 -1.83,-2.55 -4.92,-4.77 -10.47,-4.77 -5.56,0 -8.64,2.22 -10.47,4.7699 z M 30.41,129.66 c -1.56,-1.56 -4.09,-1.57 -5.65,-0.01 -1.57,1.56 -1.57,4.1 -0.01,5.66 l 8.21,8.23 -8.21,8.23 c -1.56,1.56 -1.56,4.09 0.01,5.65 1.56,1.56 4.09,1.56 5.65,0 l 8.2,-8.22 8.2,8.22 c 1.56,1.56 4.09,1.56 5.66,0 1.56,-1.5599 1.56,-4.0899 0,-5.65 l -8.21,-8.23 8.21,-8.23 c 1.56,-1.56 1.56,-4.1 0,-5.66 -1.57,-1.56 -4.1,-1.55 -5.66,0.01 l -8.2,8.21 z m 29.06,57.12 c 1.56,-1.57 1.56,-4.1 -0.01,-5.66 -1.56,-1.56 -4.09,-1.56 -5.65,0.01 l -20.25,20.29 c -0.39,0.39 -1.03,0.39 -1.42,0 l -8.38,-8.4 c -1.56,-1.56 -4.1,-1.57 -5.66,-0.01 -1.57,1.56 -1.57,4.1 -0.01,5.66 l 8.39,8.4 c 3.51,3.53 9.22,3.53 12.74,0 z M 59.46,76.28 c 1.57,1.56 1.57,4.09 0.01,5.65 l -20.25,20.3 c -3.52,3.52 -9.23,3.52 -12.74,0 l -8.39,-8.4 c -1.56,-1.57 -1.56,-4.1 0.01,-5.66 1.56,-1.56 4.1,-1.56 5.66,0.01 l 8.38,8.4 c 0.39,0.39 1.03,0.39 1.42,0 l 20.25,-20.3 c 1.56,-1.56 4.09,-1.56 5.65,0 z m 0.01,-43.91 c 1.56,-1.56 1.56,-4.09 -0.01,-5.65 -1.56,-1.56 -4.09,-1.56 -5.65,0 l -20.25,20.3 c -0.39,0.39 -1.03,0.39 -1.42,0 l -8.38,-8.41 c -1.56,-1.56 -4.1,-1.56 -5.66,0 -1.57,1.56 -1.57,4.09 -0.01,5.65 l 8.39,8.41 c 3.51,3.52 9.22,3.52 12.74,0 z"
     style="fill:#001c93;fill-opacity:1;fill-rule:evenodd"
     inkscape:label="rbac-provider" /></svg>
