<?xml version="1.0" encoding="UTF-8" standalone="no"?>
<svg
   width="196"
   height="256"
   viewBox="0 0 196 256"
   fill="none"
   version="1.1"
   id="svg882"
   sodipodi:docname="trino-icons-001c93.svg"
   inkscape:version="1.2.2 (b0a8486, 2022-12-01)"
   xml:space="preserve"
   xmlns:inkscape="http://www.inkscape.org/namespaces/inkscape"
   xmlns:sodipodi="http://sodipodi.sourceforge.net/DTD/sodipodi-0.dtd"
   xmlns="http://www.w3.org/2000/svg"
   xmlns:svg="http://www.w3.org/2000/svg"><defs
     id="defs886" /><sodipodi:namedview
     id="namedview884"
     pagecolor="#ffffff"
     bordercolor="#666666"
     borderopacity="1.0"
     inkscape:showpageshadow="2"
     inkscape:pageopacity="0.0"
     inkscape:pagecheckerboard="0"
     inkscape:deskcolor="#d1d1d1"
     showgrid="false"
     inkscape:zoom="0.18522237"
     inkscape:cx="1916.6151"
     inkscape:cy="2386.3208"
     inkscape:window-width="1920"
     inkscape:window-height="1052"
     inkscape:window-x="1080"
     inkscape:window-y="281"
     inkscape:window-maximized="0"
     inkscape:current-layer="svg882"
     showguides="true" /><path
     id="generic-service"
     d="m 39,5 c 0,-2.76 2.239,-5 5,-5 h 108 c 2.761,0 5,2.24 5,5 v 171.17 c 0,2.7601 -2.239,5 -5,5 H 102 V 213 h 13 c 2.761,0 5,2.24 5,5 v 12 h 72 c 2.209,0 4,1.79 4,4 0,2.21 -1.791,4 -4,4 h -72 v 13 c 0,2.7601 -2.239,5 -5,5 H 81 c -2.761,0 -5,-2.2399 -5,-5 V 238 H 4 c -2.209,0 -4,-1.79 -4,-4 0,-2.21 1.791,-4 4,-4 h 72 v -12 c 0,-2.76 2.239,-5 5,-5 H 94 V 181.17 H 44 c -2.761,0 -5,-2.2399 -5,-5 z m 8,3 V 34.3401 H 149 V 8 Z m 0,58 V 42.3401 H 149 V 66 Z m 37,182 v -27 h 28 v 27 z M 47,74 h 102 v 99.17 H 47 Z m 51,77.63 c 3.866,0 7,-3.09 7,-6.8899 0,-3.81 -3.134,-6.89 -7,-6.89 -3.866,0 -7,3.08 -7,6.89 0,3.8 3.134,6.8899 7,6.8899 z m 0.5,-58.09 c 2.485,0 4.5,2.0101 4.5,4.5 v 15.61 c 0,2.49 -2.015,4.5 -4.5,4.5 -2.485,0 -4.5,-2.01 -4.5,-4.5 V 98.04 c 0,-2.4899 2.015,-4.5 4.5,-4.5 z"
     style="fill:#001c93;fill-opacity:1;fill-rule:evenodd"
     inkscape:label="generic-service" /></svg>
