<?xml version="1.0" encoding="UTF-8" standalone="no"?>
<svg
   width="256"
   height="180.60001"
   viewBox="0 0 256 180.60001"
   fill="none"
   version="1.1"
   id="svg882"
   sodipodi:docname="trino-icons-001c93.svg"
   inkscape:version="1.2.2 (b0a8486, 2022-12-01)"
   xml:space="preserve"
   xmlns:inkscape="http://www.inkscape.org/namespaces/inkscape"
   xmlns:sodipodi="http://sodipodi.sourceforge.net/DTD/sodipodi-0.dtd"
   xmlns="http://www.w3.org/2000/svg"
   xmlns:svg="http://www.w3.org/2000/svg"><defs
     id="defs886" /><sodipodi:namedview
     id="namedview884"
     pagecolor="#ffffff"
     bordercolor="#666666"
     borderopacity="1.0"
     inkscape:showpageshadow="2"
     inkscape:pageopacity="0.0"
     inkscape:pagecheckerboard="0"
     inkscape:deskcolor="#d1d1d1"
     showgrid="false"
     inkscape:zoom="0.18522237"
     inkscape:cx="1916.6151"
     inkscape:cy="2386.3208"
     inkscape:window-width="1920"
     inkscape:window-height="1052"
     inkscape:window-x="1080"
     inkscape:window-y="281"
     inkscape:window-maximized="0"
     inkscape:current-layer="svg882"
     showguides="true" /><path
     id="shared-secret"
     d="m 40,32 c 0,-0.5519 0.45,-1 1,-1 h 41 c 2.21,0 4,-1.791 4,-4 0,-2.209 -1.79,-4 -4,-4 H 41 c -4.97,0 -9,4.029 -9,9 v 34 c 0,2.209 1.79,4 4,4 2.21,0 4,-1.791 4,-4 z m 173,-1 c 0.55,0 1,0.4481 1,1 v 34 c 0,2.209 1.79,4 4,4 2.21,0 4,-1.791 4,-4 V 32 c 0,-4.971 -4.03,-9 -9,-9 h -41 c -2.21,0 -4,1.791 -4,4 0,2.209 1.79,4 4,4 z m -30.46,125.08 c 0,-11.05 8.95,-20 20,-20 H 236 c 11.05,0 20,8.95 20,20 v 19.52 c 0,2.76 -2.24,5 -5,5 h -63.46 c -2.76,0 -5,-2.24 -5,-5 z m 20,-12 H 236 c 6.63,0 12,5.3699 12,12 v 16.52 h -57.46 v -16.52 c 0,-6.6301 5.37,-12 12,-12 z m -91.27,-8 c -11.05,0 -20,8.95 -20,20 v 19.52 c 0,2.76 2.24,5 5,5 h 63.46 c 2.76,0 5,-2.24 5,-5 v -19.52 c 0,-11.05 -8.95,-20 -20,-20 z m 0,8 c -6.63,0 -12,5.3699 -12,12 v 16.52 h 57.46 v -16.52 c 0,-6.6301 -5.37,-12 -12,-12 z M 0,156.08 c 0,-11.05 8.95,-20 20,-20 h 33.46 c 11.05,0 20,8.95 20,20 v 19.52 c 0,2.76 -2.24,5 -5,5 H 5 c -2.76,0 -5,-2.24 -5,-5 z m 20,-12 h 33.46 c 6.63,0 12,5.3699 12,12 V 172.6 H 8 v -16.52 c 0,-6.6301 5.37,-12 12,-12 z m 199.27,-11.34 c 13.52,0 24.49,-10.96 24.49,-24.49 0,-13.5219 -10.97,-24.4849 -24.49,-24.4849 -13.52,0 -24.49,10.963 -24.49,24.4849 0,13.53 10.97,24.49 24.49,24.49 z m 0,-8 c 9.11,0 16.49,-7.38 16.49,-16.49 0,-9.103 -7.38,-16.4849 -16.49,-16.4849 -9.11,0 -16.49,7.382 -16.49,16.4849 0,9.11 7.38,16.49 16.49,16.49 z m -66.78,-16.49 c 0,13.53 -10.97,24.49 -24.49,24.49 -13.52,0 -24.49,-10.96 -24.49,-24.49 0,-13.5219 10.97,-24.4849 24.49,-24.4849 13.52,0 24.49,10.963 24.49,24.4849 z m -8,0 c 0,9.11 -7.38,16.49 -16.49,16.49 -9.11,0 -16.49,-7.38 -16.49,-16.49 0,-9.103 7.38,-16.4849 16.49,-16.4849 9.11,0 16.49,7.382 16.49,16.4849 z m -83.27,0 c 0,13.53 -10.97,24.49 -24.49,24.49 -13.52,0 -24.49,-10.96 -24.49,-24.49 0,-13.5219 10.97,-24.4849 24.49,-24.4849 13.52,0 24.49,10.963 24.49,24.4849 z m -8,0 c 0,9.11 -7.38,16.49 -16.49,16.49 -9.11,0 -16.49,-7.38 -16.49,-16.49 0,-9.103 7.38,-16.4849 16.49,-16.4849 9.11,0 16.49,7.382 16.49,16.4849 z M 145,27 h 8.05 c 2.76,0 5,2.239 5,5 v 32.296 c 0,2.761 -2.24,5 -5,5 h -51.22 c -2.76,0 -5,-2.239 -5,-5 V 32 c 0,-2.761 2.24,-5 5,-5 H 111 V 17 c 0,-9.3889 7.61,-17 17,-17 9.39,0 17,7.6111 17,17 z m -8,0 V 17 c 0,-4.971 -4.03,-9 -9,-9 -4.97,0 -9,4.029 -9,9 V 27 Z M 104.83,61.296 V 35 h 45.22 V 61.296 Z M 128,58.0551 c -1.66,0.03 -3,-1.289 -3,-2.946 v -5.906 -0.01 c -1.79,-1.037 -3,-2.976 -3,-5.1969 0,-3.3141 2.69,-6 6,-6 3.31,0 6,2.6859 6,6 0,2.221 -1.21,4.161 -3,5.198 v 5.802 c 0,1.6569 -1.34,3.0239 -3,3.055 z"
     style="fill:#001c93;fill-opacity:1;fill-rule:evenodd"
     inkscape:label="shared-secret" /></svg>
