<?xml version="1.0" encoding="UTF-8" standalone="no"?>
<svg
   width="255.99782"
   height="146"
   viewBox="0 0 255.99782 146"
   fill="none"
   version="1.1"
   id="svg882"
   xml:space="preserve"
   xmlns="http://www.w3.org/2000/svg"
   xmlns:svg="http://www.w3.org/2000/svg"><defs
     id="defs886" /><path
     id="authenticated-session"
     d="m 182.33,115 c 8.71,0 15.77,-7.163 15.77,-16 0,-8.837 -7.06,-16 -15.77,-16 -8.71,0 -15.77,7.163 -15.77,16 0,8.837 7.06,16 15.77,16 z m 0,-8 c 4.34,0 7.87,-3.573 7.87,-8 0,-4.427 -3.53,-8 -7.87,-8 -4.34,0 -7.88,3.573 -7.88,8 0,4.427 3.54,8 7.88,8 z m 0,-44 c 8.71,0 15.77,-7.163 15.77,-16 0,-8.837 -7.06,-16 -15.77,-16 -8.71,0 -15.77,7.163 -15.77,16 0,8.837 7.06,16 15.77,16 z m 0,-8 c 4.34,0 7.87,-3.573 7.87,-8 0,-4.427 -3.53,-8 -7.87,-8 -4.34,0 -7.88,3.573 -7.88,8 0,4.427 3.54,8 7.88,8 z m 50.37,73.117 c -0.32,2.353 1.32,4.482 3.64,4.756 2.33,0.274 4.47,-1.411 4.78,-3.763 L 255.96,17.252 c 0.31,-2.352 -1.32,-4.482 -3.64,-4.756 -2.33,-0.274 -4.47,1.411 -4.78,3.763 z m -21.23,0 c -0.31,2.353 1.32,4.482 3.65,4.756 2.33,0.274 4.46,-1.411 4.78,-3.763 L 234.74,17.252 c 0.31,-2.352 -1.32,-4.482 -3.65,-4.756 -2.32,-0.274 -4.46,1.411 -4.77,3.763 z M 52.26,8 h 42.33 c 6.54,0 11.84,5.373 11.84,12 v 13 h 0.14 c 0.43,1.725 1.98,3 3.81,3 1.84,0 3.38,-1.275 3.82,-3 h 0.13 V 20 C 114.33,8.954 105.49,0 94.59,0 H 52.26 C 41.36,0 32.53,8.954 32.53,20 V 48 H 22.22 c -2.29,0 -4.5,0.901 -6.16,2.514 L 2.72,63.525 C 0.98,65.221 0,67.563 0,70.01 v 53.98 c 0,2.447 0.98,4.789 2.72,6.485 l 13.34,13.011 c 1.66,1.613 3.87,2.514 6.16,2.514 h 103.52 c 2.3,0 4.5,-0.901 6.16,-2.514 l 13.34,-13.011 c 1.74,-1.696 2.72,-4.038 2.72,-6.485 V 70.01 c 0,-2.447 -0.98,-4.789 -2.72,-6.485 L 131.9,50.514 C 130.24,48.901 128.04,48 125.74,48 H 95.4 c 0.13,-0.646 0.2,-1.315 0.2,-2 V 32 c 0,-5.523 -4.42,-10 -9.87,-10 H 62.1 c -5.45,0 -9.86,4.477 -9.86,10 v 14 c 0,0.685 0.07,1.354 0.19,2 H 40.42 V 20 c 0,-6.627 5.3,-12 11.84,-12 z m 9.84,40 h 23.63 c 1.09,0 1.98,-0.895 1.98,-2 V 32 c 0,-1.105 -0.89,-2 -1.98,-2 H 62.1 c -1.09,0 -1.97,0.895 -1.97,2 v 14 c 0,1.105 0.88,2 1.97,2 z M 21.54,56.279 C 21.72,56.1 21.97,56 22.22,56 h 103.52 c 0.25,0 0.5,0.1 0.68,0.279 l 13.35,13.011 c 0.19,0.188 0.3,0.448 0.3,0.72 v 53.98 c 0,0.272 -0.11,0.532 -0.3,0.72 l -13.35,13.011 C 126.24,137.9 125.99,138 125.74,138 H 22.22 c -0.25,0 -0.5,-0.1 -0.68,-0.279 L 8.2,124.71 C 8,124.522 7.89,124.262 7.89,123.99 V 70.01 C 7.89,69.738 8,69.478 8.2,69.29 Z m 4.39,75.894 c -2.35,0.043 -4.24,-1.846 -4.24,-4.22 V 71.77 c 0,-2.374 1.89,-4.333 4.24,-4.376 2.34,-0.043 4.23,1.846 4.23,4.219 v 56.184 c 0,2.373 -1.89,4.332 -4.23,4.376 z m 48.29,-4.316 c 2.34,-0.043 4.24,-2.003 4.24,-4.376 V 102.328 C 84.95,100.351 89.69,94.236 89.69,87 c 0,-8.837 -7.06,-16 -15.77,-16 -8.71,0 -15.77,7.163 -15.77,16 0,7.455 5.03,13.72 11.83,15.496 v 21.142 c 0,2.373 1.9,4.262 4.24,4.219 z M 81.79,87 c 0,4.427 -3.53,8 -7.87,8 -4.34,0 -7.88,-3.573 -7.88,-8 0,-4.427 3.54,-8 7.88,-8 4.34,0 7.87,3.573 7.87,8 z m 39.73,44.857 c -2.34,0.043 -4.24,-1.846 -4.24,-4.219 V 71.454 c 0,-2.373 1.9,-4.332 4.24,-4.376 2.34,-0.043 4.24,1.846 4.24,4.219 v 56.184 c 0,2.373 -1.9,4.333 -4.24,4.376 z"
     style="fill:#f8b600;fill-opacity:1;fill-rule:evenodd" /></svg>
