<?xml version="1.0" encoding="UTF-8" standalone="no"?>
<svg
   width="259.79401"
   height="255.98004"
   viewBox="0 0 259.79401 255.98004"
   fill="none"
   version="1.1"
   id="svg882"
   sodipodi:docname="trino-icons-212121.svg"
   inkscape:version="1.2.2 (b0a8486, 2022-12-01)"
   xml:space="preserve"
   xmlns:inkscape="http://www.inkscape.org/namespaces/inkscape"
   xmlns:sodipodi="http://sodipodi.sourceforge.net/DTD/sodipodi-0.dtd"
   xmlns="http://www.w3.org/2000/svg"
   xmlns:svg="http://www.w3.org/2000/svg"><defs
     id="defs886" /><sodipodi:namedview
     id="namedview884"
     pagecolor="#ffffff"
     bordercolor="#666666"
     borderopacity="1.0"
     inkscape:showpageshadow="2"
     inkscape:pageopacity="0.0"
     inkscape:pagecheckerboard="0"
     inkscape:deskcolor="#d1d1d1"
     showgrid="false"
     inkscape:zoom="0.18522237"
     inkscape:cx="1916.6151"
     inkscape:cy="2386.3208"
     inkscape:window-width="1920"
     inkscape:window-height="1080"
     inkscape:window-x="1080"
     inkscape:window-y="253"
     inkscape:window-maximized="0"
     inkscape:current-layer="svg882"
     showguides="true" /><path
     id="cloud-provider"
     d="m 228.925,73.57005 c 1.306,3.7 2.016,7.67 2.016,11.82 0,19.41 -15.594,35.19 -34.957,35.52 v 0 h -62.087 v 37.71 c 0,0.31 -0.035,0.61 -0.102,0.9 l 0.573,0.27 8.558,-4.96 c 5.076,-2.95 11.56,-1.19 14.482,3.89 l 1.736,3.01 c 1.536,-2.45 4.258,-4.1 7.382,-4.1 h 7.066 c 4.838,0 8.711,3.94 8.711,8.75 v 5.49 c 0,0.31 0.178,0.57 0.425,0.68 l 6.56,3.03 5.595,-3.25 c 4.183,-2.43 9.519,-0.98 11.916,3.2 l 3.533,6.17 c 1.89,3.29 1.404,7.33 -0.946,10.06 h 46.408 c 2.209,0 4,1.79999 4,4 0,2.21 -1.791,4 -4,4 H 202.31 l 0.534,5.73 5.268,3.06 c 4.166,2.41999 5.571,7.75999 3.183,11.92999 l -3.533,6.16 c -2.397,4.18 -7.733,5.64 -11.916,3.21 l -4.725,-2.75 c -0.234,-0.14 -0.522,-0.13 -0.745,0.03 l -6.168,4.41 v 6.66 c 0,4.81 -3.873,8.75 -8.71,8.75 h -7.067 c -4.837,0 -8.71,-3.94 -8.71,-8.75 v -5.49 c 0,-0.31 -0.178,-0.57 -0.425,-0.68 l -7.575,-3.5 -5.249,3.05 c -4.068,2.37 -9.226,1.06 -11.711,-2.86 l -9.19,6.55 v 10.1 c 0,5.85 -4.729,10.61 -10.595,10.61 h -9.892 c -5.866,0 -10.595,-4.76 -10.595,-10.61 v -7.67 c 0,-1.03 -0.6,-1.96 -1.519,-2.38 l -11.366,-5.23 -8.073,4.67 c -5.076,2.95 -11.56,1.19 -14.482,-3.88 l -4.946,-8.6 c -2.917,-5.07 -1.192,-11.56 3.875,-14.5 l 6.616,-3.83 c 0.878,-0.51 1.388,-1.49 1.291,-2.52 l -0.156,-1.67 H 4 c -2.209,0 -4,-1.79 -4,-4 0,-2.2 1.791,-4 4,-4 h 60.979 l -0.184,-1.96 -8.136,-4.71 c -5.067,-2.94 -6.792,-9.43 -3.876,-14.5 l 4.947,-8.6 c 2.922,-5.08 9.406,-6.83 14.482,-3.89 l 6.615,3.84 c 0.876,0.51 1.964,0.45 2.789,-0.13 l 10.205,-7.28 v -9.37 c 0,-5.85 4.73,-10.62 10.595,-10.62 h 9.893 c 5.865,0 10.595,4.77 10.595,10.62 v 7.67 c 0,1.03 0.599,1.96 1.519,2.38 l 1.474,0.68 v -34.98 H 78.626 c -19.011,0 -34.921,-13.25 -38.96,-31.02 l -12.021,0.34 v -0.01 0 c -13.58,0.14 -24.817,-10.62 -25.194,-24.23 -0.381,-13.75 10.478,-25.21 24.254,-25.59 1.924,-0.05 3.803,0.12 5.613,0.48 0.61,0.12 1.203,-0.31 1.265,-0.93 1.952,-19.63 18.268,-35.22 38.541,-35.78 8.263,-0.23 16.008,2.08 22.49,6.2 0.321,0.21 0.639,0.42 0.953,0.63 C 104.982,4.09004 116.61,0 129.194,0 c 22.506,0 41.956,13.07004 51.152,32.02004 3.429,-12.7 15.046,-22.05 28.851,-22.05 13.456,0 24.835,8.88 28.576,21.1 0.12,0.39 0.461,0.67 0.868,0.73 10.258,1.39 18.164,10.17 18.164,20.79 0,11.59 -9.408,20.98 -21.013,20.98 z m -33.079,39.34 H 195.603 78.626 c -17.658,0 -31.952,-14.28 -31.952,-31.88 0,-5.22 1.255,-10.14 3.479,-14.49 4.169,-6.78 10.318,-12.23 17.666,-15.54 2.379,-0.85 4.889,-1.43 7.492,-1.7 l 5.411,-0.55 1.473,-5.24 c 5.765,-20.49 24.627,-35.51 46.995,-35.51 19.623,0 36.538,11.56 44.29,28.22 -0.07,0 -0.14,0.01 -0.21,0.01 0.385,0.68 0.757,1.37 1.116,2.06 1.754,4.28 2.915,8.87 3.38,13.66 l 0.923,9.51 9.197,-2.58 c 2.367,-0.66 4.872,-1.02 7.473,-1.02 0.275,0 0.548,0.01 0.821,0.01 9.923,1.74 18.433,7.57 23.707,15.7 h 0.39 c 1.708,3.58 2.664,7.59 2.664,11.82 0,15.03 -12.076,27.26 -27.095,27.52 z m -5.839,-63.57 c 2.381,0 4.717,0.19 6.994,0.56 11.621,0.53 21.79,6.62 27.894,15.67 h 10.895 c 7.198,0 13.011,-5.82 13.011,-12.98 0,-6.56 -4.884,-12 -11.237,-12.86 -3.457,-0.47 -6.397,-2.9 -7.444,-6.32 -2.739,-8.94001 -11.078,-15.44001 -20.927,-15.44001 -11.067,0 -20.212,8.20001 -21.674,18.83001 -0.297,2.14999 -1.308,3.99 -2.74,5.34 0.862,2.37 1.589,4.80999 2.172,7.30999 1.01,-0.07 2.03,-0.11 3.056,-0.10999 z m -59.229,172.42 c -2.038,-4.09 -0.587,-9.14 3.428,-11.47 l 4.726,-2.75 c 0.238,-0.14 0.391,-0.42 0.363,-0.73 l -0.725,-7.75 -5.306,-3.09 c -4.166,-2.42 -5.572,-7.76 -3.184,-11.92 l 3.534,-6.17 c 2.397,-4.18 7.733,-5.63 11.916,-3.2 l 4.643,2.7 4.294,-2.49 c 1.242,-0.72 1.678,-2.33 0.952,-3.59 l -4.946,-8.6 c -0.72,-1.25 -2.304,-1.67 -3.536,-0.95 l -9.364,5.42 c -1.15,1.15999 -2.944,1.53999 -4.512,0.82 l -11.981,-5.51 c -3.769,-1.74 -6.176,-5.51 -6.176,-9.65 v -7.67 c 0,-1.46 -1.175,-2.62 -2.595,-2.62 h -9.893 c -1.419,0 -2.595,1.16 -2.595,2.62 v 11.91 c 0,1.98 -1.43,3.62 -3.31,3.95 l -10.252,7.3 c -3.38,2.41 -7.851,2.62 -11.443,0.54 l -6.615,-3.83 c -1.233,-0.72001 -2.816,-0.3 -3.537,0.95 l -4.946,8.6 c -0.726,1.26 -0.289,2.87 0.952,3.59 l 10.281,5.95 c 1.672,0.97 2.38,2.97 1.79,4.73 l 1.109,11.83 c 0.387,4.13 -1.656,8.11 -5.245,10.19 l -6.616,3.83 c -1.241,0.72 -1.677,2.33 -0.952,3.59 l 4.946,8.6 c 0.721,1.25 2.304,1.67 3.537,0.95 l 10.28,-5.95 c 1.714,-1 3.859,-0.58 5.082,0.9 l 11.431,5.26 c 3.769,1.73 6.176,5.5 6.176,9.65 v 7.67 c 0,1.46 1.175,2.61 2.595,2.61 h 9.892 c 1.42,0 2.595,-1.15 2.595,-2.61 v -11.92 c 0,-0.79 0.232,-1.53 0.631,-2.16 0.283,-0.58 0.713,-1.1 1.279,-1.51 l 10.746,-7.66 c 0.18,-0.12 0.364,-0.25 0.551,-0.36 z m -65.945,-178.18 c 2.518,-1.12 5.151,-2.02 7.878,-2.69 3.229,-9.5 8.607,-18.01 15.565,-24.96 -4.735,-2.54 -10.176,-3.92 -15.938,-3.76 -16.204,0.45 -29.241,12.9 -30.799,28.57 -0.537,5.4 -5.625,9.02 -10.796,7.98 -1.226,-0.24 -2.504,-0.36 -3.824,-0.32 -9.37,0.26 -16.734,8.05 -16.475,17.37 0.255,9.23 7.88,16.55 17.116,16.45 0.037,0 0.073,0 0.109,0 h 0.173 v 0 h 0.036 v 0 l 8.689,-0.24 c 0.788,-7.01 3.095,-13.57 6.591,-19.34 4.566,-8.76 12.293,-15.62 21.671,-19.06 z m 101.693,122.05 c -0.365,0 -0.711,0.31 -0.711,0.75 v 8.54 c 0,1.87 -1.291,3.45 -3.033,3.88 l -7.128,5.1 c -2.781,1.99 -6.464,2.16 -9.42,0.44 l -4.726,-2.75 c -0.323,-0.18 -0.75,-0.08 -0.954,0.27 l -3.533,6.16 c -0.214,0.38 -0.075,0.84 0.265,1.04 l 7.343,4.27 c 1.591,0.92 2.306,2.78 1.859,4.48 l 0.772,8.26 c 0.317,3.39 -1.355,6.67 -4.307,8.38 l -4.725,2.75 c -0.34,0.2 -0.479,0.66 -0.265,1.04 l 3.533,6.16 c 0.204,0.36 0.631,0.45 0.954,0.27 l 7.344,-4.27 c 1.633,-0.95001 3.659,-0.62 4.907,0.69 l 7.948,3.67 c 3.102,1.44 5.072,4.54999 5.072,7.95 v 5.49 c 0,0.44 0.345,0.75 0.71,0.75 h 7.067 c 0.365,0 0.71,-0.31 0.71,-0.75 v -8.54 c 0,-0.76 0.217,-1.48 0.592,-2.09 0.282,-0.56 0.7,-1.06 1.246,-1.45 l 7.676,-5.49 c 2.781,-1.99 6.464,-2.17 9.42,-0.45001 l 4.726,2.75 c 0.323,0.19001 0.75,0.09 0.954,-0.26999 l 3.533,-6.16 c 0.214,-0.37 0.075,-0.84 -0.265,-1.04 l -7.343,-4.27 c -1.622,-0.94 -2.334,-2.85 -1.832,-4.57 l -0.82,-8.78 c -0.317,-3.39 1.355,-6.67 4.307,-8.38 l 4.725,-2.75 c 0.34,-0.2 0.479,-0.66 0.265,-1.04 l -3.533,-6.16 c -0.204,-0.35 -0.631,-0.45 -0.954,-0.27 l -6.568,3.82 c -1.153,1.08 -2.885,1.41 -4.404,0.71 l -8.558,-3.95 c -3.102,-1.44 -5.072,-4.54 -5.072,-7.95 v -5.49 c 0,-0.44 -0.345,-0.75 -0.711,-0.75 z m 17.759,36.66 c 0,7.49 -6.088,13.55 -13.597,13.55 -7.51,0 -13.597,-6.06 -13.597,-13.55 0,-7.48 6.087,-13.55 13.597,-13.55 7.509,0 13.597,6.07 13.597,13.55 z m -8,0 c 0,3.04 -2.482,5.55 -5.597,5.55 -3.116,0 -5.597,-2.51 -5.597,-5.55 0,-3.04 2.481,-5.55 5.597,-5.55 3.115,0 5.597,2.51 5.597,5.55 z m -69.049,13.55 c 11.403,0 20.647,-9.21 20.647,-20.58 0,-11.36 -9.244,-20.58001 -20.647,-20.58001 -11.404,0 -20.648,9.22001 -20.648,20.58001 0,11.37 9.244,20.58 20.648,20.58 z m 0,-8 c 7.009,0 12.647,-5.65 12.647,-12.58 0,-6.92 -5.638,-12.58001 -12.647,-12.58001 -7.01,0 -12.648,5.66 -12.648,12.58001 0,6.92999 5.638,12.58 12.648,12.58 z"
     style="fill:#212121;fill-opacity:1;fill-rule:evenodd"
     inkscape:label="cloud-provider" /></svg>
