<?xml version="1.0" encoding="UTF-8" standalone="no"?>
<svg
   width="180"
   height="256.00009"
   viewBox="0 0 180 256.00009"
   fill="none"
   version="1.1"
   id="svg882"
   sodipodi:docname="trino-icons-212121.svg"
   inkscape:version="1.2.2 (b0a8486, 2022-12-01)"
   xml:space="preserve"
   xmlns:inkscape="http://www.inkscape.org/namespaces/inkscape"
   xmlns:sodipodi="http://sodipodi.sourceforge.net/DTD/sodipodi-0.dtd"
   xmlns="http://www.w3.org/2000/svg"
   xmlns:svg="http://www.w3.org/2000/svg"><defs
     id="defs886" /><sodipodi:namedview
     id="namedview884"
     pagecolor="#ffffff"
     bordercolor="#666666"
     borderopacity="1.0"
     inkscape:showpageshadow="2"
     inkscape:pageopacity="0.0"
     inkscape:pagecheckerboard="0"
     inkscape:deskcolor="#d1d1d1"
     showgrid="false"
     inkscape:zoom="0.18522237"
     inkscape:cx="1916.6151"
     inkscape:cy="2386.3208"
     inkscape:window-width="1920"
     inkscape:window-height="1080"
     inkscape:window-x="1080"
     inkscape:window-y="253"
     inkscape:window-maximized="0"
     inkscape:current-layer="svg882"
     showguides="true" /><path
     fill-rule="evenodd"
     clip-rule="evenodd"
     d="M 179.7,32.4871 C 175.96,14.3011 137.23,0 90,0 41.21,0 1.49,15.2601 0.04,34.3001 0.01,34.4881 0,34.6791 0,34.8741 v 185.749 1.789 c 0,0.694 0.18,1.346 0.49,1.915 4.71,17.797 42.99,31.673 89.51,31.673 49.71,0 90,-15.839 90,-35.377 0,-0.135 0,-0.271 -0.01,-0.406 0.01,-0.072 0.01,-0.144 0.01,-0.217 v -186 c 0,-0.535 -0.11,-1.046 -0.3,-1.513 z m -12.22,10.8 c 3.56,-3.308 4.52,-5.987 4.52,-7.91 0,-1.923 -0.96,-4.602 -4.52,-7.91 -3.57,-3.318 -9.17,-6.675 -16.77,-9.66 -15.14,-5.951 -36.6,-9.807 -60.71,-9.807 -24.11,0 -45.57,3.856 -60.71,9.807 -7.6,2.985 -13.2,6.342 -16.77,9.66 C 8.96,30.7741 8,33.4541 8,35.3761 v 10e-4 c 0,1.923 0.96,4.602 4.52,7.91 3.57,3.318 9.17,6.674 16.77,9.66 15.14,5.951 36.6,9.807 60.71,9.807 24.11,0 45.57,-3.856 60.71,-9.807 7.6,-2.986 13.2,-6.342 16.77,-9.66 z m 4.52,6.692 c -14.14,12.253 -45.54,20.775 -82,20.775 -36.46,0 -67.86,-8.522 -82,-20.775 v 31.066 H 8.03 C 8.01,81.2661 8,81.4791 8,81.6831 v 0.01 c 0,1.923 0.96,4.6 4.52,7.906 3.57,3.318 9.17,6.674 16.77,9.659 15.14,5.952 36.6,9.807 60.71,9.807 24.11,0 45.57,-3.855 60.71,-9.807 7.6,-2.985 13.2,-6.341 16.77,-9.659 3.56,-3.308 4.52,-5.988 4.52,-7.911 0,-0.205 -0.01,-0.42 -0.03,-0.643 H 172 Z m 0,46.311 c -14.14,12.253 -45.54,20.775 -82,20.775 -36.46,0 -67.86,-8.522 -82,-20.775 v 31.067 h 0.03 c -0.02,0.22 -0.03,0.432 -0.03,0.636 v 0.01 0.01 c 0,1.922 0.96,4.599 4.52,7.903 3.57,3.318 9.17,6.675 16.77,9.66 15.14,5.951 36.6,9.807 60.71,9.807 24.11,0 45.57,-3.856 60.71,-9.807 7.6,-2.985 13.2,-6.342 16.77,-9.66 3.56,-3.308 4.52,-5.987 4.52,-7.91 0,-0.206 -0.01,-0.42 -0.03,-0.643 H 172 Z m 0,46.312 c -14.14,12.253 -45.54,20.775 -82,20.775 -36.46,0 -67.86,-8.522 -82,-20.775 v 31.066 h 0.03 c -0.02,0.22 -0.03,0.432 -0.03,0.635 v 0.01 0.01 c 0,1.922 0.96,4.599 4.52,7.902 3.57,3.318 9.17,6.674 16.77,9.659 15.14,5.952 36.6,9.807 60.71,9.807 24.11,0 45.57,-3.855 60.71,-9.807 7.6,-2.985 13.2,-6.341 16.77,-9.659 3.56,-3.308 4.52,-5.988 4.52,-7.91 0,-0.206 -0.01,-0.421 -0.03,-0.644 H 172 Z m 0,46.312 c -14.14,12.252 -45.54,20.774 -82,20.774 -36.46,0 -67.86,-8.522 -82,-20.774 v 31.066 h 0.03 c -0.02,0.219 -0.03,0.43 -0.03,0.633 v 0.01 0.01 c 0,1.922 0.97,4.598 4.52,7.9 3.57,3.318 9.17,6.675 16.77,9.66 15.14,5.951 36.6,9.807 60.71,9.807 24.11,0 45.57,-3.856 60.71,-9.807 7.6,-2.985 13.2,-6.342 16.77,-9.66 3.56,-3.308 4.52,-5.987 4.52,-7.91 0,-0.206 -0.01,-0.42 -0.03,-0.643 H 172 Z"
     fill="#212121"
     id="non-object"
     inkscape:label="non-object"
     style="fill:#212121;fill-opacity:1" /></svg>
