<?xml version="1.0" encoding="UTF-8" standalone="no"?>
<svg
   width="254.60001"
   height="253.97"
   viewBox="0 0 254.60001 253.97"
   fill="none"
   version="1.1"
   id="svg882"
   sodipodi:docname="trino-icons-212121.svg"
   inkscape:version="1.2.2 (b0a8486, 2022-12-01)"
   xml:space="preserve"
   xmlns:inkscape="http://www.inkscape.org/namespaces/inkscape"
   xmlns:sodipodi="http://sodipodi.sourceforge.net/DTD/sodipodi-0.dtd"
   xmlns="http://www.w3.org/2000/svg"
   xmlns:svg="http://www.w3.org/2000/svg"><defs
     id="defs886" /><sodipodi:namedview
     id="namedview884"
     pagecolor="#ffffff"
     bordercolor="#666666"
     borderopacity="1.0"
     inkscape:showpageshadow="2"
     inkscape:pageopacity="0.0"
     inkscape:pagecheckerboard="0"
     inkscape:deskcolor="#d1d1d1"
     showgrid="false"
     inkscape:zoom="0.18522237"
     inkscape:cx="1916.6151"
     inkscape:cy="2386.3208"
     inkscape:window-width="1920"
     inkscape:window-height="1080"
     inkscape:window-x="1080"
     inkscape:window-y="253"
     inkscape:window-maximized="0"
     inkscape:current-layer="svg882"
     showguides="true" /><path
     id="privilege"
     d="m 80.26,225 c 8.73,4.15 17.94,6.73 24.25,8.05 0.69,0.15 1.05,0.7 1.05,1.17 v 10.75 c 0,4.97 4.03,9 9,9 h 28.24 c 4.97,0 9,-4.03 9,-9 v -11.49 c 13.4,-2.12 27.18,-9.56 34.92,-14.62 0.59,-0.38 1.24,-0.25 1.57,0.08 l 7.6,7.6 c 3.51,3.52 9.21,3.52 12.73,0 l 19.96,-19.96 c 3.52,-3.52 3.52,-9.22 0,-12.73 l -9.02,-9.03 c 7.83,-10.94 12.25,-25.76 14.13,-34.73 0.14,-0.69 0.7,-1.05 1.16,-1.05 h 10.75 c 4.98,0 9,-4.03 9,-9 V 111.8 c 0,-4.97 -4.02,-9 -9,-9 h -12.12 c -2.12,-13.39 -9.56,-27.17 -14.62,-34.92 -0.38,-0.58 -0.25,-1.23 0.08,-1.56 l 7.6,-7.6 c 3.52,-3.52 3.52,-9.22 0,-12.73 L 206.58,26.02 c -3.52,-3.51 -9.22,-3.51 -12.73,0 l -9.03,9.03 C 173.88,27.22 159.06,22.8 150.09,20.92 c -0.69,-0.15 -1.05,-0.7 -1.05,-1.17 V 9 c 0,-4.97 -4.03,-9 -9,-9 H 111.8 c -4.97,0 -9,4.03 -9,9 V 20.49 C 89.41,22.61 75.63,30.05 67.88,35.11 67.3,35.5 66.65,35.36 66.32,35.03 l -7.6,-7.6 c -3.52,-3.52 -9.22,-3.52 -12.73,0 L 26.02,47.39 c -3.51,3.52 -3.51,9.22 0,12.73 l 9.03,9.03 C 27.22,80.1 22.8,94.91 20.92,103.88 c -0.15,0.69 -0.7,1.05 -1.17,1.05 H 9 c -4.97,0 -9,4.03 -9,9 v 28.24 c 0,4.97 4.03,9 9,9 h 12.12 c 2.13,13.39 9.57,27.17 14.62,34.92 0.39,0.58 0.25,1.23 -0.08,1.56 l -7.6,7.6 c -3.51,3.52 -3.51,9.22 0,12.73 l 19.97,19.97 c 3.51,3.51 9.21,3.51 12.73,0 l 9.02,-9.03 c 3.16,2.26 6.65,4.24 10.22,5.95 V 225 Z M 111.8,8 c -0.55,0 -1,0.45 -1,1 v 15.06 c 0,2.21 -1.79,4 -4,4 -0.05,0 -0.1,0 -0.15,0 -12.34,1.16 -26.34,8.49 -34.39,13.75 -3.56,2.32 -8.43,2.05 -11.6,-1.12 l -7.6,-7.61 c -0.39,-0.39 -1.03,-0.39 -1.42,0 L 31.68,53.05 c -0.39,0.39 -0.39,1.02 0,1.41 l 10.65,10.65 c 0.15,0.15 0.28,0.32 0.41,0.48 0.06,0.05 0.12,0.1 0.18,0.15 1.7,1.41 1.92,3.93 0.51,5.63 -7.95,9.54 -12.7,24.71 -14.68,34.15 -0.88,4.16 -4.51,7.41 -9,7.41 H 9 c -0.55,0 -1,0.45 -1,1 v 28.24 c 0,0.55 0.45,1 1,1 h 15.06 c 0.88,0 1.69,0.28 2.34,0.76 1.24,0.58 2.14,1.79 2.28,3.25 1.12,12.37 8.49,26.45 13.76,34.53 2.32,3.56 2.05,8.43 -1.12,11.6 l -7.6,7.6 c -0.39,0.39 -0.39,1.03 0,1.42 l 19.96,19.96 c 0.4,0.39 1.03,0.39 1.42,0 l 10.65,-10.65 c 0.15,-0.15 0.31,-0.28 0.48,-0.41 0.02,-0.02 0.03,-0.04 0.05,-0.06 0.03,-0.04 0.06,-0.08 0.09,-0.12 1.42,-1.7 3.94,-1.92 5.63,-0.51 2.38,1.98 5.1,3.76 8,5.35 V 181 c 0,-11.05 8.95,-20 20,-20 h 53 c 11.05,0 20,8.95 20,20 v 36.59 c 3.56,-1.84 6.76,-3.74 9.35,-5.43 3.55,-2.32 8.42,-2.05 11.59,1.12 l 7.61,7.61 c 0.39,0.39 1.02,0.39 1.41,0 l 19.97,-19.97 c 0.39,-0.39 0.39,-1.02 0,-1.41 l -10.65,-10.65 c -0.15,-0.15 -0.29,-0.32 -0.41,-0.48 -0.06,-0.05 -0.12,-0.1 -0.18,-0.15 -1.7,-1.41 -1.93,-3.93 -0.52,-5.63 7.96,-9.54 12.71,-24.71 14.69,-34.15 0.87,-4.16 4.51,-7.41 8.99,-7.41 h 10.75 c 0.56,0 1,-0.45 1,-1 V 111.8 c 0,-0.55 -0.44,-1 -1,-1 h -15.05 c -0.88,0 -1.69,-0.28 -2.35,-0.76 -1.24,-0.58 -2.14,-1.79 -2.27,-3.25 -1.13,-12.37 -8.49,-26.45 -13.77,-34.53 -2.32,-3.56 -2.05,-8.43 1.12,-11.6 l 7.61,-7.6 c 0.39,-0.39 0.39,-1.03 0,-1.42 L 200.92,31.68 c -0.39,-0.39 -1.02,-0.39 -1.41,0 l -10.65,10.65 c -0.15,0.15 -0.32,0.28 -0.48,0.41 -0.05,0.06 -0.1,0.12 -0.15,0.18 -1.41,1.7 -3.93,1.92 -5.63,0.51 -9.54,-7.95 -24.71,-12.7 -34.15,-14.68 -4.16,-0.88 -7.41,-4.51 -7.41,-9 V 9 c 0,-0.55 -0.45,-1 -1,-1 z M 165,221.32 V 181 c 0,-6.63 -5.37,-12 -12,-12 h -53 c -6.63,0 -12,5.37 -12,12 v 38.67 c 6.53,2.67 13.15,4.5 18.16,5.55 4.15,0.88 7.4,4.51 7.4,9 v 10.75 c 0,0.55 0.45,1 1,1 h 28.24 c 0.55,0 1,-0.45 1,-1 v -15.06 c 0,-2.21 1.79,-4 4,-4 0.05,0 0.1,0 0.16,0 5.57,-0.52 11.49,-2.31 17.04,-4.59 z M 186.09,64.17 c 1.57,1.56 1.57,4.1 0,5.66 l -8.76,8.77 8.76,8.77 c 1.57,1.56 1.57,4.09 0,5.65 -1.56,1.56 -4.09,1.56 -5.65,0 l -8.77,-8.77 -8.77,8.77 c -1.56,1.56 -4.09,1.56 -5.66,0 -1.56,-1.56 -1.56,-4.09 0,-5.65 l 8.77,-8.77 -8.77,-8.77 c -1.56,-1.56 -1.56,-4.1 0,-5.66 1.57,-1.56 4.1,-1.56 5.66,0 l 8.77,8.77 8.77,-8.77 c 1.56,-1.56 4.09,-1.56 5.65,0 z m -78.71,-1.44 c 1.56,1.56 1.56,4.09 0,5.65 L 85.9,89.86 c -3.51,3.51 -9.21,3.51 -12.73,0 l -9,-9 c -1.56,-1.56 -1.56,-4.1 0,-5.66 1.56,-1.56 4.1,-1.56 5.66,0 l 9,9 c 0.39,0.39 1.02,0.39 1.41,0 l 21.48,-21.47 c 1.56,-1.57 4.1,-1.57 5.66,0 z M 126,153 c 14.36,0 26,-11.42 26,-25.5 0,-14.08 -11.64,-25.5 -26,-25.5 -14.36,0 -26,11.42 -26,25.5 0,14.08 11.64,25.5 26,25.5 z m 0,-8 c 10.09,0 18,-7.98 18,-17.5 0,-9.52 -7.91,-17.5 -18,-17.5 -10.09,0 -18,7.98 -18,17.5 0,9.52 7.91,17.5 18,17.5 z"
     style="fill:#212121;fill-opacity:1;fill-rule:evenodd"
     inkscape:label="privilege" /></svg>
