<?xml version="1.0" encoding="UTF-8" standalone="no"?>
<svg
   width="256"
   height="255.99997"
   viewBox="0 0 256 255.99997"
   fill="none"
   version="1.1"
   id="svg882"
   sodipodi:docname="trino-icons-212121.svg"
   inkscape:version="1.2.2 (b0a8486, 2022-12-01)"
   xml:space="preserve"
   xmlns:inkscape="http://www.inkscape.org/namespaces/inkscape"
   xmlns:sodipodi="http://sodipodi.sourceforge.net/DTD/sodipodi-0.dtd"
   xmlns="http://www.w3.org/2000/svg"
   xmlns:svg="http://www.w3.org/2000/svg"><defs
     id="defs886" /><sodipodi:namedview
     id="namedview884"
     pagecolor="#ffffff"
     bordercolor="#666666"
     borderopacity="1.0"
     inkscape:showpageshadow="2"
     inkscape:pageopacity="0.0"
     inkscape:pagecheckerboard="0"
     inkscape:deskcolor="#d1d1d1"
     showgrid="false"
     inkscape:zoom="0.18522237"
     inkscape:cx="1916.6151"
     inkscape:cy="2386.3208"
     inkscape:window-width="1920"
     inkscape:window-height="1080"
     inkscape:window-x="1080"
     inkscape:window-y="253"
     inkscape:window-maximized="0"
     inkscape:current-layer="svg882"
     showguides="true" /><path
     id="coordinator"
     style="fill:#212121;fill-opacity:1;fill-rule:evenodd"
     d="m 5,69.54297 c -2.76,0 -5,2.239 -5,5 v 45.437 c 0,2.76 2.24,5 5,5 h 246 c 2.76,0 5,-2.24 5,-5 v -45.437 c 0,-2.761 -2.24,-5 -5,-5 z m 23.59,16.126 c -6.4,0 -11.59,5.19 -11.59,11.591 0,6.4 5.19,11.59 11.59,11.59 h 68.82 c 6.4,0 11.59,-5.19 11.59,-11.59 0,-6.401 -5.19,-11.591 -11.59,-11.591 z M 193,97.75997 c 0,3.9 -3.13,7.06 -7,7.06 -3.87,0 -7,-3.16 -7,-7.06 0,-3.89 3.13,-7.051 7,-7.051 3.87,0 7,3.161 7,7.051 z m 16,7.06 c 3.87,0 7,-3.16 7,-7.06 0,-3.89 -3.13,-7.051 -7,-7.051 -3.87,0 -7,3.161 -7,7.051 0,3.9 3.13,7.06 7,7.06 z m 30,-7.06 c 0,3.9 -3.13,7.06 -7,7.06 -3.87,0 -7,-3.16 -7,-7.06 0,-3.89 3.13,-7.051 7,-7.051 3.87,0 7,3.161 7,7.051 z m -108,123.97 h 19 c 2.76,0 5,2.24 5,5 v 8.27 h 94 c 2.21,0 4,1.79 4,4 0,2.21 -1.79,4 -4,4 h -94 v 8 c 0,2.76 -2.24,5 -5,5 h -44 c -2.76,0 -5,-2.24 -5,-5 v -8 H 6 c -2.21,0 -4,-1.79 -4,-4 0,-2.21 1.79,-4 4,-4 h 95 v -8.27 c 0,-2.76 2.24,-5 5,-5 h 17 v -27.21 H 5 c -2.76,0 -5,-2.24 -5,-5 v -45.43 c 0,-2.76 2.24,-5 5,-5 h 246 c 2.76,0 5,2.24 5,5 v 45.43 c 0,2.76 -2.24,5 -5,5 H 131 Z m -114,-54.93 c 0,-6.4 5.19,-11.59 11.59,-11.59 h 68.82 c 6.4,0 11.59,5.19 11.59,11.59 0,6.4 -5.19,11.59 -11.59,11.59 H 28.59 c -6.4,0 -11.59,-5.19 -11.59,-11.59 z m 169,7.56 c 3.87,0 7,-3.16 7,-7.05 0,-3.9 -3.13,-7.06 -7,-7.06 -3.87,0 -7,3.16 -7,7.06 0,3.89 3.13,7.05 7,7.05 z m 30,-7.05 c 0,3.89 -3.13,7.05 -7,7.05 -3.87,0 -7,-3.16 -7,-7.05 0,-3.9 3.13,-7.06 7,-7.06 3.87,0 7,3.16 7,7.06 z m 16,7.05 c 3.87,0 7,-3.16 7,-7.05 0,-3.9 -3.13,-7.06 -7,-7.06 -3.87,0 -7,3.16 -7,7.06 0,3.89 3.13,7.05 7,7.05 z M 0,5.00003 C 0,2.23903 2.24,0 5,0 h 246 c 2.76,0 5,2.23903 5,5.00003 v 45.43294 c 0,2.761 -2.24,5 -5,5 H 5 c -2.76,0 -5,-2.239 -5,-5 z m 17,22.71704 c 0,-6.402 5.19,-11.591 11.59,-11.591 h 68.82 c 6.4,0 11.59,5.189 11.59,11.591 0,6.401 -5.19,11.59 -11.59,11.59 H 28.59 c -6.4,0 -11.59,-5.189 -11.59,-11.59 z m 169,7.559 c 3.87,0 7,-3.159 7,-7.056 0,-3.896 -3.13,-7.055 -7,-7.055 -3.87,0 -7,3.159 -7,7.055 0,3.897 3.13,7.056 7,7.056 z m 30,-7.056 c 0,3.897 -3.13,7.056 -7,7.056 -3.87,0 -7,-3.159 -7,-7.056 0,-3.896 3.13,-7.055 7,-7.055 3.87,0 7,3.159 7,7.055 z m 16,7.056 c 3.87,0 7,-3.159 7,-7.056 0,-3.896 -3.13,-7.055 -7,-7.055 -3.87,0 -7,3.159 -7,7.055 0,3.897 3.13,7.056 7,7.056 z"
     inkscape:label="coordinator" /></svg>
