<?xml version="1.0" encoding="UTF-8" standalone="no"?>
<svg
   width="208"
   height="255.99867"
   viewBox="0 0 208 255.99867"
   fill="none"
   version="1.1"
   id="svg882"
   sodipodi:docname="trino-icons-212121.svg"
   inkscape:version="1.2.2 (b0a8486, 2022-12-01)"
   xml:space="preserve"
   xmlns:inkscape="http://www.inkscape.org/namespaces/inkscape"
   xmlns:sodipodi="http://sodipodi.sourceforge.net/DTD/sodipodi-0.dtd"
   xmlns="http://www.w3.org/2000/svg"
   xmlns:svg="http://www.w3.org/2000/svg"><defs
     id="defs886" /><sodipodi:namedview
     id="namedview884"
     pagecolor="#ffffff"
     bordercolor="#666666"
     borderopacity="1.0"
     inkscape:showpageshadow="2"
     inkscape:pageopacity="0.0"
     inkscape:pagecheckerboard="0"
     inkscape:deskcolor="#d1d1d1"
     showgrid="false"
     inkscape:zoom="0.18522237"
     inkscape:cx="1916.6151"
     inkscape:cy="2386.3208"
     inkscape:window-width="1920"
     inkscape:window-height="1080"
     inkscape:window-x="1080"
     inkscape:window-y="253"
     inkscape:window-maximized="0"
     inkscape:current-layer="svg882"
     showguides="true" /><path
     id="user"
     d="m 208,181.03868 c 0,-1.41 -0.59,-2.76 -1.67,-3.68 -11.04,-9.43 -25.67,-17.27 -42.71,-22.81 -2.42,-0.78 -5,0.47 -6.16,2.73 -9.8,19.14 -29.75,32.25 -52.77,32.25 -23.16,0 -43.21,-13.27 -52.95,-32.6 -1.14,-2.27 -3.71,-3.53 -6.14,-2.77 -17.56,5.56 -32.62,13.54 -43.93,23.2 -1.08,0.92 -1.67,2.27 -1.67,3.68 v 69.98 c 0,2.75 2.23,4.98 4.99,4.98 h 198.02 c 2.76,0 4.99,-2.23 4.99,-4.98 z m -103.31,16.46 c 25.32,0 47.35,-13.98 58.81,-34.58 14.63,5.01 27.05,11.75 36.52,19.55 v 65.56 H 7.98 v -65.56 c 9.72,-8.01 22.55,-14.89 37.68,-19.95 11.4,20.83 33.55,34.98 59.03,34.98 z M 155.15,25.748677 C 142.46,8.2286774 125.95,1.4586774 110.56,0.21867742 95.33,-1.0113226 81.22,3.1586774 72.75,7.4386774 l -0.04,0.02 -0.04,0.02 C 61.97,13.178677 42.59,32.528677 36.83,68.098677 c -2.7,16.67 0.96,33.880003 6.82,48.770003 5.88,14.91 14.09,27.83 20.91,36.06 l 0.03,0.04 c 0.43,0.51 0.84,1.02 1.18,1.38 0.16,0.18 0.43,0.46 0.75,0.72 0.16,0.13 0.47,0.37 0.9,0.58 0.36,0.16 1.38,0.6 2.7,0.3 1.61,-0.38 2.47,-1.55 2.83,-2.39 0.3,-0.72 0.32,-1.34 0.32,-1.59 0.01,-0.54 -0.09,-1.02 -0.13,-1.24 -0.1,-0.51 -0.29,-1.18 -0.47,-1.84 -2.26,-8.05 -4.91,-26.64 -4.09,-43.4 0.42,-8.390003 1.68,-15.950003 4.06,-21.400003 2.36,-5.42 5.43,-8.01 9.25,-8.36 14.68,-1.33 25.36,-6.18 33.68,-10.09 l 0.83,-0.39 c 3.85,-1.81 6.96,-3.28 9.85,-4.2 2.85,-0.9 5.13,-1.14 7.23,-0.69 0.01,0.01 0.02,0.02 0.03,0.04 0,0.01 0.01,0.02 0.02,0.03 0.27,0.42 0.63,1.2 0.99,2.51 0.72,2.59 1.2,6.36 1.47,11.11 0.53,9.42 0.15,21.74 -0.4,33.940003 -0.15,3.38 -0.32,6.77 -0.48,10.07 v 0.01 c -0.42,8.46 -0.81,16.4 -0.87,22.49 -0.05,4.18 0.04,7.84 0.47,10.3 0.11,0.64 0.26,1.3 0.48,1.93 0.2,0.57 0.55,1.41 1.23,2.16 0.78,0.85 2.09,1.67 3.81,1.53 1.47,-0.12 2.49,-0.9 3.02,-1.38 3.51,-3.21 7.61,-9.21 11.13,-14.98 3.6,-5.9 6.89,-12.07 8.75,-16.01 l 0.04,-0.08 0.04,-0.09 c 3.89,-9.31 8.06,-25.170003 8.22,-42.960003 0.16,-17.82 -3.71,-37.88 -16.28,-55.23 z m -110.44,43.62 c 5.39,-33.26 23.34,-50.38 31.68,-54.84 7.39,-3.73 20.02,-7.4599996 33.52,-6.3699996 13.37,1.08 27.62,6.8699996 38.77,22.2599996 11.28,15.57 14.91,33.81 14.77,50.49 -0.15,16.65 -4.07,31.450003 -7.57,39.880003 -1.74,3.67 -4.87,9.54 -8.31,15.18 -1.82,2.98 -3.65,5.77 -5.35,8.1 -0.01,-1.03 -0.02,-2.17 0,-3.42 0.07,-5.93 0.44,-13.62 0.85,-22.02 v 0 c 0.17,-3.34 0.34,-6.79 0.49,-10.29 0.55,-12.170003 0.95,-24.860003 0.4,-34.740003 -0.28,-4.91 -0.8,-9.36 -1.74,-12.78 -0.47,-1.71 -1.11,-3.38 -2.02,-4.76 -0.91,-1.39 -2.33,-2.83 -4.44,-3.35 -4.14,-1.04 -8.11,-0.46 -11.92,0.75 -3.43,1.08 -7.03,2.78 -10.7,4.51 -0.23,0.11 -0.46,0.22 -0.7,0.33 -0.09,0.04 -0.18,0.09 -0.27,0.13 -8.17,3.84 -17.79,8.17 -31.01,9.37 -7.9,0.72 -12.88,6.31 -15.84,13.11 -2.94,6.75 -4.28,15.43 -4.71,24.190003 -0.51,10.41 0.24,21.47 1.45,30.61 -3.92,-6.3 -7.81,-13.72 -10.98,-21.76 C 45.52,99.828677 42.31,84.138677 44.71,69.368677 Z m 98.03,80.840003 c 0,0 0,-0.01 -0.01,-0.03 0.01,0.02 0.01,0.03 0.01,0.03 z m -77.42,2.14 c 0,0 0,-0.01 0,-0.03 0,0.02 0,0.03 0,0.03 z"
     style="fill:#212121;fill-opacity:1;fill-rule:evenodd"
     inkscape:label="user" /></svg>
