<?xml version="1.0" encoding="UTF-8" standalone="no"?>
<svg
   width="256"
   height="186"
   viewBox="0 0 256 186"
   fill="none"
   version="1.1"
   id="svg882"
   sodipodi:docname="trino-icons-dd00a1.svg"
   inkscape:version="1.2.2 (b0a8486, 2022-12-01)"
   xml:space="preserve"
   xmlns:inkscape="http://www.inkscape.org/namespaces/inkscape"
   xmlns:sodipodi="http://sodipodi.sourceforge.net/DTD/sodipodi-0.dtd"
   xmlns="http://www.w3.org/2000/svg"
   xmlns:svg="http://www.w3.org/2000/svg"><defs
     id="defs886" /><sodipodi:namedview
     id="namedview884"
     pagecolor="#ffffff"
     bordercolor="#666666"
     borderopacity="1.0"
     inkscape:showpageshadow="2"
     inkscape:pageopacity="0.0"
     inkscape:pagecheckerboard="0"
     inkscape:deskcolor="#d1d1d1"
     showgrid="false"
     inkscape:zoom="0.18522237"
     inkscape:cx="1916.6151"
     inkscape:cy="2386.3208"
     inkscape:window-width="1920"
     inkscape:window-height="1052"
     inkscape:window-x="1080"
     inkscape:window-y="281"
     inkscape:window-maximized="0"
     inkscape:current-layer="svg882"
     showguides="true" /><path
     id="browser-chart"
     d="M 5,0 C 2.239,0 0,2.24 0,5 v 176 c 0,2.76 2.239,5 5,5 h 246 c 2.761,0 5,-2.24 5,-5 V 5 c 0,-2.76 -2.239,-5 -5,-5 z M 8,8 V 35 H 248 V 8 Z M 8,178 V 43 H 248 V 178 Z M 190,89.73 166.193,117.5 c -2.782,3.25 -7.466,4.09 -11.204,2.01 l -20.135,-11.18 c -0.39,-0.22 -0.877,-0.15 -1.192,0.17 l -26.298,26.29 c -3.515,3.52 -9.213,3.52 -12.728,0 L 77.207,117.36 c -0.39,-0.39 -1.024,-0.39 -1.414,0 l -20.965,20.97 c -1.562,1.56 -4.094,1.56 -5.656,0 -1.563,-1.56 -1.563,-4.1 0,-5.66 l 20.964,-20.96 c 3.515,-3.52 9.213,-3.52 12.728,0 l 17.429,17.43 c 0.39,0.39 1.024,0.39 1.414,0 l 26.298,-26.3 c 2.841,-2.84 7.222,-3.46 10.734,-1.51 l 20.135,11.19 c 0.416,0.23 0.936,0.14 1.245,-0.22 L 185.232,83 H 176 c -2.209,0 -4,-1.79 -4,-4 0,-2.21 1.791,-4 4,-4 h 18 c 2.209,0 4,1.79 4,4 v 18 c 0,2.21 -1.791,4 -4,4 -2.209,0 -4,-1.79 -4,-4 z M 64,17 c -2.209,0 -4,1.79 -4,4 0,2.21 1.791,4 4,4 h 134 c 2.209,0 4,-1.79 4,-4 0,-2.21 -1.791,-4 -4,-4 z m -45,9 c 2.209,0 4,-1.79 4,-4 0,-2.21 -1.791,-4 -4,-4 -2.209,0 -4,1.79 -4,4 0,2.21 1.791,4 4,4 z m 17,-4 c 0,2.21 -1.791,4 -4,4 -2.209,0 -4,-1.79 -4,-4 0,-2.21 1.791,-4 4,-4 2.209,0 4,1.79 4,4 z m 9,4 c 2.209,0 4,-1.79 4,-4 0,-2.21 -1.791,-4 -4,-4 -2.209,0 -4,1.79 -4,4 0,2.21 1.791,4 4,4 z"
     style="fill:#dd00a1;fill-opacity:1;fill-rule:evenodd"
     inkscape:label="browser-chart" /></svg>
