<?xml version="1.0" encoding="UTF-8" standalone="no"?>
<svg
   width="264.00739"
   height="237.99614"
   viewBox="0 0 264.00739 237.99614"
   fill="none"
   version="1.1"
   id="svg882"
   sodipodi:docname="trino-icons-dd00a1.svg"
   inkscape:version="1.2.2 (b0a8486, 2022-12-01)"
   xml:space="preserve"
   xmlns:inkscape="http://www.inkscape.org/namespaces/inkscape"
   xmlns:sodipodi="http://sodipodi.sourceforge.net/DTD/sodipodi-0.dtd"
   xmlns="http://www.w3.org/2000/svg"
   xmlns:svg="http://www.w3.org/2000/svg"><defs
     id="defs886" /><sodipodi:namedview
     id="namedview884"
     pagecolor="#ffffff"
     bordercolor="#666666"
     borderopacity="1.0"
     inkscape:showpageshadow="2"
     inkscape:pageopacity="0.0"
     inkscape:pagecheckerboard="0"
     inkscape:deskcolor="#d1d1d1"
     showgrid="false"
     inkscape:zoom="0.18522237"
     inkscape:cx="1916.6151"
     inkscape:cy="2386.3208"
     inkscape:window-width="1920"
     inkscape:window-height="1052"
     inkscape:window-x="1080"
     inkscape:window-y="281"
     inkscape:window-maximized="0"
     inkscape:current-layer="svg882"
     showguides="true" /><path
     id="data-warehouse"
     d="m 132.00369,0.0061332 c 1.09,-0.06 2.2,0.32 3.04,1.15 l 122.42,121.7299968 c 1.75,1.74 4.74,5.09 5.98,9.49 0.64,2.27 0.82,4.8599 0.09,7.59 -0.73,2.73 -2.3,5.35 -4.78,7.81 -5.23,5.21 -11.21,5.97 -16.26,4.78 -4.74,-1.13 -8.63,-3.94 -10.68,-6.1 l -9.89,-9.83 v 92.37 c 0,4.97 -4.03,9 -9,9 H 50.243686 c -4.97,0 -9,-4.03 -9,-9 v -91.53 l -9.05,8.99 c -2.05,2.16 -5.94,4.97 -10.68,6.1 -5.05,1.19 -11.03,0.43 -16.26,-4.78 -2.48,-2.46 -4.05,-5.08 -4.77999996,-7.81 -0.73,-2.73 -0.55,-5.32 0.09,-7.59 1.23999996,-4.4 4.22999996,-7.75 5.97999996,-9.49 L 128.96369,1.1561332 c 0.84,-0.83 1.95,-1.21 3.04,-1.15 z M 49.243686,129.50613 v 99.49 c 0,0.55 0.44,1 1,1 H 212.92369 c 0.55,0 1,-0.45 1,-1 v -100.33 l -81.92,-81.449997 z M 132.00369,37.806133 c -1.09,-0.06 -2.2,0.32 -3.04,1.15 L 26.473686,140.86613 l -0.05,0.05 c -1.18,1.26 -3.77,3.15 -6.76,3.85 -2.72,0.64 -5.76,0.34 -8.77,-2.66 -1.65,-1.64 -2.38,-3.06 -2.69,-4.21 -0.3,-1.14 -0.25,-2.25 0.06,-3.35 0.67,-2.37 2.44,-4.52 3.92,-5.99 L 132.00369,9.4161332 251.82369,128.55613 c 1.48,1.47 3.25,3.62 3.92,5.99 0.31,1.1 0.36,2.21 0.06,3.35 -0.31,1.15 -1.04,2.57 -2.69,4.21 -3.01,3 -6.05,3.3 -8.77,2.66 -2.99,-0.7 -5.58,-2.59 -6.76,-3.85 l -0.05,-0.05 -102.49,-101.909997 c -0.84,-0.83 -1.95,-1.21 -3.04,-1.15 z m 58.7,78.929897 c 0.1,-0.55 0.15,-1.1 0.15,-1.6599 0,-12.5201 -25.96,-22.669997 -57.99,-22.669997 -32.02,0 -57.980004,10.149897 -57.980004,22.669997 0,0.37 0.02,0.7299 0.06,1.1 -0.04,0.24 -0.06,0.48 -0.06,0.73 v 88.1 c 0,0.63 0.14,1.21 0.39,1.74 3.37,11.26 27.840004,20 57.530004,20 29.45,0 53.76,-8.59 57.44,-19.7201 0.29,-0.56 0.46,-1.1899 0.46,-1.8599 v -0.3901 c 0.02,-0.2299 0.03,-0.46 0.03,-0.6899 0,-0.14 -0.01,-0.28 -0.01,-0.41 h -0.02 v -28.57 c 0.02,-0.23 0.03,-0.46 0.03,-0.69 0,-0.14 -0.01,-0.28 -0.01,-0.41 h -0.02 v -28.57 c 0.02,-0.23 0.03,-0.46 0.03,-0.69 0,-0.14 -0.01,-0.28 -0.01,-0.41 h -0.02 z m -8,-1.0399 c -0.21,0.4899 -0.69,1.27 -1.83,2.3199 -1.95,1.8101 -5.21,3.8 -9.91,5.63 -9.36,3.66 -22.82,6.09 -38.1,6.09 -15.27,0 -28.74,-2.43 -38.090004,-6.09 -4.7,-1.83 -7.96,-3.8199 -9.91,-5.63 -1.94,-1.79 -1.98,-2.79 -1.98,-2.9399 0,-0.15 0.04,-1.16 1.98,-2.95 1.95,-1.8 5.21,-3.79 9.91,-5.63 9.350004,-3.65 22.820004,-6.09 38.090004,-6.09 15.28,0 28.74,2.4399 38.1,6.09 4.7,1.84 7.96,3.83 9.91,5.63 1.14,1.05 1.62,1.83 1.83,2.33 z m 0,10.97 c -10.12,6.63 -28.65,11.0699 -49.84,11.0699 -21.29,0 -39.900004,-4.4799 -49.980004,-11.17 v 17.7701 h 0.07 c -0.07,0.22 -0.07,0.36 -0.07,0.41 0,0.1499 0.04,1.16 1.98,2.95 1.95,1.8 5.2,3.7899 9.9,5.6199 9.340004,3.66 22.780004,6.0901 38.040004,6.0901 15.26,0 28.7,-2.4301 38.04,-6.0901 4.7,-1.83 7.95,-3.8199 9.9,-5.6199 1.51,-1.4 1.87,-2.32 1.96,-2.73 v -0.45 c -0.01,-0.05 -0.03,-0.11 -0.05,-0.18 h 0.05 z m 0,29.6 c -10.08,6.67 -28.65,11.14 -49.9,11.14 -21.26,0 -39.850004,-4.48 -49.920004,-11.16 v 17.76 h 0.07 c -0.07,0.22 -0.07,0.36 -0.07,0.41 0,0.15 0.04,1.16 1.98,2.95 1.95,1.8 5.2,3.79 9.9,5.62 9.340004,3.66 22.780004,6.09 38.040004,6.09 15.26,0 28.7,-2.43 38.04,-6.09 4.7,-1.83 7.95,-3.82 9.9,-5.62 1.51,-1.4 1.87,-2.32 1.96,-2.73 v -0.45 c -0.01,-0.05 -0.03,-0.11 -0.05,-0.18 h 0.05 z m 0,29.67 c -10.08,6.67 -28.65,11.14 -49.9,11.14 -21.26,0 -39.850004,-4.48 -49.920004,-11.16 v 17.76 h 0.07 c -0.07,0.22 -0.07,0.36 -0.07,0.41 0,0.15 0.04,1.16 1.98,2.95 1.95,1.8 5.2,3.79 9.9,5.62 9.340004,3.66 22.780004,6.09 38.040004,6.09 15.26,0 28.7,-2.43 38.04,-6.09 4.7,-1.83 7.95,-3.82 9.9,-5.62 1.51,-1.4 1.87,-2.32 1.96,-2.73 v -0.44 c -0.01,-0.06 -0.03,-0.12 -0.05,-0.19 h 0.05 z"
     inkscape:label="data-warehouse"
     style="fill:#dd00a1;fill-opacity:1;fill-rule:evenodd" /></svg>
