<?xml version="1.0" encoding="UTF-8" standalone="no"?>
<svg
   width="264.00739"
   height="237.99614"
   viewBox="0 0 264.00739 237.99614"
   fill="none"
   version="1.1"
   id="svg882"
   sodipodi:docname="trino-icons-dd00a1.svg"
   inkscape:version="1.2.2 (b0a8486, 2022-12-01)"
   xml:space="preserve"
   xmlns:inkscape="http://www.inkscape.org/namespaces/inkscape"
   xmlns:sodipodi="http://sodipodi.sourceforge.net/DTD/sodipodi-0.dtd"
   xmlns="http://www.w3.org/2000/svg"
   xmlns:svg="http://www.w3.org/2000/svg"><defs
     id="defs886" /><sodipodi:namedview
     id="namedview884"
     pagecolor="#ffffff"
     bordercolor="#666666"
     borderopacity="1.0"
     inkscape:showpageshadow="2"
     inkscape:pageopacity="0.0"
     inkscape:pagecheckerboard="0"
     inkscape:deskcolor="#d1d1d1"
     showgrid="false"
     inkscape:zoom="0.18522237"
     inkscape:cx="1916.6151"
     inkscape:cy="2386.3208"
     inkscape:window-width="1920"
     inkscape:window-height="1052"
     inkscape:window-x="1080"
     inkscape:window-y="281"
     inkscape:window-maximized="0"
     inkscape:current-layer="svg882"
     showguides="true" /><path
     id="path474"
     d="m 135.04369,1.1561332 c -0.84,-0.83 -1.95,-1.21 -3.04,-1.15 -1.09,-0.06 -2.2,0.32 -3.04,1.15 L 6.543686,122.88613 c -1.75,1.74 -4.74,5.09 -5.97999996,9.49 -0.64,2.27 -0.82,4.86 -0.09,7.59 0.72999996,2.73 2.29999996,5.35 4.77999996,7.81 5.23,5.21 11.21,5.97 16.26,4.78 4.74,-1.13 8.63,-3.94 10.68,-6.1 l 9.05,-8.99 v 91.53 c 0,4.97 4.03,9 9,9 H 212.92369 c 4.97,0 9,-4.03 9,-9 v -92.37 l 9.89,9.83 c 2.05,2.16 5.94,4.97 10.68,6.1 5.05,1.19 11.03,0.43 16.26,-4.78 2.48,-2.46 4.05,-5.08 4.78,-7.81 0.73,-2.73 0.55,-5.32 -0.09,-7.59 -1.24,-4.4 -4.23,-7.75 -5.98,-9.49 z M 49.243686,228.99613 v -99.49 l 82.760004,-82.289997 81.92,81.449997 v 100.33 c 0,0.55 -0.45,1 -1,1 H 50.243686 c -0.56,0 -1,-0.45 -1,-1 z M 128.96369,38.956133 c 0.84,-0.83 1.95,-1.21 3.04,-1.15 1.09,-0.06 2.2,0.32 3.04,1.15 l 102.49,101.909997 0.05,0.05 c 1.18,1.26 3.77,3.15 6.76,3.85 2.72,0.64 5.76,0.34 8.77,-2.66 1.65,-1.64 2.38,-3.06 2.69,-4.21 0.3,-1.14 0.25,-2.25 -0.06,-3.35 -0.67,-2.37 -2.44,-4.52 -3.92,-5.99 L 132.00369,9.4161332 12.183686,128.55613 c -1.48,1.47 -3.25,3.62 -3.92,5.99 -0.31,1.1 -0.36,2.21 -0.06,3.35 0.31,1.15 1.04,2.57 2.69,4.21 3.01,3 6.05,3.3 8.77,2.66 2.99,-0.7 5.58,-2.59 6.76,-3.85 l 0.05,-0.05 z m -18.58,133.159997 c 4.36,0 7.9,-3.53 7.9,-7.89 0,-4.36 -3.54,-7.89 -7.9,-7.89 -4.37,0 -7.91,3.53 -7.91,7.89 0,4.36 3.54,7.89 7.91,7.89 z m -9.81,-7.89 c 0,4.36 -3.540004,7.89 -7.900004,7.89 -4.37,0 -7.91,-3.53 -7.91,-7.89 0,-4.36 3.54,-7.89 7.91,-7.89 4.36,0 7.900004,3.53 7.900004,7.89 z m -25.610004,7.89 c 4.37,0 7.91,-3.53 7.91,-7.89 0,-4.36 -3.54,-7.89 -7.91,-7.89 -4.36,0 -7.9,3.53 -7.9,7.89 0,4.36 3.54,7.89 7.9,7.89 z m -5.96,37.88 c -2.21,0 -4,1.79 -4,4 0,2.21 1.79,4 4,4 1.16,0 1.65,0.18 2.04,0.37 0.55,0.28 1.05,0.67 2.18,1.53 l 0.03,0.02 c 0.16,0.12 0.33,0.25 0.51,0.39 3.5,2.67 7.46,3.37 9.36,3.37 1.91,0 5.87,-0.7 9.36,-3.37 l 0.54,-0.41 c 1.13,-0.86 1.64,-1.25 2.18,-1.53 0.38,-0.19 0.85,-0.36 1.92,-0.37 1.08,0.01 1.55,0.18 1.92,0.37 0.55,0.28 1.050004,0.67 2.180004,1.53 l 0.03,0.02 c 0.16,0.12 0.33,0.25 0.51,0.39 3.5,2.67 7.46,3.37 9.36,3.37 0.04,0 0.08,0 0.13,0 0.04,0 0.08,0 0.12,0 0.16,0 0.33,-0.01 0.49,-0.03 2.07,-0.16 5.53,-0.98 8.62,-3.34 0.2,-0.15 0.38,-0.28 0.54,-0.41 1.13,-0.86 1.64,-1.25 2.18,-1.53 0.38,-0.19 0.85,-0.36 1.92,-0.37 1.08,0.01 1.55,0.18 1.92,0.37 0.55,0.28 1.05,0.67 2.18,1.53 l 0.54,0.41 c 3.5,2.67 7.46,3.37 9.36,3.37 0.04,0 0.08,0 0.13,0 0.04,0 0.08,0 0.12,0 0.16,0 0.33,-0.01 0.49,-0.03 2.07,-0.16 5.53,-0.98 8.62,-3.34 0.2,-0.15 0.38,-0.28 0.54,-0.41 1.13,-0.86 1.64,-1.25 2.18,-1.53 0.38,-0.19 0.85,-0.36 1.92,-0.37 1.08,0.01 1.55,0.18 1.92,0.37 0.55,0.28 1.05,0.67 2.18,1.53 0.17,0.13 0.35,0.26 0.54,0.41 3.5,2.67 7.46,3.37 9.36,3.37 h 0.06 0.07 0.06 0.06 c 0.16,0 0.33,-0.01 0.49,-0.03 2.07,-0.16 5.53,-0.98 8.62,-3.34 0.2,-0.15 0.38,-0.28 0.54,-0.41 1.13,-0.86 1.64,-1.25 2.18,-1.53 0.39,-0.19 0.88,-0.37 2.05,-0.37 1.16,0 1.65,0.18 2.04,0.37 0.54,0.28 1.05,0.67 2.18,1.53 l 0.01,0.01 c 0.16,0.12 0.34,0.26 0.53,0.4 3.49,2.67 7.45,3.37 9.36,3.37 2.21,0 4,-1.79 4,-4 0,-2.21 -1.79,-4 -4,-4 -0.15,0 -0.82,-0.05 -1.75,-0.34 -0.89,-0.27 -1.88,-0.71 -2.76,-1.39 -0.09,-0.07 -0.19,-0.14 -0.28,-0.22 l -0.2,-0.15 c -1.04,-0.8 -2.22,-1.71 -3.49,-2.35 -1.7,-0.86 -3.47,-1.23 -5.64,-1.23 -2.18,0 -3.95,0.37 -5.65,1.23 -1.27,0.64 -2.45,1.55 -3.49,2.35 v 0.01 c -0.11,0.08 -0.21,0.16 -0.31,0.23 -0.06,0.05 -0.11,0.09 -0.17,0.13 -0.88,0.68 -1.87,1.12 -2.76,1.39 -0.77,0.24 -1.36,0.31 -1.62,0.33 -0.27,-0.02 -0.86,-0.09 -1.63,-0.33 -0.89,-0.27 -1.88,-0.71 -2.76,-1.39 l -0.15,-0.11 c -0.1,-0.08 -0.21,-0.17 -0.32,-0.25 l -0.01,-0.01 c -1.04,-0.8 -2.22,-1.71 -3.49,-2.35 -1.7,-0.86 -3.47,-1.23 -5.64,-1.23 h -0.07 -0.06 -0.07 -0.05 c -0.07,0 -0.15,0 -0.22,0.01 -1.97,0.05 -3.6,0.42 -5.18,1.22 -1.27,0.64 -2.45,1.55 -3.49,2.35 -0.16,0.13 -0.32,0.25 -0.48,0.37 -0.88,0.68 -1.87,1.12 -2.76,1.39 -0.77,0.24 -1.36,0.31 -1.62,0.33 -0.27,-0.02 -0.86,-0.09 -1.63,-0.33 -0.89,-0.27 -1.88,-0.71 -2.76,-1.39 -0.08,-0.06 -0.16,-0.12 -0.24,-0.18 l -0.24,-0.19 c -1.04,-0.8 -2.22,-1.71 -3.49,-2.35 -1.7,-0.86 -3.47,-1.23 -5.64,-1.23 -0.05,0 -0.09,0 -0.13,0 h -0.05 -0.07 c -0.07,0 -0.15,0 -0.22,0.01 -1.97,0.05 -3.6,0.42 -5.18,1.22 -1.27,0.64 -2.45,1.55 -3.49,2.35 l -0.01,0.01 c -0.16,0.12 -0.32,0.25 -0.47,0.36 -0.88,0.68 -1.87,1.12 -2.76,1.39 -0.77,0.24 -1.36,0.31 -1.62,0.33 -0.27,-0.02 -0.86,-0.09 -1.63,-0.33 -0.89,-0.27 -1.88,-0.71 -2.76,-1.39 -0.15,-0.11 -0.31,-0.23 -0.47,-0.36 v 0 l -0.01,-0.01 c -1.04,-0.8 -2.22,-1.71 -3.49,-2.35 -1.7,-0.86 -3.470004,-1.23 -5.640004,-1.23 -0.05,0 -0.09,0 -0.13,0 -0.04,0 -0.08,0 -0.12,0 -0.07,0 -0.15,0 -0.22,0.01 -1.97,0.05 -3.6,0.42 -5.18,1.22 -1.27,0.64 -2.45,1.55 -3.49,2.35 l -0.19,0.15 c -0.1,0.08 -0.19,0.15 -0.29,0.22 -0.88,0.68 -1.87,1.12 -2.76,1.39 -0.93,0.29 -1.6,0.34 -1.75,0.34 -0.15,0 -0.82,-0.05 -1.74,-0.34 -0.9,-0.27 -1.88,-0.71 -2.76,-1.39 -0.16,-0.12 -0.32,-0.24 -0.48,-0.37 -1.04,-0.8 -2.22,-1.71 -3.49,-2.35 -1.7,-0.86 -3.47,-1.23 -5.65,-1.23 z m 14.5,-98.82 h 0.06 c 1.84,-14.199997 14.16,-25.179997 29.070004,-25.179997 9.32,0 17.62,4.28 22.99,10.96 1.11,1.37 2.09,2.85 2.93,4.409997 1.3,-0.87 2.68,-1.609997 4.14,-2.229997 3.08,-1.31 6.46,-2.03 10.02,-2.03 10.33,0 19.24,6.099997 23.28,14.899997 0.57,1.24 1.05,2.54 1.42,3.88 0.84,-0.31 1.71,-0.55 2.61,-0.72 1.01,-0.19 2.05,-0.29 3.12,-0.29 9.22,0 16.7,7.46 16.7,16.66 0,6.32 -3.53,11.82 -8.73,14.64 l 2.24,2.24 c 2.01,2.01 2.53,5.08 1.3,7.64 l -0.8,1.66 c 0.49,1.03 1.05,2.26 1.46,3.36 l 3.73,1.24 c 0.23,0.08 0.45,0.18 0.65,0.29 1.41,0.61 2.39,2.02 2.39,3.66 v 10.74 c 0,2.85 -1.79,5.38 -4.48,6.32 l -1.73,0.61 c -0.21,0.57 -0.44,1.2 -0.68,1.82 1.81,0.38 3.18,1.99 3.18,3.92 0,2.21 -1.79,4 -4,4 -1.91,0 -5.87,-0.7 -9.36,-3.37 l -0.07,-0.05 c -0.16,-0.12 -0.32,-0.24 -0.46,-0.35 l -0.01,-0.01 c -1.13,-0.86 -1.64,-1.25 -2.18,-1.53 -0.39,-0.19 -0.88,-0.37 -2.04,-0.37 -1.17,0 -1.66,0.18 -2.05,0.37 -0.54,0.28 -1.05,0.67 -2.18,1.53 -0.16,0.13 -0.34,0.26 -0.54,0.41 -3.09,2.36 -6.55,3.18 -8.62,3.34 -0.16,0.02 -0.33,0.03 -0.49,0.03 h -0.06 -0.06 c -0.05,0 -0.09,0 -0.13,0 -1.9,0 -5.86,-0.7 -9.36,-3.37 -0.18,-0.14 -0.35,-0.27 -0.51,-0.39 l -0.03,-0.02 c -1.13,-0.86 -1.63,-1.25 -2.18,-1.53 -0.37,-0.19 -0.84,-0.36 -1.92,-0.37 -1.07,0.01 -1.54,0.18 -1.92,0.37 -0.54,0.28 -1.05,0.67 -2.18,1.53 -0.16,0.13 -0.34,0.26 -0.54,0.41 -3.09,2.36 -6.55,3.18 -8.62,3.34 -0.16,0.02 -0.33,0.03 -0.49,0.03 h -0.06 -0.06 c -0.05,0 -0.09,0 -0.13,0 -1.9,0 -5.86,-0.7 -9.36,-3.37 -0.19,-0.15 -0.37,-0.28 -0.54,-0.41 -1.13,-0.86 -1.63,-1.25 -2.18,-1.53 -0.37,-0.19 -0.84,-0.36 -1.92,-0.37 -1.07,0.01 -1.54,0.18 -1.92,0.37 -0.54,0.28 -1.05,0.67 -2.18,1.53 -0.16,0.13 -0.34,0.26 -0.54,0.41 -3.09,2.36 -6.55,3.18 -8.62,3.34 -0.16,0.02 -0.33,0.03 -0.49,0.03 -0.04,0 -0.08,0 -0.12,0 -0.05,0 -0.09,0 -0.13,0 -1.9,0 -5.86,-0.7 -9.36,-3.37 -0.19,-0.15 -0.37,-0.28 -0.54,-0.41 -1.130004,-0.86 -1.630004,-1.25 -2.180004,-1.53 -0.37,-0.19 -0.84,-0.36 -1.92,-0.37 -1.07,0.01 -1.54,0.18 -1.92,0.37 -0.54,0.28 -1.05,0.67 -2.18,1.53 -0.16,0.13 -0.34,0.26 -0.54,0.41 -3.49,2.67 -7.45,3.37 -9.36,3.37 -1.9,0 -5.86,-0.7 -9.36,-3.37 -0.18,-0.14 -0.35,-0.27 -0.51,-0.39 l -0.03,-0.02 c -1.13,-0.86 -1.63,-1.25 -2.18,-1.53 -0.39,-0.19 -0.88,-0.37 -2.04,-0.37 -2.21,0 -4,-1.79 -4,-4 0,-2.21 1.79,-4 4,-4 2.18,0 3.95,0.37 5.65,1.23 1.27,0.64 2.45,1.55 3.49,2.35 0.16,0.13 0.32,0.25 0.48,0.37 0.88,0.68 1.86,1.12 2.76,1.39 0.92,0.29 1.59,0.34 1.74,0.34 0.15,0 0.82,-0.05 1.75,-0.34 0.89,-0.27 1.88,-0.71 2.76,-1.39 0.16,-0.12 0.32,-0.24 0.48,-0.37 1.04,-0.8 2.22,-1.71 3.49,-2.35 1.58,-0.8 3.21,-1.17 5.18,-1.22 0.07,-0.01 0.15,-0.01 0.22,-0.01 0.04,0 0.08,0 0.12,0 h 0.05 0.08 c 2.17,0 3.940004,0.37 5.640004,1.23 1.27,0.64 2.45,1.55 3.49,2.35 l 0.01,0.01 v 0 c 0.16,0.13 0.32,0.25 0.47,0.36 0.88,0.68 1.87,1.12 2.76,1.39 0.77,0.24 1.36,0.31 1.63,0.33 0.26,-0.02 0.85,-0.09 1.62,-0.33 0.89,-0.27 1.88,-0.71 2.76,-1.39 0.15,-0.11 0.31,-0.24 0.47,-0.36 l 0.01,-0.01 c 1.04,-0.8 2.22,-1.71 3.49,-2.35 1.58,-0.8 3.21,-1.17 5.18,-1.22 0.03,-0.01 0.06,-0.01 0.09,-0.01 0.04,0 0.09,0 0.13,0 0,0 0.01,0 0.01,0 -0.01,-0.09 -0.01,-0.18 -0.01,-0.27 v -10.74 c 0,-2.85 1.8,-5.38 4.48,-6.32 l 1.74,-0.61 c 0.38,-1.07 0.86,-2.33 1.34,-3.41 l -1.75,-3.51 c -0.31,-0.61 -0.44,-1.27 -0.42,-1.9 -0.02,-1.05 0.37,-2.11 1.17,-2.91 l 2.13,-2.13 H 81.843686 v -0.06 c -9.56,-0.75 -17.07,-8.73 -17.07,-18.45 0,-10.23 8.3,-18.51 18.55,-18.51 0.06,0 0.12,0 0.18,0 z m 68.290004,26.65 -0.79,2.37 h -3 v -17.76 c 0,-1.48 -1.21,-2.69 -2.69,-2.69 h -7.9 c -1.48,0 -2.69,1.21 -2.69,2.69 v 17.76 h -3.79 v -22.17 c 0,-1.13 -0.7,-2.1 -1.68,-2.5 -0.31,-0.13 -0.66,-0.2 -1.02,-0.2 h -7.89 c -1.49,0 -2.69,1.21 -2.69,2.7 v 22.17 h -3.8 v -36.69 c 0,-1.48 -1.2,-2.69 -2.69,-2.69 h -7.89 c -1.49,0 -2.7,1.21 -2.7,2.69 v 36.69 h -3.790004 v -10.19 c 0,-1.48 -1.21,-2.69 -2.69,-2.69 h -7.9 c -1.48,0 -2.69,1.21 -2.69,2.69 v 10.19 h -0.61 l -0.42,-0.03 c -5.44,-0.43 -9.7,-4.98 -9.7,-10.48 0,-5.79 4.7,-10.51 10.55,-10.51 h 0.07 0.07 l 7.12,0.09 0.91,-7.06 c 1.32,-10.18 10.210004,-18.209997 21.140004,-18.209997 8.22,0 15.31,4.55 18.87,11.159997 l 4.16,7.72 7.31,-4.85 c 2.79,-1.85 6.12,-2.92 9.74,-2.92 8.11,0 14.94,5.46 16.98,12.89 l 2.3,8.38 8.16,-2.98 c 0.92,-0.33 1.92,-0.52 2.99,-0.52 4.82,0 8.7,3.89 8.7,8.66 0,4.24 -3.08,7.79 -7.15,8.52 -0.08,-0.04 -0.17,-0.08 -0.25,-0.11 -1.13,-0.67 -2.58,-0.78 -3.84,-0.14 l -0.78,0.39 h -6.16 l -0.6,-1.72 c -0.94,-2.68 -3.47,-4.48 -6.31,-4.48 h -1.68 v -21.02 c 0,-1.49 -1.2,-2.69 -2.69,-2.69 h -7.89 c -1.49,0 -2.7,1.2 -2.7,2.69 z m -12.07,47.56 c 0.05,-0.02 0.1,-0.03 0.15,-0.05 0.89,-0.27 1.88,-0.71 2.76,-1.39 0.16,-0.12 0.32,-0.24 0.48,-0.37 1.04,-0.8 2.22,-1.71 3.49,-2.35 0.41,-0.21 0.83,-0.39 1.26,-0.54 -1.19,-2.32 -1.86,-4.94 -1.86,-7.73 0,-9.37 7.59,-16.96 16.96,-16.96 9.37,0 16.96,7.59 16.96,16.96 0,2.56 -0.56,4.98 -1.57,7.15 0.6,-0.08 1.23,-0.11 1.9,-0.11 2.17,0 3.94,0.37 5.64,1.23 0.7,0.35 1.36,0.78 2,1.23 0.21,-0.55 0.42,-1.13 0.6,-1.67 0.66,-1.92 2.16,-3.5 4.16,-4.2 l 1.43,-0.5 v -6.98 l -1.65,-0.55 c -2.44,-0.82 -3.92,-2.82 -4.58,-4.6 -0.36,-0.96 -0.92,-2.2 -1.44,-3.26 -0.89,-1.82 -0.95,-3.99 -0.03,-5.91 l 0.66,-1.37 -5.26,-5.26 -1.45,0.72 c -2.3,1.16 -4.76,0.79 -6.49,0 -0.93,-0.43 -2.2,-0.9 -3.32,-1.29 -1.91,-0.66 -3.5,-2.15 -4.2,-4.16 l -0.5,-1.43 h -6.98 l -0.55,1.65 c -0.82,2.44 -2.82,3.92 -4.6,4.59 -0.96,0.35 -2.2,0.91 -3.26,1.43 -1.82,0.89 -3.99,0.95 -5.91,0.03 l -1.37,-0.66 -4.96,4.97 0.69,1.39 c 1.16,2.31 0.79,4.77 0,6.5 -0.43,0.92 -0.9,2.2 -1.29,3.32 -0.66,1.91 -2.15,3.49 -4.16,4.19 l -1.43,0.51 v 6.98 l 1.65,0.55 c 2.44,0.81 3.92,2.81 4.59,4.6 0.35,0.95 0.91,2.19 1.43,3.25 0.02,0.03 0.03,0.06 0.05,0.09 z m 23.24,-3.47 c 4.95,0 8.96,-4.01 8.96,-8.96 0,-4.95 -4.01,-8.96 -8.96,-8.96 -4.95,0 -8.96,4.01 -8.96,8.96 0,4.95 4.01,8.96 8.96,8.96 z"
     style="fill:#dd00a1;fill-opacity:1;fill-rule:evenodd"
     inkscape:label="data-lakehouse" /></svg>
