<?xml version="1.0" encoding="UTF-8" standalone="no"?>
<svg
   width="256"
   height="256"
   viewBox="0 0 256 256"
   fill="none"
   version="1.1"
   id="svg882"
   sodipodi:docname="trino-icons-dd00a1.svg"
   inkscape:version="1.2.2 (b0a8486, 2022-12-01)"
   xml:space="preserve"
   xmlns:inkscape="http://www.inkscape.org/namespaces/inkscape"
   xmlns:sodipodi="http://sodipodi.sourceforge.net/DTD/sodipodi-0.dtd"
   xmlns="http://www.w3.org/2000/svg"
   xmlns:svg="http://www.w3.org/2000/svg"><defs
     id="defs886" /><sodipodi:namedview
     id="namedview884"
     pagecolor="#ffffff"
     bordercolor="#666666"
     borderopacity="1.0"
     inkscape:showpageshadow="2"
     inkscape:pageopacity="0.0"
     inkscape:pagecheckerboard="0"
     inkscape:deskcolor="#d1d1d1"
     showgrid="false"
     inkscape:zoom="0.18522237"
     inkscape:cx="1916.6151"
     inkscape:cy="2386.3208"
     inkscape:window-width="1920"
     inkscape:window-height="1052"
     inkscape:window-x="1080"
     inkscape:window-y="281"
     inkscape:window-maximized="0"
     inkscape:current-layer="svg882"
     showguides="true" /><path
     id="role"
     d="M 128,256 C 198.69,256 256,198.69 256,128 256,57.31 198.69,0 128,0 57.31,0 0,57.31 0,128 0,198.69 57.31,256 128,256 Z m 68,-29.1101 C 227.41,205.25 248,169.0299 248,128 248,61.73 194.27,8 128,8 61.73,8 8,61.73 8,128 c 0,41.46 21.03,78.0101 53,99.5701 V 158 c 0,-11.0501 8.95,-20 20,-20 h 95 c 11.05,0 20,8.9499 20,20 z m -8,5.06 V 158 c 0,-6.6301 -5.37,-12 -12,-12 H 81 c -6.63,0 -12,5.3699 -12,12 v 74.52 c 17.42,9.8499 37.55,15.48 59,15.48 21.86,0 42.35,-5.8401 60,-16.0501 z M 128.5,128 C 149.21,128 166,111.21 166,90.5 166,69.79 149.21,53 128.5,53 107.79,53 91,69.79 91,90.5 c 0,20.71 16.79,37.5 37.5,37.5 z m 0,-8 C 144.79,120 158,106.79 158,90.5 158,74.21 144.79,61 128.5,61 112.21,61 99,74.21 99,90.5 c 0,16.29 13.21,29.5 29.5,29.5 z"
     style="fill:#dd00a1;fill-opacity:1;fill-rule:evenodd"
     inkscape:label="role" /></svg>
