<?xml version="1.0" encoding="UTF-8" standalone="no"?>
<svg
   width="256"
   height="250"
   viewBox="0 0 256 250"
   fill="none"
   version="1.1"
   id="svg882"
   sodipodi:docname="trino-icons-dd00a1.svg"
   inkscape:version="1.2.2 (b0a8486, 2022-12-01)"
   xml:space="preserve"
   xmlns:inkscape="http://www.inkscape.org/namespaces/inkscape"
   xmlns:sodipodi="http://sodipodi.sourceforge.net/DTD/sodipodi-0.dtd"
   xmlns="http://www.w3.org/2000/svg"
   xmlns:svg="http://www.w3.org/2000/svg"><defs
     id="defs886" /><sodipodi:namedview
     id="namedview884"
     pagecolor="#ffffff"
     bordercolor="#666666"
     borderopacity="1.0"
     inkscape:showpageshadow="2"
     inkscape:pageopacity="0.0"
     inkscape:pagecheckerboard="0"
     inkscape:deskcolor="#d1d1d1"
     showgrid="false"
     inkscape:zoom="0.18522237"
     inkscape:cx="1916.6151"
     inkscape:cy="2386.3208"
     inkscape:window-width="1920"
     inkscape:window-height="1052"
     inkscape:window-x="1080"
     inkscape:window-y="281"
     inkscape:window-maximized="0"
     inkscape:current-layer="svg882"
     showguides="true" /><path
     id="authenticated-object-storage"
     d="M 0,5 C 0,2.24 2.24,0 5,0 h 69.6 c 2.76,0 5,2.24 5,5 v 2.83 h 113.18 c 6.35,-4.6 14.1,-7.37 22.49,-7.54 0.12,-0.01 0.24,-0.01 0.36,-0.01 0.05,0 0.1,0 0.15,0 0.11,0 0.23,0 0.34,0 22.03,0 39.88,17.88 39.88,39.93 0,20.71 -15.75,37.74 -35.91,39.74 l -46.24,46.3 v 13.58 c 34.52,5.25 58.41,16.1 59.03,28.69 H 233 v 3.92 c 1.36,0.71 2.72,1.4 4.05,2.07 3.36,1.69 6.52,3.21 9.08,4.31 1.28,0.55 2.37,0.99 3.24,1.29 0.43,0.14 0.78,0.25 1.05,0.32 0.25,0.06 0.37,0.08 0.38,0.08 v 0 c 1.76,0.14 2.91,1.21 3.54,2.12 0.61,0.88 0.96,1.88 1.17,2.76 0.44,1.8 0.56,4.08 0.45,6.56 -0.23,5.02 -1.47,11.65 -3.99,18.71 -5.02,14.08 -15.42,30.46 -34.08,38.81 -0.34,0.15 -0.68,0.25 -1.03,0.29 -0.86,0.33 -1.84,0.33 -2.75,-0.07 -5.02,-2.25 -9.45,-5.08 -13.33,-8.29 -19.19,5.33 -45.07,8.6 -73.56,8.6 C 72.76,250 27.8,238.05 21,222.58 v -54.06 c 0,-0.29 0.03,-0.57 0.09,-0.84 1.6,-12.13 24.8,-22.55 58.11,-27.72 V 122.69 L 36.43,79.86 36.59,79.71 H 5 c -2.76,0 -5,-2.24 -5,-5 z M 8,71.71 V 8 h 63.6 v 63.71 z m 71.2,76.35 c -9.25,1.49 -17.62,3.38 -24.82,5.6 -9.16,2.81 -15.99,6 -20.35,9.17 -4.54,3.29 -5.03,5.48 -5.03,6.19 v 0 0 c 0,0.71 0.49,2.9 5.03,6.2 4.36,3.16 11.19,6.35 20.35,9.17 18.22,5.59 43.88,9.17 72.56,9.17 17.89,0 34.6,-1.39 49.07,-3.79 0.03,-1.55 0.18,-2.96 0.48,-4.16 0.21,-0.88 0.56,-1.89 1.17,-2.76 0.63,-0.91 1.78,-1.98 3.54,-2.12 v 0 c 0.01,0 0.13,-0.02 0.38,-0.08 0.27,-0.07 0.62,-0.18 1.05,-0.33 0.87,-0.3 1.96,-0.73 3.24,-1.28 2.56,-1.11 5.72,-2.62 9.08,-4.31 6.73,-3.39 14.12,-7.4 18.87,-10.06 0.42,-0.23 0.87,-0.37 1.32,-0.43 0.96,-0.37 2.07,-0.33 3.04,0.22 1.83,1.02 4.06,2.25 6.49,3.57 -0.41,-1.09 -1.6,-2.87 -4.81,-5.2 -4.36,-3.17 -11.19,-6.36 -20.35,-9.17 -7.42,-2.28 -16.07,-4.23 -25.66,-5.73 v 11.23 c 0,4.97 -4.03,9 -9,9 H 88.2 c -4.97,0 -9,-4.03 -9,-9 z m 97.43,49.71 c -14.82,2.42 -31.73,3.79 -49.69,3.79 -44.18,0 -82.04,-8.3 -97.94,-20.11 v 13.86 c 0.71,0.92 1.92,2.12 3.98,3.55 4.43,3.08 11.36,6.17 20.65,8.9 18.46,5.43 44.45,8.9 73.48,8.9 19.69,0 37.97,-1.59 53.46,-4.31 -0.19,-0.49 -0.37,-0.99 -0.54,-1.48 -1.67,-4.66 -2.78,-9.15 -3.4,-13.1 z m 7.27,22.12 c -16.46,3.03 -35.93,4.79 -56.79,4.79 -43.84,0 -81.54,-7.75 -98.11,-18.84 v 14.64 c 0.69,0.95 1.92,2.2 4.09,3.7 4.43,3.08 11.36,6.18 20.65,8.91 18.46,5.43 44.45,8.9 73.48,8.9 25.69,0 49,-2.72 66.81,-7.1 -4.2,-4.72 -7.53,-9.87 -10.13,-15 z M 79.07,111.24 c 0,-0.22 0,-0.45 0,-0.67 0.03,-1.79 0.26,-4.05 1.35,-6.24 1.88,-3.77 5.56,-6.05 11.15,-6.9 V 61.2 c 0,-2.76 2.24,-5 5,-5 h 62.86 c 2.76,0 5,2.24 5,5 v 46.21 h 0.42 c 4.5,0 8.23,3.31 8.89,7.62 l 35.45,-35.49 c -18.72,-3.29 -32.94,-19.65 -32.94,-39.33 0,-9.18 3.09,-17.63 8.29,-24.38 H 79.6 v 58.88 c 0,2.76 -2.24,5 -5,5 H 47.58 Z M 111.65,97.06 H 99.57 V 64.2 h 56.86 v 43.21 h -30.3 c -0.26,0 -0.52,-0.1 -0.7,-0.29 l -7.41,-7.42 c -1.69,-1.69 -3.98,-2.64 -6.37,-2.64 z m 84.29,-81.23 h -0.41 c -2.38,2.02 -4.46,4.38 -6.16,7.01 h 11.18 c 0.96,-4.7 2.29,-8.9 3.9,-12.35 -3.1,1.22 -5.97,2.92 -8.51,5 z m 51.62,29.69 c 0.29,-1.73 0.44,-3.5 0.44,-5.31 0,-3.26 -0.49,-6.41 -1.39,-9.37 h -14.7 c 0.3,3.01 0.46,6.14 0.46,9.37 0,1.8 -0.05,3.57 -0.15,5.31 z m -2.45,8 h -13.69 c -0.98,6.58 -2.66,12.37 -4.82,16.86 8.22,-2.87 14.91,-9 18.51,-16.86 z m -20.9,-8 c 0.1,-1.72 0.16,-3.49 0.16,-5.31 0,-3.28 -0.18,-6.42 -0.51,-9.37 H 207.4 c -0.33,2.95 -0.51,6.09 -0.51,9.37 0,1.82 0.06,3.59 0.16,5.31 z m -0.89,8 c -0.76,4.6 -1.89,8.62 -3.23,11.83 -1.27,3.03 -2.58,4.97 -3.63,6.02 -0.38,0.39 -0.66,0.59 -0.83,0.7 -0.17,-0.11 -0.45,-0.31 -0.83,-0.7 -1.05,-1.05 -2.36,-2.99 -3.63,-6.02 -1.34,-3.21 -2.47,-7.23 -3.23,-11.83 z m -24.28,-8 c -0.1,-1.74 -0.15,-3.51 -0.15,-5.31 0,-3.23 0.16,-6.36 0.47,-9.37 h -13.72 c -0.91,2.96 -1.39,6.11 -1.39,9.37 0,1.81 0.15,3.58 0.43,5.31 z m -11.9,8 h 12.7 c 0.95,6.37 2.55,11.99 4.61,16.41 -7.67,-3.02 -13.89,-8.94 -17.31,-16.41 z M 226.6,10.04 c 6.74,2.35 12.45,6.9 16.28,12.8 h -12.17 c -1,-4.91 -2.4,-9.26 -4.11,-12.8 z m -6.51,5.03 c 0.93,2.22 1.76,4.84 2.43,7.77 h -13.78 c 0.67,-2.93 1.5,-5.55 2.43,-7.77 1.27,-3.03 2.58,-4.97 3.63,-6.02 0.38,-0.39 0.66,-0.59 0.83,-0.7 0.17,0.11 0.45,0.31 0.83,0.7 1.05,1.05 2.36,2.99 3.63,6.02 z M 87.2,114.86 c 0,-0.65 -0.04,-1.35 -0.07,-1.96 l -0.01,-0.24 c -0.03,-0.71 -0.06,-1.35 -0.05,-1.97 0.02,-1.27 0.19,-2.15 0.51,-2.79 0.4,-0.8 1.84,-2.84 9.4,-2.84 h 14.67 c 0.27,0 0.52,0.11 0.71,0.29 l 7.41,7.42 c 1.68,1.69 3.98,2.64 6.36,2.64 h 38.72 c 0.55,0 1,0.45 1,1 v 5.74 H 87.2 Z m 0,15.29 h 78.65 v 29.01 c 0,0.55 -0.45,1 -1,1 H 88.2 c -0.55,0 -1,-0.45 -1,-1 z m 129,41.43 c -4.81,2.67 -11.7,6.39 -18.04,9.58 -3.42,1.72 -6.72,3.3 -9.46,4.49 -1.37,0.59 -2.64,1.1 -3.74,1.48 -0.51,0.17 -1.04,0.34 -1.58,0.48 -0.17,0.89 -0.27,2.3 -0.18,4.22 0.19,4.23 1.26,10.15 3.57,16.62 4.5,12.61 13.49,26.63 29,34.09 15.8,-7.4 24.91,-21.58 29.46,-34.31 2.31,-6.46 3.38,-12.39 3.57,-16.61 0.09,-1.92 -0.01,-3.34 -0.18,-4.23 -0.54,-0.14 -1.07,-0.31 -1.58,-0.48 -1.1,-0.38 -2.37,-0.89 -3.74,-1.48 -2.74,-1.19 -6.04,-2.77 -9.46,-4.49 -6.17,-3.1 -12.86,-6.71 -17.64,-9.36 z M 127.08,88.62 c -2.21,0 -4,1.8 -4,4 0,2.21 1.79,4 4,4 h 16.61 c 2.21,0 4,-1.79 4,-4 0,-2.2 -1.79,-4 -4,-4 z M 111.32,71.86 c -2.21,0 -4,1.79 -4,4 0,2.21 1.79,4 4,4 h 31.39 c 2.21,0 4,-1.79 4,-4 0,-2.21 -1.79,-4 -4,-4 z M 63.67,34.92 c 3.33,1.93 3.33,6.73 0,8.66 L 30.72,62.63 c -3.33,1.93 -7.5,-0.48 -7.5,-4.33 V 20.2 c 0,-3.85 4.17,-6.26 7.5,-4.33 z M 31.22,25.4 55.17,39.25 31.22,53.1 Z"
     style="fill:#dd00a1;fill-opacity:1;fill-rule:evenodd"
     inkscape:label="authenticated-object-storage" /></svg>
