<?xml version="1.0" encoding="UTF-8" standalone="no"?>
<svg
   width="256"
   height="256"
   viewBox="0 0 256 256"
   fill="none"
   version="1.1"
   id="svg882"
   sodipodi:docname="trino-icons-dd00a1.svg"
   inkscape:version="1.2.2 (b0a8486, 2022-12-01)"
   xml:space="preserve"
   xmlns:inkscape="http://www.inkscape.org/namespaces/inkscape"
   xmlns:sodipodi="http://sodipodi.sourceforge.net/DTD/sodipodi-0.dtd"
   xmlns="http://www.w3.org/2000/svg"
   xmlns:svg="http://www.w3.org/2000/svg"><defs
     id="defs886" /><sodipodi:namedview
     id="namedview884"
     pagecolor="#ffffff"
     bordercolor="#666666"
     borderopacity="1.0"
     inkscape:showpageshadow="2"
     inkscape:pageopacity="0.0"
     inkscape:pagecheckerboard="0"
     inkscape:deskcolor="#d1d1d1"
     showgrid="false"
     inkscape:zoom="0.18522237"
     inkscape:cx="1916.6151"
     inkscape:cy="2386.3208"
     inkscape:window-width="1920"
     inkscape:window-height="1052"
     inkscape:window-x="1080"
     inkscape:window-y="281"
     inkscape:window-maximized="0"
     inkscape:current-layer="svg882"
     showguides="true" /><path
     fill-rule="evenodd"
     clip-rule="evenodd"
     d="M 5,0 C 2.239,0 0,2.239 0,5 v 78.34501 c 0,2.762 2.239,5 5,5 h 31 v 78.306 H 5 c -2.761,0 -5,2.239 -5,5 v 79.349 c 0,2.761 2.239,5 5,5 h 71 c 2.761,0 5,-2.239 5,-5 v -37.18 h 94 v 37.18 c 0,2.761 2.239,5 5,5 h 71 c 2.761,0 5,-2.239 5,-5 v -79.349 c 0,-2.761 -2.239,-5 -5,-5 h -32 v -78.306 h 32 c 2.761,0 5,-2.238 5,-5 V 5 c 0,-2.761 -2.239,-5 -5,-5 h -71 c -2.761,0 -5,2.239 -5,5 V 38.16501 H 81 V 5 C 81,2.239 78.761,0 76,0 Z M 8,38.133 V 54.227 H 73 V 38.133 Z M 8,80.34501 V 62.227 H 73 V 80.34501 Z M 8,30.133 H 73 V 8 H 8 Z m 203,136.51801 v -78.306 h -31 c -2.761,0 -5,-2.238 -5,-5 v -37.18 H 132 V 81.318 h 31 c 2.761,0 5,2.238 5,5 v 78.34501 c 0,2.761 -2.239,5 -5,5 h -31 v 36.157 h 43 v -34.169 c 0,-2.761 2.239,-5 5,-5 z M 92,81.318 h 32 V 46.16501 H 81 v 37.18 c 0,2.762 -2.239,5 -5,5 H 44 v 78.306 h 32 c 2.761,0 5,2.239 5,5 v 34.169 h 43 v -36.157 H 92 c -2.761,0 -5,-2.239 -5,-5 V 86.318 c 0,-2.762 2.239,-5 5,-5 z M 8,248.00001 v -23.137 h 65 v 23.137 z m 0,-31.137 h 65 v -15.09 H 8 Z m 65,-42.212 v 19.122 H 8 v -19.122 z M 183,62.227 v 18.11801 h 65 V 62.227 Z m 0,-8 h 65 V 38.133 h -65 z m 0,-24.094 V 8 h 65 v 22.133 z m -23,59.185 v 23.137 H 95 V 89.318 Z M 95,135.54501 V 120.455 h 65 v 15.09001 z m 0,8 h 65 v 18.118 H 95 Z m 153,58.228 h -65 v 15.09 h 65 z m 0,-8 h -65 v -19.122 h 65 z m 0,31.09 h -65 v 23.137 h 65 z"
     fill="#212121"
     id="cluster"
     inkscape:label="cluster"
     style="fill:#dd00a1;fill-opacity:1" /></svg>
