<?xml version="1.0" encoding="UTF-8" standalone="no"?>
<svg
   width="256"
   height="256"
   viewBox="0 0 256 256"
   fill="none"
   version="1.1"
   id="svg882"
   sodipodi:docname="trino-icons-dd00a1.svg"
   inkscape:version="1.2.2 (b0a8486, 2022-12-01)"
   xml:space="preserve"
   xmlns:inkscape="http://www.inkscape.org/namespaces/inkscape"
   xmlns:sodipodi="http://sodipodi.sourceforge.net/DTD/sodipodi-0.dtd"
   xmlns="http://www.w3.org/2000/svg"
   xmlns:svg="http://www.w3.org/2000/svg"><defs
     id="defs886" /><sodipodi:namedview
     id="namedview884"
     pagecolor="#ffffff"
     bordercolor="#666666"
     borderopacity="1.0"
     inkscape:showpageshadow="2"
     inkscape:pageopacity="0.0"
     inkscape:pagecheckerboard="0"
     inkscape:deskcolor="#d1d1d1"
     showgrid="false"
     inkscape:zoom="0.18522237"
     inkscape:cx="1916.6151"
     inkscape:cy="2386.3208"
     inkscape:window-width="1920"
     inkscape:window-height="1052"
     inkscape:window-x="1080"
     inkscape:window-y="281"
     inkscape:window-maximized="0"
     inkscape:current-layer="svg882"
     showguides="true" /><path
     id="cli"
     d="M 0,5 C 0,2.24 2.239,0 5,0 h 246 c 2.761,0 5,2.24 5,5 v 246 c 0,2.76 -2.239,5 -5,5 H 5 c -2.761,0 -5,-2.24 -5,-5 z M 8,248 V 8 h 240 v 240 z m 80.837,-33.6 c -2.209,0 -4,1.79 -4,4 0,2.21 1.791,4 4,4 h 127.442 c 2.209,0 4,-1.79 4,-4 0,-2.21 -1.791,-4 -4,-4 z M 33.975,166.26 c -1.877,-1.16 -4.246,-0.53 -5.292,1.42 -1.045,1.94 -0.371,4.46 1.506,5.63 l 35.873,22.26 -35.663,22.14 c -1.877,1.16 -2.552,3.68 -1.506,5.63 1.045,1.95 3.414,2.58 5.291,1.42 l 41.244,-25.6 c 1.877,-1.17 2.551,-3.69 1.506,-5.64 -0.385,-0.71 -0.95,-1.25 -1.604,-1.59 -0.036,-0.02 -0.074,-0.05 -0.111,-0.07 z"
     style="fill:#dd00a1;fill-opacity:1;fill-rule:evenodd"
     inkscape:label="cli" /></svg>
