<?xml version="1.0" encoding="UTF-8" standalone="no"?>
<svg
   width="207"
   height="232.78999"
   viewBox="0 0 207 232.78999"
   fill="none"
   version="1.1"
   id="svg882"
   sodipodi:docname="trino-icons-dd00a1.svg"
   inkscape:version="1.2.2 (b0a8486, 2022-12-01)"
   xml:space="preserve"
   xmlns:inkscape="http://www.inkscape.org/namespaces/inkscape"
   xmlns:sodipodi="http://sodipodi.sourceforge.net/DTD/sodipodi-0.dtd"
   xmlns="http://www.w3.org/2000/svg"
   xmlns:svg="http://www.w3.org/2000/svg"><defs
     id="defs886" /><sodipodi:namedview
     id="namedview884"
     pagecolor="#ffffff"
     bordercolor="#666666"
     borderopacity="1.0"
     inkscape:showpageshadow="2"
     inkscape:pageopacity="0.0"
     inkscape:pagecheckerboard="0"
     inkscape:deskcolor="#d1d1d1"
     showgrid="false"
     inkscape:zoom="0.18522237"
     inkscape:cx="1916.6151"
     inkscape:cy="2386.3208"
     inkscape:window-width="1920"
     inkscape:window-height="1052"
     inkscape:window-x="1080"
     inkscape:window-y="281"
     inkscape:window-maximized="0"
     inkscape:current-layer="svg882"
     showguides="true" /><path
     id="authorized-client"
     d="m 105.83,0.75 c 8.42,5.72 29.47,16.45 48.39,17.52 17.69,0.99 36.3,-1.96 45.41,-4 3.71,-0.82 7.37,1.96 7.37,5.89 v 114.83 l -0.01,0.12 c -1.43,24.95 -24.01,78.04 -102.45,97.55 -0.34,0.09 -0.68,0.13 -1.04,0.13 -0.36,0 -0.7,-0.04 -1.04,-0.13 C 24.02,213.15 1.44,160.06 0.01,135.11 L 0,134.99 V 20.16 c 0,-3.93 3.66,-6.71 7.37,-5.89 9.11,2.04 27.72,4.99 45.41,4 C 71.7,17.2 92.75,6.47 101.17,0.75 101.37,0.6 101.59,0.48 101.81,0.37 102.35,0.12 102.93,0 103.5,0 c 0.57,0 1.15,0.12 1.69,0.37 0.22,0.11 0.44,0.23 0.64,0.38 z m -2.33,223.92 c 74.18,-18.8 94.21,-68.48 95.5,-89.91 V 22.59 c -10.14,2.07 -27.99,4.63 -45.22,3.66 C 134.34,25.16 113.61,15.13 103.5,8.78 93.39,15.13 72.66,25.16 53.22,26.25 35.99,27.22 18.14,24.66 8,22.59 v 112.17 c 1.29,21.43 21.32,71.11 95.5,89.91 z m 0,-55.67 C 132.49,169 156,145.49 156,116.5 156,87.51 132.49,64 103.5,64 74.51,64 51,87.51 51,116.5 51,145.49 74.51,169 103.5,169 Z m 0,-8 C 128.08,161 148,141.08 148,116.5 148,91.92 128.08,72 103.5,72 78.92,72 59,91.92 59,116.5 59,141.08 78.92,161 103.5,161 Z m 28.36,-59.2 c 1.54,-1.58 1.52,-4.11 -0.06,-5.66 -1.58,-1.54 -4.11,-1.52 -5.66,0.06 l -29.73,30.35 c -0.39,0.4 -1.04,0.4 -1.43,0 L 81.86,113.16 c -1.55,-1.58 -4.08,-1.6 -5.66,-0.06 -1.58,1.55 -1.6,4.08 -0.06,5.66 l 13.12,13.39 c 3.53,3.61 9.33,3.61 12.86,0 z"
     style="fill:#dd00a1;fill-opacity:1;fill-rule:evenodd"
     inkscape:label="authorized-client" /></svg>
