<?xml version="1.0" encoding="UTF-8" standalone="no"?>
<svg
   width="256"
   height="166"
   viewBox="0 0 256 166"
   fill="none"
   version="1.1"
   id="svg882"
   xml:space="preserve"
   xmlns="http://www.w3.org/2000/svg"
   xmlns:svg="http://www.w3.org/2000/svg"><defs
     id="defs886" /><path
     id="memory"
     d="M 18,133 H 5 c -2.761,0 -5,-2.24 -5,-5 V 5 C 0,2.2399 2.239,0 5,0 h 246 c 2.761,0 5,2.2399 5,5 v 123 c 0,2.76 -2.239,5 -5,5 h -13 v 28 c 0,2.76 -2.239,5 -5,5 H 23 c -2.761,0 -5,-2.24 -5,-5 z M 8,125 V 8 h 240 v 117 z m 18,8 v 25 h 12 v -11 c 0,-2.21 1.791,-4 4,-4 2.209,0 4,1.79 4,4 v 11 h 11 v -11 c 0,-2.21 1.791,-4 4,-4 2.209,0 4,1.79 4,4 v 11 h 11 v -11 c 0,-2.21 1.791,-4 4,-4 2.209,0 4,1.79 4,4 v 11 h 11 v -11 c 0,-2.21 1.791,-4 4,-4 2.209,0 4,1.79 4,4 v 11 h 11 v -11 c 0,-2.21 1.791,-4 4,-4 2.209,0 4,1.79 4,4 v 11 h 11 v -11 c 0,-2.21 1.791,-4 4,-4 2.209,0 4,1.79 4,4 v 11 h 11 v -11 c 0,-2.21 1.791,-4 4,-4 2.209,0 4,1.79 4,4 v 11 h 11 v -11 c 0,-2.21 1.791,-4 4,-4 2.209,0 4,1.79 4,4 v 11 h 11 v -11 c 0,-2.21 1.791,-4 4,-4 2.209,0 4,1.79 4,4 v 11 h 11 v -11 c 0,-2.21 1.791,-4 4,-4 2.209,0 4,1.79 4,4 v 11 h 13 V 133 Z M 81,35 c 0,-2.7601 2.239,-5 5,-5 h 29 c 2.761,0 5,2.2399 5,5 v 65 c 0,2.76 -2.239,5 -5,5 H 86 c -2.761,0 -5,-2.24 -5,-5 z m 8,62 V 38 h 23 V 97 Z M 196,31 c -2.761,0 -5,2.2399 -5,5 v 65 c 0,2.76 2.239,5 5,5 h 29 c 2.761,0 5,-2.24 5,-5 V 36 c 0,-2.7601 -2.239,-5 -5,-5 z m 3,8 v 59 h 23 V 39 Z m -63,-4 c 0,-2.7601 2.239,-5 5,-5 h 29 c 2.761,0 5,2.2399 5,5 v 65 c 0,2.76 -2.239,5 -5,5 h -29 c -2.761,0 -5,-2.24 -5,-5 z m 8,62 V 38 h 23 V 97 Z M 31,31 c -2.761,0 -5,2.2399 -5,5 v 65 c 0,2.76 2.239,5 5,5 h 29 c 2.761,0 5,-2.24 5,-5 V 36 c 0,-2.7601 -2.239,-5 -5,-5 z m 3,8 V 98 H 57 V 39 Z"
     style="fill:#9e9e9e;fill-opacity:1;fill-rule:evenodd" /></svg>
