<?xml version="1.0" encoding="UTF-8" standalone="no"?>
<svg
   width="250"
   height="158"
   viewBox="0 0 250 158"
   fill="none"
   version="1.1"
   id="svg882"
   xml:space="preserve"
   xmlns="http://www.w3.org/2000/svg"
   xmlns:svg="http://www.w3.org/2000/svg"><defs
     id="defs886" /><path
     id="group"
     d="m 170.65,76.66 c 0,-11.04 8.96,-20 20,-20 H 230 c 11.05,0 20,8.96 20,20 v 52.37 c 0,2.76 -2.24,5 -5,5 h -69.35 c -2.76,0 -5,-2.24 -5,-5 z m 20,-12 H 230 c 6.63,0 12,5.37 12,12 v 49.37 H 178.65 V 76.66 c 0,-6.63 5.37,-12 12,-12 z m -85.87,15.97 c -11.04,0 -20,8.96 -20,20 V 153 c 0,2.76 2.24,5 5,5 h 70.44 c 2.76,0 5,-2.24 5,-5 v -52.37 c 0,-11.04 -8.96,-20 -20,-20 z m 40.44,8 h -40.44 c -6.62,0 -12,5.38 -12,12 V 150 h 64.44 v -49.37 c 0,-6.62 -5.38,-12 -12,-12 z M 0,76.66 c 0,-11.04 8.95,-20 20,-20 h 39.35 c 11.04,0 20,8.96 20,20 v 52.37 c 0,2.76 -2.24,5 -5,5 H 5 c -2.76,0 -5,-2.24 -5,-5 z m 20,-12 h 39.35 c 6.63,0 12,5.37 12,12 v 49.37 H 8 V 76.66 c 0,-6.63 5.37,-12 12,-12 z M 209.96,53 c 14.63,0 26.5,-11.86 26.5,-26.5 0,-14.64 -11.87,-26.5 -26.5,-26.5 -14.64,0 -26.5,11.86 -26.5,26.5 0,14.64 11.86,26.5 26.5,26.5 z m 0,-8 c 10.22,0 18.5,-8.28 18.5,-18.5 0,-10.22 -8.28,-18.5 -18.5,-18.5 -10.22,0 -18.5,8.28 -18.5,18.5 0,10.22 8.28,18.5 18.5,18.5 z m -58.58,5.47 c 0,14.64 -11.86,26.5 -26.5,26.5 -14.63,0 -26.5,-11.86 -26.5,-26.5 0,-14.63 11.87,-26.5 26.5,-26.5 14.64,0 26.5,11.87 26.5,26.5 z m -8,0 c 0,10.22 -8.28,18.5 -18.5,18.5 -10.21,0 -18.5,-8.28 -18.5,-18.5 0,-10.21 8.29,-18.5 18.5,-18.5 10.22,0 18.5,8.29 18.5,18.5 z M 66.31,26.5 C 66.31,41.14 54.44,53 39.81,53 25.17,53 13.31,41.14 13.31,26.5 13.31,11.86 25.17,0 39.81,0 c 14.63,0 26.5,11.86 26.5,26.5 z m -8,0 C 58.31,36.72 50.03,45 39.81,45 29.59,45 21.31,36.72 21.31,26.5 21.31,16.28 29.59,8 39.81,8 c 10.22,0 18.5,8.28 18.5,18.5 z"
     style="fill:#9e9e9e;fill-opacity:1;fill-rule:evenodd" /></svg>
