<?xml version="1.0" encoding="UTF-8" standalone="no"?>
<svg
   width="256"
   height="245.99989"
   viewBox="0 0 256 245.99989"
   fill="none"
   version="1.1"
   id="svg882"
   xml:space="preserve"
   xmlns="http://www.w3.org/2000/svg"
   xmlns:svg="http://www.w3.org/2000/svg"><defs
     id="defs886" /><path
     id="cpu"
     d="m 121.358,38.64 c 4.647,-1.56 7.996,-5.94 7.996,-11.11 0,-6.46 -5.25,-11.71 -11.725,-11.71 -6.476,0 -11.725,5.25 -11.725,11.71 0,4.97 3.09,9.21 7.454,10.91 v 27.9 h 8 z m -0.004,-11.11 c 0,2.04 -1.657,3.71 -3.725,3.71 -2.068,0 -3.725,-1.67 -3.725,-3.71 0,-2.03 1.657,-3.71 3.725,-3.71 2.068,0 3.725,1.68 3.725,3.71 z m 30.042,-4.11 c 6.475,0 11.725,-5.24 11.725,-11.71 C 163.121,5.24 157.871,0 151.396,0 144.92,0 139.67,5.2399 139.67,11.71 c 0,1.47 0.271,2.87 0.765,4.17 l -6.719,6.71 V 66.34 H 100.495 V 49.21 l -9.09,-10.26 c 0.807,-1.5901 1.262,-3.39 1.262,-5.3001 0,-6.46 -5.249,-11.6999 -11.725,-11.6999 -6.476,0 -11.725,5.2399 -11.725,11.6999 0,6.47 5.249,11.71 11.725,11.71 1.642,0 3.204,-0.33 4.623,-0.94 l 6.93,7.82 v 14.1 H 79.011 c -2.762,0 -5,2.24 -5,5 v 12.99 h -6.939 c -1.353,-4.97 -5.907,-8.63 -11.315,-8.63 -6.476,0 -11.725,5.24 -11.725,11.71 0,6.47 5.249,11.71 11.725,11.71 4.715,0 8.781,-2.78 10.642,-6.79 h 7.612 v 13.05 H 30.229 l -8.018,-8.01 c 0.793,-1.58 1.239,-3.36 1.239,-5.24 0,-6.4699 -5.249,-11.71 -11.725,-11.71 -6.475,0 -11.725,5.24 -11.725,11.71 0,6.46 5.25,11.71 11.725,11.71 1.66,0 3.239,-0.35 4.67,-0.9699 l 10.523,10.51 h 47.093 v 11.18 h -41.94 l -5.436,5.4299 c -1.403,-0.5999 -2.945,-0.92 -4.564,-0.92 -6.476,0 -11.725,5.24 -11.725,11.71 0,6.46 5.249,11.7 11.725,11.7 6.475,0 11.725,-5.24 11.725,-11.7 0,-1.9299 -0.466,-3.75 -1.29,-5.3499 l 2.876,-2.87 h 38.629 v 11.65 H 58.328 c -1.651,-4.47 -5.955,-7.66 -11.003,-7.66 -6.475,0 -11.725,5.24 -11.725,11.71 0,6.47 5.25,11.71 11.725,11.71 5.09,0 9.422,-3.24 11.043,-7.76 h 15.643 v 14.85 c 0,2.76 2.238,5 5,5 h 15.826 v 19.4299 c -4.477,1.6501 -7.67,5.95 -7.67,10.99 0,6.47 5.249,11.71 11.725,11.71 6.476,0 11.725,-5.2399 11.725,-11.71 0,-5.08 -3.245,-9.41 -7.78,-11.03 v -19.39 h 10.737 v 51.24 c -4.477,1.65 -7.67,5.95 -7.67,10.99 0,6.47 5.249,11.71 11.725,11.71 6.475,0 11.725,-5.24 11.725,-11.71 0,-5.08 -3.245,-9.41 -7.78,-11.03 v -51.2 h 14.016 v 29.69 c -4.435,1.67 -7.59,5.95 -7.59,10.96 0,6.47 5.25,11.71 11.725,11.71 6.476,0 11.725,-5.24 11.725,-11.71 0,-5.11 -3.283,-9.46 -7.86,-11.05 v -29.6 h 10.268 v 24.11 l 10.736,10.72 c -1.007,1.73 -1.583,3.74 -1.583,5.88 0,6.47 5.249,11.71 11.725,11.71 6.476,0 11.725,-5.24 11.725,-11.71 0,-6.46 -5.249,-11.71 -11.725,-11.71 -1.393,0 -2.73,0.25 -3.97,0.69 l -8.908,-8.89 v -20.8 h 14.89 c 2.761,0 5,-2.24 5,-5 v -14.39 h 14.271 l 2.868,2.87 c -0.348,1.11 -0.536,2.29 -0.536,3.51 0,6.46 5.25,11.71 11.725,11.71 6.476,0 11.726,-5.25 11.726,-11.71 0,-6.47 -5.25,-11.71 -11.726,-11.71 -2.304,0 -4.452,0.66 -6.265,1.81 l -4.482,-4.48 h -17.581 v -9.77 h 51.558 c 1.676,4.42 5.955,7.56 10.969,7.56 6.475,0 11.725,-5.24 11.725,-11.71 0,-6.47 -5.25,-11.71 -11.725,-11.71 -5.124,0 -9.48,3.28 -11.075,7.86 h -51.452 v -14.46 h 35.381 l 10.175,-10.16 c 1.146,0.38 2.371,0.58 3.643,0.58 6.475,0 11.725,-5.24 11.725,-11.71 0,-6.47 -5.25,-11.71 -11.725,-11.71 -6.476,0 -11.725,5.24 -11.725,11.71 0,2.26 0.639,4.37 1.747,6.15 l -7.15,7.14 h -32.071 v -12.11 h 10.451 c 1.861,4.01 5.927,6.79 10.642,6.79 6.476,0 11.726,-5.24 11.726,-11.71 0,-6.47 -5.25,-11.71 -11.726,-11.71 -5.408,0 -9.961,3.66 -11.315,8.63 h -9.778 v -12.99 c 0,-2.76 -2.239,-5 -5,-5 h -14.366 v -7.1 c 4.749,-1.49 8.193,-5.93 8.193,-11.16 0,-6.47 -5.249,-11.71 -11.725,-11.71 -6.476,0 -11.725,5.24 -11.725,11.71 0,4.88 2.997,9.07 7.257,10.82 v 7.44 h -12.666 v -40.44 l 3.97,-3.96 c 1.689,0.94 3.637,1.48 5.71,1.4801 z m 0,-8 c 2.067,0 3.725,-1.67 3.725,-3.71 0,-2.04 -1.658,-3.71 -3.725,-3.71 -2.068,0 -3.726,1.67 -3.726,3.71 0,2.04 1.658,3.71 3.726,3.71 z M 82.011,74.34 v 89.72 h 91.737 V 74.34 Z M 80.942,37.36 c -2.068,0 -3.725,-1.67 -3.725,-3.71 0,-2.03 1.657,-3.7 3.725,-3.7 2.068,0 3.725,1.67 3.725,3.7 0,2.04 -1.657,3.71 -3.725,3.71 z m 81.633,10.72 c 0,2.03 -1.657,3.6999 -3.725,3.6999 -2.068,0 -3.725,-1.67 -3.725,-3.6999 0,-2.04 1.657,-3.71 3.725,-3.71 2.068,0 3.725,1.67 3.725,3.71 z m 40.266,43.04 c 2.068,0 3.726,-1.67 3.726,-3.71 0,-2.04 -1.658,-3.71 -3.726,-3.71 -2.067,0 -3.725,1.67 -3.725,3.71 0,2.04 1.658,3.71 3.725,3.71 z M 248,130.75 c 0,2.04 -1.657,3.71 -3.725,3.71 -2.068,0 -3.725,-1.67 -3.725,-3.71 0,-2.04 1.657,-3.71 3.725,-3.71 2.068,0 3.725,1.67 3.725,3.71 z M 230.947,94.86 c 2.067,0 3.725,-1.67 3.725,-3.71 0,-2.04 -1.658,-3.71 -3.725,-3.71 -2.068,0 -3.725,1.67 -3.725,3.71 0,2.04 1.657,3.71 3.725,3.71 z m -17.145,64.19 c 0,2.04 -1.658,3.71 -3.726,3.71 -2.067,0 -3.725,-1.67 -3.725,-3.71 0,-2.04 1.658,-3.71 3.725,-3.71 2.068,0 3.726,1.67 3.726,3.71 z m -39.066,57.43 c 2.068,0 3.725,-1.67 3.725,-3.71 0,-2.0301 -1.657,-3.71 -3.725,-3.71 -2.068,0 -3.725,1.6799 -3.725,3.71 0,2.04 1.657,3.71 3.725,3.71 z M 98.892,206.19 c 2.068,0 3.725,-1.67 3.725,-3.71 0,-2.04 -1.657,-3.71 -3.725,-3.71 -2.068,0 -3.725,1.67 -3.725,3.71 0,2.04 1.657,3.71 3.725,3.71 z M 51.05,148.26 c 0,2.04 -1.657,3.71 -3.725,3.71 -2.067,0 -3.725,-1.67 -3.725,-3.71 0,-2.04 1.658,-3.71 3.725,-3.71 2.068,0 3.725,1.67 3.725,3.71 z m -28.979,-3.78 c 2.067,0 3.725,-1.67 3.725,-3.7 0,-2.04 -1.658,-3.71 -3.725,-3.71 -2.068,0 -3.725,1.67 -3.725,3.71 0,2.03 1.657,3.7 3.725,3.7 z M 15.45,92.13 c 0,2.03 -1.657,3.71 -3.725,3.71 C 9.657,95.84 8,94.16 8,92.13 c 0,-2.04 1.657,-3.71 3.725,-3.71 2.068,0 3.725,1.67 3.725,3.71 z m 40.307,-1.01 c 2.068,0 3.725,-1.67 3.725,-3.71 0,-2.04 -1.657,-3.71 -3.725,-3.71 -2.068,0 -3.725,1.67 -3.725,3.71 0,2.04 1.657,3.71 3.725,3.71 z m 83.968,125.3 c 2.068,0 3.725,-1.67 3.725,-3.71 0,-2.03 -1.657,-3.7 -3.725,-3.7 -2.068,0 -3.725,1.67 -3.725,3.7 0,2.04 1.657,3.71 3.725,3.71 z m -18.371,17.87 c 0,2.04 -1.657,3.71 -3.725,3.71 -2.068,0 -3.725,-1.67 -3.725,-3.71 0,-2.04 1.657,-3.71 3.725,-3.71 2.068,0 3.725,1.67 3.725,3.71 z M 107.737,127.62 c 0,-2.58 2.094,-4.67 4.678,-4.67 h 30.929 c 2.583,0 4.677,2.09 4.677,4.67 0,2.59 -2.094,4.6799 -4.677,4.6799 h -30.929 c -2.584,0 -4.678,-2.09 -4.678,-4.6799 z m 4.678,-22.92 c -2.584,0 -4.678,2.0999 -4.678,4.6799 0,2.58 2.094,4.68 4.678,4.68 h 30.929 c 2.583,0 4.677,-2.1 4.677,-4.68 0,-2.58 -2.094,-4.6799 -4.677,-4.6799 z"
     style="fill:#9e9e9e;fill-opacity:1;fill-rule:evenodd" /></svg>
