<svg width="519" height="329" viewBox="0 0 519 329" fill="none" xmlns="http://www.w3.org/2000/svg">
<path d="M365.048 38.7269C450.137 44.3535 457.089 54.1998 490.175 103.784C523.26 153.367 522.292 182.731 514.461 230.204C506.629 277.678 452.953 302.822 398.133 314.075C343.313 325.328 275.822 334.822 239.393 324.712C202.963 314.602 150.343 272.491 115.322 264.667C80.3001 256.842 -48.3466 182.643 19.4085 93.9371C87.1636 5.23158 151.751 57.8923 248.104 60.0901C285.149 61.0572 319.555 35.7379 365.048 38.7269Z" fill="#000231"/>
<path opacity="0.6" d="M17.5607 97.8933C20.2885 95.2559 40.791 147.653 65.5172 147.477C151.751 147.037 305.916 49.98 355.72 82.9479C405.437 115.916 279.43 188.973 292.981 198.643C302.924 205.764 436.499 148.972 508.037 136.488C510.941 142.818 513.405 149.411 515.253 156.181C516.925 163.038 517.981 169.983 518.509 177.016C451.457 215.786 300.372 270.381 200.764 307.481C200.764 307.481 152.719 277.766 122.449 266.513C92.1793 255.26 67.1011 246.381 37.8872 217.984C8.67333 189.588 -16.6688 130.861 17.5607 97.8933Z" fill="#111555"/>
<path opacity="0.5" d="M444.946 60.7934C446.53 60.4418 447.938 71.0794 449.522 70.7278C451.105 70.3761 458.409 67.7387 458.673 68.8816C458.937 69.9365 449.962 72.9256 449.874 73.8048C449.786 74.6839 450.577 82.5962 449.61 83.3874C448.642 84.1787 448.202 76.3543 446.618 75.8268C445.122 75.2993 436.499 77.0576 436.499 75.651C436.499 74.3322 444.946 73.3652 444.946 70.5519V60.7934Z" fill="#A1C7E6"/>
<path opacity="0.5" d="M71.6768 132.795C72.4688 132.619 73.0847 137.806 73.8767 137.631C74.6686 137.455 78.1884 136.224 78.3644 136.751C78.4524 137.279 74.1407 138.686 74.0527 139.125C73.9647 139.565 74.4046 143.433 73.9647 143.785C73.5247 144.136 73.2607 140.444 72.5568 140.092C71.8528 139.741 67.6292 140.708 67.6292 140.004C67.6292 139.301 71.7648 138.861 71.7648 137.543C71.6768 136.224 71.6768 132.795 71.6768 132.795Z" fill="#A1C7E6"/>
<path d="M142.792 111.644C144.077 111.38 144.904 110.124 144.64 108.841C144.375 107.557 143.119 106.73 141.833 106.994C140.548 107.259 139.721 108.514 139.986 109.798C140.25 111.082 141.507 111.908 142.792 111.644Z" fill="white"/>
<path d="M279.969 220.384C281.492 220.07 282.473 218.583 282.159 217.061C281.845 215.539 280.356 214.56 278.833 214.873C277.31 215.187 276.33 216.674 276.643 218.196C276.957 219.718 278.446 220.697 279.969 220.384Z" fill="white"/>
<path d="M294.319 119.487C295.414 119.262 296.119 118.193 295.893 117.099C295.668 116.005 294.597 115.301 293.503 115.527C292.408 115.752 291.703 116.821 291.929 117.915C292.154 119.008 293.224 119.713 294.319 119.487Z" fill="white"/>
<path d="M401.602 134.561C402.888 134.297 403.715 133.041 403.45 131.757C403.185 130.474 401.929 129.647 400.644 129.912C399.358 130.176 398.531 131.432 398.796 132.715C399.061 133.999 400.317 134.826 401.602 134.561Z" fill="white"/>
<path d="M356.977 64.5902C358.263 64.3256 359.09 63.0703 358.825 61.7864C358.56 60.5024 357.304 59.6761 356.019 59.9406C354.733 60.2052 353.906 61.4605 354.171 62.7444C354.436 64.0284 355.692 64.8547 356.977 64.5902Z" fill="white"/>
<path d="M217.105 205.65C218.057 205.454 218.669 204.524 218.473 203.573C218.277 202.622 217.347 202.01 216.395 202.205C215.443 202.401 214.83 203.331 215.026 204.282C215.222 205.233 216.153 205.845 217.105 205.65Z" fill="white"/>
<path d="M388.675 250.211C389.864 249.966 390.63 248.804 390.385 247.615C390.14 246.426 388.977 245.661 387.787 245.906C386.597 246.151 385.831 247.313 386.076 248.502C386.321 249.69 387.485 250.456 388.675 250.211Z" fill="white"/>
<path d="M350.313 255.411C351.265 255.215 351.878 254.285 351.682 253.334C351.486 252.383 350.555 251.771 349.603 251.967C348.651 252.163 348.038 253.092 348.234 254.043C348.431 254.994 349.361 255.607 350.313 255.411Z" fill="white"/>
<path d="M165.674 167.219C166.769 166.994 167.474 165.925 167.248 164.831C167.023 163.737 165.953 163.033 164.858 163.258C163.763 163.483 163.058 164.553 163.284 165.646C163.509 166.74 164.58 167.444 165.674 167.219Z" fill="white"/>
<path d="M241.143 187.088C242.142 186.882 242.786 185.906 242.58 184.907C242.374 183.909 241.397 183.266 240.397 183.472C239.398 183.677 238.754 184.653 238.96 185.652C239.166 186.651 240.143 187.294 241.143 187.088Z" fill="white"/>
<path d="M214.214 243.985C214.975 243.828 215.466 243.085 215.309 242.324C215.152 241.563 214.408 241.073 213.646 241.23C212.884 241.386 212.394 242.13 212.551 242.891C212.708 243.652 213.452 244.142 214.214 243.985Z" fill="white"/>
<path d="M78.7856 52.7515C79.7375 52.5556 80.3503 51.6258 80.1543 50.6748C79.9582 49.7237 79.0276 49.1115 78.0757 49.3073C77.1237 49.5032 76.511 50.433 76.707 51.3841C76.9031 52.3351 77.8337 52.9473 78.7856 52.7515Z" fill="white"/>
<path d="M15.9643 102.012C16.4403 101.914 16.7467 101.449 16.6487 100.974C16.5506 100.498 16.0853 100.192 15.6094 100.29C15.1334 100.388 14.827 100.853 14.925 101.328C15.0231 101.804 15.4884 102.11 15.9643 102.012Z" fill="white"/>
<path d="M456.841 201.443C457.46 201.316 457.858 200.712 457.731 200.094C457.603 199.475 456.998 199.077 456.38 199.205C455.761 199.332 455.363 199.936 455.49 200.555C455.617 201.173 456.222 201.571 456.841 201.443Z" fill="#CA2F9C"/>
<path d="M443.204 274.928C444.061 274.751 444.613 273.914 444.436 273.059C444.26 272.203 443.422 271.652 442.566 271.828C441.709 272.004 441.157 272.841 441.334 273.697C441.51 274.553 442.348 275.104 443.204 274.928Z" fill="#CA2F9C"/>
<path d="M222.389 74.0162C223.817 73.7224 224.736 72.3278 224.442 70.9012C224.148 69.4746 222.752 68.5563 221.324 68.85C219.896 69.1438 218.977 70.5385 219.271 71.9651C219.565 73.3917 220.961 74.31 222.389 74.0162Z" fill="#CA2F9C"/>
<path d="M185.911 178.85C186.529 178.722 186.928 178.118 186.8 177.5C186.673 176.882 186.068 176.484 185.449 176.611C184.83 176.738 184.432 177.343 184.56 177.961C184.687 178.579 185.292 178.977 185.911 178.85Z" fill="#CA2F9C"/>
<path d="M113.356 133.557C114.308 133.361 114.92 132.432 114.724 131.481C114.528 130.529 113.598 129.917 112.646 130.113C111.694 130.309 111.081 131.239 111.277 132.19C111.473 133.141 112.404 133.753 113.356 133.557Z" fill="#CA2F9C"/>
<path d="M334.225 192.473C334.939 192.326 335.398 191.628 335.251 190.915C335.104 190.202 334.406 189.743 333.692 189.889C332.978 190.036 332.519 190.734 332.666 191.447C332.813 192.16 333.511 192.619 334.225 192.473Z" fill="#E98A33"/>
<path d="M272.606 272.192C273.748 271.957 274.483 270.841 274.248 269.7C274.013 268.558 272.896 267.824 271.754 268.059C270.611 268.294 269.876 269.41 270.111 270.551C270.347 271.692 271.463 272.427 272.606 272.192Z" fill="#E98A33"/>
<path d="M80.5641 124.18H63.0534V108.267C63.0534 105.981 61.2055 104.047 58.8297 104.047H58.6537C56.3659 104.047 54.43 105.893 54.43 108.267V124.18H49.3264C47.0385 124.18 45.1907 126.026 45.1907 128.312C45.1907 130.597 47.0385 132.444 49.3264 132.444H54.43V170.598C54.43 176.489 56.0139 181.148 59.0937 184.489C62.2614 187.83 66.7491 189.588 72.4687 189.588C76.0765 189.588 79.5962 188.885 82.676 187.39C83.7319 186.951 84.3479 185.808 84.3479 184.753V182.203C84.3479 181.148 83.8199 180.181 82.9399 179.654C82.06 179.126 80.9161 179.038 80.0361 179.478C77.6603 180.621 75.1085 181.236 72.5567 181.236C69.2129 181.236 66.9251 180.357 65.4292 178.687C63.8453 176.84 63.0534 174.027 63.0534 170.423V132.532H80.5641C82.764 132.532 84.6118 130.685 84.6118 128.487V128.312C84.6118 126.026 82.764 124.18 80.5641 124.18Z" fill="white"/>
<path d="M124.297 122.861C120.601 122.861 117.257 123.564 114.266 124.883C111.362 126.202 108.722 127.96 106.434 130.07C105.29 131.125 104.322 132.268 103.354 133.411V128.487C103.354 126.114 101.419 124.268 99.1308 124.268H99.0428C96.6669 124.268 94.8191 126.202 94.8191 128.487V184.313C94.8191 186.687 96.7549 188.533 99.0428 188.533H99.1308C101.507 188.533 103.354 186.599 103.354 184.313V155.389C103.354 152.928 103.882 150.202 104.85 147.389C105.818 144.488 107.226 141.85 109.074 139.389C110.834 137.015 113.034 134.993 115.586 133.411C117.961 131.916 120.689 131.213 123.769 131.213H124.385C126.057 131.213 127.377 129.894 127.377 128.224V125.85C127.377 124.18 125.969 122.861 124.297 122.861Z" fill="white"/>
<path d="M141.896 124.18C139.52 124.18 137.584 126.114 137.584 128.487V184.313C137.584 186.599 139.432 188.533 141.808 188.533H142.072C144.359 188.533 146.295 186.687 146.295 184.313V128.487C146.119 126.114 144.271 124.18 141.896 124.18Z" fill="white"/>
<path d="M208.683 131.213C206.307 128.575 203.403 126.465 199.972 124.971C196.628 123.564 192.668 122.773 188.356 122.773C184.485 122.773 180.965 123.388 177.973 124.707C174.981 125.938 172.342 127.608 170.23 129.542C169.438 130.246 168.734 130.949 168.03 131.74V128.4C168.03 126.026 166.094 124.18 163.806 124.18H163.63C161.254 124.18 159.406 126.114 159.406 128.4V184.225C159.406 186.511 161.254 188.445 163.63 188.445H163.806C166.094 188.445 168.03 186.599 168.03 184.225V153.191C168.03 150.114 168.558 147.125 169.614 144.488C170.67 141.85 172.166 139.477 174.013 137.455C175.861 135.433 177.973 133.938 180.349 132.795C182.725 131.74 185.365 131.125 188.18 131.125C191.348 131.125 194.252 131.652 196.628 132.707C199.004 133.762 200.94 135.169 202.523 136.927C204.107 138.773 205.339 140.971 206.131 143.609C207.011 146.334 207.363 149.411 207.363 152.752V184.313C207.363 186.599 209.211 188.445 211.499 188.445H211.763C214.051 188.445 215.898 186.599 215.898 184.313V152.488C215.898 148.18 215.282 144.136 214.139 140.62C212.819 137.015 210.971 133.85 208.683 131.213Z" fill="white"/>
<path d="M290.429 143.433C288.845 139.389 286.557 135.784 283.566 132.795C280.662 129.806 277.054 127.345 273.006 125.586C268.871 123.828 264.383 122.861 259.455 122.861C254.44 122.861 249.864 123.828 245.728 125.586C241.681 127.433 238.073 129.894 235.169 132.971C232.265 136.048 229.977 139.653 228.394 143.697C226.81 147.741 226.018 151.961 226.018 156.62C226.018 161.104 226.81 165.411 228.394 169.368C229.977 173.412 232.265 176.928 235.257 180.005C238.161 182.994 241.769 185.456 245.728 187.214C249.776 188.973 254.352 189.94 259.367 189.94C264.383 189.94 268.959 189.06 273.094 187.214C277.142 185.456 280.75 182.994 283.654 179.917C286.557 176.84 288.845 173.236 290.429 169.192C292.013 165.148 292.805 160.84 292.805 156.18C292.805 151.697 292.013 147.477 290.429 143.433ZM259.543 181.588C255.848 181.588 252.504 180.884 249.512 179.654C246.52 178.335 243.88 176.489 241.681 174.291C239.481 172.005 237.721 169.368 236.577 166.291C235.345 163.214 234.729 159.961 234.729 156.356C234.729 152.928 235.345 149.675 236.489 146.598C237.633 143.609 239.393 140.883 241.505 138.598C243.704 136.312 246.256 134.554 249.248 133.235C252.24 131.916 255.584 131.301 259.279 131.301C262.887 131.301 266.231 132.004 269.311 133.235C272.302 134.554 275.03 136.4 277.23 138.598C279.43 140.883 281.19 143.521 282.334 146.598C283.566 149.675 284.181 152.928 284.181 156.532C284.181 159.961 283.566 163.214 282.422 166.291C281.278 169.28 279.518 172.005 277.406 174.291C275.206 176.577 272.654 178.335 269.663 179.654C266.583 180.884 263.239 181.588 259.543 181.588Z" fill="white"/>
<path d="M141.896 115.388C144.569 115.388 146.735 113.223 146.735 110.553C146.735 107.882 144.569 105.718 141.896 105.718C139.223 105.718 137.056 107.882 137.056 110.553C137.056 113.223 139.223 115.388 141.896 115.388Z" fill="white"/>
<path d="M313.131 83.5632C311.987 75.563 316.387 68.0024 323.427 64.8375C322.107 64.7496 320.699 64.7496 319.291 64.9254C309.612 66.332 302.836 75.2993 304.244 85.0578C305.652 94.7283 314.627 101.498 324.395 100.091C326.066 99.8274 327.738 99.3878 329.234 98.6845C321.139 97.9812 314.363 91.8272 313.131 83.5632Z" fill="white"/>
<path d="M366.015 179.829C369.271 178.335 361.44 177.807 361 176.401C361 176.401 357.304 175.61 352.112 173.324C346.833 171.038 335.218 160.049 335.13 151.433C335.042 142.73 339.089 126.905 346.569 118.289C353.96 109.762 363.112 105.542 363.112 105.542C363.112 105.542 356.072 76.4422 358.36 55.6944C360.736 34.9466 368.303 -1.44991 381.854 0.0446316C395.405 1.53918 387.926 35.562 382.03 57.4527C376.135 79.4313 374.199 101.937 374.199 101.937C374.199 101.937 382.822 100.443 392.414 101.849C401.917 103.256 407.9 105.893 407.9 105.893C407.9 105.893 417.228 74.9476 434.563 57.6285C451.809 40.2215 469.848 22.287 478.735 29.6718C487.623 37.0566 471.872 55.5186 461.577 64.8375C451.281 74.1564 433.947 87.7831 427.699 95.5196C421.451 103.256 416.348 111.872 416.348 111.872C416.348 111.872 429.195 120.663 433.595 135.521C437.994 150.378 435.882 167.521 431.131 174.115C426.379 180.709 416.084 184.577 411.068 183.961C406.757 183.434 388.102 185.016 388.102 185.016L366.015 179.829Z" fill="white"/>
<path d="M410.1 106.509C410.1 106.509 425.323 80.3104 437.466 66.1562C449.609 52.002 464.216 41.9798 467.824 44.9688C471.344 48.0458 457.089 60.9693 443.978 73.6289C430.867 86.2886 413.708 109.498 413.708 109.498L410.1 106.509Z" fill="#DC349F"/>
<path d="M366.279 104.399L369.711 102.465C369.711 102.465 373.759 74.4202 377.015 57.4527C380.182 40.4852 384.494 19.4737 378.775 18.7704C373.055 18.0671 366.455 33.8037 364.96 57.2769C363.376 80.8379 366.279 104.399 366.279 104.399Z" fill="#DC349F"/>
<path d="M347.977 162.862C351.476 162.862 354.312 160.028 354.312 156.532C354.312 153.036 351.476 150.202 347.977 150.202C344.478 150.202 341.641 153.036 341.641 156.532C341.641 160.028 344.478 162.862 347.977 162.862Z" fill="#F8D6D0"/>
<path d="M421.627 174.73C425.126 174.73 427.963 171.896 427.963 168.401C427.963 164.905 425.126 162.071 421.627 162.071C418.128 162.071 415.292 164.905 415.292 168.401C415.292 171.896 418.128 174.73 421.627 174.73Z" fill="#F8D6D0"/>
<path d="M395.229 163.653C394.965 163.477 394.613 163.477 394.349 163.741C394.349 163.741 391.974 166.642 389.246 166.379C386.87 166.203 385.198 164.005 384.758 163.389L385.55 158.642C387.398 157.939 390.742 155.565 390.83 154.51C391.006 153.279 389.774 150.73 386.606 150.202C383.438 149.675 380.798 151.433 380.534 153.103C380.27 154.598 383.438 157.587 384.318 158.466L383.526 163.126C382.998 163.565 381.15 165.06 378.951 164.708C376.399 164.269 374.991 160.488 374.991 160.488C374.903 160.137 374.551 159.961 374.199 160.137C373.847 160.225 373.671 160.576 373.847 160.928C373.935 161.104 375.431 165.411 378.775 165.939C381.15 166.291 383.086 165.148 383.966 164.357C384.67 165.324 386.342 167.17 388.718 167.521C388.806 167.521 388.982 167.521 389.07 167.609C392.414 167.873 395.141 164.62 395.229 164.444C395.581 164.269 395.493 163.829 395.229 163.653Z" fill="#10110E"/>
<path d="M363.024 105.542C363.024 105.542 357.744 81.6291 357.92 69.5848C358.096 57.5406 359.68 37.6719 364.168 25.0123C368.655 12.3526 371.031 7.78107 371.031 7.78107C371.031 7.78107 361.968 37.584 361.352 51.1228C360.736 64.6616 363.024 105.542 363.024 105.542Z" fill="#E3E3E3"/>
<path d="M407.636 105.893C407.636 105.893 419.428 72.9256 431.043 61.0572C442.658 49.1888 456.737 34.8587 463.337 31.6938C469.848 28.5289 469.848 28.5289 469.848 28.5289C469.848 28.5289 442.306 49.4525 429.899 68.2661C417.492 87.1677 407.636 105.893 407.636 105.893Z" fill="#E3E3E3"/>
<path d="M363.992 138.334C361.264 137.894 358.8 139.74 358.36 142.378C357.92 145.103 359.768 147.565 362.408 148.004C365.136 148.444 367.599 146.598 368.039 143.96C368.479 141.323 366.719 138.773 363.992 138.334ZM364.608 143.081C363.904 142.993 363.376 142.29 363.464 141.587C363.552 140.883 364.256 140.356 364.96 140.444C365.663 140.532 366.191 141.235 366.104 141.938C366.104 142.73 365.4 143.169 364.608 143.081Z" fill="#10110E"/>
<path d="M412.036 146.07C409.308 145.631 406.845 147.477 406.405 150.114C405.965 152.84 407.812 155.301 410.452 155.741C413.18 156.18 415.644 154.334 416.084 151.697C416.524 149.059 414.676 146.51 412.036 146.07ZM412.652 150.818C411.948 150.73 411.42 150.026 411.508 149.323C411.596 148.62 412.3 148.092 413.004 148.18C413.708 148.268 414.236 148.971 414.148 149.675C414.06 150.466 413.444 150.993 412.652 150.818Z" fill="#10110E"/>
<path opacity="0.2" d="M433.136 156.392C436.047 138.369 418.105 120.486 393.062 116.449C368.019 112.411 345.357 123.748 342.447 141.771C339.536 159.793 357.478 177.676 382.521 181.714C407.564 185.751 430.225 174.414 433.136 156.392Z" fill="#89CACC"/>
<path d="M445.562 139.828L449.081 118.289C452.777 117.85 455.857 115.388 456.385 111.96C457.089 107.828 453.745 103.696 449.169 102.992C444.506 102.289 440.106 105.102 439.49 109.234C438.962 112.663 441.074 116.004 444.506 117.586L441.074 138.598L440.458 138.51C437.73 115.212 420.836 98.3329 396.109 94.2888C371.295 90.3327 350.001 100.882 340.057 122.333L337.857 121.982C332.754 121.191 328.002 124.268 327.298 128.751L324.658 145.367C323.954 149.939 327.474 154.334 332.578 155.126L335.482 155.565C336.978 162.159 339.881 168.313 344.369 173.763L342.081 175.258L339.617 176.84C338.385 177.632 337.945 179.126 338.737 180.357C346.305 193.192 360.648 202.336 378.071 205.149C395.493 207.962 411.948 203.918 423.211 193.984C424.355 193.017 424.443 191.522 423.475 190.379L419.956 185.983C425.763 182.379 430.691 177.368 434.123 171.565L437.378 172.093C442.482 172.884 447.234 169.807 447.938 165.324L450.577 148.708C451.105 144.927 448.993 141.499 445.562 139.828ZM392.238 117.85C415.204 121.542 431.395 139.653 428.403 158.203C425.147 178.247 402.797 183.874 382.118 180.533C361.44 177.192 341.993 164.796 345.249 144.752C348.241 126.202 369.271 114.157 392.238 117.85Z" fill="white"/>
<path d="M446.354 163.389L437.026 161.895C437.29 160.4 437.73 158.994 437.994 157.323C439.05 150.818 439.314 144.664 439.138 138.598L443.098 139.213C447.058 139.828 449.609 143.081 449.082 146.598L446.354 163.389Z" fill="#CCCCCC"/>
<path d="M438.874 169.28L434.387 168.576C435.707 165.675 436.85 162.598 437.818 159.433L446.706 160.84L446.09 164.62C445.65 167.873 442.482 169.895 438.874 169.28Z" fill="#CCCCCC"/>
<path d="M334.338 121.278L337.858 121.806C336.098 126.553 334.602 131.74 333.81 137.015C333.634 138.246 333.37 139.477 333.37 140.883L325.538 139.653L327.826 125.586C328.09 122.597 330.994 120.751 334.338 121.278Z" fill="#CCCCCC"/>
<path d="M392.326 115.212C386.254 114.245 380.271 114.333 374.639 115.212L378.071 94.0251C383.702 93.1459 389.51 93.1459 395.757 94.2009C402.005 95.1679 407.549 97.0141 412.564 99.5636L409.132 120.927C404.117 118.201 398.397 116.179 392.326 115.212Z" fill="#F3B43F"/>
<path d="M376.399 98.5087L373.671 115.388C357.392 118.553 344.545 129.542 342.169 144.224C339.089 163.214 355.016 178.95 381.678 183.258C408.34 187.566 428.403 177.719 431.483 158.642C433.859 143.96 425.147 129.542 410.628 121.366L413.356 104.487C430.339 113.894 438.874 132.268 435.354 154.422C431.307 179.302 409.572 193.017 380.886 188.357C352.2 183.698 335.834 163.917 339.881 138.861C343.401 116.883 357.304 102.113 376.399 98.5087Z" fill="#CCCCCC"/>
<path d="M325.538 139.74L333.106 140.971C332.666 145.719 332.49 150.554 332.49 155.038L328.706 154.422C325.626 153.895 323.867 149.939 324.57 145.279L325.538 139.74Z" fill="#CCCCCC"/>
<path d="M454.591 111.616C455.125 108.308 452.563 105.144 448.869 104.549C445.175 103.953 441.747 106.152 441.213 109.459C440.679 112.766 443.241 115.93 446.935 116.526C450.629 117.121 454.056 114.923 454.591 111.616Z" fill="#CCCCCC"/>
<path d="M340.145 176.401C340.145 176.401 326.594 182.291 319.291 188.885C311.899 195.478 304.068 205.237 301.428 214.116C298.7 222.995 301.868 225.457 303.804 227.303C305.74 229.149 313.395 232.138 322.811 224.05C332.226 216.05 330.466 216.753 330.466 216.753C330.466 216.753 328.002 237.677 329.762 251.831C331.522 265.898 334.162 286.645 347.097 287.612C360.032 288.579 359.416 274.865 360.472 271.7C361.528 268.623 364.96 267.832 367.599 268.271C370.239 268.711 374.903 269.678 374.991 277.238C374.991 284.799 369.359 290.338 381.502 293.151C393.646 295.964 401.389 280.667 409.66 263.436C417.932 246.205 421.54 228.974 421.54 228.974C421.54 228.974 445.122 216.05 455.593 209.281C464.04 203.83 470.64 197.149 468 188.709C465.36 180.269 456.649 179.742 448.993 181.939C441.338 184.137 427.083 189.236 427.083 189.236L423.475 190.203L421.54 192.753C421.54 192.753 399.981 207.962 380.974 204.094C361.968 200.313 344.985 185.456 344.985 185.456L340.145 176.401Z" fill="white"/>
<path d="M324.658 184.841C324.658 184.841 320.347 187.654 318.147 189.94C316.827 191.258 312.163 196.094 312.163 196.094C312.163 196.094 315.947 202.511 318.675 202.336C321.403 202.16 323.779 199.346 325.978 197.324C328.266 195.302 329.586 194.687 330.202 192.401C330.818 190.203 324.658 184.841 324.658 184.841Z" fill="#DC349F"/>
<path d="M429.811 187.83L444.242 183.346C444.242 183.346 449.697 186.863 449.17 188.269C448.642 189.676 442.57 191.874 441.074 192.313C439.578 192.753 437.026 193.984 435.706 193.632C434.299 193.368 429.811 187.83 429.811 187.83Z" fill="#DC349F"/>
<path d="M392.942 229.765L392.326 233.809L417.932 243.743L419.076 239.875L392.942 229.765Z" fill="black"/>
<path d="M356.512 223.875L355.808 227.919L329.322 229.501L329.586 225.457L356.512 223.875Z" fill="black"/>
<path d="M392.326 233.809L387.486 240.754L367.863 239.347C367.863 239.347 377.895 245.238 385.022 245.677C392.15 246.205 390.126 242.424 393.997 240.578C397.869 238.82 417.932 243.655 417.932 243.655" fill="#CCCCCC"/>
<path d="M363.112 214.468L390.654 218.951C390.654 218.951 392.414 219.918 393.03 220.973C393.646 221.94 393.91 223.611 393.91 223.611L391.182 240.314C391.182 240.314 390.39 242.249 389.334 242.952C388.278 243.655 386.606 244.183 386.606 244.183L358.712 239.699C358.712 239.699 356.952 239.259 356.072 237.941C355.192 236.622 354.84 234.864 354.84 234.864L357.48 217.281C357.48 217.281 357.744 215.874 359.856 214.995C361.176 214.38 363.112 214.468 363.112 214.468Z" fill="#F3B43F"/>
<path d="M386.782 229.149L363.464 225.369C363.2 225.281 362.936 225.017 363.024 224.754L363.376 222.38C363.464 222.116 363.728 221.852 363.992 221.94L387.31 225.721C387.574 225.809 387.838 226.072 387.75 226.336L387.398 228.71C387.398 228.974 387.046 229.237 386.782 229.149Z" fill="white"/>
<path d="M373.495 236.886C374.759 236.886 375.783 235.862 375.783 234.6C375.783 233.338 374.759 232.314 373.495 232.314C372.231 232.314 371.207 233.338 371.207 234.6C371.207 235.862 372.231 236.886 373.495 236.886Z" fill="white"/>
<path d="M382.734 238.38C383.998 238.38 385.022 237.357 385.022 236.095C385.022 234.832 383.998 233.809 382.734 233.809C381.471 233.809 380.447 234.832 380.447 236.095C380.447 237.357 381.471 238.38 382.734 238.38Z" fill="white"/>
<path d="M363.992 235.303C365.255 235.303 366.279 234.28 366.279 233.018C366.279 231.755 365.255 230.732 363.992 230.732C362.728 230.732 361.704 231.755 361.704 233.018C361.704 234.28 362.728 235.303 363.992 235.303Z" fill="white"/>
<path d="M378.247 200.753C361 197.94 346.657 189.324 338.825 176.928L344.369 173.412C352.904 181.764 365.048 187.654 380.006 190.027C394.965 192.401 409.132 191.082 419.868 185.896L423.827 190.379C412.388 199.698 395.493 203.566 378.247 200.753Z" fill="#CCCCCC"/>
<path d="M376.663 217.808C376.663 217.808 364.08 215.698 363.464 215.698C362.76 215.611 360.648 215.523 359.856 216.314C359.152 217.105 358.888 217.457 358.712 218.072C358.536 218.688 357.04 228.534 357.04 228.534C357.04 228.534 359.064 219.127 361 217.721C363.2 216.05 376.663 217.808 376.663 217.808Z" fill="#D49835"/>
<path d="M445.386 114.685L441.074 141.323L448.554 115.212L445.386 114.685Z" fill="#CCCCCC"/>
<path d="M354.4 228.534L329.322 229.501C329.322 229.501 328.266 244.183 330.202 255.7C332.138 267.128 334.426 276.447 336.186 279.436C338.034 282.338 336.978 277.766 342.257 274.865C347.537 271.964 348.329 271.876 348.329 271.876C348.329 271.876 337.682 251.48 338.825 243.304C339.881 235.04 354.4 228.534 354.4 228.534Z" fill="#CCCCCC"/>
<path d="M330.378 216.841L338.298 209.369C338.298 209.369 335.57 219.479 337.506 221.237C339.441 222.907 355.104 223.962 355.104 223.962L329.498 225.545L330.378 216.841Z" fill="#CCCCCC"/>
<path d="M376.751 94.1129C376.751 94.1129 362.408 94.9921 351.409 106.333C340.409 117.674 339.969 122.246 339.969 122.246C339.969 122.246 336.538 134.114 336.098 144.312C335.57 154.598 336.362 166.554 345.601 174.642C354.84 182.731 373.495 191.61 392.062 191.17C410.628 190.731 412.74 188.972 412.74 188.972C412.74 188.972 368.655 189.236 354.4 176.137C340.145 163.038 340.849 154.246 342.081 144.312C343.401 134.466 347.185 121.982 356.512 118.465C365.751 114.949 373.935 113.366 373.935 113.366L376.751 94.1129Z" fill="#CCCCCC"/>
<path d="M421.276 229.149L422.507 221.765C422.507 221.765 438.346 217.193 447.762 212.27C449.434 211.391 456.649 207.435 465.184 201.281C465.184 201.281 459.993 208.226 440.282 219.83C429.899 225.984 421.276 229.149 421.276 229.149Z" fill="#CCCCCC"/>
<path d="M370.239 269.062C370.239 269.062 372.351 269.062 373.407 271.612C374.463 274.161 374.639 279.876 374.639 279.876C374.639 279.876 377.631 278.821 382.118 279.524C386.694 280.228 388.982 282.162 388.982 282.162C388.982 282.162 383.966 274.513 380.887 270.733C377.895 267.04 370.239 269.062 370.239 269.062Z" fill="#CCCCCC"/>
<path d="M314.979 200.05L312.075 196.094C312.075 196.094 304.596 205.676 303.012 209.896C301.34 214.116 300.636 217.281 300.636 217.281C300.636 217.281 309.084 200.05 314.979 200.05Z" fill="#CCCCCC"/>
<path d="M340.145 176.401L324.658 184.841L327.298 187.478L341.993 180.005L340.145 176.401Z" fill="#CCCCCC"/>
<path d="M324.659 184.841L320.083 188.181L312.075 196.094L314.715 199.962L327.298 187.478L324.659 184.841Z" fill="#B12887"/>
<path d="M408.604 189.852C408.604 189.852 390.478 192.665 379.303 190.115C368.127 187.566 354.312 180.884 351.145 178.95C347.977 177.016 346.305 175.434 346.305 175.434L343.489 174.994L342.697 175.873C342.697 175.873 348.769 182.291 360.472 186.95C372.175 191.61 382.822 194.511 393.03 193.544C403.325 192.665 408.604 189.852 408.604 189.852Z" fill="#B12887"/>
</svg>
