<?xml version="1.0" encoding="UTF-8" standalone="no"?>
<svg
   width="2100"
   height="900"
   viewBox="0 0 2100 900"
   fill="none"
   version="1.1"
   id="svg292"
   sodipodi:docname="space-background-faded.svg"
   inkscape:version="1.2.2 (b0a8486, 2022-12-01)"
   xmlns:inkscape="http://www.inkscape.org/namespaces/inkscape"
   xmlns:sodipodi="http://sodipodi.sourceforge.net/DTD/sodipodi-0.dtd"
   xmlns="http://www.w3.org/2000/svg"
   xmlns:svg="http://www.w3.org/2000/svg">
  <sodipodi:namedview
     id="namedview294"
     pagecolor="#ffffff"
     bordercolor="#666666"
     borderopacity="1.0"
     inkscape:showpageshadow="2"
     inkscape:pageopacity="0.0"
     inkscape:pagecheckerboard="0"
     inkscape:deskcolor="#d1d1d1"
     showgrid="false"
     inkscape:zoom="0.30776829"
     inkscape:cx="1314.3004"
     inkscape:cy="705.07589"
     inkscape:window-width="1920"
     inkscape:window-height="1052"
     inkscape:window-x="1080"
     inkscape:window-y="281"
     inkscape:window-maximized="0"
     inkscape:current-layer="svg292" />
  <g
     clip-path="url(#clip0_2_39)"
     id="g282"
     transform="matrix(1.936376,0,0,1.936376,-376.90693,6.4983953)"
     style="opacity:0.17286652">
    <path
       d="M 1475,0 H 0 v 463 h 1475 z"
       fill="#000033"
       id="path2" />
    <path
       opacity="0.6"
       d="m 167.785,0 c 0,0 -156.5633,122.279 -50.605,143.433 105.958,21.153 319.709,-58.8195 372.365,-5.828 52.655,52.991 -120.417,110.516 -106.282,125.841 14.135,15.325 337.944,-56.445 332.117,0 C 709.446,319.891 160.772,377.523 118.367,396.302 75.962,415.081 1.07901,446.272 1.07901,446.272 V 0 Z"
       fill="#121259"
       id="path4" />
    <path
       opacity="0.6"
       d="m 849.501,0 c 0,0 -204.903,131.669 -141.35,144.62 63.553,12.951 255.508,62.381 213.104,102.313 -42.405,40.041 -195.948,52.884 -183.323,84.722 12.624,31.838 489.008,48.35 526.018,75.224 C 1300.96,433.86 1474.89,463 1474.89,463 V 0 Z"
       fill="#121259"
       id="path6" />
    <path
       d="M 26.4356,77.5984 C 35.6072,72.0942 19.4221,186.927 93.5498,197.611 167.785,208.188 382.076,172.897 379.702,180.02 c -2.374,7.015 -182.568,60.006 -153.111,82.347 29.457,22.34 107.145,32.917 142.537,37.666 35.391,4.748 221.411,-18.779 221.411,-18.779 0,0 -475.733,68.208 -492.2416,78.785 -16.5088,10.577 -73.0487,38.853 -71.8618,43.494 1.1869,4.749 90.6364,-89.362 73.0487,-116.451 C 81.8965,259.992 -3.02119,95.2981 26.4356,77.5984 Z"
       fill="#000033"
       id="path8" />
    <path
       d="m 946.072,58.8193 c 0,0 -128.402,31.7301 -80.062,64.6477 48.339,32.917 170.7,95.298 168.43,116.991 -2.37,21.801 -143.613,67.669 -138.974,78.246 4.64,10.576 279.034,36.479 297.914,45.868 18.88,9.39 -166.06,-44.681 -148.36,-58.819 17.69,-14.139 116.53,-46.192 108.33,-74.253 -8.2,-28.061 -217.852,-98.644 -224.866,-113.861 -7.014,-15.218 30.536,-45.8686 17.588,-58.8197 z"
       fill="#000033"
       id="path10" />
    <path
       opacity="0.5"
       d="m 604.567,132.964 c 2.05,0 1.079,13.383 3.129,13.383 2.05,0 11.653,-1.403 11.653,0 0,1.403 -11.653,2.698 -11.977,3.777 -0.324,1.079 -1.403,11.009 -2.698,11.656 -1.402,0.648 0,-8.958 -1.726,-9.929 -1.726,-0.971 -12.732,-1.079 -12.409,-2.698 0.324,-1.727 11.006,-0.648 11.654,-4.101 0.647,-3.562 2.374,-12.088 2.374,-12.088 z"
       fill="#98c9ea"
       id="path12" />
    <path
       opacity="0.8"
       d="m 1187.23,129.942 c 0.97,0 0.54,6.476 1.51,6.476 0.97,0 5.72,-0.648 5.72,0 0,0.647 -5.72,1.295 -5.83,1.834 -0.21,0.54 -0.65,5.397 -1.29,5.72 -0.65,0.324 0,-4.317 -0.87,-4.856 -0.86,-0.54 -6.25,-0.54 -6.04,-1.295 0.22,-0.864 5.4,-0.324 5.72,-2.051 0.22,-1.727 1.08,-5.828 1.08,-5.828 z"
       fill="#98c9ea"
       id="path14" />
    <path
       opacity="0.8"
       d="m 1154.64,290.211 c 0.97,0 0.54,6.476 1.51,6.476 0.98,0 5.72,-0.648 5.72,0 0,0.648 -5.72,1.295 -5.82,1.835 -0.22,0.539 -0.65,5.396 -1.3,5.72 -0.65,0.324 0,-4.317 -0.86,-4.857 -0.87,-0.54 -6.26,-0.54 -6.04,-1.295 0.21,-0.863 5.39,-0.324 5.71,-2.051 0.22,-1.618 1.08,-5.828 1.08,-5.828 z"
       fill="#98c9ea"
       id="path16" />
    <path
       d="m 954.596,30.8667 c 0.971,0 0.539,6.4755 1.51,6.4755 0.971,0 5.719,-0.6476 5.719,0 0,0.6475 -5.719,1.2951 -5.827,1.8347 -0.215,0.5397 -0.647,5.3963 -1.294,5.7201 -0.648,0.3237 0,-4.317 -0.864,-4.8567 -0.863,-0.5396 -6.258,-0.5396 -6.042,-1.2951 0.216,-0.7555 5.395,-0.3238 5.719,-2.0506 0.216,-1.6188 1.079,-5.8279 1.079,-5.8279 z"
       fill="#98c9ea"
       id="path18" />
    <path
       opacity="0.5"
       d="m 232.094,365.651 c 2.05,0 1.079,13.383 3.129,13.383 2.05,0 11.653,-1.403 11.653,0 0,1.403 -11.653,2.698 -11.977,3.777 -0.323,1.08 -1.402,11.009 -2.697,11.656 -1.403,0.648 0,-8.957 -1.727,-9.929 -1.726,-1.079 -12.732,-1.079 -12.408,-2.698 0.324,-1.619 11.006,-0.647 11.653,-4.101 0.648,-3.562 2.374,-12.088 2.374,-12.088 z"
       fill="#98c9ea"
       id="path20" />
    <path
       opacity="0.5"
       d="m 128.294,127.028 c 0.971,0 0.539,6.476 1.51,6.476 0.971,0 5.719,-0.648 5.719,0 0,0.647 -5.719,1.295 -5.827,1.834 -0.107,0.54 -0.647,5.397 -1.294,5.721 -0.648,0.323 0,-4.318 -0.864,-4.857 -0.863,-0.54 -6.258,-0.54 -6.042,-1.295 0.216,-0.864 5.395,-0.324 5.719,-2.051 0.323,-1.619 1.079,-5.828 1.079,-5.828 z"
       fill="#98c9ea"
       id="path22" />
    <path
       d="m 147.824,318.812 c 1.37,0 2.481,-1.063 2.481,-2.375 0,-1.311 -1.111,-2.374 -2.481,-2.374 -1.371,0 -2.482,1.063 -2.482,2.374 0,1.312 1.111,2.375 2.482,2.375 z"
       fill="#ffffff"
       id="path24" />
    <path
       d="m 220.98,118.934 c 1.609,0 2.914,-1.305 2.914,-2.914 0,-1.61 -1.305,-2.914 -2.914,-2.914 -1.609,0 -2.913,1.304 -2.913,2.914 0,1.609 1.304,2.914 2.913,2.914 z"
       fill="#ffffff"
       id="path26" />
    <path
       d="m 361.79,286.65 c 1.967,0 3.561,-1.595 3.561,-3.562 0,-1.967 -1.594,-3.561 -3.561,-3.561 -1.966,0 -3.56,1.594 -3.56,3.561 0,1.967 1.594,3.562 3.56,3.562 z"
       fill="#ffffff"
       id="path28" />
    <path
       d="m 404.951,166.853 c 1.43,0 2.589,-1.16 2.589,-2.591 0,-1.43 -1.159,-2.59 -2.589,-2.59 -1.431,0 -2.59,1.16 -2.59,2.59 0,1.431 1.159,2.591 2.59,2.591 z"
       fill="#ffffff"
       id="path30" />
    <path
       d="m 404.951,75.6557 c 1.43,0 2.589,-1.1597 2.589,-2.5902 0,-1.4305 -1.159,-2.5902 -2.589,-2.5902 -1.431,0 -2.59,1.1597 -2.59,2.5902 0,1.4305 1.159,2.5902 2.59,2.5902 z"
       fill="#ffffff"
       id="path32" />
    <path
       d="m 532.705,212.181 c 1.609,0 2.913,-1.304 2.913,-2.914 0,-1.609 -1.304,-2.914 -2.913,-2.914 -1.609,0 -2.913,1.305 -2.913,2.914 0,1.61 1.304,2.914 2.913,2.914 z"
       fill="#ffffff"
       id="path34" />
    <path
       d="m 495.695,115.372 c 1.609,0 2.913,-1.304 2.913,-2.914 0,-1.609 -1.304,-2.914 -2.913,-2.914 -1.609,0 -2.913,1.305 -2.913,2.914 0,1.61 1.304,2.914 2.913,2.914 z"
       fill="#ffffff"
       id="path36" />
    <path
       d="m 779.042,127.136 c 1.251,0 2.266,-1.015 2.266,-2.266 0,-1.252 -1.015,-2.267 -2.266,-2.267 -1.252,0 -2.266,1.015 -2.266,2.267 0,1.251 1.014,2.266 2.266,2.266 z"
       fill="#ffffff"
       id="path38" />
    <path
       d="m 791.019,62.4888 c 1.013,0 1.834,-0.8214 1.834,-1.8347 0,-1.0133 -0.821,-1.8348 -1.834,-1.8348 -1.013,0 -1.835,0.8215 -1.835,1.8348 0,1.0133 0.822,1.8347 1.835,1.8347 z"
       fill="#ffffff"
       id="path40" />
    <path
       d="m 674.81,42.3068 c 1.192,0 2.158,-0.9664 2.158,-2.1585 0,-1.1922 -0.966,-2.1586 -2.158,-2.1586 -1.192,0 -2.158,0.9664 -2.158,2.1586 0,1.1921 0.966,2.1585 2.158,2.1585 z"
       fill="#ffffff"
       id="path42" />
    <path
       d="m 568.744,77.3825 c 1.191,0 2.158,-0.9664 2.158,-2.1585 0,-1.1921 -0.967,-2.1585 -2.158,-2.1585 -1.192,0 -2.158,0.9664 -2.158,2.1585 0,1.1921 0.966,2.1585 2.158,2.1585 z"
       fill="#ffffff"
       id="path44" />
    <path
       d="m 652.367,359.823 c 0.953,0 1.726,-0.773 1.726,-1.726 0,-0.954 -0.773,-1.727 -1.726,-1.727 -0.954,0 -1.727,0.773 -1.727,1.727 0,0.953 0.773,1.726 1.727,1.726 z"
       fill="#ffffff"
       id="path46" />
    <path
       d="m 582.231,420.046 c 1.55,0 2.806,-1.257 2.806,-2.806 0,-1.55 -1.256,-2.806 -2.806,-2.806 -1.549,0 -2.805,1.256 -2.805,2.806 0,1.549 1.256,2.806 2.805,2.806 z"
       fill="#ffffff"
       id="path48" />
    <path
       d="m 996.245,322.049 c 1.55,0 2.806,-1.256 2.806,-2.806 0,-1.549 -1.256,-2.806 -2.806,-2.806 -1.549,0 -2.805,1.257 -2.805,2.806 0,1.55 1.256,2.806 2.805,2.806 z"
       fill="#ffffff"
       id="path50" />
    <path
       d="m 1040.92,424.255 c 1.96,0 3.56,-1.595 3.56,-3.562 0,-1.967 -1.6,-3.561 -3.56,-3.561 -1.97,0 -3.56,1.594 -3.56,3.561 0,1.967 1.59,3.562 3.56,3.562 z"
       fill="#ffffff"
       id="path52" />
    <path
       d="m 1154.86,329.065 c 1.97,0 3.56,-1.595 3.56,-3.562 0,-1.967 -1.59,-3.562 -3.56,-3.562 -1.97,0 -3.56,1.595 -3.56,3.562 0,1.967 1.59,3.562 3.56,3.562 z"
       fill="#ffffff"
       id="path54" />
    <path
       d="m 288.418,252.761 c 1.192,0 2.158,-0.966 2.158,-2.158 0,-1.192 -0.966,-2.159 -2.158,-2.159 -1.192,0 -2.158,0.967 -2.158,2.159 0,1.192 0.966,2.158 2.158,2.158 z"
       fill="#ffffff"
       id="path56" />
    <path
       d="m 1124.32,73.1734 c 0.72,0 1.3,-0.5798 1.3,-1.2951 0,-0.7152 -0.58,-1.2951 -1.3,-1.2951 -0.71,0 -1.29,0.5799 -1.29,1.2951 0,0.7153 0.58,1.2951 1.29,1.2951 z"
       fill="#ffffff"
       id="path58" />
    <path
       d="m 1073.61,223.082 c 1.43,0 2.59,-1.16 2.59,-2.59 0,-1.431 -1.16,-2.591 -2.59,-2.591 -1.43,0 -2.59,1.16 -2.59,2.591 0,1.43 1.16,2.59 2.59,2.59 z"
       fill="#f88600"
       id="path60" />
    <path
       d="m 487.602,350.65 c 1.55,0 2.806,-1.257 2.806,-2.806 0,-1.55 -1.256,-2.806 -2.806,-2.806 -1.549,0 -2.805,1.256 -2.805,2.806 0,1.549 1.256,2.806 2.805,2.806 z"
       fill="#ffffff"
       id="path62" />
    <path
       d="m 928.268,398.784 c 1.192,0 2.158,-0.966 2.158,-2.158 0,-1.192 -0.966,-2.159 -2.158,-2.159 -1.192,0 -2.158,0.967 -2.158,2.159 0,1.192 0.966,2.158 2.158,2.158 z"
       fill="#ffffff"
       id="path64" />
    <path
       d="m 744.406,334.785 c 1.609,0 2.913,-1.305 2.913,-2.914 0,-1.61 -1.304,-2.914 -2.913,-2.914 -1.609,0 -2.914,1.304 -2.914,2.914 0,1.609 1.305,2.914 2.914,2.914 z"
       fill="#ffffff"
       id="path66" />
    <path
       d="m 439.263,347.196 c 1.192,0 2.158,-0.966 2.158,-2.158 0,-1.193 -0.966,-2.159 -2.158,-2.159 -1.192,0 -2.158,0.966 -2.158,2.159 0,1.192 0.966,2.158 2.158,2.158 z"
       fill="#ffffff"
       id="path68" />
    <path
       d="m 235.007,192.971 c 1.431,0 2.59,-1.16 2.59,-2.591 0,-1.43 -1.159,-2.59 -2.59,-2.59 -1.43,0 -2.589,1.16 -2.589,2.59 0,1.431 1.159,2.591 2.589,2.591 z"
       fill="#ffffff"
       id="path70" />
    <path
       d="m 322.515,236.249 c 1.311,0 2.373,-1.063 2.373,-2.375 0,-1.311 -1.062,-2.374 -2.373,-2.374 -1.311,0 -2.374,1.063 -2.374,2.374 0,1.312 1.063,2.375 2.374,2.375 z"
       fill="#ffffff"
       id="path72" />
    <path
       d="m 275.146,298.953 c 0.954,0 1.727,-0.773 1.727,-1.726 0,-0.954 -0.773,-1.727 -1.727,-1.727 -0.953,0 -1.726,0.773 -1.726,1.727 0,0.953 0.773,1.726 1.726,1.726 z"
       fill="#ffffff"
       id="path74" />
    <path
       d="m 33.8808,226.212 c 0.8342,0 1.5106,-0.677 1.5106,-1.511 0,-0.835 -0.6764,-1.511 -1.5106,-1.511 -0.8343,0 -1.5107,0.676 -1.5107,1.511 0,0.834 0.6764,1.511 1.5107,1.511 z"
       fill="#ffffff"
       id="path76" />
    <path
       d="m 157.319,30.7587 c 1.192,0 2.158,-0.9664 2.158,-2.1585 0,-1.1921 -0.966,-2.1585 -2.158,-2.1585 -1.192,0 -2.158,0.9664 -2.158,2.1585 0,1.1921 0.966,2.1585 2.158,2.1585 z"
       fill="#ffffff"
       id="path78" />
    <path
       d="m 270.291,42.3068 c 1.192,0 2.158,-0.9664 2.158,-2.1585 0,-1.1922 -0.966,-2.1586 -2.158,-2.1586 -1.192,0 -2.158,0.9664 -2.158,2.1586 0,1.1921 0.966,2.1585 2.158,2.1585 z"
       fill="#ffffff"
       id="path80" />
    <path
       d="m 67.8694,75.224 c 0.5959,0 1.079,-0.4832 1.079,-1.0793 0,-0.596 -0.4831,-1.0792 -1.079,-1.0792 -0.5959,0 -1.079,0.4832 -1.079,1.0792 0,0.5961 0.4831,1.0793 1.079,1.0793 z"
       fill="#ffffff"
       id="path82" />
    <path
       d="m 780.229,409.685 c 0.595,0 1.079,-0.483 1.079,-1.079 0,-0.596 -0.484,-1.08 -1.079,-1.08 -0.596,0 -1.079,0.484 -1.079,1.08 0,0.596 0.483,1.079 1.079,1.079 z"
       fill="#ffffff"
       id="path84" />
    <path
       d="m 1260.6,65.6187 c 0.9,0 1.62,-0.7248 1.62,-1.6189 0,-0.8941 -0.72,-1.6189 -1.62,-1.6189 -0.89,0 -1.62,0.7248 -1.62,1.6189 0,0.8941 0.73,1.6189 1.62,1.6189 z"
       fill="#ffffff"
       id="path86" />
    <path
       d="m 1384.47,92.0604 c 3.1,0 5.61,-2.5127 5.61,-5.6122 0,-3.0995 -2.51,-5.6121 -5.61,-5.6121 -3.1,0 -5.61,2.5126 -5.61,5.6121 0,3.0995 2.51,5.6122 5.61,5.6122 z"
       fill="#ffffff"
       id="path88" />
    <path
       d="m 206.306,418.751 c 3.099,0 5.611,-2.513 5.611,-5.613 0,-3.099 -2.512,-5.612 -5.611,-5.612 -3.099,0 -5.611,2.513 -5.611,5.612 0,3.1 2.512,5.613 5.611,5.613 z"
       fill="#ffffff"
       id="path90" />
    <path
       d="m 1343.79,266.36 c 0.96,0 1.73,-0.773 1.73,-1.727 0,-0.954 -0.77,-1.727 -1.73,-1.727 -0.95,0 -1.72,0.773 -1.72,1.727 0,0.954 0.77,1.727 1.72,1.727 z"
       fill="#ffffff"
       id="path92" />
    <path
       d="m 1342.93,342.879 c 0.48,0 0.86,-0.387 0.86,-0.863 0,-0.477 -0.38,-0.864 -0.86,-0.864 -0.48,0 -0.86,0.387 -0.86,0.864 0,0.476 0.38,0.863 0.86,0.863 z"
       fill="#ffffff"
       id="path94" />
    <path
       d="m 1228.12,297.335 c 1.49,0 2.7,-1.208 2.7,-2.699 0,-1.49 -1.21,-2.698 -2.7,-2.698 -1.49,0 -2.69,1.208 -2.69,2.698 0,1.491 1.2,2.699 2.69,2.699 z"
       fill="#ffffff"
       id="path96" />
    <path
       d="m 1237.19,396.626 c 0.59,0 1.08,-0.483 1.08,-1.079 0,-0.596 -0.49,-1.08 -1.08,-1.08 -0.6,0 -1.08,0.484 -1.08,1.08 0,0.596 0.48,1.079 1.08,1.079 z"
       fill="#ffffff"
       id="path98" />
    <path
       d="m 1087.21,372.882 c 0.89,0 1.61,-0.725 1.61,-1.619 0,-0.894 -0.72,-1.618 -1.61,-1.618 -0.9,0 -1.62,0.724 -1.62,1.618 0,0.894 0.72,1.619 1.62,1.619 z"
       fill="#ffffff"
       id="path100" />
    <path
       d="m 1179.46,391.661 c 0.6,0 1.08,-0.483 1.08,-1.079 0,-0.596 -0.48,-1.079 -1.08,-1.079 -0.6,0 -1.08,0.483 -1.08,1.079 0,0.596 0.48,1.079 1.08,1.079 z"
       fill="#ffffff"
       id="path102" />
    <path
       d="m 1233.95,351.405 c 1.79,0 3.24,-1.401 3.24,-3.13 0,-1.728 -1.45,-3.13 -3.24,-3.13 -1.79,0 -3.24,1.402 -3.24,3.13 0,1.729 1.45,3.13 3.24,3.13 z"
       fill="#ffffff"
       id="path104" />
    <path
       d="m 1284.56,390.582 c 1.43,0 2.59,-1.16 2.59,-2.59 0,-1.431 -1.16,-2.59 -2.59,-2.59 -1.43,0 -2.59,1.159 -2.59,2.59 0,1.43 1.16,2.59 2.59,2.59 z"
       fill="#ffffff"
       id="path106" />
    <path
       d="m 1348.76,420.693 c 1.72,0 3.13,-1.401 3.13,-3.13 0,-1.728 -1.41,-3.129 -3.13,-3.129 -1.73,0 -3.13,1.401 -3.13,3.129 0,1.729 1.4,3.13 3.13,3.13 z"
       fill="#ffffff"
       id="path108" />
    <path
       d="m 1420.29,341.152 c 1.79,0 3.24,-1.449 3.24,-3.238 0,-1.788 -1.45,-3.237 -3.24,-3.237 -1.78,0 -3.23,1.449 -3.23,3.237 0,1.789 1.45,3.238 3.23,3.238 z"
       fill="#ffffff"
       id="path110" />
    <path
       d="m 1433.03,49.4298 c 1.96,0 3.56,-1.5945 3.56,-3.5615 0,-1.967 -1.6,-3.5615 -3.56,-3.5615 -1.97,0 -3.56,1.5945 -3.56,3.5615 0,1.967 1.59,3.5615 3.56,3.5615 z"
       fill="#ffffff"
       id="path112" />
    <path
       d="m 1383.18,24.607 c 0.71,0 1.29,-0.5798 1.29,-1.2951 0,-0.7153 -0.58,-1.2951 -1.29,-1.2951 -0.72,0 -1.3,0.5798 -1.3,1.2951 0,0.7153 0.58,1.2951 1.3,1.2951 z"
       fill="#ffffff"
       id="path114" />
    <path
       d="m 1269.45,112.027 c 0.83,0 1.51,-0.677 1.51,-1.511 0,-0.835 -0.68,-1.511 -1.51,-1.511 -0.83,0 -1.51,0.676 -1.51,1.511 0,0.834 0.68,1.511 1.51,1.511 z"
       fill="#ffffff"
       id="path116" />
    <path
       d="m 1191.98,27.4131 c 1.49,0 2.69,-1.208 2.69,-2.6982 0,-1.4901 -1.2,-2.6981 -2.69,-2.6981 -1.49,0 -2.7,1.208 -2.7,2.6981 0,1.4902 1.21,2.6982 2.7,2.6982 z"
       fill="#ffffff"
       id="path118" />
    <path
       d="m 1087.96,13.1669 c 0.48,0 0.86,-0.3866 0.86,-0.8634 0,-0.4768 -0.38,-0.8634 -0.86,-0.8634 -0.48,0 -0.86,0.3866 -0.86,0.8634 0,0.4768 0.38,0.8634 0.86,0.8634 z"
       fill="#ffffff"
       id="path120" />
    <path
       d="m 1439.28,237.112 c 1.55,0 2.81,-1.256 2.81,-2.806 0,-1.55 -1.26,-2.806 -2.81,-2.806 -1.54,0 -2.8,1.256 -2.8,2.806 0,1.55 1.26,2.806 2.8,2.806 z"
       fill="#ffffff"
       id="path122" />
    <path
       d="m 1407.89,223.082 c 0.71,0 1.29,-0.58 1.29,-1.295 0,-0.716 -0.58,-1.295 -1.29,-1.295 -0.72,0 -1.3,0.579 -1.3,1.295 0,0.715 0.58,1.295 1.3,1.295 z"
       fill="#dd00a1"
       id="path124" />
    <path
       d="m 583.634,308.019 c 0.775,0 1.403,-0.628 1.403,-1.403 0,-0.775 -0.628,-1.403 -1.403,-1.403 -0.775,0 -1.403,0.628 -1.403,1.403 0,0.775 0.628,1.403 1.403,1.403 z"
       fill="#dd00a1"
       id="path126" />
    <path
       d="m 548.35,394.467 c 1.073,0 1.943,-0.869 1.943,-1.942 0,-1.073 -0.87,-1.943 -1.943,-1.943 -1.072,0 -1.942,0.87 -1.942,1.943 0,1.073 0.87,1.942 1.942,1.942 z"
       fill="#dd00a1"
       id="path128" />
    <path
       d="m 328.125,92.9238 c 1.788,0 3.237,-1.4496 3.237,-3.2378 0,-1.7882 -1.449,-3.2378 -3.237,-3.2378 -1.787,0 -3.237,1.4496 -3.237,3.2378 0,1.7882 1.45,3.2378 3.237,3.2378 z"
       fill="#dd00a1"
       id="path130" />
    <path
       d="m 256.911,212.289 c 0.834,0 1.511,-0.676 1.511,-1.511 0,-0.834 -0.677,-1.511 -1.511,-1.511 -0.834,0 -1.51,0.677 -1.51,1.511 0,0.835 0.676,1.511 1.51,1.511 z"
       fill="#dd00a1"
       id="path132" />
    <path
       d="m 179.331,138.468 c 1.191,0 2.158,-0.966 2.158,-2.158 0,-1.192 -0.967,-2.159 -2.158,-2.159 -1.192,0 -2.158,0.967 -2.158,2.159 0,1.192 0.966,2.158 2.158,2.158 z"
       fill="#dd00a1"
       id="path134" />
    <path
       d="m 210.622,62.4888 c 2.383,0 4.316,-1.9328 4.316,-4.317 0,-2.3842 -1.933,-4.317 -4.316,-4.317 -2.384,0 -4.316,1.9328 -4.316,4.317 0,2.3842 1.932,4.317 4.316,4.317 z"
       fill="#dd00a1"
       id="path136" />
    <path
       d="m 62.1507,289.672 c 0.8343,0 1.5106,-0.677 1.5106,-1.511 0,-0.835 -0.6763,-1.511 -1.5106,-1.511 -0.8343,0 -1.5106,0.676 -1.5106,1.511 0,0.834 0.6763,1.511 1.5106,1.511 z"
       fill="#dd00a1"
       id="path138" />
    <path
       d="m 122.791,79.9727 c 0.715,0 1.295,-0.5798 1.295,-1.2951 0,-0.7152 -0.58,-1.2951 -1.295,-1.2951 -0.715,0 -1.295,0.5799 -1.295,1.2951 0,0.7153 0.58,1.2951 1.295,1.2951 z"
       fill="#dd00a1"
       id="path140" />
    <path
       d="m 190.444,345.038 c 0.835,0 1.511,-0.677 1.511,-1.511 0,-0.835 -0.676,-1.511 -1.511,-1.511 -0.834,0 -1.51,0.676 -1.51,1.511 0,0.834 0.676,1.511 1.51,1.511 z"
       fill="#dd00a1"
       id="path142" />
    <path
       d="m 128.402,380.113 c 2.443,0 4.424,-1.981 4.424,-4.425 0,-2.443 -1.981,-4.425 -4.424,-4.425 -2.444,0 -4.424,1.982 -4.424,4.425 0,2.444 1.98,4.425 4.424,4.425 z"
       fill="#dd00a1"
       id="path144" />
    <path
       d="m 1101.66,276.721 c 0.9,0 1.62,-0.725 1.62,-1.619 0,-0.894 -0.72,-1.619 -1.62,-1.619 -0.89,0 -1.61,0.725 -1.61,1.619 0,0.894 0.72,1.619 1.61,1.619 z"
       fill="#dd00a1"
       id="path146" />
    <path
       d="m 1273.12,210.778 c 1.19,0 2.16,-0.966 2.16,-2.158 0,-1.192 -0.97,-2.159 -2.16,-2.159 -1.19,0 -2.16,0.967 -2.16,2.159 0,1.192 0.97,2.158 2.16,2.158 z"
       fill="#dd00a1"
       id="path148" />
    <path
       d="m 834.287,255.783 c 1.192,0 2.158,-0.966 2.158,-2.158 0,-1.192 -0.966,-2.159 -2.158,-2.159 -1.192,0 -2.158,0.967 -2.158,2.159 0,1.192 0.966,2.158 2.158,2.158 z"
       fill="#dd00a1"
       id="path150" />
    <path
       d="m 1187.23,105.227 c 0.83,0 1.51,-0.676 1.51,-1.511 0,-0.834 -0.68,-1.511 -1.51,-1.511 -0.83,0 -1.51,0.677 -1.51,1.511 0,0.835 0.68,1.511 1.51,1.511 z"
       fill="#f88600"
       id="path152" />
    <path
       d="m 435.486,266.144 c 0.894,0 1.619,-0.725 1.619,-1.619 0,-0.894 -0.725,-1.619 -1.619,-1.619 -0.893,0 -1.618,0.725 -1.618,1.619 0,0.894 0.725,1.619 1.618,1.619 z"
       fill="#f88600"
       id="path154" />
    <path
       d="m 339.671,348.275 c 1.49,0 2.697,-1.208 2.697,-2.698 0,-1.49 -1.207,-2.698 -2.697,-2.698 -1.49,0 -2.698,1.208 -2.698,2.698 0,1.49 1.208,2.698 2.698,2.698 z"
       fill="#f88600"
       id="path156" />
    <path
       d="m 353.374,439.364 c 1.252,0 2.266,-1.014 2.266,-2.266 0,-1.252 -1.014,-2.267 -2.266,-2.267 -1.251,0 -2.266,1.015 -2.266,2.267 0,1.252 1.015,2.266 2.266,2.266 z"
       fill="#f88600"
       id="path158" />
    <path
       d="m 1123.68,32.1618 c 0.35,0 0.64,-0.2899 0.64,-0.6476 0,-0.3576 -0.29,-0.6475 -0.64,-0.6475 -0.36,0 -0.65,0.2899 -0.65,0.6475 0,0.3577 0.29,0.6476 0.65,0.6476 z"
       fill="#f88600"
       id="path160" />
    <path
       d="m 1259.85,142.677 c 0.41,0 0.75,-0.338 0.75,-0.755 0,-0.417 -0.34,-0.756 -0.75,-0.756 -0.42,0 -0.76,0.339 -0.76,0.756 0,0.417 0.34,0.755 0.76,0.755 z"
       fill="#f88600"
       id="path162" />
    <path
       d="m 1294.37,259.237 c 0.96,0 1.73,-0.773 1.73,-1.727 0,-0.954 -0.77,-1.727 -1.73,-1.727 -0.95,0 -1.72,0.773 -1.72,1.727 0,0.954 0.77,1.727 1.72,1.727 z"
       fill="#f88600"
       id="path164" />
    <path
       d="m 1085.48,140.411 c 0.95,0 1.73,-0.773 1.73,-1.727 0,-0.954 -0.78,-1.727 -1.73,-1.727 -0.95,0 -1.73,0.773 -1.73,1.727 0,0.954 0.78,1.727 1.73,1.727 z"
       fill="#f88600"
       id="path166" />
    <path
       d="m 1361.49,297.335 c 1.49,0 2.7,-1.208 2.7,-2.699 0,-1.49 -1.21,-2.698 -2.7,-2.698 -1.49,0 -2.7,1.208 -2.7,2.698 0,1.491 1.21,2.699 2.7,2.699 z"
       fill="#f88600"
       id="path168" />
    <path
       d="m 1412.85,385.402 c 3.46,0 6.26,-2.803 6.26,-6.26 0,-3.457 -2.8,-6.26 -6.26,-6.26 -3.46,0 -6.26,2.803 -6.26,6.26 0,3.457 2.8,6.26 6.26,6.26 z"
       fill="#f88600"
       id="path170" />
    <path
       d="m 1317.36,147.318 c 1.49,0 2.69,-1.208 2.69,-2.698 0,-1.49 -1.2,-2.698 -2.69,-2.698 -1.49,0 -2.7,1.208 -2.7,2.698 0,1.49 1.21,2.698 2.7,2.698 z"
       fill="#f88600"
       id="path172" />
    <path
       d="m 1013.29,22.0168 c 2.45,0 4.43,-1.9811 4.43,-4.425 0,-2.4438 -1.98,-4.4249 -4.43,-4.4249 -2.44,0 -4.42,1.9811 -4.42,4.4249 0,2.4439 1.98,4.425 4.42,4.425 z"
       fill="#f88600"
       id="path174" />
    <g
       clip-path="url(#clip1_2_39)"
       id="g280">
      <g
         opacity="0.4"
         id="g182">
        <path
           d="m 640.246,229.088 c -0.128,0.127 -0.128,0.381 -0.255,0.509"
           stroke="#fefefc"
           stroke-width="2"
           stroke-linecap="round"
           stroke-linejoin="round"
           id="path176" />
        <path
           d="m 637.443,236.849 c -7.897,31.938 19.488,82.453 25.984,104.211 7.006,23.667 24.838,80.289 -58.718,93.777 -83.684,13.487 -145.46,-153.453 -173.61,-217.583 -28.149,-64.002 -97.185,-45.298 -97.185,-45.298 0,0 -22.418,7.126 -27.003,30.029 -4.458,22.904 15.412,38.045 20.252,39.318 4.84,1.272 19.997,-2.8 24.073,-11.325 2.42,-5.089 0.892,-10.561 -0.764,-14.251"
           stroke="#fefefc"
           stroke-width="2"
           stroke-linecap="round"
           stroke-linejoin="round"
           stroke-dasharray="1, 1"
           id="path178" />
        <path
           d="m 348.689,212.419 c -0.255,-0.382 -0.382,-0.509 -0.382,-0.509"
           stroke="#fefefc"
           stroke-width="2"
           stroke-linecap="round"
           stroke-linejoin="round"
           id="path180" />
      </g>
      <path
         d="m 345.505,241.303 c 18.079,0 32.734,-14.641 32.734,-32.701 0,-18.061 -14.655,-32.701 -32.734,-32.701 -18.079,0 -32.735,14.64 -32.735,32.701 0,18.06 14.656,32.701 32.735,32.701 z"
         fill="#a3b7c5"
         id="path184" />
      <path
         d="m 366.266,215.473 c 5.698,0 10.318,-4.615 10.318,-10.307 0,-5.692 -4.62,-10.306 -10.318,-10.306 -5.698,0 -10.317,4.614 -10.317,10.306 0,5.692 4.619,10.307 10.317,10.307 z"
         fill="#697c8c"
         id="path186" />
      <path
         d="m 364.738,224.889 c 1.899,0 3.439,-1.539 3.439,-3.436 0,-1.897 -1.54,-3.435 -3.439,-3.435 -1.899,0 -3.439,1.538 -3.439,3.435 0,1.897 1.54,3.436 3.439,3.436 z"
         fill="#697c8c"
         id="path188" />
      <path
         d="m 327.163,220.308 c 1.97,0 3.566,-1.595 3.566,-3.563 0,-1.967 -1.596,-3.563 -3.566,-3.563 -1.97,0 -3.567,1.596 -3.567,3.563 0,1.968 1.597,3.563 3.567,3.563 z"
         fill="#697c8c"
         id="path190" />
      <path
         d="m 324.361,186.589 c 0,4.199 3.439,7.634 7.642,7.634 4.203,0 7.642,-3.435 7.642,-7.634 0,-4.199 -3.439,-7.635 -7.642,-7.635 h -0.127 c -2.293,1.146 -4.586,2.418 -6.624,4.072 -0.509,1.018 -0.891,2.163 -0.891,3.563 z"
         fill="#697c8c"
         id="path192" />
      <path
         d="m 336.334,234.432 c -2.293,0 -4.331,1.527 -4.968,3.562 3.185,1.527 6.496,2.545 10.19,3.054 0.127,-0.381 0.127,-0.89 0.127,-1.272 0,-3.054 -2.42,-5.344 -5.349,-5.344 z"
         fill="#697c8c"
         id="path194" />
      <path
         d="m 649.671,173.483 c 1.911,-0.891 -2.675,-1.145 -2.929,-2.036 0,0 -2.166,-0.509 -5.223,-1.781 -3.057,-1.4 -9.935,-7.762 -9.935,-12.852 0,-5.089 2.293,-14.378 6.751,-19.467 4.331,-4.963 9.68,-7.508 9.68,-7.508 0,0 -4.203,-17.05 -2.802,-29.265 1.401,-12.2154 5.859,-33.5919 13.756,-32.7012 7.897,0.8907 3.567,20.8676 0.128,33.7192 -3.439,12.851 -4.84,26.211 -4.84,26.211 0,0 5.094,-0.89 10.699,0 5.604,0.891 9.043,2.291 9.043,2.291 0,0 5.477,-18.196 15.667,-28.375 10.19,-10.1793 20.762,-20.7404 25.984,-16.4142 5.223,4.3262 -4.076,15.1422 -10.062,20.6132 -5.987,5.471 -16.177,13.488 -19.87,18.068 -3.694,4.581 -6.624,9.543 -6.624,9.543 0,0 7.515,5.217 10.19,13.87 2.548,8.652 1.401,18.704 -1.401,22.649 -2.802,3.944 -8.789,6.107 -11.846,5.725 -2.547,-0.254 -13.501,0.637 -13.501,0.637 z"
         fill="#ffffff"
         id="path196" />
      <path
         d="m 675.528,130.476 c 0,0 8.916,-15.397 16.049,-23.667 7.133,-8.2711 15.667,-14.2514 17.832,-12.47 2.165,1.7814 -6.241,9.416 -14.011,16.796 -7.77,7.38 -17.832,20.995 -17.832,20.995 z"
         fill="#dd00a1"
         id="path198" />
      <path
         d="m 649.799,129.203 2.037,-1.145 c 0,0 2.421,-16.414 4.204,-26.339 1.783,-9.9248 4.33,-22.2673 1.019,-22.649 -3.312,-0.3817 -7.26,8.7797 -8.152,22.649 -0.892,13.869 0.892,27.484 0.892,27.484 z"
         fill="#dd00a1"
         id="path200" />
      <path
         d="m 639.099,163.558 c 2.04,0 3.694,-1.652 3.694,-3.69 0,-2.038 -1.654,-3.69 -3.694,-3.69 -2.04,0 -3.694,1.652 -3.694,3.69 0,2.038 1.654,3.69 3.694,3.69 z"
         fill="#f9d8d2"
         id="path202" />
      <path
         d="m 682.279,170.557 c 2.04,0 3.693,-1.653 3.693,-3.69 0,-2.038 -1.653,-3.69 -3.693,-3.69 -2.04,0 -3.694,1.652 -3.694,3.69 0,2.037 1.654,3.69 3.694,3.69 z"
         fill="#f9d8d2"
         id="path204" />
      <path
         d="m 666.867,164.067 c -0.128,-0.127 -0.383,-0.127 -0.51,0 0,0 -1.401,1.654 -2.93,1.527 -1.401,-0.127 -2.42,-1.399 -2.674,-1.781 l 0.509,-2.8 c 1.146,-0.381 3.057,-1.781 3.057,-2.417 0.127,-0.764 -0.637,-2.163 -2.547,-2.545 -1.911,-0.382 -3.44,0.763 -3.567,1.781 -0.127,0.891 1.656,2.672 2.165,3.181 l -0.382,2.8 c -0.254,0.254 -1.401,1.145 -2.674,0.89 -1.529,-0.254 -2.293,-2.417 -2.293,-2.544 -0.128,-0.128 -0.255,-0.255 -0.51,-0.255 -0.127,0.127 -0.254,0.255 -0.254,0.509 0,0.127 0.891,2.672 2.929,2.927 1.401,0.254 2.548,-0.509 3.057,-0.891 0.382,0.509 1.401,1.654 2.802,1.909 0.128,0 0.128,0 0.255,0 2.038,0.127 3.567,-1.782 3.567,-1.782 0.127,-0.254 0.127,-0.382 0,-0.509 z"
         fill="#10110e"
         id="path206" />
      <path
         d="m 647.888,129.967 c 0,0 -3.057,-13.997 -3.057,-21.123 0,-7.125 1.019,-18.704 3.694,-26.2112 2.675,-7.5073 3.948,-10.0521 3.948,-10.0521 0,0 -5.349,17.4321 -5.731,25.4483 -0.383,8.016 1.146,31.938 1.146,31.938 z"
         fill="#e5e5e5"
         id="path208" />
      <path
         d="m 674.127,130.094 c 0,0 6.878,-19.341 13.756,-26.339 6.751,-6.9984 15.03,-15.3964 18.979,-17.1777 3.821,-1.9087 3.821,-1.9087 3.821,-1.9087 0,0 -16.177,12.2152 -23.437,23.2854 -7.387,11.197 -13.119,22.14 -13.119,22.14 z"
         fill="#e5e5e5"
         id="path210" />
      <path
         d="m 648.397,149.18 c -1.528,-0.254 -3.057,0.763 -3.311,2.418 -0.255,1.526 0.764,3.053 2.42,3.308 1.528,0.254 3.057,-0.764 3.311,-2.418 0.255,-1.527 -0.764,-3.054 -2.42,-3.308 z m 0.382,2.799 c -0.382,-0.127 -0.764,-0.509 -0.636,-0.89 0.127,-0.382 0.509,-0.764 0.891,-0.637 0.382,0.128 0.764,0.509 0.637,0.891 0,0.382 -0.382,0.636 -0.892,0.636 z"
         fill="#10110e"
         id="path212" />
      <path
         d="m 676.674,153.761 c -1.528,-0.255 -3.057,0.763 -3.311,2.417 -0.255,1.527 0.764,3.054 2.42,3.309 1.528,0.254 3.057,-0.764 3.311,-2.418 0.128,-1.654 -0.891,-3.054 -2.42,-3.308 z m 0.382,2.672 c -0.382,-0.127 -0.764,-0.509 -0.637,-0.891 0.128,-0.382 0.51,-0.763 0.892,-0.636 0.382,0.127 0.764,0.509 0.637,0.891 -0.127,0.509 -0.51,0.763 -0.892,0.636 z"
         fill="#10110e"
         id="path214" />
      <path
         opacity="0.2"
         d="m 688.909,159.774 c 1.703,-10.545 -8.795,-21.008 -23.448,-23.37 -14.653,-2.362 -27.912,4.271 -29.615,14.816 -1.704,10.545 8.794,21.008 23.447,23.37 14.653,2.362 27.913,-4.271 29.616,-14.816 z"
         fill="#8accce"
         id="path216" />
      <path
         d="m 696.29,150.071 2.038,-12.724 c 2.165,-0.255 3.948,-1.655 4.33,-3.69 0.382,-2.418 -1.528,-4.836 -4.203,-5.217 -2.675,-0.382 -5.35,1.272 -5.732,3.69 -0.382,2.036 0.892,3.944 2.93,4.835 l -2.038,12.342 h -0.382 c -1.656,-13.615 -11.464,-23.539 -25.984,-25.957 -14.521,-2.29 -27.003,3.944 -32.863,16.414 l -1.273,-0.254 c -2.93,-0.509 -5.732,1.272 -6.242,3.944 l -1.528,9.798 c -0.382,2.672 1.656,5.217 4.585,5.726 l 1.656,0.254 c 0.892,3.945 2.548,7.507 5.222,10.688 l -1.401,0.891 -1.401,0.891 c -0.764,0.509 -1.019,1.399 -0.509,2.036 4.458,7.507 12.864,12.851 23.054,14.505 10.19,1.654 19.87,-0.763 26.494,-6.616 0.637,-0.509 0.764,-1.527 0.127,-2.164 l -2.038,-2.544 c 3.439,-2.163 6.242,-5.09 8.279,-8.526 l 1.911,0.255 c 2.93,0.509 5.732,-1.272 6.241,-3.945 l 1.529,-9.797 c 0.509,-1.909 -0.764,-3.945 -2.802,-4.835 z m -31.207,-12.979 c 13.502,2.163 22.927,12.724 21.272,23.667 -1.911,11.706 -15.03,15.014 -27.131,13.106 -12.1,-1.909 -23.564,-9.162 -21.653,-20.995 1.656,-10.816 14.011,-17.941 27.512,-15.778 z"
         fill="#ffffff"
         id="path218" />
      <path
         d="m 696.799,163.94 -5.477,-0.891 c 0.127,-0.89 0.382,-1.654 0.51,-2.672 0.636,-3.817 0.764,-7.38 0.636,-10.943 l 2.293,0.382 c 2.293,0.382 3.821,2.291 3.439,4.326 z"
         fill="#cecece"
         id="path220" />
      <path
         d="m 692.468,167.376 -2.547,-0.382 c 0.764,-1.654 1.401,-3.563 2.038,-5.344 l 5.222,0.89 -0.382,2.163 c -0.382,1.782 -2.293,2.927 -4.331,2.673 z"
         fill="#cecece"
         id="path222" />
      <path
         d="m 631.075,139.128 2.038,0.382 c -1.019,2.799 -1.911,5.853 -2.42,8.907 -0.128,0.763 -0.255,1.399 -0.255,2.29 l -4.586,-0.764 1.274,-8.27 c 0.255,-1.782 2.038,-2.8 3.949,-2.545 z"
         fill="#cecece"
         id="path224" />
      <path
         d="m 665.083,135.565 c -3.566,-0.509 -7.133,-0.509 -10.444,0 l 2.038,-12.469 c 3.311,-0.509 6.75,-0.509 10.317,0.127 3.694,0.636 6.878,1.654 9.935,3.181 l -2.038,12.469 c -2.93,-1.526 -6.241,-2.672 -9.808,-3.308 z"
         fill="#f8b600"
         id="path226" />
      <path
         d="m 655.785,125.768 -1.656,9.924 c -9.553,1.909 -17.068,8.271 -18.469,16.924 -1.783,11.07 7.515,20.358 23.182,22.903 15.667,2.545 27.385,-3.181 29.168,-14.378 1.402,-8.653 -3.693,-17.051 -12.227,-21.886 l 1.655,-9.925 c 9.936,5.472 15.03,16.287 12.865,29.266 -2.42,14.633 -15.157,22.649 -31.97,19.85 -16.814,-2.673 -26.367,-14.379 -24.074,-29.011 2.165,-12.852 10.317,-21.504 21.526,-23.667 z"
         fill="#cecece"
         id="path228" />
      <path
         d="m 625.852,149.943 4.458,0.764 c -0.254,2.799 -0.382,5.599 -0.382,8.271 l -2.292,-0.382 c -1.784,-0.255 -2.803,-2.672 -2.42,-5.344 z"
         fill="#cecece"
         id="path230" />
      <path
         d="m 701.668,133.514 c 0.314,-1.943 -1.177,-3.799 -3.33,-4.146 -2.153,-0.347 -4.152,0.946 -4.466,2.889 -0.314,1.942 1.177,3.798 3.33,4.145 2.153,0.347 4.152,-0.946 4.466,-2.888 z"
         fill="#cecece"
         id="path232" />
      <path
         d="m 634.514,171.574 c 0,0 -7.897,3.436 -12.228,7.38 -4.331,3.818 -8.916,9.671 -10.445,14.76 -1.528,5.217 0.255,6.617 1.402,7.762 1.146,1.145 5.604,2.8 11.208,-1.908 5.477,-4.708 4.458,-4.327 4.458,-4.327 0,0 -1.401,12.343 -0.382,20.613 1.019,8.271 2.548,20.359 10.19,20.995 7.515,0.637 7.26,-7.507 7.897,-9.288 0.637,-1.782 2.675,-2.291 4.204,-2.036 1.528,0.254 4.33,0.891 4.33,5.217 0,4.453 -3.311,7.634 3.821,9.288 7.133,1.654 11.719,-7.38 16.559,-17.432 4.84,-10.052 7.005,-20.231 7.005,-20.231 0,0 14.648,-7.507 19.743,-12.724 5.095,-5.217 9.044,-8.653 7.515,-13.615 -1.528,-4.962 -6.623,-5.344 -11.209,-3.945 -4.585,1.4 -13.883,5.09 -13.883,5.09 l -2.548,1.145 0.255,2.927 c 0,0 -12.61,8.907 -23.819,6.616 -11.209,-2.29 -21.144,-10.942 -21.144,-10.942 z"
         fill="#ffffff"
         id="path234" />
      <path
         d="m 625.343,176.41 c 0,0 -2.548,1.654 -3.821,2.926 -0.764,0.764 -3.567,3.563 -3.567,3.563 0,0 2.166,3.69 3.822,3.69 1.655,0 2.929,-1.781 4.33,-2.927 1.401,-1.145 2.166,-1.526 2.548,-2.926 0.254,-1.145 -3.312,-4.326 -3.312,-4.326 z"
         fill="#dd00a1"
         id="path236" />
      <path
         d="m 684.953,176.791 8.28,-3.053 c 0,0 3.311,1.908 3.057,2.672 -0.255,0.89 -3.694,2.417 -4.586,2.672 -0.891,0.254 -2.292,1.145 -3.184,1.018 -0.764,-0.255 -3.567,-3.309 -3.567,-3.309 z"
         fill="#dd00a1"
         id="path238" />
      <path
         d="m 665.465,202.749 -0.382,2.417 15.03,5.853 0.637,-2.29 z"
         fill="#000000"
         id="path240" />
      <path
         d="m 644.067,199.313 -0.382,2.418 -15.54,0.89 0.128,-2.29 z"
         fill="#000000"
         id="path242" />
      <path
         d="m 665.083,205.166 -2.802,4.072 -11.463,-0.763 c 0,0 5.859,3.435 10.062,3.69 4.203,0.254 2.93,-1.909 5.222,-2.927 2.293,-1.018 14.011,1.781 14.011,1.781"
         fill="#cecece"
         id="path244" />
      <path
         d="m 647.888,193.842 16.176,2.545 c 0,0 1.019,0.636 1.401,1.145 0.383,0.636 0.51,1.527 0.51,1.527 l -1.529,9.797 c 0,0 -0.509,1.145 -1.019,1.527 -0.636,0.382 -1.528,0.764 -1.528,0.764 l -16.304,-2.673 c 0,0 -1.019,-0.254 -1.528,-1.017 -0.51,-0.764 -0.764,-1.782 -0.764,-1.782 l 1.528,-10.306 c 0,0 0.127,-0.891 1.401,-1.4 0.637,-0.127 1.656,-0.127 1.656,-0.127 z"
         fill="#f8b600"
         id="path246" />
      <path
         d="m 661.389,202.367 -12.737,-2.036 c -0.382,-0.127 -0.764,-0.509 -0.637,-0.891 l 0.128,-0.381 c 0.127,-0.382 0.509,-0.764 0.891,-0.637 l 12.738,2.036 c 0.382,0.128 0.764,0.509 0.636,0.891 l -0.127,0.382 c -0.127,0.381 -0.509,0.763 -0.892,0.636 z"
         fill="#ffffff"
         id="path248" />
      <path
         d="m 654.002,207.075 c 0.774,0 1.401,-0.627 1.401,-1.4 0,-0.773 -0.627,-1.399 -1.401,-1.399 -0.774,0 -1.401,0.626 -1.401,1.399 0,0.773 0.627,1.4 1.401,1.4 z"
         fill="#ffffff"
         id="path250" />
      <path
         d="m 659.479,207.838 c 0.774,0 1.401,-0.626 1.401,-1.399 0,-0.773 -0.627,-1.4 -1.401,-1.4 -0.774,0 -1.401,0.627 -1.401,1.4 0,0.773 0.627,1.399 1.401,1.399 z"
         fill="#ffffff"
         id="path252" />
      <path
         d="m 648.397,206.057 c 0.774,0 1.402,-0.627 1.402,-1.4 0,-0.773 -0.628,-1.399 -1.402,-1.399 -0.773,0 -1.401,0.626 -1.401,1.399 0,0.773 0.628,1.4 1.401,1.4 z"
         fill="#ffffff"
         id="path254" />
      <path
         d="m 656.804,185.826 c -10.062,-1.655 -18.469,-6.744 -23.182,-13.997 l 3.185,-2.036 c 4.967,4.835 12.1,8.398 20.889,9.798 8.788,1.399 17.068,0.636 23.436,-2.418 l 2.293,2.545 c -6.623,5.471 -16.558,7.762 -26.621,6.108 z"
         fill="#cecece"
         id="path256" />
      <path
         d="m 655.912,195.75 c 0,0 -7.387,-1.272 -7.769,-1.272 -0.382,0 -1.656,-0.127 -2.166,0.382 -0.509,0.509 -0.636,0.636 -0.636,1.018 -0.128,0.381 -1.019,6.107 -1.019,6.107 0,0 1.273,-5.471 2.292,-6.362 1.401,-0.891 9.298,0.127 9.298,0.127 z"
         fill="#d69a03"
         id="path258" />
      <path
         d="m 696.162,135.311 -2.42,15.65 4.331,-15.396 z"
         fill="#cecece"
         id="path260" />
      <path
         d="m 642.793,202.112 -14.775,0.637 c 0,0 -0.637,8.652 0.509,15.396 1.147,6.744 2.42,12.215 3.567,13.869 1.019,1.654 0.382,-1.018 3.566,-2.672 3.184,-1.654 3.567,-1.781 3.567,-1.781 0,0 -6.242,-11.961 -5.605,-16.796 0.637,-4.835 9.171,-8.653 9.171,-8.653 z"
         fill="#cecece"
         id="path262" />
      <path
         d="m 628.782,195.241 4.713,-4.453 c 0,0 -1.656,5.98 -0.51,6.998 1.147,1.018 10.318,1.527 10.318,1.527 l -15.03,0.891 z"
         fill="#cecece"
         id="path264" />
      <path
         d="m 655.912,123.223 c 0,0 -8.406,0.509 -14.902,7.125 -6.496,6.617 -6.751,9.289 -6.751,9.289 0,0 -2.038,6.998 -2.293,12.979 -0.254,5.98 0.128,13.105 5.605,17.813 5.477,4.708 16.431,9.925 27.258,9.671 10.954,-0.255 12.1,-1.273 12.1,-1.273 0,0 -25.857,0.127 -34.263,-7.507 -8.407,-7.634 -7.897,-12.851 -7.261,-18.704 0.765,-5.854 3.057,-13.106 8.407,-15.142 5.477,-2.036 10.19,-2.927 10.19,-2.927 z"
         fill="#cecece"
         id="path266" />
      <path
         d="m 682.151,202.367 0.765,-4.326 c 0,0 11.463,-5.472 16.685,-8.271 5.095,-2.799 5.86,-3.563 5.86,-3.563 0,0 -6.751,6.871 -12.865,10.434 -6.114,3.436 -10.445,5.726 -10.445,5.726 z"
         fill="#cecece"
         id="path268" />
      <path
         d="m 652.091,225.907 c 0,0 1.274,0 1.911,1.526 0.637,1.527 0.764,4.836 0.764,4.836 0,0 1.783,-0.637 4.458,-0.255 2.675,0.382 4.076,1.527 4.076,1.527 0,0 -2.93,-4.453 -4.713,-6.744 -1.783,-2.29 -6.496,-0.89 -6.496,-0.89 z"
         fill="#cecece"
         id="path270" />
      <path
         d="m 619.739,185.444 -1.656,-2.291 c 0,0 -4.331,5.599 -5.35,8.144 -1.019,2.545 -1.401,4.326 -1.401,4.326 0,0 4.84,-10.306 8.407,-10.179 z"
         fill="#cecece"
         id="path272" />
      <path
         d="m 634.514,171.574 -9.171,4.836 1.528,1.527 8.662,-4.327 z"
         fill="#cecece"
         id="path274" />
      <path
         d="m 625.343,176.41 -2.675,2.036 -4.713,4.58 1.529,2.291 7.387,-7.38 z"
         fill="#b20088"
         id="path276" />
      <path
         d="m 674.636,179.336 c 0,0 -10.572,1.654 -17.195,0.127 -6.623,-1.526 -14.648,-5.344 -16.559,-6.489 -1.91,-1.145 -2.802,-2.036 -2.802,-2.036 l -1.656,-0.254 -0.509,0.509 c 0,0 3.566,3.817 10.445,6.489 6.878,2.799 13.119,4.454 19.105,3.817 6.114,-0.509 9.171,-2.163 9.171,-2.163 z"
         fill="#b20088"
         id="path278" />
    </g>
  </g>
  <defs
     id="defs290">
    <clipPath
       id="clip0_2_39">
      <rect
         width="1475"
         height="463"
         fill="#ffffff"
         id="rect284"
         x="0"
         y="0" />
    </clipPath>
    <clipPath
       id="clip1_2_39">
      <rect
         width="416"
         height="369"
         fill="#ffffff"
         transform="translate(305,68)"
         id="rect287"
         x="0"
         y="0" />
    </clipPath>
  </defs>
</svg>
