<svg width="1475" height="463" viewBox="0 0 1475 463" fill="none" xmlns="http://www.w3.org/2000/svg">
<g clip-path="url(#clip0_2_39)">
<path d="M1475 0H0V463H1475V0Z" fill="#000033"/>
<path opacity="0.6" d="M167.785 0C167.785 0 11.2217 122.279 117.18 143.433C223.138 164.586 436.889 84.6135 489.545 137.605C542.2 190.596 369.128 248.121 383.263 263.446C397.398 278.771 721.207 207.001 715.38 263.446C709.446 319.891 160.772 377.523 118.367 396.302C75.962 415.081 1.07901 446.272 1.07901 446.272V0H167.785Z" fill="#121259"/>
<path opacity="0.6" d="M849.501 0C849.501 0 644.598 131.669 708.151 144.62C771.704 157.571 963.659 207.001 921.255 246.933C878.85 286.974 725.307 299.817 737.932 331.655C750.556 363.493 1226.94 380.005 1263.95 406.879C1300.96 433.86 1474.89 463 1474.89 463V0H849.501Z" fill="#121259"/>
<path d="M26.4356 77.5984C35.6072 72.0942 19.4221 186.927 93.5498 197.611C167.785 208.188 382.076 172.897 379.702 180.02C377.328 187.035 197.134 240.026 226.591 262.367C256.048 284.707 333.736 295.284 369.128 300.033C404.519 304.781 590.539 281.254 590.539 281.254C590.539 281.254 114.806 349.462 98.2974 360.039C81.7886 370.616 25.2487 398.892 26.4356 403.533C27.6225 408.282 117.072 314.171 99.4843 287.082C81.8965 259.992 -3.02119 95.2981 26.4356 77.5984Z" fill="#000033"/>
<path d="M946.072 58.8193C946.072 58.8193 817.67 90.5494 866.01 123.467C914.349 156.384 1036.71 218.765 1034.44 240.458C1032.07 262.259 890.827 308.127 895.466 318.704C900.106 329.28 1174.5 355.183 1193.38 364.572C1212.26 373.962 1027.32 319.891 1045.02 305.753C1062.71 291.614 1161.55 259.561 1153.35 231.5C1145.15 203.439 935.498 132.856 928.484 117.639C921.47 102.421 959.02 71.7704 946.072 58.8193Z" fill="#000033"/>
<path opacity="0.5" d="M604.567 132.964C606.617 132.964 605.646 146.347 607.696 146.347C609.746 146.347 619.349 144.944 619.349 146.347C619.349 147.75 607.696 149.045 607.372 150.124C607.048 151.203 605.969 161.133 604.674 161.78C603.272 162.428 604.674 152.822 602.948 151.851C601.222 150.88 590.216 150.772 590.539 149.153C590.863 147.426 601.545 148.505 602.193 145.052C602.84 141.49 604.567 132.964 604.567 132.964Z" fill="#98C9EA"/>
<path opacity="0.8" d="M1187.23 129.942C1188.2 129.942 1187.77 136.418 1188.74 136.418C1189.71 136.418 1194.46 135.77 1194.46 136.418C1194.46 137.065 1188.74 137.713 1188.63 138.252C1188.42 138.792 1187.98 143.649 1187.34 143.972C1186.69 144.296 1187.34 139.655 1186.47 139.116C1185.61 138.576 1180.22 138.576 1180.43 137.821C1180.65 136.957 1185.83 137.497 1186.15 135.77C1186.37 134.043 1187.23 129.942 1187.23 129.942Z" fill="#98C9EA"/>
<path opacity="0.8" d="M1154.64 290.211C1155.61 290.211 1155.18 296.687 1156.15 296.687C1157.13 296.687 1161.87 296.039 1161.87 296.687C1161.87 297.335 1156.15 297.982 1156.05 298.522C1155.83 299.061 1155.4 303.918 1154.75 304.242C1154.1 304.566 1154.75 299.925 1153.89 299.385C1153.02 298.845 1147.63 298.845 1147.85 298.09C1148.06 297.227 1153.24 297.766 1153.56 296.039C1153.78 294.421 1154.64 290.211 1154.64 290.211Z" fill="#98C9EA"/>
<path d="M954.596 30.8667C955.567 30.8667 955.135 37.3422 956.106 37.3422C957.077 37.3422 961.825 36.6946 961.825 37.3422C961.825 37.9897 956.106 38.6373 955.998 39.1769C955.783 39.7166 955.351 44.5732 954.704 44.897C954.056 45.2207 954.704 40.58 953.84 40.0403C952.977 39.5007 947.582 39.5007 947.798 38.7452C948.014 37.9897 953.193 38.4214 953.517 36.6946C953.733 35.0758 954.596 30.8667 954.596 30.8667Z" fill="#98C9EA"/>
<path opacity="0.5" d="M232.094 365.651C234.144 365.651 233.173 379.034 235.223 379.034C237.273 379.034 246.876 377.631 246.876 379.034C246.876 380.437 235.223 381.732 234.899 382.811C234.576 383.891 233.497 393.82 232.202 394.467C230.799 395.115 232.202 385.51 230.475 384.538C228.749 383.459 217.743 383.459 218.067 381.84C218.391 380.221 229.073 381.193 229.72 377.739C230.368 374.177 232.094 365.651 232.094 365.651Z" fill="#98C9EA"/>
<path opacity="0.5" d="M128.294 127.028C129.265 127.028 128.833 133.504 129.804 133.504C130.775 133.504 135.523 132.856 135.523 133.504C135.523 134.151 129.804 134.799 129.696 135.338C129.589 135.878 129.049 140.735 128.402 141.059C127.754 141.382 128.402 136.741 127.538 136.202C126.675 135.662 121.28 135.662 121.496 134.907C121.712 134.043 126.891 134.583 127.215 132.856C127.538 131.237 128.294 127.028 128.294 127.028Z" fill="#98C9EA"/>
<path d="M147.824 318.812C149.194 318.812 150.305 317.749 150.305 316.437C150.305 315.126 149.194 314.063 147.824 314.063C146.453 314.063 145.342 315.126 145.342 316.437C145.342 317.749 146.453 318.812 147.824 318.812Z" fill="white"/>
<path d="M220.98 118.934C222.589 118.934 223.894 117.629 223.894 116.02C223.894 114.41 222.589 113.106 220.98 113.106C219.371 113.106 218.067 114.41 218.067 116.02C218.067 117.629 219.371 118.934 220.98 118.934Z" fill="white"/>
<path d="M361.79 286.65C363.757 286.65 365.351 285.055 365.351 283.088C365.351 281.121 363.757 279.527 361.79 279.527C359.824 279.527 358.23 281.121 358.23 283.088C358.23 285.055 359.824 286.65 361.79 286.65Z" fill="white"/>
<path d="M404.951 166.853C406.381 166.853 407.54 165.693 407.54 164.262C407.54 162.832 406.381 161.672 404.951 161.672C403.52 161.672 402.361 162.832 402.361 164.262C402.361 165.693 403.52 166.853 404.951 166.853Z" fill="white"/>
<path d="M404.951 75.6557C406.381 75.6557 407.54 74.496 407.54 73.0655C407.54 71.635 406.381 70.4753 404.951 70.4753C403.52 70.4753 402.361 71.635 402.361 73.0655C402.361 74.496 403.52 75.6557 404.951 75.6557Z" fill="white"/>
<path d="M532.705 212.181C534.314 212.181 535.618 210.877 535.618 209.267C535.618 207.658 534.314 206.353 532.705 206.353C531.096 206.353 529.792 207.658 529.792 209.267C529.792 210.877 531.096 212.181 532.705 212.181Z" fill="white"/>
<path d="M495.695 115.372C497.304 115.372 498.608 114.068 498.608 112.458C498.608 110.849 497.304 109.544 495.695 109.544C494.086 109.544 492.782 110.849 492.782 112.458C492.782 114.068 494.086 115.372 495.695 115.372Z" fill="white"/>
<path d="M779.042 127.136C780.293 127.136 781.308 126.121 781.308 124.87C781.308 123.618 780.293 122.603 779.042 122.603C777.79 122.603 776.776 123.618 776.776 124.87C776.776 126.121 777.79 127.136 779.042 127.136Z" fill="white"/>
<path d="M791.019 62.4888C792.032 62.4888 792.853 61.6674 792.853 60.6541C792.853 59.6408 792.032 58.8193 791.019 58.8193C790.006 58.8193 789.184 59.6408 789.184 60.6541C789.184 61.6674 790.006 62.4888 791.019 62.4888Z" fill="white"/>
<path d="M674.81 42.3068C676.002 42.3068 676.968 41.3404 676.968 40.1483C676.968 38.9561 676.002 37.9897 674.81 37.9897C673.618 37.9897 672.652 38.9561 672.652 40.1483C672.652 41.3404 673.618 42.3068 674.81 42.3068Z" fill="white"/>
<path d="M568.744 77.3825C569.935 77.3825 570.902 76.4161 570.902 75.224C570.902 74.0319 569.935 73.0655 568.744 73.0655C567.552 73.0655 566.586 74.0319 566.586 75.224C566.586 76.4161 567.552 77.3825 568.744 77.3825Z" fill="white"/>
<path d="M652.367 359.823C653.32 359.823 654.093 359.05 654.093 358.097C654.093 357.143 653.32 356.37 652.367 356.37C651.413 356.37 650.64 357.143 650.64 358.097C650.64 359.05 651.413 359.823 652.367 359.823Z" fill="white"/>
<path d="M582.231 420.046C583.781 420.046 585.037 418.789 585.037 417.24C585.037 415.69 583.781 414.434 582.231 414.434C580.682 414.434 579.426 415.69 579.426 417.24C579.426 418.789 580.682 420.046 582.231 420.046Z" fill="white"/>
<path d="M996.245 322.049C997.795 322.049 999.051 320.793 999.051 319.243C999.051 317.694 997.795 316.437 996.245 316.437C994.696 316.437 993.44 317.694 993.44 319.243C993.44 320.793 994.696 322.049 996.245 322.049Z" fill="white"/>
<path d="M1040.92 424.255C1042.88 424.255 1044.48 422.66 1044.48 420.693C1044.48 418.726 1042.88 417.132 1040.92 417.132C1038.95 417.132 1037.36 418.726 1037.36 420.693C1037.36 422.66 1038.95 424.255 1040.92 424.255Z" fill="white"/>
<path d="M1154.86 329.065C1156.83 329.065 1158.42 327.47 1158.42 325.503C1158.42 323.536 1156.83 321.941 1154.86 321.941C1152.89 321.941 1151.3 323.536 1151.3 325.503C1151.3 327.47 1152.89 329.065 1154.86 329.065Z" fill="white"/>
<path d="M288.418 252.761C289.61 252.761 290.576 251.795 290.576 250.603C290.576 249.411 289.61 248.444 288.418 248.444C287.226 248.444 286.26 249.411 286.26 250.603C286.26 251.795 287.226 252.761 288.418 252.761Z" fill="white"/>
<path d="M1124.32 73.1734C1125.04 73.1734 1125.62 72.5936 1125.62 71.8783C1125.62 71.1631 1125.04 70.5832 1124.32 70.5832C1123.61 70.5832 1123.03 71.1631 1123.03 71.8783C1123.03 72.5936 1123.61 73.1734 1124.32 73.1734Z" fill="white"/>
<path d="M1073.61 223.082C1075.04 223.082 1076.2 221.922 1076.2 220.492C1076.2 219.061 1075.04 217.901 1073.61 217.901C1072.18 217.901 1071.02 219.061 1071.02 220.492C1071.02 221.922 1072.18 223.082 1073.61 223.082Z" fill="#F88600"/>
<path d="M487.602 350.65C489.152 350.65 490.408 349.393 490.408 347.844C490.408 346.294 489.152 345.038 487.602 345.038C486.053 345.038 484.797 346.294 484.797 347.844C484.797 349.393 486.053 350.65 487.602 350.65Z" fill="white"/>
<path d="M928.268 398.784C929.46 398.784 930.426 397.818 930.426 396.626C930.426 395.434 929.46 394.467 928.268 394.467C927.076 394.467 926.11 395.434 926.11 396.626C926.11 397.818 927.076 398.784 928.268 398.784Z" fill="white"/>
<path d="M744.406 334.785C746.015 334.785 747.319 333.48 747.319 331.871C747.319 330.261 746.015 328.957 744.406 328.957C742.797 328.957 741.492 330.261 741.492 331.871C741.492 333.48 742.797 334.785 744.406 334.785Z" fill="white"/>
<path d="M439.263 347.196C440.455 347.196 441.421 346.23 441.421 345.038C441.421 343.845 440.455 342.879 439.263 342.879C438.071 342.879 437.105 343.845 437.105 345.038C437.105 346.23 438.071 347.196 439.263 347.196Z" fill="white"/>
<path d="M235.007 192.971C236.438 192.971 237.597 191.811 237.597 190.38C237.597 188.95 236.438 187.79 235.007 187.79C233.577 187.79 232.418 188.95 232.418 190.38C232.418 191.811 233.577 192.971 235.007 192.971Z" fill="white"/>
<path d="M322.515 236.249C323.826 236.249 324.888 235.186 324.888 233.874C324.888 232.563 323.826 231.5 322.515 231.5C321.204 231.5 320.141 232.563 320.141 233.874C320.141 235.186 321.204 236.249 322.515 236.249Z" fill="white"/>
<path d="M275.146 298.953C276.1 298.953 276.873 298.18 276.873 297.227C276.873 296.273 276.1 295.5 275.146 295.5C274.193 295.5 273.42 296.273 273.42 297.227C273.42 298.18 274.193 298.953 275.146 298.953Z" fill="white"/>
<path d="M33.8808 226.212C34.715 226.212 35.3914 225.535 35.3914 224.701C35.3914 223.866 34.715 223.19 33.8808 223.19C33.0465 223.19 32.3701 223.866 32.3701 224.701C32.3701 225.535 33.0465 226.212 33.8808 226.212Z" fill="white"/>
<path d="M157.319 30.7587C158.511 30.7587 159.477 29.7923 159.477 28.6002C159.477 27.4081 158.511 26.4417 157.319 26.4417C156.127 26.4417 155.161 27.4081 155.161 28.6002C155.161 29.7923 156.127 30.7587 157.319 30.7587Z" fill="white"/>
<path d="M270.291 42.3068C271.483 42.3068 272.449 41.3404 272.449 40.1483C272.449 38.9561 271.483 37.9897 270.291 37.9897C269.099 37.9897 268.133 38.9561 268.133 40.1483C268.133 41.3404 269.099 42.3068 270.291 42.3068Z" fill="white"/>
<path d="M67.8694 75.224C68.4653 75.224 68.9484 74.7408 68.9484 74.1447C68.9484 73.5487 68.4653 73.0655 67.8694 73.0655C67.2735 73.0655 66.7904 73.5487 66.7904 74.1447C66.7904 74.7408 67.2735 75.224 67.8694 75.224Z" fill="white"/>
<path d="M780.229 409.685C780.824 409.685 781.308 409.202 781.308 408.606C781.308 408.01 780.824 407.526 780.229 407.526C779.633 407.526 779.15 408.01 779.15 408.606C779.15 409.202 779.633 409.685 780.229 409.685Z" fill="white"/>
<path d="M1260.6 65.6187C1261.5 65.6187 1262.22 64.8939 1262.22 63.9998C1262.22 63.1057 1261.5 62.3809 1260.6 62.3809C1259.71 62.3809 1258.98 63.1057 1258.98 63.9998C1258.98 64.8939 1259.71 65.6187 1260.6 65.6187Z" fill="white"/>
<path d="M1384.47 92.0604C1387.57 92.0604 1390.08 89.5477 1390.08 86.4482C1390.08 83.3487 1387.57 80.8361 1384.47 80.8361C1381.37 80.8361 1378.86 83.3487 1378.86 86.4482C1378.86 89.5477 1381.37 92.0604 1384.47 92.0604Z" fill="white"/>
<path d="M206.306 418.751C209.405 418.751 211.917 416.238 211.917 413.138C211.917 410.039 209.405 407.526 206.306 407.526C203.207 407.526 200.695 410.039 200.695 413.138C200.695 416.238 203.207 418.751 206.306 418.751Z" fill="white"/>
<path d="M1343.79 266.36C1344.75 266.36 1345.52 265.587 1345.52 264.633C1345.52 263.679 1344.75 262.906 1343.79 262.906C1342.84 262.906 1342.07 263.679 1342.07 264.633C1342.07 265.587 1342.84 266.36 1343.79 266.36Z" fill="white"/>
<path d="M1342.93 342.879C1343.41 342.879 1343.79 342.492 1343.79 342.016C1343.79 341.539 1343.41 341.152 1342.93 341.152C1342.45 341.152 1342.07 341.539 1342.07 342.016C1342.07 342.492 1342.45 342.879 1342.93 342.879Z" fill="white"/>
<path d="M1228.12 297.335C1229.61 297.335 1230.82 296.127 1230.82 294.636C1230.82 293.146 1229.61 291.938 1228.12 291.938C1226.63 291.938 1225.43 293.146 1225.43 294.636C1225.43 296.127 1226.63 297.335 1228.12 297.335Z" fill="white"/>
<path d="M1237.19 396.626C1237.78 396.626 1238.27 396.143 1238.27 395.547C1238.27 394.951 1237.78 394.467 1237.19 394.467C1236.59 394.467 1236.11 394.951 1236.11 395.547C1236.11 396.143 1236.59 396.626 1237.19 396.626Z" fill="white"/>
<path d="M1087.21 372.882C1088.1 372.882 1088.82 372.157 1088.82 371.263C1088.82 370.369 1088.1 369.645 1087.21 369.645C1086.31 369.645 1085.59 370.369 1085.59 371.263C1085.59 372.157 1086.31 372.882 1087.21 372.882Z" fill="white"/>
<path d="M1179.46 391.661C1180.06 391.661 1180.54 391.178 1180.54 390.582C1180.54 389.986 1180.06 389.503 1179.46 389.503C1178.86 389.503 1178.38 389.986 1178.38 390.582C1178.38 391.178 1178.86 391.661 1179.46 391.661Z" fill="white"/>
<path d="M1233.95 351.405C1235.74 351.405 1237.19 350.004 1237.19 348.275C1237.19 346.547 1235.74 345.145 1233.95 345.145C1232.16 345.145 1230.71 346.547 1230.71 348.275C1230.71 350.004 1232.16 351.405 1233.95 351.405Z" fill="white"/>
<path d="M1284.56 390.582C1285.99 390.582 1287.15 389.422 1287.15 387.992C1287.15 386.561 1285.99 385.402 1284.56 385.402C1283.13 385.402 1281.97 386.561 1281.97 387.992C1281.97 389.422 1283.13 390.582 1284.56 390.582Z" fill="white"/>
<path d="M1348.76 420.693C1350.48 420.693 1351.89 419.292 1351.89 417.563C1351.89 415.835 1350.48 414.434 1348.76 414.434C1347.03 414.434 1345.63 415.835 1345.63 417.563C1345.63 419.292 1347.03 420.693 1348.76 420.693Z" fill="white"/>
<path d="M1420.29 341.152C1422.08 341.152 1423.53 339.703 1423.53 337.914C1423.53 336.126 1422.08 334.677 1420.29 334.677C1418.51 334.677 1417.06 336.126 1417.06 337.914C1417.06 339.703 1418.51 341.152 1420.29 341.152Z" fill="white"/>
<path d="M1433.03 49.4298C1434.99 49.4298 1436.59 47.8353 1436.59 45.8683C1436.59 43.9013 1434.99 42.3068 1433.03 42.3068C1431.06 42.3068 1429.47 43.9013 1429.47 45.8683C1429.47 47.8353 1431.06 49.4298 1433.03 49.4298Z" fill="white"/>
<path d="M1383.18 24.607C1383.89 24.607 1384.47 24.0272 1384.47 23.3119C1384.47 22.5966 1383.89 22.0168 1383.18 22.0168C1382.46 22.0168 1381.88 22.5966 1381.88 23.3119C1381.88 24.0272 1382.46 24.607 1383.18 24.607Z" fill="white"/>
<path d="M1269.45 112.027C1270.28 112.027 1270.96 111.35 1270.96 110.516C1270.96 109.681 1270.28 109.005 1269.45 109.005C1268.62 109.005 1267.94 109.681 1267.94 110.516C1267.94 111.35 1268.62 112.027 1269.45 112.027Z" fill="white"/>
<path d="M1191.98 27.4131C1193.47 27.4131 1194.67 26.2051 1194.67 24.7149C1194.67 23.2248 1193.47 22.0168 1191.98 22.0168C1190.49 22.0168 1189.28 23.2248 1189.28 24.7149C1189.28 26.2051 1190.49 27.4131 1191.98 27.4131Z" fill="white"/>
<path d="M1087.96 13.1669C1088.44 13.1669 1088.82 12.7803 1088.82 12.3035C1088.82 11.8267 1088.44 11.4401 1087.96 11.4401C1087.48 11.4401 1087.1 11.8267 1087.1 12.3035C1087.1 12.7803 1087.48 13.1669 1087.96 13.1669Z" fill="white"/>
<path d="M1439.28 237.112C1440.83 237.112 1442.09 235.856 1442.09 234.306C1442.09 232.756 1440.83 231.5 1439.28 231.5C1437.74 231.5 1436.48 232.756 1436.48 234.306C1436.48 235.856 1437.74 237.112 1439.28 237.112Z" fill="white"/>
<path d="M1407.89 223.082C1408.6 223.082 1409.18 222.502 1409.18 221.787C1409.18 221.071 1408.6 220.492 1407.89 220.492C1407.17 220.492 1406.59 221.071 1406.59 221.787C1406.59 222.502 1407.17 223.082 1407.89 223.082Z" fill="#DD00A1"/>
<path d="M583.634 308.019C584.409 308.019 585.037 307.391 585.037 306.616C585.037 305.841 584.409 305.213 583.634 305.213C582.859 305.213 582.231 305.841 582.231 306.616C582.231 307.391 582.859 308.019 583.634 308.019Z" fill="#DD00A1"/>
<path d="M548.35 394.467C549.423 394.467 550.293 393.598 550.293 392.525C550.293 391.452 549.423 390.582 548.35 390.582C547.278 390.582 546.408 391.452 546.408 392.525C546.408 393.598 547.278 394.467 548.35 394.467Z" fill="#DD00A1"/>
<path d="M328.125 92.9238C329.913 92.9238 331.362 91.4742 331.362 89.686C331.362 87.8978 329.913 86.4482 328.125 86.4482C326.338 86.4482 324.888 87.8978 324.888 89.686C324.888 91.4742 326.338 92.9238 328.125 92.9238Z" fill="#DD00A1"/>
<path d="M256.911 212.289C257.745 212.289 258.422 211.613 258.422 210.778C258.422 209.944 257.745 209.267 256.911 209.267C256.077 209.267 255.401 209.944 255.401 210.778C255.401 211.613 256.077 212.289 256.911 212.289Z" fill="#DD00A1"/>
<path d="M179.331 138.468C180.522 138.468 181.489 137.502 181.489 136.31C181.489 135.118 180.522 134.151 179.331 134.151C178.139 134.151 177.173 135.118 177.173 136.31C177.173 137.502 178.139 138.468 179.331 138.468Z" fill="#DD00A1"/>
<path d="M210.622 62.4888C213.005 62.4888 214.938 60.556 214.938 58.1718C214.938 55.7876 213.005 53.8548 210.622 53.8548C208.238 53.8548 206.306 55.7876 206.306 58.1718C206.306 60.556 208.238 62.4888 210.622 62.4888Z" fill="#DD00A1"/>
<path d="M62.1507 289.672C62.985 289.672 63.6613 288.995 63.6613 288.161C63.6613 287.326 62.985 286.65 62.1507 286.65C61.3164 286.65 60.6401 287.326 60.6401 288.161C60.6401 288.995 61.3164 289.672 62.1507 289.672Z" fill="#DD00A1"/>
<path d="M122.791 79.9727C123.506 79.9727 124.086 79.3929 124.086 78.6776C124.086 77.9624 123.506 77.3825 122.791 77.3825C122.076 77.3825 121.496 77.9624 121.496 78.6776C121.496 79.3929 122.076 79.9727 122.791 79.9727Z" fill="#DD00A1"/>
<path d="M190.444 345.038C191.279 345.038 191.955 344.361 191.955 343.527C191.955 342.692 191.279 342.016 190.444 342.016C189.61 342.016 188.934 342.692 188.934 343.527C188.934 344.361 189.61 345.038 190.444 345.038Z" fill="#DD00A1"/>
<path d="M128.402 380.113C130.845 380.113 132.826 378.132 132.826 375.688C132.826 373.245 130.845 371.263 128.402 371.263C125.958 371.263 123.978 373.245 123.978 375.688C123.978 378.132 125.958 380.113 128.402 380.113Z" fill="#DD00A1"/>
<path d="M1101.66 276.721C1102.56 276.721 1103.28 275.996 1103.28 275.102C1103.28 274.208 1102.56 273.483 1101.66 273.483C1100.77 273.483 1100.05 274.208 1100.05 275.102C1100.05 275.996 1100.77 276.721 1101.66 276.721Z" fill="#DD00A1"/>
<path d="M1273.12 210.778C1274.31 210.778 1275.28 209.812 1275.28 208.62C1275.28 207.428 1274.31 206.461 1273.12 206.461C1271.93 206.461 1270.96 207.428 1270.96 208.62C1270.96 209.812 1271.93 210.778 1273.12 210.778Z" fill="#DD00A1"/>
<path d="M834.287 255.783C835.479 255.783 836.445 254.817 836.445 253.625C836.445 252.433 835.479 251.466 834.287 251.466C833.095 251.466 832.129 252.433 832.129 253.625C832.129 254.817 833.095 255.783 834.287 255.783Z" fill="#DD00A1"/>
<path d="M1187.23 105.227C1188.06 105.227 1188.74 104.551 1188.74 103.716C1188.74 102.882 1188.06 102.205 1187.23 102.205C1186.4 102.205 1185.72 102.882 1185.72 103.716C1185.72 104.551 1186.4 105.227 1187.23 105.227Z" fill="#F88600"/>
<path d="M435.486 266.144C436.38 266.144 437.105 265.419 437.105 264.525C437.105 263.631 436.38 262.906 435.486 262.906C434.593 262.906 433.868 263.631 433.868 264.525C433.868 265.419 434.593 266.144 435.486 266.144Z" fill="#F88600"/>
<path d="M339.671 348.275C341.161 348.275 342.368 347.067 342.368 345.577C342.368 344.087 341.161 342.879 339.671 342.879C338.181 342.879 336.973 344.087 336.973 345.577C336.973 347.067 338.181 348.275 339.671 348.275Z" fill="#F88600"/>
<path d="M353.374 439.364C354.626 439.364 355.64 438.35 355.64 437.098C355.64 435.846 354.626 434.831 353.374 434.831C352.123 434.831 351.108 435.846 351.108 437.098C351.108 438.35 352.123 439.364 353.374 439.364Z" fill="#F88600"/>
<path d="M1123.68 32.1618C1124.03 32.1618 1124.32 31.8719 1124.32 31.5142C1124.32 31.1566 1124.03 30.8667 1123.68 30.8667C1123.32 30.8667 1123.03 31.1566 1123.03 31.5142C1123.03 31.8719 1123.32 32.1618 1123.68 32.1618Z" fill="#F88600"/>
<path d="M1259.85 142.677C1260.26 142.677 1260.6 142.339 1260.6 141.922C1260.6 141.505 1260.26 141.166 1259.85 141.166C1259.43 141.166 1259.09 141.505 1259.09 141.922C1259.09 142.339 1259.43 142.677 1259.85 142.677Z" fill="#F88600"/>
<path d="M1294.37 259.237C1295.33 259.237 1296.1 258.464 1296.1 257.51C1296.1 256.556 1295.33 255.783 1294.37 255.783C1293.42 255.783 1292.65 256.556 1292.65 257.51C1292.65 258.464 1293.42 259.237 1294.37 259.237Z" fill="#F88600"/>
<path d="M1085.48 140.411C1086.43 140.411 1087.21 139.638 1087.21 138.684C1087.21 137.73 1086.43 136.957 1085.48 136.957C1084.53 136.957 1083.75 137.73 1083.75 138.684C1083.75 139.638 1084.53 140.411 1085.48 140.411Z" fill="#F88600"/>
<path d="M1361.49 297.335C1362.98 297.335 1364.19 296.127 1364.19 294.636C1364.19 293.146 1362.98 291.938 1361.49 291.938C1360 291.938 1358.79 293.146 1358.79 294.636C1358.79 296.127 1360 297.335 1361.49 297.335Z" fill="#F88600"/>
<path d="M1412.85 385.402C1416.31 385.402 1419.11 382.599 1419.11 379.142C1419.11 375.685 1416.31 372.882 1412.85 372.882C1409.39 372.882 1406.59 375.685 1406.59 379.142C1406.59 382.599 1409.39 385.402 1412.85 385.402Z" fill="#F88600"/>
<path d="M1317.36 147.318C1318.85 147.318 1320.05 146.11 1320.05 144.62C1320.05 143.13 1318.85 141.922 1317.36 141.922C1315.87 141.922 1314.66 143.13 1314.66 144.62C1314.66 146.11 1315.87 147.318 1317.36 147.318Z" fill="#F88600"/>
<path d="M1013.29 22.0168C1015.74 22.0168 1017.72 20.0357 1017.72 17.5918C1017.72 15.148 1015.74 13.1669 1013.29 13.1669C1010.85 13.1669 1008.87 15.148 1008.87 17.5918C1008.87 20.0357 1010.85 22.0168 1013.29 22.0168Z" fill="#F88600"/>
<g clip-path="url(#clip1_2_39)">
<g opacity="0.4">
<path d="M640.246 229.088C640.118 229.215 640.118 229.469 639.991 229.597" stroke="#FEFEFC" stroke-width="2" stroke-linecap="round" stroke-linejoin="round"/>
<path d="M637.443 236.849C629.546 268.787 656.931 319.302 663.427 341.06C670.433 364.727 688.265 421.349 604.709 434.837C521.025 448.324 459.249 281.384 431.099 217.254C402.95 153.252 333.914 171.956 333.914 171.956C333.914 171.956 311.496 179.082 306.911 201.985C302.453 224.889 322.323 240.03 327.163 241.303C332.003 242.575 347.16 238.503 351.236 229.978C353.656 224.889 352.128 219.417 350.472 215.727" stroke="#FEFEFC" stroke-width="2" stroke-linecap="round" stroke-linejoin="round" stroke-dasharray="1 1"/>
<path d="M348.689 212.419C348.434 212.037 348.307 211.91 348.307 211.91" stroke="#FEFEFC" stroke-width="2" stroke-linecap="round" stroke-linejoin="round"/>
</g>
<path d="M345.505 241.303C363.584 241.303 378.239 226.662 378.239 208.602C378.239 190.541 363.584 175.901 345.505 175.901C327.426 175.901 312.77 190.541 312.77 208.602C312.77 226.662 327.426 241.303 345.505 241.303Z" fill="#A3B7C5"/>
<path d="M366.266 215.473C371.964 215.473 376.584 210.858 376.584 205.166C376.584 199.474 371.964 194.86 366.266 194.86C360.568 194.86 355.949 199.474 355.949 205.166C355.949 210.858 360.568 215.473 366.266 215.473Z" fill="#697C8C"/>
<path d="M364.738 224.889C366.637 224.889 368.177 223.35 368.177 221.453C368.177 219.556 366.637 218.018 364.738 218.018C362.839 218.018 361.299 219.556 361.299 221.453C361.299 223.35 362.839 224.889 364.738 224.889Z" fill="#697C8C"/>
<path d="M327.163 220.308C329.133 220.308 330.729 218.713 330.729 216.745C330.729 214.778 329.133 213.182 327.163 213.182C325.193 213.182 323.596 214.778 323.596 216.745C323.596 218.713 325.193 220.308 327.163 220.308Z" fill="#697C8C"/>
<path d="M324.361 186.589C324.361 190.788 327.8 194.223 332.003 194.223C336.206 194.223 339.645 190.788 339.645 186.589C339.645 182.39 336.206 178.954 332.003 178.954H331.876C329.583 180.1 327.29 181.372 325.252 183.026C324.743 184.044 324.361 185.189 324.361 186.589Z" fill="#697C8C"/>
<path d="M336.334 234.432C334.041 234.432 332.003 235.959 331.366 237.994C334.551 239.521 337.862 240.539 341.556 241.048C341.683 240.667 341.683 240.158 341.683 239.776C341.683 236.722 339.263 234.432 336.334 234.432Z" fill="#697C8C"/>
<path d="M649.671 173.483C651.582 172.592 646.996 172.338 646.742 171.447C646.742 171.447 644.576 170.938 641.519 169.666C638.462 168.266 631.584 161.904 631.584 156.814C631.584 151.725 633.877 142.436 638.335 137.347C642.666 132.384 648.015 129.839 648.015 129.839C648.015 129.839 643.812 112.789 645.213 100.574C646.614 88.3586 651.072 66.9821 658.969 67.8728C666.866 68.7635 662.536 88.7404 659.097 101.592C655.658 114.443 654.257 127.803 654.257 127.803C654.257 127.803 659.351 126.913 664.956 127.803C670.56 128.694 673.999 130.094 673.999 130.094C673.999 130.094 679.476 111.898 689.666 101.719C699.856 91.5397 710.428 80.9786 715.65 85.3048C720.873 89.631 711.574 100.447 705.588 105.918C699.601 111.389 689.411 119.406 685.718 123.986C682.024 128.567 679.094 133.529 679.094 133.529C679.094 133.529 686.609 138.746 689.284 147.399C691.832 156.051 690.685 166.103 687.883 170.048C685.081 173.992 679.094 176.155 676.037 175.773C673.49 175.519 662.536 176.41 662.536 176.41L649.671 173.483Z" fill="white"/>
<path d="M675.528 130.476C675.528 130.476 684.444 115.079 691.577 106.809C698.71 98.5379 707.244 92.5576 709.409 94.339C711.574 96.1204 703.168 103.755 695.398 111.135C687.628 118.515 677.566 132.13 677.566 132.13L675.528 130.476Z" fill="#DD00A1"/>
<path d="M649.799 129.203L651.836 128.058C651.836 128.058 654.257 111.644 656.04 101.719C657.823 91.7942 660.37 79.4517 657.059 79.07C653.747 78.6883 649.799 87.8497 648.907 101.719C648.015 115.588 649.799 129.203 649.799 129.203Z" fill="#DD00A1"/>
<path d="M639.099 163.558C641.139 163.558 642.793 161.906 642.793 159.868C642.793 157.83 641.139 156.178 639.099 156.178C637.059 156.178 635.405 157.83 635.405 159.868C635.405 161.906 637.059 163.558 639.099 163.558Z" fill="#F9D8D2"/>
<path d="M682.279 170.557C684.319 170.557 685.972 168.904 685.972 166.867C685.972 164.829 684.319 163.177 682.279 163.177C680.239 163.177 678.585 164.829 678.585 166.867C678.585 168.904 680.239 170.557 682.279 170.557Z" fill="#F9D8D2"/>
<path d="M666.867 164.067C666.739 163.94 666.484 163.94 666.357 164.067C666.357 164.067 664.956 165.721 663.427 165.594C662.026 165.467 661.007 164.195 660.753 163.813L661.262 161.013C662.408 160.632 664.319 159.232 664.319 158.596C664.446 157.832 663.682 156.433 661.772 156.051C659.861 155.669 658.332 156.814 658.205 157.832C658.078 158.723 659.861 160.504 660.37 161.013L659.988 163.813C659.734 164.067 658.587 164.958 657.314 164.703C655.785 164.449 655.021 162.286 655.021 162.159C654.893 162.031 654.766 161.904 654.511 161.904C654.384 162.031 654.257 162.159 654.257 162.413C654.257 162.54 655.148 165.085 657.186 165.34C658.587 165.594 659.734 164.831 660.243 164.449C660.625 164.958 661.644 166.103 663.045 166.358C663.173 166.358 663.173 166.358 663.3 166.358C665.338 166.485 666.867 164.576 666.867 164.576C666.994 164.322 666.994 164.194 666.867 164.067Z" fill="#10110E"/>
<path d="M647.888 129.967C647.888 129.967 644.831 115.97 644.831 108.844C644.831 101.719 645.85 90.14 648.525 82.6328C651.2 75.1255 652.473 72.5807 652.473 72.5807C652.473 72.5807 647.124 90.0128 646.742 98.029C646.359 106.045 647.888 129.967 647.888 129.967Z" fill="#E5E5E5"/>
<path d="M674.127 130.094C674.127 130.094 681.005 110.753 687.883 103.755C694.634 96.7566 702.913 88.3586 706.862 86.5773C710.683 84.6686 710.683 84.6686 710.683 84.6686C710.683 84.6686 694.506 96.8838 687.246 107.954C679.859 119.151 674.127 130.094 674.127 130.094Z" fill="#E5E5E5"/>
<path d="M648.397 149.18C646.869 148.926 645.34 149.943 645.086 151.598C644.831 153.124 645.85 154.651 647.506 154.906C649.034 155.16 650.563 154.142 650.817 152.488C651.072 150.961 650.053 149.434 648.397 149.18ZM648.779 151.979C648.397 151.852 648.015 151.47 648.143 151.089C648.27 150.707 648.652 150.325 649.034 150.452C649.416 150.58 649.798 150.961 649.671 151.343C649.671 151.725 649.289 151.979 648.779 151.979Z" fill="#10110E"/>
<path d="M676.674 153.761C675.146 153.506 673.617 154.524 673.363 156.178C673.108 157.705 674.127 159.232 675.783 159.487C677.311 159.741 678.84 158.723 679.094 157.069C679.222 155.415 678.203 154.015 676.674 153.761ZM677.056 156.433C676.674 156.306 676.292 155.924 676.419 155.542C676.547 155.16 676.929 154.779 677.311 154.906C677.693 155.033 678.075 155.415 677.948 155.797C677.821 156.306 677.438 156.56 677.056 156.433Z" fill="#10110E"/>
<path opacity="0.2" d="M688.909 159.774C690.612 149.229 680.114 138.766 665.461 136.404C650.808 134.042 637.549 140.675 635.846 151.22C634.142 161.765 644.64 172.228 659.293 174.59C673.946 176.952 687.206 170.319 688.909 159.774Z" fill="#8ACCCE"/>
<path d="M696.29 150.071L698.328 137.347C700.493 137.092 702.276 135.692 702.658 133.657C703.04 131.239 701.13 128.821 698.455 128.44C695.78 128.058 693.105 129.712 692.723 132.13C692.341 134.166 693.615 136.074 695.653 136.965L693.615 149.307H693.233C691.577 135.692 681.769 125.768 667.249 123.35C652.728 121.06 640.246 127.294 634.386 139.764L633.113 139.51C630.183 139.001 627.381 140.782 626.871 143.454L625.343 153.252C624.961 155.924 626.999 158.469 629.928 158.978L631.584 159.232C632.476 163.177 634.132 166.739 636.806 169.92L635.405 170.811L634.004 171.702C633.24 172.211 632.985 173.101 633.495 173.738C637.953 181.245 646.359 186.589 656.549 188.243C666.739 189.897 676.419 187.48 683.043 181.627C683.68 181.118 683.807 180.1 683.17 179.463L681.132 176.919C684.571 174.756 687.374 171.829 689.411 168.393L691.322 168.648C694.252 169.157 697.054 167.376 697.563 164.703L699.092 154.906C699.601 152.997 698.328 150.961 696.29 150.071ZM665.083 137.092C678.585 139.255 688.01 149.816 686.355 160.759C684.444 172.465 671.325 175.773 659.224 173.865C647.124 171.956 635.66 164.703 637.571 152.87C639.227 142.054 651.582 134.929 665.083 137.092Z" fill="white"/>
<path d="M696.799 163.94L691.322 163.049C691.449 162.159 691.704 161.395 691.832 160.377C692.468 156.56 692.596 152.997 692.468 149.434L694.761 149.816C697.054 150.198 698.582 152.107 698.2 154.142L696.799 163.94Z" fill="#CECECE"/>
<path d="M692.468 167.376L689.921 166.994C690.685 165.34 691.322 163.431 691.959 161.65L697.181 162.54L696.799 164.703C696.417 166.485 694.506 167.63 692.468 167.376Z" fill="#CECECE"/>
<path d="M631.075 139.128L633.113 139.51C632.094 142.309 631.202 145.363 630.693 148.417C630.565 149.18 630.438 149.816 630.438 150.707L625.852 149.943L627.126 141.673C627.381 139.891 629.164 138.873 631.075 139.128Z" fill="#CECECE"/>
<path d="M665.083 135.565C661.517 135.056 657.95 135.056 654.639 135.565L656.677 123.096C659.988 122.587 663.427 122.587 666.994 123.223C670.688 123.859 673.872 124.877 676.929 126.404L674.891 138.873C671.961 137.347 668.65 136.201 665.083 135.565Z" fill="#F8B600"/>
<path d="M655.785 125.768L654.129 135.692C644.576 137.601 637.061 143.963 635.66 152.616C633.877 163.686 643.175 172.974 658.842 175.519C674.509 178.064 686.227 172.338 688.01 161.141C689.412 152.488 684.317 144.09 675.783 139.255L677.438 129.33C687.374 134.802 692.468 145.617 690.303 158.596C687.883 173.229 675.146 181.245 658.333 178.446C641.519 175.773 631.966 164.067 634.259 149.435C636.424 136.583 644.576 127.931 655.785 125.768Z" fill="#CECECE"/>
<path d="M625.852 149.943L630.31 150.707C630.056 153.506 629.928 156.306 629.928 158.978L627.636 158.596C625.852 158.341 624.833 155.924 625.216 153.252L625.852 149.943Z" fill="#CECECE"/>
<path d="M701.668 133.514C701.982 131.571 700.491 129.715 698.338 129.368C696.185 129.021 694.186 130.314 693.872 132.257C693.558 134.199 695.049 136.055 697.202 136.402C699.355 136.749 701.354 135.456 701.668 133.514Z" fill="#CECECE"/>
<path d="M634.514 171.574C634.514 171.574 626.617 175.01 622.286 178.954C617.955 182.772 613.37 188.625 611.841 193.714C610.313 198.931 612.096 200.331 613.243 201.476C614.389 202.621 618.847 204.276 624.451 199.568C629.928 194.86 628.909 195.241 628.909 195.241C628.909 195.241 627.508 207.584 628.527 215.854C629.546 224.125 631.075 236.213 638.717 236.849C646.232 237.486 645.977 229.342 646.614 227.561C647.251 225.779 649.289 225.27 650.818 225.525C652.346 225.779 655.148 226.416 655.148 230.742C655.148 235.195 651.837 238.376 658.969 240.03C666.102 241.684 670.688 232.65 675.528 222.598C680.368 212.546 682.533 202.367 682.533 202.367C682.533 202.367 697.181 194.86 702.276 189.643C707.371 184.426 711.32 180.99 709.791 176.028C708.263 171.066 703.168 170.684 698.582 172.083C693.997 173.483 684.699 177.173 684.699 177.173L682.151 178.318L682.406 181.245C682.406 181.245 669.796 190.152 658.587 187.861C647.378 185.571 637.443 176.919 637.443 176.919L634.514 171.574Z" fill="white"/>
<path d="M625.343 176.41C625.343 176.41 622.795 178.064 621.522 179.336C620.758 180.1 617.955 182.899 617.955 182.899C617.955 182.899 620.121 186.589 621.777 186.589C623.432 186.589 624.706 184.808 626.107 183.662C627.508 182.517 628.273 182.136 628.655 180.736C628.909 179.591 625.343 176.41 625.343 176.41Z" fill="#DD00A1"/>
<path d="M684.953 176.791L693.233 173.738C693.233 173.738 696.544 175.646 696.29 176.41C696.035 177.3 692.596 178.827 691.704 179.082C690.813 179.336 689.412 180.227 688.52 180.1C687.756 179.845 684.953 176.791 684.953 176.791Z" fill="#DD00A1"/>
<path d="M665.465 202.749L665.083 205.166L680.113 211.019L680.75 208.729L665.465 202.749Z" fill="black"/>
<path d="M644.067 199.313L643.685 201.731L628.145 202.621L628.273 200.331L644.067 199.313Z" fill="black"/>
<path d="M665.083 205.166L662.281 209.238L650.818 208.475C650.818 208.475 656.677 211.91 660.88 212.165C665.083 212.419 663.81 210.256 666.102 209.238C668.395 208.22 680.113 211.019 680.113 211.019" fill="#CECECE"/>
<path d="M647.888 193.842L664.064 196.387C664.064 196.387 665.083 197.023 665.465 197.532C665.848 198.168 665.975 199.059 665.975 199.059L664.446 208.856C664.446 208.856 663.937 210.001 663.427 210.383C662.791 210.765 661.899 211.147 661.899 211.147L645.595 208.474C645.595 208.474 644.576 208.22 644.067 207.457C643.557 206.693 643.303 205.675 643.303 205.675L644.831 195.369C644.831 195.369 644.958 194.478 646.232 193.969C646.869 193.842 647.888 193.842 647.888 193.842Z" fill="#F8B600"/>
<path d="M661.389 202.367L648.652 200.331C648.27 200.204 647.888 199.822 648.015 199.44L648.143 199.059C648.27 198.677 648.652 198.295 649.034 198.422L661.772 200.458C662.154 200.586 662.536 200.967 662.408 201.349L662.281 201.731C662.154 202.112 661.772 202.494 661.389 202.367Z" fill="white"/>
<path d="M654.002 207.075C654.776 207.075 655.403 206.448 655.403 205.675C655.403 204.902 654.776 204.276 654.002 204.276C653.228 204.276 652.601 204.902 652.601 205.675C652.601 206.448 653.228 207.075 654.002 207.075Z" fill="white"/>
<path d="M659.479 207.838C660.253 207.838 660.88 207.212 660.88 206.439C660.88 205.666 660.253 205.039 659.479 205.039C658.705 205.039 658.078 205.666 658.078 206.439C658.078 207.212 658.705 207.838 659.479 207.838Z" fill="white"/>
<path d="M648.397 206.057C649.171 206.057 649.799 205.43 649.799 204.657C649.799 203.884 649.171 203.258 648.397 203.258C647.624 203.258 646.996 203.884 646.996 204.657C646.996 205.43 647.624 206.057 648.397 206.057Z" fill="white"/>
<path d="M656.804 185.826C646.742 184.171 638.335 179.082 633.622 171.829L636.807 169.793C641.774 174.628 648.907 178.191 657.696 179.591C666.484 180.99 674.764 180.227 681.132 177.173L683.425 179.718C676.802 185.189 666.867 187.48 656.804 185.826Z" fill="#CECECE"/>
<path d="M655.912 195.75C655.912 195.75 648.525 194.478 648.143 194.478C647.761 194.478 646.487 194.351 645.977 194.86C645.468 195.369 645.341 195.496 645.341 195.878C645.213 196.259 644.322 201.985 644.322 201.985C644.322 201.985 645.595 196.514 646.614 195.623C648.015 194.732 655.912 195.75 655.912 195.75Z" fill="#D69A03"/>
<path d="M696.162 135.311L693.742 150.961L698.073 135.565L696.162 135.311Z" fill="#CECECE"/>
<path d="M642.793 202.112L628.018 202.749C628.018 202.749 627.381 211.401 628.527 218.145C629.674 224.889 630.947 230.36 632.094 232.014C633.113 233.668 632.476 230.996 635.66 229.342C638.844 227.688 639.227 227.561 639.227 227.561C639.227 227.561 632.985 215.6 633.622 210.765C634.259 205.93 642.793 202.112 642.793 202.112Z" fill="#CECECE"/>
<path d="M628.782 195.241L633.495 190.788C633.495 190.788 631.839 196.768 632.985 197.786C634.132 198.804 643.303 199.313 643.303 199.313L628.273 200.204L628.782 195.241Z" fill="#CECECE"/>
<path d="M655.912 123.223C655.912 123.223 647.506 123.732 641.01 130.348C634.514 136.965 634.259 139.637 634.259 139.637C634.259 139.637 632.221 146.635 631.966 152.616C631.712 158.596 632.094 165.721 637.571 170.429C643.048 175.137 654.002 180.354 664.829 180.1C675.783 179.845 676.929 178.827 676.929 178.827C676.929 178.827 651.072 178.954 642.666 171.32C634.259 163.686 634.769 158.469 635.405 152.616C636.17 146.762 638.462 139.51 643.812 137.474C649.289 135.438 654.002 134.547 654.002 134.547L655.912 123.223Z" fill="#CECECE"/>
<path d="M682.151 202.367L682.916 198.041C682.916 198.041 694.379 192.569 699.601 189.77C704.696 186.971 705.461 186.207 705.461 186.207C705.461 186.207 698.71 193.078 692.596 196.641C686.482 200.077 682.151 202.367 682.151 202.367Z" fill="#CECECE"/>
<path d="M652.091 225.907C652.091 225.907 653.365 225.907 654.002 227.433C654.639 228.96 654.766 232.269 654.766 232.269C654.766 232.269 656.549 231.632 659.224 232.014C661.899 232.396 663.3 233.541 663.3 233.541C663.3 233.541 660.37 229.088 658.587 226.797C656.804 224.507 652.091 225.907 652.091 225.907Z" fill="#CECECE"/>
<path d="M619.739 185.444L618.083 183.153C618.083 183.153 613.752 188.752 612.733 191.297C611.714 193.842 611.332 195.623 611.332 195.623C611.332 195.623 616.172 185.317 619.739 185.444Z" fill="#CECECE"/>
<path d="M634.514 171.574L625.343 176.41L626.871 177.937L635.533 173.61L634.514 171.574Z" fill="#CECECE"/>
<path d="M625.343 176.41L622.668 178.446L617.955 183.026L619.484 185.317L626.871 177.937L625.343 176.41Z" fill="#B20088"/>
<path d="M674.636 179.336C674.636 179.336 664.064 180.99 657.441 179.463C650.818 177.937 642.793 174.119 640.882 172.974C638.972 171.829 638.08 170.938 638.08 170.938L636.424 170.684L635.915 171.193C635.915 171.193 639.481 175.01 646.36 177.682C653.238 180.481 659.479 182.136 665.465 181.499C671.579 180.99 674.636 179.336 674.636 179.336Z" fill="#B20088"/>
</g>
</g>
<defs>
<clipPath id="clip0_2_39">
<rect width="1475" height="463" fill="white"/>
</clipPath>
<clipPath id="clip1_2_39">
<rect width="416" height="369" fill="white" transform="translate(305 68)"/>
</clipPath>
</defs>
</svg>
