<svg xmlns="http://www.w3.org/2000/svg" viewBox="0 0 135.86 62.44"><defs><style>.cls-1{fill:#fff;}</style></defs><g id="Layer_2" data-name="Layer 2"><g id="Layer_3" data-name="Layer 3"><path class="cls-1" d="M14.24,55.36c.92-.61-1.49-.38-1.69-.79a15.24,15.24,0,0,1-2.86-.51C8,53.62,3.9,50.87,3.47,48.25s0-7.65,1.83-10.61A17.2,17.2,0,0,1,9.69,33s-3.57-8.49-3.88-14.9S6,.21,10.2,0s3.57,10.48,2.86,17.43a90,90,0,0,0-.21,13.89,19.33,19.33,0,0,1,5.51-.92,21.12,21.12,0,0,1,4.9.46S24.58,21,29,14.9s9-12.46,12-10.67-.81,8.19-3.46,11.52-7.25,8.33-8.78,11a46.59,46.59,0,0,0-2.65,5.51,15,15,0,0,1,6.4,6.32c2.07,4.28,2.27,9.59,1.15,11.83a8.07,8.07,0,0,1-5.61,4c-1.33.06-6.91,1.45-6.91,1.45Z"/><path d="M10.64,32.44l.95-.75s-.13-8.7,0-14S12,5.78,10.23,5.85,7.24,11,7.92,18.23A87.47,87.47,0,0,0,10.64,32.44Z"/><path d="M24,30.94s3.33-8.7,6.32-13.6,6-8.84,7.21-8.09-1.52,5.58-4.87,10.07a111.72,111.72,0,0,0-7.44,12.37Z"/><path d="M22.33,49a.18.18,0,0,0-.26.07s-.57,1-1.41,1.06a2.09,2.09,0,0,1-1.5-.7V48c.54-.29,1.41-1.19,1.41-1.5a1.4,1.4,0,0,0-1.5-1.09c-1,0-1.7.65-1.7,1.19s1.1,1.23,1.41,1.44v1.45a1.79,1.79,0,0,1-1.3.7c-.8,0-1.4-1.08-1.4-1.09a.19.19,0,0,0-.26-.08.18.18,0,0,0-.07.25c0,.06.71,1.29,1.73,1.29a2.11,2.11,0,0,0,1.5-.72,2.47,2.47,0,0,0,1.59.73h.12a2.49,2.49,0,0,0,1.71-1.25A.18.18,0,0,0,22.33,49Z"/><path d="M11.6,42.86a1.52,1.52,0,1,0,1.52,1.51A1.52,1.52,0,0,0,11.6,42.86ZM12,44.27a.42.42,0,1,1,.42-.42A.42.42,0,0,1,12,44.27Z"/><path d="M26.55,42.86a1.52,1.52,0,1,0,1.51,1.51A1.52,1.52,0,0,0,26.55,42.86ZM27,44.27a.42.42,0,1,1,.41-.42A.41.41,0,0,1,27,44.27Z"/><path class="cls-1" d="M36.43,39.3V32.58a2.46,2.46,0,0,0,1.91-2.29,2.65,2.65,0,0,0-5.27,0A2.47,2.47,0,0,0,35,32.58v6.55H34.8c-2-6.94-7.91-11.25-15.63-11.25S5.51,32.15,3.55,39.13H2.88A2.75,2.75,0,0,0,0,41.71v5.17a2.75,2.75,0,0,0,2.88,2.59h.91a13,13,0,0,0,3.59,5.08L6.09,55.72A.79.79,0,0,0,6,56.84c2.93,3.53,7.72,5.6,13.13,5.6s10.21-2,13.14-5.6a.79.79,0,0,0-.1-1.12l-1.29-1.17a13.18,13.18,0,0,0,3.59-5.08h1a2.74,2.74,0,0,0,2.87-2.59V41.71A2.59,2.59,0,0,0,36.43,39.3Zm-17.26-4c7.14,0,12.94,4.7,12.94,10.47,0,6.25-6.51,9.05-12.94,9.05S6.23,52,6.23,45.72C6.23,40,12,35.25,19.17,35.25Z"/><path d="M36.91,45.16H35c0-.3,0-.6,0-.95a19.32,19.32,0,0,0-.39-3.79h.82a1.35,1.35,0,0,1,1.44,1.29Z"/><path d="M35.47,48.18h-1A15.29,15.29,0,0,0,34.89,46h2v.86A1.35,1.35,0,0,1,35.47,48.18Z"/><path d="M19.17,61.1c-4.79,0-9.06-1.72-11.74-4.78l1.34-1.21a17.82,17.82,0,0,0,10.4,3,17.79,17.79,0,0,0,10.4-3l1.35,1.21C28.23,59.38,24,61.1,19.17,61.1Z"/><path d="M2.88,40.42h.86a19.64,19.64,0,0,0-.38,3.79,7.87,7.87,0,0,0,0,.95H1.49V41.71A1.27,1.27,0,0,1,2.88,40.42Z"/><path d="M19.17,34.39a17.32,17.32,0,0,0-4.79.69V29.86a17.12,17.12,0,0,1,4.79-.64,17.14,17.14,0,0,1,4.8.64v5.26A16,16,0,0,0,19.17,34.39Z"/><path d="M13.42,30.16v5.26c-4.79,1.77-8.15,5.73-8.15,10.3,0,5.9,5.61,9.91,13.9,9.91s13.9-4,13.9-9.91c0-4.57-3.35-8.53-8.15-10.3V30.16c5.61,2,9.11,7.2,9.11,14.1,0,7.75-5.94,13-14.86,13S4.31,52,4.31,44.21C4.31,37.36,7.81,32.19,13.42,30.16Z"/><path d="M1.44,46h2a16.85,16.85,0,0,0,.43,2.16h-1a1.35,1.35,0,0,1-1.44-1.3Z"/><ellipse cx="35.71" cy="30.29" rx="1.2" ry="1.08"/><path class="cls-1" d="M65.39,37.31H59.57V32a1.4,1.4,0,0,0-1.4-1.4h-.06A1.39,1.39,0,0,0,56.72,32v5.3H55a1.36,1.36,0,0,0-1.36,1.36h0A1.36,1.36,0,0,0,55,40h1.7V52.71a6.55,6.55,0,0,0,1.54,4.61A5.79,5.79,0,0,0,62.71,59a8.08,8.08,0,0,0,3.4-.73,1,1,0,0,0,.54-.89v-.85a1,1,0,0,0-.47-.85,1,1,0,0,0-1-.05,5.47,5.47,0,0,1-2.5.59,2.9,2.9,0,0,1-2.36-.85,4.16,4.16,0,0,1-.78-2.75V40h5.82a1.34,1.34,0,0,0,1.34-1.34v-.05A1.34,1.34,0,0,0,65.39,37.31Z"/><path class="cls-1" d="M79.93,36.84a8.22,8.22,0,0,0-3.33.67A9.29,9.29,0,0,0,74,39.22a9.91,9.91,0,0,0-1,1.13V38.72a1.41,1.41,0,0,0-1.41-1.41h0a1.42,1.42,0,0,0-1.42,1.41V57.26a1.41,1.41,0,0,0,1.41,1.41h0A1.41,1.41,0,0,0,73,57.26V47.64A8.14,8.14,0,0,1,73.46,45a9.18,9.18,0,0,1,1.4-2.64,7.75,7.75,0,0,1,2.17-2,5,5,0,0,1,2.72-.74h.19a1,1,0,0,0,1-1v-.78A1,1,0,0,0,79.93,36.84Z"/><path class="cls-1" d="M85.75,37.31h0a1.42,1.42,0,0,0-1.42,1.42V57.28a1.39,1.39,0,0,0,1.39,1.39h.07a1.39,1.39,0,0,0,1.39-1.39V38.73A1.41,1.41,0,0,0,85.75,37.31Z"/><path class="cls-1" d="M107.94,39.62a8,8,0,0,0-2.89-2.06,9.77,9.77,0,0,0-3.86-.72,9,9,0,0,0-3.46.64,9.18,9.18,0,0,0-2.58,1.61c-.26.24-.5.48-.73.73V38.71a1.4,1.4,0,0,0-1.4-1.4h0a1.4,1.4,0,0,0-1.4,1.4V57.28A1.39,1.39,0,0,0,93,58.67H93a1.39,1.39,0,0,0,1.39-1.39V46.94A7.76,7.76,0,0,1,95,44.06a7.61,7.61,0,0,1,1.45-2.35,6.52,6.52,0,0,1,2.1-1.55,6.19,6.19,0,0,1,2.59-.54,7.14,7.14,0,0,1,2.8.51,5.41,5.41,0,0,1,2,1.41A6.09,6.09,0,0,1,107,43.75a10.34,10.34,0,0,1,.42,3v10.5a1.38,1.38,0,0,0,1.38,1.38h.09a1.38,1.38,0,0,0,1.38-1.38V46.71a12.71,12.71,0,0,0-.59-4A9,9,0,0,0,107.94,39.62Z"/><path class="cls-1" d="M135.07,43.69a10.41,10.41,0,0,0-2.26-3.54,11,11,0,0,0-3.51-2.41,11.73,11.73,0,0,0-9.06,0,10.65,10.65,0,0,0-5.73,6,11.53,11.53,0,0,0-.79,4.3,11.32,11.32,0,0,0,.79,4.23,10.46,10.46,0,0,0,2.26,3.53,10.93,10.93,0,0,0,8,3.31,11.28,11.28,0,0,0,4.54-.9,10.69,10.69,0,0,0,3.51-2.44,10.94,10.94,0,0,0,2.23-3.56,11.58,11.58,0,0,0,.79-4.33A11.42,11.42,0,0,0,135.07,43.69ZM124.83,56.36a8.33,8.33,0,0,1-3.34-.65,8.08,8.08,0,0,1-2.6-1.8,7.85,7.85,0,0,1-1.71-2.65,8.86,8.86,0,0,1-.61-3.31,9,9,0,0,1,.59-3.24,7.86,7.86,0,0,1,4.25-4.44,8.85,8.85,0,0,1,6.66,0,8.18,8.18,0,0,1,2.62,1.79,8,8,0,0,1,1.71,2.66A8.86,8.86,0,0,1,133,48a9,9,0,0,1-.59,3.24,7.91,7.91,0,0,1-1.67,2.65,8.12,8.12,0,0,1-2.58,1.79A8.36,8.36,0,0,1,124.83,56.36Z"/><circle class="cls-1" cx="85.77" cy="32.76" r="1.62"/></g></g></svg>