<svg xmlns="http://www.w3.org/2000/svg" viewBox="0 0 134.77 62.94"><defs><style>.cls-1{fill:#fff;}</style></defs><g id="Layer_2" data-name="Layer 2"><g id="Layer_3" data-name="Layer 3"><path class="cls-1" d="M14.24,55.87c.92-.61-1.49-.38-1.69-.79a16.32,16.32,0,0,1-2.86-.51c-1.7-.45-4.44-3.51-4.88-6.13s-1.34-7.34.49-10.3a17.38,17.38,0,0,1,4.39-4.69S6.12,25,5.81,18.55,6,.71,10.2.51,13.77,11,13.06,17.93a90,90,0,0,0-.21,13.89,19.75,19.75,0,0,1,5.51-.92,21.12,21.12,0,0,1,4.9.46s1.32-9.84,5.71-16S37.94,3,41,4.74s-.81,8.18-3.46,11.51-7.25,8.33-8.78,11a46.59,46.59,0,0,0-2.65,5.51,15,15,0,0,1,6.4,6.32c2.07,4.29.92,9.29-.2,11.54s-2.7,4.21-4.26,4.27c-1.33.06-6.91,1.45-6.91,1.45Z"/><path d="M21.18,56.83l-8.44-.56.63-.43a2.43,2.43,0,0,1-1-.28,18.33,18.33,0,0,1-2.77-.51c-1.9-.5-4.78-3.75-5.24-6.53l-.07-.38C3.8,45.42,3,40.86,4.88,37.88a17.84,17.84,0,0,1,4.2-4.6c-.7-1.72-3.49-9-3.77-14.71C5.22,16.7,4.6.28,10.17,0a2.52,2.52,0,0,1,2.06.84c1.87,2,2.3,7.58,1.32,17.13a90.5,90.5,0,0,0-.24,13.18,20.21,20.21,0,0,1,5-.76,24.29,24.29,0,0,1,4.49.36c.35-2.16,1.85-10.25,5.72-15.65C33.09,8.79,37.77,2.27,41.26,4.3a2.66,2.66,0,0,1,1.3,1.9c.67,3.57-4.09,9.68-4.63,10.36-.88,1.1-1.94,2.36-3.07,3.69a65.3,65.3,0,0,0-5.66,7.23,45.08,45.08,0,0,0-2.45,5A15.2,15.2,0,0,1,33,38.85c2.25,4.65.85,9.87-.2,12-.67,1.34-2.46,4.46-4.69,4.55-1,.05-5.27,1.05-6.81,1.44Zm-6.27-1.42,6.18.41A70.78,70.78,0,0,1,28,54.37c1.16,0,2.63-1.58,3.83-4,1.14-2.27,2.13-7.1.2-11.09a14.54,14.54,0,0,0-6.16-6.09l-.42-.2.17-.43A45.13,45.13,0,0,1,28.33,27a67.47,67.47,0,0,1,5.76-7.38c1.13-1.32,2.19-2.57,3.06-3.66,2.5-3.15,4.85-7.33,4.43-9.56a1.64,1.64,0,0,0-.83-1.21C38,3.58,33.24,10.3,29.37,15.69c-4.26,6-5.61,15.64-5.62,15.74l-.07.55-.55-.13a20.79,20.79,0,0,0-4.76-.45,19,19,0,0,0-5.35.89l-.62.22-.05-.65a93,93,0,0,1,.21-14c.93-9.12.58-14.62-1.06-16.35A1.64,1.64,0,0,0,10.22,1c-3.1.16-4.32,8.93-3.91,17.52.3,6.26,3.81,14.65,3.84,14.74l.16.38-.34.23a16.66,16.66,0,0,0-4.24,4.54c-1.65,2.66-.92,7-.49,9.57l.06.38c.43,2.53,3.11,5.36,4.52,5.72a15,15,0,0,0,2.76.5l.28,0,.08.16c.15,0,.48.08.69.11C14.25,54.94,14.75,55,14.91,55.41Z"/><path d="M10.64,32.94l.95-.75s-.13-8.7,0-14S12,6.29,10.23,6.35s-3,5.17-2.31,12.38A87.47,87.47,0,0,0,10.64,32.94Z"/><path d="M24,31.45s3.33-8.71,6.32-13.6,6.76-8.13,8-7.38-2.29,4.86-5.64,9.35a112.7,112.7,0,0,0-7.44,12.37Z"/><path d="M22.33,49.51a.19.19,0,0,0-.26.07s-.57,1-1.41,1.06a2.09,2.09,0,0,1-1.5-.7V48.46c.54-.3,1.41-1.2,1.41-1.51a1.41,1.41,0,0,0-1.5-1.09c-1,0-1.7.65-1.7,1.19s1.1,1.23,1.41,1.44V50a1.79,1.79,0,0,1-1.3.69c-.8,0-1.4-1.08-1.4-1.09a.2.2,0,0,0-.26-.08.19.19,0,0,0-.07.26c0,.05.71,1.28,1.73,1.28a2.11,2.11,0,0,0,1.5-.72,2.42,2.42,0,0,0,1.59.73h.12a2.49,2.49,0,0,0,1.71-1.25A.18.18,0,0,0,22.33,49.51Z"/><path d="M11.6,43.36a1.52,1.52,0,1,0,1.52,1.52A1.52,1.52,0,0,0,11.6,43.36ZM12,44.77a.42.42,0,1,1,.42-.41A.42.42,0,0,1,12,44.77Z"/><path d="M26.55,43.36a1.52,1.52,0,1,0,1.51,1.52A1.52,1.52,0,0,0,26.55,43.36ZM27,44.77a.42.42,0,1,1,.41-.41A.41.41,0,0,1,27,44.77Z"/><path d="M36.43,39.8V33.08a2.45,2.45,0,0,0,1.91-2.28,2.65,2.65,0,0,0-5.27,0A2.46,2.46,0,0,0,35,33.08v6.55H34.8c-2-6.94-7.91-11.25-15.63-11.25S5.51,32.65,3.55,39.63H2.88A2.75,2.75,0,0,0,0,42.22v5.17A2.75,2.75,0,0,0,2.88,50h.91a13.06,13.06,0,0,0,3.59,5.09L6.09,56.22A.79.79,0,0,0,6,57.34c2.93,3.53,7.72,5.6,13.13,5.6s10.21-2,13.14-5.6a.79.79,0,0,0-.1-1.12l-1.29-1.16A13.21,13.21,0,0,0,34.46,50h1a2.74,2.74,0,0,0,2.87-2.58V42.22A2.6,2.6,0,0,0,36.43,39.8Zm-17.26-4c7.14,0,12.94,4.7,12.94,10.47,0,6.25-6.51,9.05-12.94,9.05S6.23,52.47,6.23,46.22C6.23,40.45,12,35.75,19.17,35.75Z"/><path class="cls-1" d="M36.91,45.66H35c0-.3,0-.6,0-.95a19.32,19.32,0,0,0-.39-3.79h.82a1.35,1.35,0,0,1,1.44,1.3Z"/><path class="cls-1" d="M35.47,48.68h-1a15,15,0,0,0,.43-2.16h2v.87A1.35,1.35,0,0,1,35.47,48.68Z"/><path class="cls-1" d="M19.17,61.61c-4.79,0-9.06-1.73-11.74-4.79l1.34-1.2a17.89,17.89,0,0,0,10.4,3,17.86,17.86,0,0,0,10.4-3l1.35,1.2C28.23,59.88,24,61.61,19.17,61.61Z"/><path class="cls-1" d="M2.88,40.92h.86a19.64,19.64,0,0,0-.38,3.79,7.79,7.79,0,0,0,0,.95H1.49V42.22A1.27,1.27,0,0,1,2.88,40.92Z"/><path class="cls-1" d="M19.17,34.89a17.32,17.32,0,0,0-4.79.69V30.37a16.76,16.76,0,0,1,4.79-.65,16.78,16.78,0,0,1,4.8.65v5.25A16,16,0,0,0,19.17,34.89Z"/><path class="cls-1" d="M13.42,30.67v5.25c-4.79,1.77-8.15,5.74-8.15,10.3,0,5.91,5.61,9.91,13.9,9.91s13.9-4,13.9-9.91c0-4.56-3.35-8.53-8.15-10.3V30.67c5.61,2,9.11,7.19,9.11,14.09,0,7.75-5.94,13-14.86,13s-14.86-5.22-14.86-13C4.31,37.86,7.81,32.69,13.42,30.67Z"/><path class="cls-1" d="M1.44,46.52h2a16.51,16.51,0,0,0,.43,2.16h-1a1.34,1.34,0,0,1-1.44-1.29Z"/><ellipse class="cls-1" cx="35.71" cy="30.8" rx="1.2" ry="1.08"/><path d="M64.3,36.76H58.48v-5.3a1.4,1.4,0,0,0-1.4-1.4H57a1.4,1.4,0,0,0-1.39,1.4v5.3h-1.7a1.36,1.36,0,0,0-1.36,1.36h0a1.36,1.36,0,0,0,1.36,1.37h1.7V52.17a6.57,6.57,0,0,0,1.54,4.61,5.82,5.82,0,0,0,4.45,1.69,7.93,7.93,0,0,0,3.4-.73,1,1,0,0,0,.55-.89V56a1,1,0,0,0-1.45-.89,5.6,5.6,0,0,1-2.5.59,2.93,2.93,0,0,1-2.36-.85,4.19,4.19,0,0,1-.78-2.76V39.5H64.3a1.35,1.35,0,0,0,1.34-1.35v0A1.34,1.34,0,0,0,64.3,36.76Z"/><path d="M78.84,36.29a8.39,8.39,0,0,0-3.33.67,9.1,9.1,0,0,0-2.61,1.72,9.82,9.82,0,0,0-1,1.12V38.17a1.41,1.41,0,0,0-1.41-1.41h0A1.41,1.41,0,0,0,69,38.17V56.71a1.41,1.41,0,0,0,1.4,1.41h0a1.41,1.41,0,0,0,1.41-1.41V47.09a8.18,8.18,0,0,1,.49-2.66,9.18,9.18,0,0,1,1.4-2.64,7.9,7.9,0,0,1,2.17-2,5,5,0,0,1,2.72-.74h.2a1,1,0,0,0,1-1v-.78A1,1,0,0,0,78.84,36.29Z"/><path d="M84.66,36.76h0a1.43,1.43,0,0,0-1.42,1.42V56.73a1.39,1.39,0,0,0,1.39,1.39h.07a1.39,1.39,0,0,0,1.39-1.39V38.18A1.42,1.42,0,0,0,84.66,36.76Z"/><path d="M106.85,39.07A8.07,8.07,0,0,0,104,37a10,10,0,0,0-3.86-.72,8.74,8.74,0,0,0-6,2.26,9.93,9.93,0,0,0-.73.72V38.16a1.4,1.4,0,0,0-1.4-1.4h-.05a1.4,1.4,0,0,0-1.4,1.4V56.73a1.39,1.39,0,0,0,1.39,1.39h.07a1.39,1.39,0,0,0,1.39-1.39V46.4a7.78,7.78,0,0,1,.53-2.89,7.61,7.61,0,0,1,1.45-2.35,6.34,6.34,0,0,1,2.1-1.54,6,6,0,0,1,2.59-.55,7,7,0,0,1,2.8.52,5.39,5.39,0,0,1,2,1.4,6.17,6.17,0,0,1,1.19,2.21,10.34,10.34,0,0,1,.42,3v10.5a1.38,1.38,0,0,0,1.38,1.38h.09a1.38,1.38,0,0,0,1.38-1.38V46.16a12.6,12.6,0,0,0-.59-3.95A9,9,0,0,0,106.85,39.07Z"/><path d="M134,43.15a10.63,10.63,0,0,0-2.27-3.55,11,11,0,0,0-3.51-2.41,11.28,11.28,0,0,0-4.51-.9,10.87,10.87,0,0,0-8,3.38,10.83,10.83,0,0,0-2.23,3.56,11.44,11.44,0,0,0-.79,4.29,11.57,11.57,0,0,0,.79,4.24,10.42,10.42,0,0,0,2.26,3.52,10.93,10.93,0,0,0,8,3.31,11.2,11.2,0,0,0,4.55-.9,10.6,10.6,0,0,0,3.5-2.44A11.09,11.09,0,0,0,134,51.7a11.83,11.83,0,0,0,.78-4.34A11.56,11.56,0,0,0,134,43.15ZM123.74,55.81a8.33,8.33,0,0,1-3.34-.65,8.16,8.16,0,0,1-2.6-1.79,8,8,0,0,1-1.71-2.66,8.86,8.86,0,0,1-.61-3.31,9,9,0,0,1,.59-3.24,8,8,0,0,1,1.67-2.65,8.12,8.12,0,0,1,2.58-1.79,8.85,8.85,0,0,1,6.66,0,8.18,8.18,0,0,1,2.62,1.79,8,8,0,0,1,1.71,2.66,8.86,8.86,0,0,1,.61,3.31,9,9,0,0,1-.59,3.24,7.91,7.91,0,0,1-1.67,2.65,7.81,7.81,0,0,1-2.58,1.79A8.36,8.36,0,0,1,123.74,55.81Z"/><circle cx="84.69" cy="32.22" r="1.62"/></g></g></svg>